<svg version="1.1" viewBox="0 0 24 24" xmlns="http://www.w3.org/2000/svg" xmlns:xlink="http://www.w3.org/1999/xlink"><path d="m12 5.5a3.5 3.5 0 0 1 3.5 3.5 3.5 3.5 0 0 1-3.5 3.5 3.5 3.5 0 0 1-3.5-3.5 3.5 3.5 0 0 1 3.5-3.5m-7 2.5c0.56 0 1.08 0.15 1.53 0.42-0.15 1.43 0.27 2.85 1.13 3.96-0.5 0.96-1.5 1.62-2.66 1.62a3 3 0 0 1-3-3 3 3 0 0 1 3-3m14 0a3 3 0 0 1 3 3 3 3 0 0 1-3 3c-1.16 0-2.16-0.66-2.66-1.62 0.86-1.11 1.28-2.53 1.13-3.96 0.45-0.27 0.97-0.42 1.53-0.42m-13.5 10.25c0-2.07 2.91-3.75 6.5-3.75s6.5 1.68 6.5 3.75v1.75h-13v-1.75m-5.5 1.75v-1.5c0-1.39 1.89-2.56 4.45-2.9-0.59 0.68-0.95 1.62-0.95 2.65v1.75h-3.5m24 0h-3.5v-1.75c0-1.03-0.36-1.97-0.95-2.65 2.56 0.34 4.45 1.51 4.45 2.9v1.5z" fill="#fff"/></svg>
