<svg xmlns="http://www.w3.org/2000/svg" width="252" height="72" fill="none"><path fill="url(#a)" d="M24.711 49.158c-1.552-3.116 8.626-21.57 11.788-21.57 3.167.002 13.323 18.488 11.788 21.57-1.535 3.081-22.025 3.115-23.577 0z"/><path fill="url(#a)" fill-rule="evenodd" d="M.98 64.996C-3.695 55.606 26.977.001 36.5.001c9.533 0 40.153 55.713 35.527 64.995s-66.368 9.391-71.045 0m12.255-8.148c3.065 6.152 43.518 6.084 46.548 0 3.03-6.086-17.033-42.587-23.275-42.587S10.17 50.695 13.234 56.848z" clip-rule="evenodd"/><path fill="#FFF" d="M143.24 14.254c-.28 0-.418 0-.525.055a.5.5 0 0 0-.221.218c-.054.107-.053.248-.053.528V55.2c0 .28 0 .42.053.527.048.094.127.17.22.219.108.054.246.055.526.055h5.625c.28 0 .42-.001.527-.055a.5.5 0 0 0 .22-.219c.053-.107.054-.247.054-.527V15.055c0-.28 0-.42-.055-.528a.5.5 0 0 0-.219-.218c-.107-.055-.247-.055-.527-.055zm11.621 0c-.28 0-.42 0-.527.055a.5.5 0 0 0-.22.218c-.053.107-.054.248-.054.528V55.2c0 .28 0 .42.055.527.048.094.124.17.219.219.107.054.247.055.527.055h5.623c.28 0 .42-.001.527-.055a.5.5 0 0 0 .22-.219c.054-.107.054-.247.054-.527V15.055c0-.28 0-.42-.055-.528a.5.5 0 0 0-.219-.218c-.107-.055-.247-.055-.527-.055zm53.693 0q-5.184 0-8.273 2.813-3.088 2.812-3.088 7.94V26h-10.166c-.3 0-.451 0-.58.049a.75.75 0 0 0-.295.207c-.091.104-.143.244-.248.525l-7.43 19.898-7.484-19.902c-.105-.28-.157-.42-.248-.523a.76.76 0 0 0-.297-.205c-.13-.05-.28-.049-.578-.049h-5.768c-.394 0-.59.001-.717.084a.5.5 0 0 0-.213.312c-.03.148.04.331.186.698L174.779 56l-.662 1.6q-.885 1.874-2.041 3.033-1.103 1.158-3.584 1.158-.884 0-1.875-.166a13 13 0 0 1-.729-.102c-.389-.065-.584-.097-.709-.05a.47.47 0 0 0-.26.218c-.066.116-.066.3-.066.664v4.328c0 .243 0 .365.045.48a.74.74 0 0 0 .19.268c.094.081.192.115.39.184a8 8 0 0 0 1.47.351q1.159.22 2.372.221 4.245 0 7.058-2.426 2.867-2.37 4.577-6.728l10.518-26.58h5.72v22.746c0 .28 0 .42.055.527a.5.5 0 0 0 .219.219c.107.054.245.055.525.055h5.625c.28 0 .421-.001.527-.055a.5.5 0 0 0 .22-.219c.054-.107.054-.247.054-.527V32.453h5.873c.28 0 .418 0 .525-.055a.5.5 0 0 0 .22-.219c.053-.106.054-.247.054-.527V26.8c0-.28 0-.42-.055-.527a.5.5 0 0 0-.219-.219c-.107-.054-.245-.054-.525-.054h-5.873v-.992q0-2.261 1.322-3.31 1.38-1.102 3.75-1.103.455 0 .94.045c.345.032.518.047.634-.004a.48.48 0 0 0 .24-.22c.062-.112.061-.275.061-.6v-4.428c0-.304 0-.455-.06-.587a.7.7 0 0 0-.248-.286c-.122-.078-.261-.096-.537-.134a14 14 0 0 0-1.965-.127zm-109.09.662c-.28 0-.42 0-.527.055a.5.5 0 0 0-.22.219c-.053.107-.054.245-.054.525v27.822q.001 2.536-1.6 4.08-1.543 1.489-4.19 1.49h-1.571c-.28 0-.42 0-.527.053a.5.5 0 0 0-.22.22c-.053.108-.052.246-.052.526v5.293c0 .28 0 .42.053.527a.5.5 0 0 0 .219.22c.107.053.247.054.527.054h1.57q4.083 0 7.06-1.6 3.034-1.599 4.632-4.467 1.655-2.867 1.656-6.671V15.715c0-.28-.002-.419-.057-.526a.5.5 0 0 0-.216-.219c-.107-.054-.248-.054-.528-.054zm114.53 0c-.163.003-.262.014-.342.055a.5.5 0 0 0-.217.219c-.055.107-.054.245-.054.525v6.121c0 .28 0 .42.054.527a.5.5 0 0 0 .217.22c.107.054.248.054.528.054h5.625c.28 0 .418 0 .525-.055a.5.5 0 0 0 .22-.219c.055-.107.053-.247.053-.527v-6.121c0-.28.001-.418-.052-.525a.5.5 0 0 0-.221-.22c-.107-.054-.245-.054-.525-.054zm-89.436 10.422q-4.191 0-7.611 2.041-3.363 2.04-5.348 5.57-1.93 3.475-1.93 7.997 0 4.355 1.93 7.94c1.93 3.586 3.088 4.284 5.404 5.68q3.474 2.097 8.106 2.096 4.576 0 7.996-2.04 3.094-1.867 4.527-4.606c.114-.22.172-.33.172-.451a.53.53 0 0 0-.1-.3c-.072-.097-.19-.156-.43-.273l-4.269-2.093c-.312-.154-.468-.232-.607-.239a.6.6 0 0 0-.352.084c-.122.068-.243.225-.484.541a8.2 8.2 0 0 1-2.207 1.987q-1.71 1.048-4.191 1.048-3.255.001-5.46-1.984-2.205-1.986-2.535-5.295h21.057c.2 0 .298 0 .393-.04a.55.55 0 0 0 .207-.167c.06-.083.078-.167.115-.332q.09-.392.121-.84.11-.827.11-1.654 0-4.025-1.71-7.334t-4.962-5.295q-3.255-2.04-7.942-2.041m115.64 0q-2.813 0-5.074 1.104a7.9 7.9 0 0 0-3.418 3.254V26.8c0-.28 0-.42-.055-.527a.5.5 0 0 0-.219-.22c-.107-.054-.247-.054-.527-.054h-5.182c-.28 0-.42 0-.527.055a.5.5 0 0 0-.219.219c-.054.107-.054.247-.054.527v28.398c0 .28 0 .42.054.527a.5.5 0 0 0 .22.22c.106.053.246.054.526.054h5.623c.28 0 .42 0 .528-.055a.5.5 0 0 0 .219-.219c.054-.107.054-.247.054-.527v-16.79q.001-2.922 1.655-4.687 1.71-1.766 4.412-1.766 2.702.001 4.355 1.766 1.71 1.71 1.71 4.687v16.791c0 .28-.001.42.054.527a.5.5 0 0 0 .219.22c.107.053.247.054.527.054h5.625c.28 0 .42 0 .527-.055a.5.5 0 0 0 .217-.219c.055-.107.057-.247.057-.527v-18.5q-.001-3.365-1.436-5.9a10.1 10.1 0 0 0-4.025-4.028q-2.537-1.434-5.846-1.433M214.182 26c-.28 0-.42 0-.527.055a.5.5 0 0 0-.217.219c-.055.107-.055.247-.055.527v28.398c0 .28 0 .42.055.527a.5.5 0 0 0 .217.22c.107.053.247.054.527.054h5.625c.28 0 .418 0 .525-.055a.5.5 0 0 0 .221-.219c.054-.107.053-.247.053-.527V26.801c0-.28 0-.42-.053-.527a.5.5 0 0 0-.22-.22c-.108-.054-.246-.054-.526-.054zm-89.621 5.295q2.868 0 4.742 1.764 1.93 1.71 2.15 4.467h-14.116q.607-2.978 2.537-4.577 1.985-1.654 4.687-1.654"/><defs><linearGradient id="a" x1="47" x2="107" y1="84" y2="117" gradientTransform="translate(-34.501 -54)" gradientUnits="userSpaceOnUse"><stop offset="0" stop-color="#AA5CC3"/><stop offset="1" stop-color="#00A4DC"/></linearGradient></defs></svg>