<svg width="1200" height="269.91" version="1.1" viewBox="0 0 317.5 71.413" xmlns="http://www.w3.org/2000/svg" xmlns:xlink="http://www.w3.org/1999/xlink"><defs><style/></defs><g><path d="m35.335 18.579-31.787 0.078038v11.178h23.88s6.6785 0.2906 9.0369 2.4951c2.358 2.2045 2.3584 6.8984 2.3584 6.8984h-20.123s-18.636-1.0451-18.699 16.153c-0.06381 17.198 18.699 15.762 18.699 15.762h34.922v-34.278s-0.27464-8.072-4.9837-12.736c-4.7086-4.6646-13.303-5.5502-13.303-5.5502zm-14.406 31.484c0.16168 0 0.25438 0.0086 0.25438 0.0086l17.64 0.11986v10.211h-17.64s-6.0473 0.53549-5.977-5.132c0.06122-4.9587 4.5913-5.2195 5.7227-5.2074z" fill="#111"/><path d="m72.414 71.273v-52.913h28.157s10.701 0.26725 15.75 5.5828c5.0483 5.3156 4.5953 14.764 4.5953 14.764v32.567h-14.801v-32.58s-0.0766-4.9049-1.6361-6.4318c-1.5595-1.5285-6.2037-1.4063-6.2037-1.4063h-11.532v40.418zm66.305 0h15.044v-52.483h-15.044zm0-57.836h15.044v-13.437h-15.044z" fill="#111"/><path d="m206.56 0.3227c-1.9384-0.011641-3.131 0.14228-3.131 0.14228h-32.307v70.805h32.307s33.926 4.3857 33.926-35.402c0-32.328-22.396-35.494-30.795-35.545zm-0.48764 12.488c4.7556 0.15651 14.258 2.5955 14.178 19.607-0.0112 2.4041 0.17763 4.7776 0.22463 6.7932 0.45486 19.565-17.046 19.114-17.046 19.114h-16.548v-45.365c6.6953-0.0733 13.616-0.30267 19.19-0.14918zm48.125-12.346v70.804h43.826s19.481-1.0391 19.481-17.134c0-16.095-10.345-18.268-10.345-18.268s10.075-2.7305 10.075-18.541c0-15.81-19.211-16.861-19.211-16.861zm15.436 12.383h25.503s5.7878 1.2969 5.7878 8.0944-5.7878 8.1151-5.7878 8.1151h-25.503zm0 29.267h25.503s5.7878 1.2978 5.7878 8.0948c0 6.7975-5.7878 8.1155-5.7878 8.1155h-25.503z" fill="#f8a359"/></g></svg>
