<svg width="1200" height="636.37" version="1.1" viewBox="0 0 317.5 168.37" xmlns="http://www.w3.org/2000/svg" xmlns:xlink="http://www.w3.org/1999/xlink"><defs><style/></defs><g stroke-width=".51723"><path d="m317.5 29.601-0.15517-0.17586 0.15517 0.17586c0.0362-3.6206-1.8465-7.4533-3.7706-9.7136-6.4912-7.5774-18.16-12.414-34.556-13.303-3.7034-0.20172-13.562-0.7655-13.562-0.76033q-7.7584-0.20689-15.517-0.26896c-5.224-0.041378-11.379 0.10345-18.243 0.51723 0.031 0-7.8567 0.51723-7.8516 0.51723 5e-3 0-2.4206 0.17586-4.3602 0.3362l2.5758-6.9257c-31.551 1.1741-35.88 4.5775-36.615 4.924-3.8172 1.8-7.1585 5.074-11.436 8.7257a82.146 82.146 0 0 0-6.8016 6.574c-1.1844-3.2585-5.4206-14.891-5.4257-14.907q-5.1723 1.4069-10.293 2.912c-8.7929 2.4827-19.024 5.6895-27.724 8.5912 0 0-13.148-2.4465-24.005-0.71378-10.857 1.7327-20.363 7.0757-28.158 16.138l-0.13448 0.17069c-7.4636-5.855-17.922-7.6705-30.967-4.6551-10.691 2.5034-19.934 8.8395-27.325 19.086a58.09 58.09 0 0 0-9.0826 18.967 55.737 55.737 0 0 0-4.2516 20.343l0.22241 6.2637v0.31551c0.93101 10.391 4.262 18.15 9.8274 22.934 6.5171 5.5499 14.767 6.1757 24.713 2.3224 11.286-4.3706 20.524-11.896 27.568-22.241 0 0 0.90515-1.3396 1.6241-2.3844a19.608 19.608 0 0 0 2.0275 2.0689c6.3671 5.3999 14.658 6.3102 24.827 3.2017a58.333 58.333 0 0 0 5.5602-2.012c9.1757 21.527-1.7172 71.729-1.7172 71.75 5.4309-3.4861 88.803-42.594 186.72-57.169 0.75516-1.4327 31.034-49.602 35.337-56.409 0-0.05172-13.831 0.32068-22.949 0.75516 7.7946-4.0344 11.653-9.1032 11.658-9.0826 5e-3 0.02069-10.645-5.5499-17.25-9.0619 10.179-2.9224 29.291-8.0636 29.332-7.805zm-0.28965-0.33103m0.0983 0.11379-0.0672-0.07758z" fill="#231f20"/><path d="m46.494 79.136c-2.5862 3.6568-5.5757 6.0257-9.1808 7.2412-3.2172 1.0655-5.8602 0.67757-8.105-1.231-2.2448-1.9086-3.3516-4.4844-3.6206-8.0895 0-0.80688 0-1.6138 0.03621-2.4206v-0.45516c0.34137-5.0792 1.8569-9.5636 4.5258-13.288a19.743 19.743 0 0 1 11.177-7.7584c4.3499-1.1896 7.4636-0.18103 9.4757 2.9896l0.74481 1.1689q8.7929-6.7809 17.746-13.143l-0.94654-1.2207c-5.5706-6.843-14.751-9.0826-27.093-6.0464-8.1878 2.0327-15.326 7.0188-21.119 15-5.6326 7.7584-8.5498 16.277-8.7929 25.008 0 0 0.07758 2.5862 0.12931 4.2103 0 0.74481 0.04138 1.2931 0.04138 1.2931 0.65688 7.8826 3.1034 13.738 7.2412 17.332 4.5827 3.9413 10.546 4.4896 17.829 1.8879a43.52 43.52 0 0 0 21.558-16.732l1.0345-1.5517q-5.9016-2.7051-11.845-5.4671z" fill="#29cc82"/><path d="m125.91 41.342a12.636 12.636 0 0 0-0.29999-2.2913 23.017 23.017 0 0 0-1.2155-3.9206c0.96205-0.7293 3.6206-2.7361 3.6206-2.7258l-0.77584-0.97756c-5.3637-6.5481-14.513-9.0929-27.036-6.9361-8.3119 1.4379-15.667 5.6585-21.775 12.698-5.2447 6.0775-8.3843 12.786-9.4239 19.805-0.13965 0.92584-0.24827 1.8569-0.31034 2.793l-0.02586 5.0792c0.37758 7.2878 2.643 12.791 6.6878 16.282 4.4689 3.8275 10.464 4.5982 17.886 2.5293a43.199 43.199 0 0 0 22.07-14.105 45.816 45.816 0 0 0 9.967-21.987 35.482 35.482 0 0 0 0.63102-6.243zm-16.644 10.179a25.344 25.344 0 0 1-4.712 11.245c-2.7103 3.6206-5.9947 5.8809-10.06 6.9102-3.2741 0.82757-5.9223 0.35172-8.1153-1.5103-2.1103-1.7844-3.212-4.2827-3.3568-7.6033q0.06724-1.3241 0.14482-2.643a23.586 23.586 0 0 1 1.6603-6.574 20.591 20.591 0 0 1 3.3413-5.4206 19.655 19.655 0 0 1 11.519-6.574c3.8689-0.7655 6.6671 0.06724 8.6015 2.2862-0.4655 0.32068-2.8396 2.0069-2.8396 2.0069l1.1638 0.6724 0.51723 0.29999c1.5206 0.87412 2.2913 2.4155 2.3586 4.712z" fill="#2cc982"/><path d="m199.06 39.139q1.112-3.4499 2.193-6.843 4.0396-12.124 8.1929-23.932l-2.193 0.27413s-3.9361 0.51723-3.9465 0.51723c-0.0103 0-6.1602 1.2879-6.1602 1.2982a53.275 53.275 0 0 1-5.6533 1.0345l-0.35172 0.03103-0.31551 0.15a47.766 47.766 0 0 0-10.112 6.7705 82.757 82.757 0 0 0-12.972 13.774c-1.6862 2.25-3.2792 4.5723-4.7482 6.9826a55.861 55.861 0 0 0-1.4948-6.6412c-0.3362-1.1793-0.69826-2.3793-1.1276-3.6206l-5.0326-13.81-1.4431 0.43447q-8.1153 2.3637-16.179 4.9706l2.0327 4.6551c0.83274 1.7586 0.96205 2.5551 0.96722 2.881 0 0-0.0983 0.38792-0.12413 0.51723a189.82 189.82 0 0 0-4.3758 8.0119c-0.51723 1.0345-1.0086 2.0017-1.4276 2.8913a152.23 152.23 0 0 0-7.1067 17.069c-2.0431 6.1343-3.8637 12.269-5.4102 18.217q-0.31034 1.1845-0.62068 2.3793 8.9429-4.1378 17.974-7.9964l0.0879-0.95688c0.37757-4.1378 1.681-8.767 3.8999-13.748 0 0 1.862-4.2051 3.3361-7.4481 0.0517 0.25344 0.0931 0.42413 0.14483 0.71895 1.4224 7.4533 2.1413 13.531 2.1724 18.155l-0.23792 3.6723 1.9758-0.63619q7.7016-3.1034 15.465-6.0206c0.0828-0.2431 0.17069-0.49137 0.25862-0.73964 2.343-6.8223 4.8102-12.134 7.3085-15.832 4.1378-6.1395 7.2878-9.9412 9.636-12.357 0.40344-0.41378 0.78619-0.79136 1.1431-1.1327l-0.57412 1.3241c-0.65171 1.5517-1.2103 2.9068-1.65 4.0706 0 0-4.1068 10.769-4.0965 10.795-2.7258 6.9257-4.743 12.527-6.0309 16.551-0.23793 0.73964-0.47585 1.4793-0.70861 2.2293 4.4172-1.7689 8.8498-3.4551 13.293-5.1102 2.6689-0.99308 5.3378-1.9862 8.0119-2.9327 0.0621-0.25862 0.1293-0.51723 0.19137-0.77584 0.84309-3.5016 1.8362-7.1016 2.943-10.686q1.4327-4.6189 2.8655-9.155zm48.18-17.627q2.4155-4.7533 4.8516-9.4188h-2.2034c-5.0585 0-10.986 0.23275-17.586 0.68792q-8.4774 0.63102-16.934 1.4638c-0.10345 0.25862-0.20689 0.51723-0.31551 0.77584q-2.2758 5.3533-4.5361 10.795s9.0774-1.5517 12.646-2.0689c-1.262 1.8517-2.881 4.262-2.881 4.2671a125.95 125.95 0 0 0-7.9964 14.167s-2.1413 4.9344-2.1362 4.9447c5e-3 0.01035-0.69309 1.6603-1.1172 2.6999-1.2207 0.19655-3.3723 0.56378-3.3723 0.56378l-5.0326 0.96722q-2.3017 6.0568-4.593 12.201l2.3482-0.58447c10.489-2.5862 17.338-3.9465 20.27-4.4327 1.8-0.28448 5.7619-0.78102 11.782-1.381l1.1276-0.10862q2.5292-5.4878 5.0895-10.862-4.1378 0.3931-8.2757 0.83274l-2.2034 0.26896c0.79654-1.9293 2.3793-5.6895 2.3793-5.6895 2.8499-6.2585 5.1309-10.733 6.724-13.407a49.913 49.913 0 0 1 3.1706-4.862l0.62068-0.80688c3.2896-0.12414 7.7946-0.2431 7.7946-0.2431zm31.861 20.384a19.52 19.52 0 0 1-10.138 3.1034c-3.3879 0.11896-6.0257-0.63102-8.0688-2.3379a6.9619 6.9619 0 0 1-2.7155-6.124c0.12414-0.64136 0.25345-1.2879 0.38275-1.9293a13.722 13.722 0 0 1 6.1447-8.0584c3.3568-2.1 7.355-3.0672 12.207-2.9844 4.5309 0.08276 7.5567 1.381 9.2274 3.8896l0.61033 0.92067q9.6722-2.7258 19.412-5.012l-0.82757-0.96205c-4.8206-5.6482-13.826-9.0981-26.617-9.636-8.4929-0.34654-16.277 1.5517-23.074 5.7775-6.6154 4.1378-10.588 9.3567-11.896 15.243l-0.49137 3.7758c-0.27931 5.4775 1.5051 9.905 5.2913 13.081 4.1792 3.4913 10.179 4.9085 17.881 4.474 9.4136-0.51723 17.405-2.9741 23.793-7.1636l1.2414-0.80688q-5.6637-2.912-11.379-5.8912z" fill="#29cc82"/><path d="m157.76 80.093q1.1586-1.4224 2.3224-2.8344-6.7964 1.8724-13.562 3.8792l-1.5206 0.4862-0.51723 0.17069-0.38275 0.41896c-2.912 3.2741-6.7964 8.9119-11.772 17.503-2.431 4.1844-4.6551 8.2757-6.724 12.362 0.95688-11.581 1.4276-19.655 1.3396-24.098-0.0466-2.2862-0.2069-3.0051-0.34655-3.3775l-0.41895-1.1224-1.3758 0.62585q-7.7067 3.5068-15.357 7.2412l0.3724 1.2569c0.0672 0.22758 0.23275 1.1741 0.34655 5.0585 0.25344 8.3636 0.36723 17.586 0.35171 27.413-0.0362 14.658-0.33103 17.405-0.45516 17.891l-0.66723 2.5862 2.4103-1.3862q7.0654-4.2878 14.193-8.3533l0.29999-0.41895c2.4206-3.4551 5.462-8.6946 9.067-15.47 0-0.0931 7.9912-15.388 8.0119-15.326 0-0.0621 6.724-12.745 6.7499-12.703a80.579 80.579 0 0 1 7.6343-11.803zm36.423 1.4793q2.1879-5.5757 4.4068-11.064l-2.1258 0.36206c-4.8671 0.83274-10.567 2.0069-16.924 3.5482l-2.2913 0.5793q-6.9826 1.7638-13.929 3.662l-0.2793 0.89481q-2.0172 6.1757-3.9982 12.414s8.3843-2.9792 11.896-4.1378l0.17586-0.06207-0.25862 0.51723c-1.112 2.1258-2.3844 4.593-2.3844 4.593a167.61 167.61 0 0 0-7.2412 16.644l-1.8982 5.6895s-0.61033 1.9138-0.98791 3.1034c-1.1638 0.40344-3.2068 1.1224-3.2068 1.1276 0 5e-3 -4.7896 1.8051-4.7896 1.8155q-2.0689 6.9205-4.0551 13.965l2.2241-0.98791c9.9567-4.3809 16.479-6.9205 19.272-7.8878 1.7172-0.58964 5.5033-1.7327 11.26-3.3103l1.081-0.29482q2.2706-6.3723 4.5671-12.636-3.9723 1.0707-7.9395 2.1879l-2.1103 0.63102c0.70343-2.2138 2.1103-6.5688 2.1103-6.5636q2.2965-6.5326 4.0396-10.862c0.77068-1.9241 1.4586-3.5379 2.0689-4.8051 1.1741-2.5862 2.1517-4.5206 2.9068-5.7981l0.57412-0.97756c3.1603-0.65171 7.4947-1.4948 7.4947-1.4948 0.0983-0.25862 0.21724-0.55344 0.34138-0.85343zm61.799-18.093q-6.5481 0.92584-13.081 1.9758l-1.5517 0.27413-0.79653 0.14482-0.41896 0.54309c-6.1395 8.0584-10.091 13.965-11.855 17.157l-1.2103 2.1517a138.18 138.18 0 0 0-4.562-18.982l-0.32585-1.0345-1.4741 0.4293q-7.986 2.3482-15.926 4.9292l1.8051 4.1378c0.74999 1.5517 0.84309 2.25 0.83791 2.5396l-0.13965 0.44999c-2.5862 3.9309-4.6033 7.3033-6.0412 9.9567-0.93102 1.6862-1.7896 3.3103-2.5862 4.8723-2.0689 4.024-3.7292 7.6291-4.9396 10.691a263.32 263.32 0 0 0-5.9326 16.551l-0.68791 2.1672q8.8498-4.1378 17.782-7.9395l0.11897-0.86377c0.51723-3.6982 1.9603-7.9136 4.3034-12.455 0 0 1.9655-3.8275 3.5172-6.7809 0.0414 0.22241 0.0724 0.37758 0.11379 0.64136 1.1069 6.605 1.5879 12.005 1.4431 16.127l-0.36207 3.2844 1.95-0.65171q7.624-3.1034 15.294-5.9844 2.4362-5.9378 4.9085-11.767c2.2913-5.3378 4.1378-9.2739 5.5499-11.87 0.37758-0.69826 0.72413-1.3241 1.0345-1.8258a172.6 172.6 0 0 1 11.731-16.996zm45.051-2.3896q-10.976 0.55861-21.92 1.4379-10.303 1.0345-20.57 2.3741l-0.32586 0.73447q-2.3327 5.0068-4.6551 10.107s4.9396-0.93619 7.205-1.3345c-1.1379 1.5517-2.4724 3.4085-2.4724 3.4085-0.85861 1.3086-1.6862 2.612-2.4982 3.9258-1.9965 3.2275-3.843 6.455-5.5033 9.6308-1.4069 2.7258-3.0258 6.243-4.8102 10.489-2.3793 5.7206-2.3793 6.0361-2.3793 6.274 0 0.43447-0.0465 0.8586-0.0672 1.2879l1.7482-0.44999c10.733-3.2534 19.008-5.1361 24.491-5.9688q4.6551-0.70343 9.3412-1.35 2.6948-5.1051 5.4257-10.101c0-0.05172-16.712 2.5551-20.11 3.212 1.2672-2.8758 2.4517-5.3792 3.5172-7.4223 1.8775-0.32068 16.35-2.2034 16.355-2.162 0.73964-1.2879 1.4844-2.5396 2.2241-3.8223 1.0345-1.7586 2.0379-3.5327 3.0672-5.2706 0-0.03103-13.039 1.3551-16.577 1.8258l0.51723-0.74481s3.4086-5.0223 3.5948-5.2757c4.1896-0.47585 9.3722-0.92584 15.517-1.2827q2.8292-0.16551 5.6895-0.31551 2.7103-4.712 5.4413-9.3101z" fill="#f9e150"/></g></svg>
