<svg width="1200" height="245.02" version="1.1" viewBox="0 0 317.5 64.829" xmlns="http://www.w3.org/2000/svg" xmlns:xlink="http://www.w3.org/1999/xlink"><defs><style/></defs><g transform="matrix(.87865 0 0 .87865 -46.764 -298.98)" fill="#111"><path transform="scale(.26458)" d="m341.82 1286.1c-77.705 0.059-140.67 62.468-140.67 139.43 0 77.008 63.028 139.43 140.78 139.43s140.78-62.426 140.78-139.43c0-77.007-63.027-139.43-140.78-139.43zm-40.482 36.846 40.482 42.476h10.326l38.123-37.53 10.547 12.858-26.619 24.672s5.816-0.521 22.21 1.404c16.392 1.926 24.425 4.211 24.425 4.211s10.931 18.076 10.096 60.686c-0.836 42.61-10.096 57.894-10.096 57.894s-38.082 6.395-80.667 5.776c-42.584-0.62-78.92-5.776-78.92-5.776s-7.5-20.012-6.606-61.603c0.893-41.591 9.181-58.307 9.181-58.307s11.304-1.846 26.598-3.23c15.294-1.385 28.35-1.055 28.35-1.055l-30.338-31.678zm40.228 63.904c-25.965-0.196-59.318 1.506-59.318 1.506s-6.405 10.275-6.525 40.584c-0.121 30.308 6.224 40.783 6.224 40.783s22.553 4.82 58.313 4.82c35.759 0 61.879-4.82 61.879-4.82s5.35-7.235 6.328-37.365c0.977-30.13-6.328-44.002-6.328-44.002s-34.608-1.31-60.573-1.506z" opacity=".98" stroke-width="0"/><path d="m173.04 358.65h-24.345v37.936h9.07v-14.054h12.997v-7.035h-12.965v-9.61h15.207z"/><path transform="scale(.26458)" d="m699.44 1355.6-56.663 144.01h34.518l15.855-31.778h51.79l13.87 31.777h31.489l-55.399-144.01zm19.503 32.138 19.52 58.115h-42.035z"/><path d="m211.49 358.68v38.103h8.445v-23.542l18.814 23.542h6.407v-38.103h-8.068v23.88l-18.945-23.88z"/><path transform="scale(.26458)" d="m997.24 1355.6-57.02 144.01h21.313l16.785-40.39h60.453l16.606 40.39h20.016l-57.913-144.01zm9.041 26.068h4.266l25.367 64.185h-53.207zm136.56-27.335-49.664 1.267v144.01h21.72v-57.544h21.649l43.213 57.543h20.385l-46.657-62.31s33.627-3.89 35.698-41.477c2.07-37.587-46.344-41.488-46.344-41.488zm-27.944 15.366h29.87s25.531 5.178 25.142 27.572c-0.39 22.394-25.143 29.914-25.143 29.914h-29.869z"/><path d="m316.95 358.68v3.73h12.523v34.373h5.26v-34.372h12.403v-3.73z"/><circle cx="352.46" cy="394.89" r="1.897" opacity=".98"/><path d="m353.06 359.78h30.757l14.383 33.617 14.27-33.617h2.098l-16.368 37.537-15.79-36.034h-14.371v35.505h-1.574v-35.505h-13.43z"/></g></svg>
