<svg width="897.76" height="499.99" version="1.1" viewBox="0 0 237.53 132.29" xmlns="http://www.w3.org/2000/svg" xmlns:xlink="http://www.w3.org/1999/xlink"><defs><style/></defs><g transform="matrix(.53287 0 0 .53287 -33.362 -167.47)"><path d="m84.396 353.67 69.846 3.0133 7.0331 37.753 129.1 4.5392-17.821 61.694-17.17 44.407-165.17 1.8447z" fill="#111" opacity=".98" stroke-width="0"/><path transform="scale(.26458)" d="m322.12 1187.9c-17.059 0.01-40.056 3.434-56.071 19.07-28.47 27.799-29.416 65.374-29.416 65.374l86.176 765.92s-2.278 39.441 27.55 67.026c29.828 27.584 76.407 19.949 76.407 19.949l695.99-97.04s19.876 0.782 38.146-20.892c18.27-21.673 20.875-50.957 20.875-50.957v-60.382s-107.03-60.928-108.97-200.4c-1.936-139.47 108.97-210.4 108.97-210.4l0.053-109.66s-1.35-39.166-19.566-60.234-53.018-24.24-53.018-24.24l-764.19-101.09s-9.674-2.064-22.942-2.059zm145.62 189.08h100.92v136.61h204.73l94.304 259.74 102.6-259.74h107.85l-161.08 369.66h-106.64l-113.03-291.42h-128.73v117.28s2.63 60.495 16.877 77.82c14.246 17.326 78.27 17.327 78.27 17.327v78.994h-95.147s-45.602 0-74.32-33.23c-28.719-33.23-26.604-72.848-26.604-72.848v-185.34h-63.236v-78.24h63.236z" fill="#1c7e3e"/><path transform="scale(.26458)" d="m1385.4 1366.2v136.79h-101.59s-171.77-7.161-171.77 184.45c0 191.61 171.77 188.63 171.77 188.63h205.53v-509.87zm-87.47 221.17h87.47v206.13h-87.47s-80.264-16.536-80.264-106.92 80.264-99.213 80.264-99.213z" fill="#111"/><path d="m434.98 361.48v36.192h26.879s46.506-1.894 46.506 48.803c0 50.696-46.506 49.908-46.506 49.908h-54.38v-134.9zm23.143 58.518h-23.143v54.538h23.143s21.237-4.375 21.237-28.288-21.237-26.25-21.237-26.25z" fill="#111"/><circle cx="273.41" cy="379.86" r="14.659" fill="#fff" opacity=".98"/></g></svg>
