<svg width="1920" height="1080" version="1.1" viewBox="0 0 508 285.75" xmlns="http://www.w3.org/2000/svg" xmlns:xlink="http://www.w3.org/1999/xlink"><defs><radialGradient id="b" cx="125.26" cy="16.735" r="254" gradientTransform="matrix(0 1.0648 -1.7495 0 154.53 -61.444)" gradientUnits="userSpaceOnUse"><stop stop-color="#3a4d69" offset="0"/><stop stop-color="#394956" offset="1"/></radialGradient><style/></defs><path d="M0 0h508v285.75H0z" fill="url(#b)" opacity=".98" stroke-width="2.6458"/><path d="m274.79 137.79-6.0959 6.2316c-4.8768 4.8768-7.9247 9.0086-7.9247 19.169h-13.547v-3.3866c0-7.5185 3.0479-14.292 7.9247-19.169l8.3988-8.5346c2.5062-2.4371 3.9964-5.825 3.9964-9.5503 0-7.5185-6.0961-13.547-13.547-13.547a13.547 13.547 0 0 0-13.546 13.547h-13.547a27.093 27.093 0 0 1 27.093-27.093 27.093 27.093 0 0 1 27.093 27.093c0 5.9604-2.4397 11.311-6.2994 15.24m-14.021 52.493h-13.547v-13.547h13.547m-6.7735-101.6a67.733 67.733 0 0 0-67.733 67.733 67.733 67.733 0 0 0 67.733 67.733 67.733 67.733 0 0 0 67.733-67.733c0-37.457-30.48-67.733-67.733-67.733z" fill="#fff" stroke-width="6.7733"/></svg>
