<svg class="w-svg" width="188" height="32" version="1.1" viewBox="0 0 180 32" xmlns="http://www.w3.org/2000/svg"><g fill="none" fill-rule="evenodd"><path d="m31.034 15.517c0 8.5702-6.9471 15.517-15.517 15.517-8.5699 0-15.517-6.9471-15.517-15.517 0-8.5699 6.9473-15.517 15.517-15.517 8.5702 0 15.517 6.9473 15.517 15.517" fill="#ecb360"/><path d="m26.897 13.966c0 7.7129-6.0213 13.966-13.448 13.966-7.4272 0-13.448-6.2526-13.448-13.966 0-7.7129 6.0211-13.966 13.448-13.966 7.4269 0 13.448 6.2526 13.448 13.966" fill="#d76835"/><path d="m27.931 12.414c0 6.8561-5.3263 12.414-11.897 12.414-6.5698 0-11.896-5.5579-11.896-12.414 0-6.8558 5.3263-12.414 11.896-12.414 6.5707 0 11.897 5.5579 11.897 12.414" fill="#d33a41"/><path d="m26.897 13.448c0 6.2843-4.8633 11.379-10.862 11.379-5.9989 0-10.862-5.0949-10.862-11.379 0-6.2849 4.863-11.379 10.862-11.379 5.9989 0 10.862 5.0946 10.862 11.379" fill="#b6cb46"/><path d="m25.862 14.483c0 5.7133-4.6317 10.345-10.345 10.345-5.713 0-10.345-4.6317-10.345-10.345 0-5.7133 4.6317-10.345 10.345-10.345 5.7133 0 10.345 4.6314 10.345 10.345" fill="#66ad4a"/><path d="m21.724 12.414c0 4.5706-3.7052 8.2759-8.2759 8.2759-4.5709 0-8.2759-3.7052-8.2759-8.2759 0-4.5706 3.705-8.2759 8.2759-8.2759 4.5706 0 8.2759 3.7052 8.2759 8.2759" fill="#aed7dc"/><path d="m22.759 11.379c0 3.9992-3.242 7.2414-7.2415 7.2414-3.9996 0-7.2412-3.2422-7.2412-7.2414 0-3.9995 3.2417-7.2414 7.2412-7.2414 3.9996 0 7.2415 3.2419 7.2415 7.2414" fill="#5bb1cf"/><path d="m22.759 11.896c0 3.7136-2.7788 6.7243-6.2069 6.7243s-6.2069-3.0107-6.2069-6.7243c0-3.7133 2.7788-6.724 6.2069-6.724s6.2069 3.0107 6.2069 6.724" fill="#25a8c3"/><path d="m20.69 12.931c0 3.1424-2.3159 5.6898-5.1726 5.6898-2.8564 0-5.1723-2.5475-5.1723-5.6898 0-3.1424 2.3159-5.6895 5.1723-5.6895 2.8567 0 5.1726 2.5471 5.1726 5.6895"/><path d="m15.517 18.621c-2.8564 0-5.1723-2.5475-5.1723-5.6898 0-3.1424 2.3159-5.6895 5.1723-5.6895 2.8567 0 5.1726 2.5471 5.1726 5.6895 0 3.1424-2.3159 5.6898-5.1726 5.6898z" fill="#1b1a18"/><path d="m18.34 11.29c-0.49208 0.8232-1.4596 1.2993-2.1613 1.0627-0.70173-0.23634-0.87157-1.0957-0.37987-1.9192 0.49208-0.82348 1.4596-1.2993 2.1613-1.063s0.87157 1.0957 0.37987 1.9195" fill="#fffffe"/><g transform="translate(40.345 7.2414)" fill="#000"><path d="m117.33 14.093c-0.24735-0.69383-0.37083-1.5731-0.37083-2.7529 0-1.1797 0.12349-2.0586 0.37083-2.7529 0.69197-1.9893 2.5224-3.0765 4.9206-3.0765 1.7804 0 3.1899 0.6706 4.1292 1.735 0.074543 0.092536 0.099015 0.23153-0.024471 0.32407l-1.5579 1.2719c-0.12348 0.092536-0.24735 0.069688-0.34598-0.046078-0.59333-0.62452-1.2115-0.97144-2.2009-0.97144-1.0632 0-1.8794 0.48591-2.2258 1.4574-0.19765 0.55522-0.24697 1.203-0.24697 2.0586 0 0.85606 0.049319 1.527 0.24697 2.0823 0.34636 0.94821 1.1626 1.4341 2.2258 1.4341 0.98939 0 1.6076-0.34692 2.2009-0.97144 0.098638-0.11577 0.2225-0.11577 0.34598-0.023229l1.5579 1.2723c0.12349 0.092536 0.099014 0.2083 0.024471 0.32369-0.93932 1.0411-2.3489 1.7121-4.1292 1.7121-2.3982 0-4.2286-1.0872-4.9206-3.0769"/><path d="m136.03 16.915c-0.1728 0-0.29667-0.069307-0.39568-0.23153l-3.0167-4.6729-1.6072 1.735v2.9379c0 0.13899-0.098638 0.23153-0.24697 0.23153h-2.2754c-0.14796 0-0.24697-0.092536-0.24697-0.23153v-15.268c0-0.13861 0.099014-0.23115 0.24697-0.23115h2.2754c0.14833 0 0.24697 0.092536 0.24697 0.23115v9.0686l4.0803-4.4878c0.14796-0.16222 0.27182-0.23153 0.46947-0.23153h2.5224c0.14833 0 0.19765 0.13861 0.098638 0.23153l-3.7833 4.0712 4.3521 6.6162c0.074543 0.092536 0.024848 0.23153-0.12348 0.23153z"/><path d="m3.4476 14.509h3.5114c1.632 0 2.5469-0.87929 2.5469-2.1976 0-1.2955-0.91485-2.1744-2.5469-2.1744h-3.5114c-0.098638 0-0.14833 0.046078-0.14833 0.13861v4.0944c0 0.092536 0.049695 0.13899 0.14833 0.13899zm3.3631-6.778c1.4837 0 2.3986-0.83283 2.3986-2.059 0-1.249-0.91485-2.0819-2.3986-2.0819h-3.3631c-0.098638 0-0.14833 0.046078-0.14833 0.13861v3.8633c0 0.092536 0.049695 0.13899 0.14833 0.13899zm-6.4292-6.3157c0-0.13861 0.099014-0.23115 0.24697-0.23115h6.2564c3.5608 0 5.2421 1.6657 5.2421 4.187 0 1.7814-0.89 2.7993-1.9536 3.3313v0.046459c1.0387 0.36976 2.2502 1.6192 2.2502 3.5392 0 3.123-2.1019 4.6268-5.7861 4.6268h-6.009c-0.14796 0-0.24697-0.092536-0.24697-0.23153z"/><path d="m14.475 16.915c-0.14871 0-0.24772-0.092536-0.24772-0.23153v-10.687c0-0.13899 0.099014-0.23153 0.24772-0.23153h2.2747c0.14833 0 0.24735 0.092536 0.24735 0.23153v0.94821h0.024848c0.56849-0.85568 1.5823-1.4341 3.0909-1.4341 0.93932 0 1.879 0.34692 2.4972 0.92536 0.12386 0.11538 0.14871 0.2083 0.049319 0.32369l-1.3105 1.5503c-0.098638 0.11538-0.2225 0.13861-0.34599 0.046078-0.54401-0.32407-1.1129-0.53199-1.7555-0.53199-1.5579 0-2.2502 1.0407-2.2502 2.8222v6.0377c0 0.13899-0.099014 0.23153-0.24735 0.23153z"/><path d="m30.262 13.399c0.19803-0.57845 0.24735-1.1104 0.24735-2.059 0-0.94821-0.049319-1.4574-0.24735-2.0586-0.34636-0.92536-1.1125-1.4574-2.2254-1.4574-1.1129 0-1.9042 0.53199-2.2502 1.4574-0.19765 0.6013-0.24735 1.1104-0.24735 2.0586 0 0.94859 0.049695 1.4806 0.24735 2.059 0.34599 0.92536 1.1373 1.4574 2.2502 1.4574 1.1129 0 1.879-0.53199 2.2254-1.4574zm-7.146 0.69383c-0.2722-0.78637-0.39568-1.5267-0.39568-2.7529 0-1.2258 0.12349-1.9661 0.39568-2.7529 0.6675-1.9429 2.4972-3.0765 4.9206-3.0765 2.3986 0 4.2283 1.1337 4.8961 3.0765 0.27182 0.78675 0.39568 1.527 0.39568 2.7529 0 1.2262-0.12386 1.9665-0.39568 2.7529-0.66788 1.9433-2.4976 3.0769-4.8961 3.0769-2.4234 0-4.2531-1.1337-4.9206-3.0769z"/><path d="m45.323 16.915c-0.14871 0-0.24735-0.092536-0.29704-0.23153l-2.2995-7.1249h-0.049319l-2.3244 7.1249c-0.049695 0.13899-0.14833 0.23153-0.29704 0.23153h-2.0273c-0.14871 0-0.24735-0.092536-0.29667-0.23153l-3.7588-10.687c-0.049696-0.13899 0.024848-0.23153 0.17318-0.23153h2.3737c0.17318 0 0.2722 0.069307 0.32151 0.23153l2.2995 7.3564h0.049695l2.2747-7.3564c0.049695-0.13899 0.17318-0.23153 0.32151-0.23153h1.7804c0.14833 0 0.2722 0.092536 0.32151 0.23153l2.4234 7.3564h0.049319l2.1761-7.3564c0.049319-0.16222 0.14833-0.23153 0.32151-0.23153h2.3737c0.14833 0 0.2225 0.092536 0.17318 0.23153l-3.7588 10.687c-0.049319 0.13899-0.14833 0.23153-0.29667 0.23153z"/><path d="m51.894 15.411c-0.098638-0.092536-0.098638-0.23115 0-0.32369l1.4095-1.388c0.099014-0.092536 0.24735-0.092536 0.34636 0 0.86553 0.74029 2.2502 1.2723 3.4866 1.2723 1.4589 0 2.2005-0.55522 2.2005-1.3187 0-0.67098-0.42015-1.0872-1.978-1.2262l-1.2861-0.11538c-2.423-0.23153-3.6598-1.388-3.6598-3.2852 0-2.1512 1.6569-3.516 4.6243-3.516 1.8545 0 3.4124 0.57845 4.4756 1.3648 0.12386 0.092536 0.12386 0.23115 0.049695 0.32369l-1.2119 1.3652c-0.098638 0.11538-0.2225 0.11538-0.34599 0.046078-0.74204-0.48591-1.9287-0.92536-3.1158-0.92536s-1.8052 0.48591-1.8052 1.1565c0 0.64813 0.42053 1.0411 1.9536 1.1801l1.2857 0.11577c2.4976 0.23115 3.6846 1.4341 3.6846 3.2616 0 2.2209-1.7311 3.7708-4.9951 3.7708-2.4479 0-4.1292-0.90213-5.1186-1.7582"/><path d="m71.1 9.1423c-0.32151-0.90213-1.2119-1.4341-2.3244-1.4341-1.1373 0-2.0277 0.53199-2.3489 1.4341-0.099391 0.27761-0.14871 0.55522-0.14871 0.94859 0 0.092536 0.049319 0.13899 0.14871 0.13899h4.6733c0.099014 0 0.14833-0.046458 0.14833-0.13899 0-0.39337-0.049319-0.67098-0.14833-0.94859zm-7.1957 4.9273c-0.24735-0.71668-0.42053-1.5727-0.42053-2.7296 0-1.1565 0.14871-2.0354 0.39568-2.7529 0.6675-1.9429 2.4972-3.0765 4.8713-3.0765 2.4483 0 4.2286 1.1797 4.8961 3.0765 0.2722 0.78675 0.39568 1.5503 0.39568 3.3545 0 0.13861-0.099014 0.23115-0.27182 0.23115h-7.344c-0.099391 0-0.14871 0.046459-0.14871 0.13899 0 0.32369 0.074167 0.6013 0.17318 0.85568 0.39568 1.0876 1.3354 1.6889 2.6704 1.6889 1.3354 0 2.2013-0.46268 2.7942-1.064 0.12386-0.11577 0.24735-0.13899 0.37083-0.046459l1.4592 1.203c0.12349 0.092536 0.12349 0.2083 0.024848 0.32407-1.0139 1.1101-2.6956 1.8968-4.8961 1.8968-2.5224 0-4.3028-1.1565-4.9703-3.1002z"/><path d="m76.093 16.915c-0.14796 0-0.24697-0.092536-0.24697-0.23153v-10.687c0-0.13899 0.099014-0.23153 0.24697-0.23153h2.2751c0.14871 0 0.24735 0.092536 0.24735 0.23153v0.94821h0.024848c0.56849-0.85568 1.5823-1.4341 3.0909-1.4341 0.9397 0 1.879 0.34692 2.4972 0.92536 0.12386 0.11538 0.14833 0.2083 0.049695 0.32369l-1.3105 1.5503c-0.098638 0.11538-0.2225 0.13861-0.34636 0.046078-0.54364-0.32407-1.1125-0.53199-1.7552-0.53199-1.5579 0-2.2506 1.0407-2.2506 2.8222v6.0377c0 0.13899-0.098638 0.23153-0.24735 0.23153z"/><path d="m84.704 15.088c-0.099014-0.092536-0.14833-0.23153-0.049319-0.3473l1.533-1.6657c0.099014-0.11538 0.24735-0.11538 0.34599-0.022848 1.0884 0.8096 2.6956 1.6653 4.5746 1.6653 2.0029 0 3.1651-0.94821 3.1651-2.2666 0-1.1337-0.74167-1.874-3.0661-2.1748l-0.89038-0.11577c-3.2389-0.41622-5.0689-1.874-5.0689-4.4878 0-2.8454 2.2254-4.7422 5.6871-4.7422 2.1019 0 4.1048 0.62452 5.4401 1.5727 0.12386 0.092917 0.14871 0.18545 0.049695 0.32407l-1.187 1.7117c-0.098638 0.11577-0.2225 0.13899-0.34636 0.069688-1.3598-0.83283-2.6211-1.2262-4.0302-1.2262-1.7066 0-2.6459 0.87929-2.6459 2.1051 0 1.0872 0.81583 1.8275 3.0909 2.1283l0.89038 0.11577c3.2389 0.41622 5.0192 1.8503 5.0192 4.5571 0 2.7993-2.1512 4.8812-6.3301 4.8812-2.4723 0-4.8713-0.92536-6.1818-2.0819"/><path d="m102.34 17.112c-2.3986 0-3.3134-1.0872-3.3134-3.262v-5.8755c0-0.092536-0.049695-0.13899-0.14871-0.13899h-0.79136c-0.14796 0-0.24697-0.092536-0.24697-0.23153v-1.5499c0-0.13861 0.099014-0.23115 0.24697-0.23115h0.79136c0.099014 0 0.14871-0.046459 0.14871-0.13899v-3.0537c0-0.13861 0.099014-0.23115 0.24697-0.23115h2.2751c0.14833 0 0.24735 0.092536 0.24735 0.23115v3.0537c0 0.092536 0.049319 0.13899 0.14833 0.13899h1.5827c0.14796 0 0.24697 0.092536 0.24697 0.23115v1.5499c0 0.13899-0.099015 0.23153-0.24697 0.23153h-1.5827c-0.099014 0-0.14833 0.046459-0.14833 0.13899v5.7833c0 0.78637 0.34636 1.0407 1.1129 1.0407h0.61818c0.14796 0 0.24697 0.092536 0.24697 0.23153v1.8503c0 0.13899-0.099015 0.23153-0.24697 0.23153z"/><path d="m112.53 13.167v-0.85568c0-0.092536-0.049695-0.13899-0.14871-0.13899h-1.978c-1.7804 0-2.5717 0.46268-2.5717 1.5038 0 0.92536 0.71682 1.388 2.0522 1.388 1.7066 0 2.6463-0.62452 2.6463-1.8972zm0.29629 3.7479c-0.14833 0-0.24697-0.092536-0.24697-0.23153v-0.8096h-0.024848c-0.56886 0.76352-1.6817 1.2955-3.3627 1.2955-2.1761 0-4.0061-1.064-4.0061-3.4006 0-2.4292 1.8301-3.5392 4.7723-3.5392h2.4234c0.099015 0 0.14871-0.046458 0.14871-0.13899v-0.53199c0-1.2727-0.6434-1.8507-2.6463-1.8507-1.3354 0-2.1512 0.34692-2.7201 0.76352-0.12348 0.092536-0.27182 0.069307-0.34598-0.046459l-0.91485-1.5267c-0.074166-0.11577-0.049318-0.23153 0.049319-0.30084 0.96454-0.64775 2.2751-1.0872 4.2286-1.0872 3.6349 0 4.9703 1.1565 4.9703 3.8865v7.2868c0 0.13899-0.099391 0.23153-0.24735 0.23153z"/></g></g></svg>
