<?xml version="1.0" encoding="UTF-8" standalone="no"?><!DOCTYPE svg PUBLIC "-//W3C//DTD SVG 1.1//EN" "http://www.w3.org/Graphics/SVG/1.1/DTD/svg11.dtd"><svg width="100%" height="100%" viewBox="0 0 1100 726" version="1.1" xmlns="http://www.w3.org/2000/svg" xmlns:xlink="http://www.w3.org/1999/xlink" xml:space="preserve" xmlns:serif="http://www.serif.com/" style="fill-rule:evenodd;clip-rule:evenodd;stroke-miterlimit:10;"><circle cx="985.58" cy="371.09" r="21.63" style="fill:#007ca6;fill-opacity:0.1;"/><circle cx="1062.95" cy="274.65" r="36.25" style="fill:#007ca6;fill-opacity:0.1;"/><circle cx="455.32" cy="27.78" r="21.63" style="fill:#007ca6;fill-opacity:0.1;"/><circle cx="703.43" cy="52.64" r="21.63" style="fill:#007ca6;fill-opacity:0.1;"/><circle cx="36.25" cy="326.22" r="36.25" style="fill:#007ca6;fill-opacity:0.1;"/><g><path d="M608.11,119.66c-64.72,-2.41 -126.36,-24.85 -185.22,-49.41c-58.86,-24.56 -117.17,-51.75 -180.29,-64.76c-40.63,-8.37 -87.09,-9.56 -119.83,13.84c-31.55,22.56 -41.73,61.39 -47.17,97.45c-4.12,27.14 -6.54,55.7 4.74,81.1c7.83,17.64 21.74,32.46 31.36,49.35c33.47,58.78 9.81,131.27 -26.46,188.66c-17,26.92 -36.74,52.6 -49.87,81.26c-13.13,28.66 -19.23,61.5 -7.77,90.74c11.38,29 38.51,50.74 67.9,66c59.69,31.09 130,40 198.61,45c151.82,11.16 304.46,6.33 456.69,1.49c56.33,-1.79 112.92,-3.61 168.34,-13c30.78,-5.2 62.55,-13.45 84.89,-33.36c28.37,-25.27 35.4,-68.07 16.39,-99.76c-31.88,-53.16 -120,-66.37 -142.31,-123.42c-12.26,-31.4 0.33,-66.38 18.16,-95.5c38.23,-62.48 102.33,-117.29 105.7,-188.71c2.32,-49 -28.49,-98.16 -76.13,-121.37c-49.94,-24.33 -119.18,-21.27 -156,19c-37.92,41.63 -104.59,57.54 -161.73,55.4Z" style="fill:#007ca6;fill-opacity:0.15;fill-rule:nonzero;"/></g><g><path d="M821.94,395.64c0.061,1.266 0.527,2.479 1.33,3.46c1.489,1.812 3.291,3.343 5.32,4.52l-0,5.42c-0,0 16,13.37 19.29,18.42c3.17,4.82 6.41,9.73 10.92,13.32c1.167,1.032 2.562,1.772 4.07,2.16l0.27,-0c-0.44,0.445 -0.973,0.786 -1.56,1c0.251,1.823 1.825,3.196 3.665,3.196c0.234,-0 0.466,-0.022 0.695,-0.066c0.775,-0.237 1.505,-0.602 2.16,-1.08l6.34,-4.1c1.056,-0.635 2.044,-1.375 2.95,-2.21c1.18,-1.19 2,-2.68 3.16,-3.9c2,-2.08 4.84,-3.32 6.23,-5.82c0.87,-1.56 1,-3.41 1.56,-5.12c0.35,-1.12 0.86,-2.18 1.2,-3.3c0.197,-0.673 0.334,-1.363 0.41,-2.06c0.22,0.19 0.45,0.38 0.69,0.56c0.49,-0.32 1.43,0.52 1.21,1.06c-0.22,0.54 -0.75,0.93 -0.93,1.49c-0.4,1.28 1.18,2.23 1.84,3.4c0.66,1.17 0.32,2.67 0.39,4c0.07,1.33 0.68,2.93 0.87,4.42c0.46,3.48 -1.26,7.15 -0,10.44c-1.537,-0.023 -2.895,1.034 -3.25,2.53c-0.307,1.473 -0.262,2.998 0.13,4.45c-1.96,1.157 -3.119,3.317 -3,5.59c0.082,0.339 0.032,0.697 -0.14,1c-0.162,0.153 -0.357,0.266 -0.57,0.33c-2.112,0.876 -3.492,2.953 -3.48,5.24c0.047,0.373 0.013,0.752 -0.1,1.11c-0.207,0.338 -0.487,0.625 -0.82,0.84c-1.542,1.242 -2.437,3.12 -2.43,5.1c-0.076,1.341 0.584,2.623 1.72,3.34l0.07,0c-3.335,2.926 -5.473,6.985 -6,11.39c-0.24,3.947 0.023,7.909 0.78,11.79l0.36,-0c-0,0.11 -0,0.18 -0,0.17c-0,-0.01 -0,0.08 -0,0.12c0.091,0.595 0.284,1.17 0.57,1.7c1.256,2.761 1.985,5.732 2.15,8.76c-0.007,0.747 0.094,1.492 0.3,2.21c0.31,0.683 0.689,1.333 1.13,1.94c1.33,2.17 1.64,4.79 2.09,7.3c0.574,3.257 1.427,6.459 2.55,9.57c1.53,4.24 3.59,8.58 2.89,13c-0.266,1.049 -0.401,2.128 -0.4,3.21c0.199,1.194 0.627,2.338 1.26,3.37c0.51,1 1,2.06 1.4,3.12c-0.008,0.62 0.212,1.222 0.62,1.69c0.12,0.33 0.22,0.67 0.32,1c0.1,0.33 0.17,0.53 0.25,0.8c0.134,0.446 0.237,0.9 0.31,1.36l-0.06,1.05l-0,1c-0.097,0.326 -0.261,0.629 -0.48,0.89c-0.081,0.101 -0.168,0.198 -0.26,0.29l-0.24,0.27c-0.107,0.118 -0.198,0.249 -0.27,0.39c-0.147,0.365 -0.175,0.768 -0.08,1.15c-0,0.15 0.06,0.3 0.1,0.45c0.25,1.08 0.52,2.16 0.79,3.23c0.08,0.33 0.17,0.65 0.25,1c0.22,0.84 0.44,1.69 0.67,2.53l-0,0.11l0.15,0.56l0.57,2.06c0.12,0.41 0.24,0.81 0.35,1.22l0.44,1.49c0.34,1.16 0.69,2.32 1.05,3.48c3.57,11.78 7.4,23.49 9.76,35.57c0.215,0.857 0.721,1.613 1.43,2.14c0.747,0.587 1.589,1.04 2.49,1.34c0.23,1.77 0.8,3.93 0.87,5c0.22,3.49 0.38,7.21 -0.89,10.39c-0.277,-0.053 -0.563,0.037 -0.76,0.24c-0.806,0.768 -1.571,1.579 -2.29,2.43l-4.69,5c-0.399,0.391 -0.754,0.823 -1.06,1.29c-0.673,1.108 -0.837,2.453 -0.45,3.69c0.403,1.229 1.267,2.255 2.41,2.86c0.268,0.115 0.523,0.259 0.76,0.43c0.147,0.144 0.304,0.278 0.47,0.4c0.308,0.157 0.655,0.223 1,0.19c2.665,-0.151 5.305,-0.601 7.87,-1.34c1.209,-0.184 2.338,-0.716 3.25,-1.53c0.511,-0.638 0.889,-1.373 1.11,-2.16l0.94,-2.6c0.614,-1.573 1.092,-3.196 1.43,-4.85c0.342,-1.661 0.256,-3.382 -0.25,-5c-0.112,0.115 -0.194,0.256 -0.24,0.41c0.23,-1.45 0.45,-2.91 0.68,-4.37c0.07,-0.43 0.13,-0.87 0.19,-1.32c0.3,3.89 -0.27,7.81 -0.09,11.71c-0.189,0.718 -0.32,1.451 -0.39,2.19c0.26,3.58 1.75,7.49 4.64,9.62c0.472,0.375 1.012,0.657 1.59,0.83c0.544,0.08 1.096,0.08 1.64,0c2.128,-0.073 4.232,-0.471 6.24,-1.18c2.028,-0.726 3.659,-2.273 4.49,-4.26c0.31,-0.997 0.462,-2.036 0.45,-3.08c0.054,-1.092 -0.044,-2.185 -0.29,-3.25c-0.44,-1.307 -0.989,-2.574 -1.64,-3.79c-0.77,-1.806 -1.393,-3.673 -1.86,-5.58l-0.87,-3.17c-0.24,-0.9 -0.49,-1.8 -0.8,-2.68c-0.173,-0.79 -0.557,-1.52 -1.11,-2.11c-0.36,-0.28 -0.6,-0.3 -0.76,-0.14l-0,-0.34c0.141,-1.232 0.218,-2.47 0.23,-3.71c-0.24,-2 -1.83,-3.63 -2.86,-5.41c-0.518,-0.893 -0.902,-1.856 -1.14,-2.86c-0.06,-0.22 -0.1,-0.43 -0.14,-0.66c0.171,-0.151 0.363,-0.275 0.57,-0.37l1.78,1c-1.57,-11.8 -0.74,-24.17 -5.32,-35.15c-2,-4.78 -5.85,-9.76 -5.42,-14.91c-0.92,-0.797 -1.449,-1.956 -1.449,-3.173c-0,-1.424 0.724,-2.754 1.919,-3.527c0.77,-0.42 1.72,-0.62 2.25,-1.33c0.251,-0.393 0.425,-0.831 0.51,-1.29c2.532,-10.121 5.835,-20.033 9.88,-29.65c0.89,-2.11 1.81,-4.2 2.74,-6.29l3.1,-7.05l3.78,-8.58c1.28,-2.89 2.57,-6.19 1.36,-9.1c-0.48,-1.15 -1.33,-2.24 -1.21,-3.47c0.204,-0.776 0.451,-1.541 0.74,-2.29c0.121,-0.834 0.057,-1.684 -0.19,-2.49c-0.25,-1.08 -0.53,-2.16 -0.82,-3.23c0.813,0.098 1.618,0.252 2.41,0.46c0.48,-0.81 -0.29,-1.75 -0.76,-2.57c-0.541,-1.114 -0.838,-2.332 -0.87,-3.57l-1,-10.09c-0.191,-1.392 -0.218,-2.802 -0.08,-4.2c0.2,-1.48 0.77,-2.89 1.06,-4.37c0.55,-2.83 -0,-5.75 0.18,-8.64c0.191,-2.544 0.633,-5.063 1.32,-7.52c0.09,-0.37 0.17,-0.73 0.26,-1.1c0.471,0.143 0.958,0.226 1.45,0.25l1.24,-0c0.186,-0.034 0.37,-0.08 0.55,-0.14l0.12,-0c0.201,-0.066 0.398,-0.143 0.59,-0.23c-0.24,-0.51 -0.46,-1 -0.67,-1.54c-0.09,-0.21 -0.17,-0.42 -0.25,-0.63c-0.08,-0.21 -0.23,-0.59 -0.33,-0.89c-0.1,-0.3 -0.2,-0.55 -0.29,-0.82c-0.09,-0.27 -0.15,-0.46 -0.22,-0.69c-0.07,-0.23 -0.19,-0.63 -0.28,-1c-0.09,-0.37 -0.18,-0.66 -0.27,-1l0.15,-0.31c0.505,0.438 1.059,0.817 1.65,1.13c2,3.45 3.81,7 5.48,10.58c0.26,-0.39 0.43,-0.829 0.51,-1.29c0.21,0.325 0.45,0.629 0.71,0.91c0.7,0.674 1.48,1.249 2.33,1.71c0.82,0.557 1.77,0.9 2.76,1c1.33,-0.035 2.59,-0.583 3.53,-1.53c2.91,-2.55 4.36,-6.34 5.71,-10c1.93,-4.751 3.37,-9.686 4.3,-14.73c0.82,-5.43 0.47,-11.07 2,-16.34c-1.39,-2.76 -2.27,-5.81 -3.83,-8.48c-1,-1.583 -1.88,-3.237 -2.64,-4.95c-1.47,-3.645 -1.63,-7.687 -0.47,-11.44c-0.57,-0.362 -1.31,-0.322 -1.83,0.1c-0.5,0.43 -0.88,0.981 -1.1,1.6c-0.9,2.118 -1.28,4.425 -1.09,6.72c0.11,0.553 0.04,1.127 -0.19,1.64c-0.43,0.529 -1.1,0.811 -1.78,0.75c-1.4,-0.06 -2.79,-0.313 -4.12,-0.75c-3.75,-0.951 -7.62,-1.329 -11.48,-1.12c-0.307,-0.359 -0.641,-0.693 -1,-1l-0.43,-0.35l-0.44,-0.34l-0.22,-0.18c-0.147,-0.115 -0.287,-0.239 -0.42,-0.37c-0.541,-0.437 -0.898,-1.062 -1,-1.75c-0.005,-0.087 -0.005,-0.173 0,-0.26c-0.005,-0.08 -0.005,-0.16 0,-0.24c0.051,-0.241 0.128,-0.476 0.23,-0.7c0.065,-0.154 0.139,-0.304 0.22,-0.45l0.11,-0.23c-0,-0.07 0.07,-0.15 0.11,-0.22c0.126,-0.272 0.233,-0.553 0.32,-0.84c0.091,-0.284 0.161,-0.575 0.21,-0.87c0.05,-0.294 0.08,-0.592 0.09,-0.89l-0,-1.35c-0.064,-0.604 -0.187,-1.201 -0.37,-1.78c-0.13,-0.437 -0.291,-0.865 -0.48,-1.28c-0.25,-0.544 -0.534,-1.072 -0.85,-1.58c-0.64,-1.022 -1.355,-1.995 -2.14,-2.91l-0.59,-0.69l-0.6,-0.68c-0.621,-0.676 -1.202,-1.387 -1.74,-2.13c-0.405,-0.55 -0.741,-1.148 -1,-1.78c-0.08,-0.21 -0.15,-0.42 -0.21,-0.64c-0.1,-0.407 -0.16,-0.822 -0.18,-1.24l-0,-0.41c-0.004,-0.558 0.023,-1.115 0.08,-1.67c0.08,-0.78 0.19,-1.57 0.3,-2.37c0.07,-0.53 0.15,-1.06 0.22,-1.59c-0,-0.26 0.06,-0.53 0.1,-0.79c0.06,-0.53 0.12,-1.06 0.16,-1.59c0.15,-1.548 0.062,-3.109 -0.26,-4.63c-0.113,-0.506 -0.27,-1.002 -0.47,-1.48c-0.266,-0.635 -0.602,-1.238 -1,-1.8c-1.419,-1.928 -3.344,-3.426 -5.56,-4.33c-1.635,-0.719 -3.341,-1.266 -5.09,-1.63c-0.7,-0.15 -1.39,-0.28 -2.08,-0.39c-10.4,-1.67 -21.44,1.49 -28,10c-3.42,4.42 -6.33,9.38 -7.57,14.83c-1.24,5.45 -0.68,11.49 2.39,16.17c1.29,2 3,3.68 4.13,5.74c0.94,1.68 1.5,3.57 2.51,5.21c1.338,2.079 3.273,3.707 5.55,4.67l-0.44,0.4c-1.036,-0.1 -2.079,-0.08 -3.11,0.06c-1.06,0.18 -2.09,0.59 -3.16,0.72c-1.32,0.17 -2.67,-0.09 -4,0.08c-2.46,0.32 -4.48,2 -6.35,3.65c-2.19,1.91 -4.54,4.14 -4.71,7l0,0.08l-1.47,2c-0.359,0.448 -0.667,0.935 -0.92,1.45c-0.59,1.39 -0.26,3 -0.58,4.48c-0.248,0.944 -0.64,1.844 -1.16,2.67c-1.478,2.608 -3.15,5.102 -5,7.46c-0.85,1.2 -1.902,2.242 -3.11,3.08c-0.96,0.632 -2.091,0.953 -3.24,0.92c-1.718,-0.834 -3.313,-1.9 -4.74,-3.17c-1.583,-1.578 -2.988,-3.325 -4.19,-5.21c-2.38,-3.43 5,6.83 2.62,3.39l-21.34,-35.56c-0.429,-1.659 -0.71,-3.352 -0.84,-5.06c0,-0.65 -0.27,-1.51 -0.93,-1.53c-0.287,0.02 -0.555,0.149 -0.75,0.36c-1.03,0.938 -1.548,2.316 -1.39,3.7c-1.124,-0.175 -2.275,0.03 -3.27,0.58c-0.496,0.35 -0.792,0.921 -0.792,1.528c0,0.409 0.134,0.807 0.382,1.132l0,0.27c-0.549,0.282 -0.853,0.892 -0.75,1.5c-1.153,-0.363 -2.398,-0.302 -3.51,0.17c-1.05,0.59 -1.45,2.32 -0.43,3c-1.192,0.462 -1.976,1.622 -1.96,2.9Zm133.68,5.1c0.61,0.196 1.24,0.357 1.87,0.48c2,0.466 3.94,1.136 5.8,2c0.61,0.215 1.13,0.609 1.51,1.13c0.36,0.926 0.3,1.967 -0.18,2.84l-2.64,7.13c-0.42,1.12 -0.83,2.24 -1.35,3.31c-0.2,0.43 -0.43,0.86 -0.66,1.28c-0.08,-0.24 -0.16,-0.47 -0.24,-0.69c-0.76,-2.174 -1.4,-4.391 -1.9,-6.64c-0.44,-1.94 -0.81,-3.9 -1.12,-5.86c-0.22,-1.69 -0.59,-3.356 -1.11,-4.98l0.02,-0Zm-2.76,-5.59l0.2,0.14c0.26,0.115 0.49,0.278 0.69,0.48c0.17,0.313 0.17,0.687 0,1l-0.89,-1.62Zm-4.77,-6.87l3.16,0.46c0.76,0.042 1.5,0.295 2.13,0.73c0.63,0.469 0.76,1.372 0.29,2c-0.22,0.177 -0.45,0.334 -0.7,0.47c-0.64,0.477 -0.94,1.294 -0.75,2.07c-0.53,-0.98 -1.14,-1.92 -1.81,-2.81c-0.62,-0.794 -1.33,-1.519 -2.11,-2.16c-0.07,-0.25 -0.13,-0.51 -0.21,-0.76Zm-30.37,227.33c0.39,0.02 0.78,0.02 1.17,-0c-0.184,0.935 -0.247,1.889 -0.19,2.84l-0.98,-2.84Z" style="fill:url(#_Linear1);fill-rule:nonzero;"/></g><g><path d="M921.92,339.11c5.49,0.88 11.59,3 13.69,8.14c1.58,3.89 0.36,8.26 -0,12.44c-0.155,1.102 -0.115,2.222 0.12,3.31c0.596,1.723 1.589,3.282 2.9,4.55c1.676,1.731 3.085,3.703 4.18,5.85c1.092,2.184 1.194,4.736 0.28,7c-0.347,0.563 -0.582,1.188 -0.69,1.84c-0.07,1.43 1.42,2.33 2.52,3.24c4.12,3.41 3.94,9.62 4,15c0.073,10.94 2.52,21.735 7.16,31.64c-3.54,1.8 -7.855,1.239 -10.82,-1.41c0.574,2.438 1.399,4.811 2.46,7.08c-3.49,1.69 -7.69,-1.09 -9.43,-4.54c-1.74,-3.45 -2,-7.48 -3.2,-11.14c-1.2,-3.66 -3.49,-6.89 -4.49,-10.58c-0.193,-1.247 -0.617,-2.448 -1.25,-3.54c-0.628,-0.738 -1.371,-1.369 -2.2,-1.87c-3.616,-2.613 -6.327,-6.292 -7.75,-10.52c-4.27,1 -8.62,1.89 -13,1.5c-4.38,-0.39 -8.79,-2.37 -11.08,-6.09c-1,-1.64 -1.57,-3.53 -2.51,-5.21c-1.15,-2.06 -2.85,-3.75 -4.14,-5.73c-3.06,-4.68 -3.62,-10.69 -2.38,-16.15c1.24,-5.46 4.14,-10.39 7.57,-14.81c6.63,-8.51 17.67,-11.67 28.06,-10Z" style="fill:#3a3768;fill-rule:nonzero;"/></g><g><path d="M921.92,339.11c5.49,0.88 11.59,3 13.69,8.14c1.58,3.89 0.36,8.26 -0,12.44c-0.155,1.102 -0.115,2.222 0.12,3.31c0.596,1.723 1.589,3.282 2.9,4.55c1.676,1.731 3.085,3.703 4.18,5.85c1.092,2.184 1.194,4.736 0.28,7c-0.347,0.563 -0.582,1.188 -0.69,1.84c-0.07,1.43 1.42,2.33 2.52,3.24c4.12,3.41 3.94,9.62 4,15c0.073,10.94 2.52,21.735 7.16,31.64c-3.54,1.8 -7.855,1.239 -10.82,-1.41c0.574,2.438 1.399,4.811 2.46,7.08c-3.49,1.69 -7.69,-1.09 -9.43,-4.54c-1.74,-3.45 -2,-7.48 -3.2,-11.14c-1.2,-3.66 -3.49,-6.89 -4.49,-10.58c-0.193,-1.247 -0.617,-2.448 -1.25,-3.54c-0.628,-0.738 -1.371,-1.369 -2.2,-1.87c-3.616,-2.613 -6.327,-6.292 -7.75,-10.52c-4.27,1 -8.62,1.89 -13,1.5c-4.38,-0.39 -8.79,-2.37 -11.08,-6.09c-1,-1.64 -1.57,-3.53 -2.51,-5.21c-1.15,-2.06 -2.85,-3.75 -4.14,-5.73c-3.06,-4.68 -3.62,-10.69 -2.38,-16.15c1.24,-5.46 4.14,-10.39 7.57,-14.81c6.63,-8.51 17.67,-11.67 28.06,-10Z" style="fill:#3f3d56;fill-rule:nonzero;"/></g><g><path d="M956.54,407.68c0.31,2 0.68,3.92 1.13,5.87c0.49,2.243 1.13,4.454 1.89,6.62c0.44,0.937 0.64,1.967 0.59,3c-0.13,0.645 -0.38,1.261 -0.73,1.82c-2.51,4.45 -5.89,8.75 -6.18,13.85c-0.07,1.27 0,2.64 -0.68,3.69c-1.94,-4.16 -4.077,-8.22 -6.41,-12.18c-2.44,-4.14 -5.15,-8.32 -5.85,-13.08c-0.278,-2.233 -0.251,-4.494 0.08,-6.72c0.181,-2.526 1.015,-4.963 2.42,-7.07c1.65,-2.16 6.2,-5.43 9.14,-4.76c3.45,0.84 4.16,6.17 4.6,8.96Z" style="fill:#f86d70;fill-rule:nonzero;"/></g><g><path d="M868.17,431.67c-3.28,-1.34 -6.62,-2.75 -9.23,-5.16c-1.585,-1.573 -2.99,-3.317 -4.19,-5.2l-7.71,-11.14c-1.83,-2.65 -3.71,-5.43 -4.1,-8.62c-4.517,-4.764 -7.243,-10.952 -7.71,-17.5c0,-0.66 -0.26,-1.51 -0.92,-1.53c-0.289,0.021 -0.561,0.149 -0.76,0.36c-1.025,0.941 -1.538,2.318 -1.38,3.7c-1.123,-0.178 -2.273,0.023 -3.27,0.57c-0.92,0.66 -1.16,2.29 -0.17,2.84c-0.686,0.198 -1.119,0.886 -1,1.59c-1.152,-0.37 -2.399,-0.309 -3.51,0.17c-1,0.59 -1.45,2.31 -0.43,3c-1.231,0.434 -2.044,1.625 -2,2.93c0.061,1.263 0.527,2.473 1.33,3.45c3,4 8.2,5.58 11.63,9.16c1.124,1.236 2.128,2.575 3,4l9.95,15.14c3.16,4.81 6.41,9.71 10.92,13.29c1.165,1.029 2.556,1.769 4.06,2.16c1.53,0.385 3.155,-0.064 4.27,-1.18c1,-1.13 1.15,-2.76 1.25,-4.26c0.24,-2.55 -0.2,-5.2 -0.03,-7.77Z" style="fill:#a1616a;fill-rule:nonzero;"/></g><g><path d="M901.48,641.89c-0.394,0.395 -0.749,0.827 -1.06,1.29c-0.673,1.108 -0.837,2.453 -0.45,3.69c0.405,1.225 1.269,2.247 2.41,2.85c0.266,0.123 0.521,0.27 0.76,0.44c0.147,0.144 0.304,0.278 0.47,0.4c0.308,0.157 0.655,0.223 1,0.19c2.665,-0.157 5.304,-0.606 7.87,-1.34c1.209,-0.184 2.338,-0.716 3.25,-1.53c0.502,-0.64 0.878,-1.37 1.11,-2.15l0.93,-2.6c0.613,-1.571 1.094,-3.19 1.44,-4.84c0.335,-1.662 0.246,-3.382 -0.26,-5c-0.225,0.285 -0.348,0.637 -0.35,1c-0.268,1.753 -0.954,3.417 -2,4.85c-0.216,0.365 -0.478,0.702 -0.78,1c-0.683,0.526 -1.488,0.87 -2.34,1c-1.645,0.359 -3.318,0.573 -5,0.64c-0.23,0.024 -0.462,-0.003 -0.68,-0.08c-0.277,-0.152 -0.482,-0.407 -0.57,-0.71c-0.229,-0.647 -0.229,-1.353 0,-2c0.45,-1.26 1.69,-2.09 2.29,-3.3c0.44,-0.89 -0.17,-1.87 -1.08,-1.12c-0.811,0.763 -1.576,1.575 -2.29,2.43l-4.67,4.89Z" style="fill:#3f3d56;fill-rule:nonzero;"/></g><g><path d="M910.1,623.89c0.27,4.19 0.45,8.71 -1.84,12.22c-0.82,1.27 -1.93,2.33 -2.87,3.52c-0.531,0.595 -0.878,1.332 -1,2.12c-0.14,1.53 1.3,2.85 2.82,3.13c1.54,0.163 3.097,-0.061 4.53,-0.65c1.39,-0.345 2.698,-0.96 3.85,-1.81c2,-1.69 2.52,-4.5 2.92,-7.08l0.93,-6c0.282,-1.439 0.396,-2.905 0.34,-4.37c-0.192,-1.613 -0.585,-3.195 -1.17,-4.71l-1.54,-4.5c-0.103,-0.436 -0.341,-0.828 -0.68,-1.12c-0.36,-0.187 -0.768,-0.26 -1.17,-0.21c-1.47,0.07 -5.18,0.61 -5.89,2.16c-0.65,1.4 0.67,5.72 0.77,7.3Z" style="fill:#ee8e9e;fill-rule:nonzero;"/></g><g><path d="M910.1,623.89c0.27,4.19 0.45,8.71 -1.84,12.22c-0.82,1.27 -1.93,2.33 -2.87,3.52c-0.531,0.595 -0.878,1.332 -1,2.12c-0.14,1.53 1.3,2.85 2.82,3.13c1.54,0.163 3.097,-0.061 4.53,-0.65c1.39,-0.345 2.698,-0.96 3.85,-1.81c2,-1.69 2.52,-4.5 2.92,-7.08l0.93,-6c0.282,-1.439 0.396,-2.905 0.34,-4.37c-0.192,-1.613 -0.585,-3.195 -1.17,-4.71l-1.54,-4.5c-0.103,-0.436 -0.341,-0.828 -0.68,-1.12c-0.36,-0.187 -0.768,-0.26 -1.17,-0.21c-1.47,0.07 -5.18,0.61 -5.89,2.16c-0.65,1.4 0.67,5.72 0.77,7.3Z" style="fill-opacity:0.05;fill-rule:nonzero;"/></g><g><path d="M877.15,499.74c-0.005,0.036 -0.005,0.074 0,0.11c0.083,0.596 0.273,1.172 0.56,1.7c1.253,2.759 1.985,5.725 2.16,8.75c-0.015,0.747 0.082,1.492 0.29,2.21c0.314,0.681 0.693,1.331 1.13,1.94c1.33,2.17 1.64,4.78 2.09,7.29c0.574,3.254 1.427,6.452 2.55,9.56c1.53,4.23 3.59,8.57 2.89,13c-0.266,1.046 -0.4,2.121 -0.4,3.2c0.192,1.194 0.617,2.339 1.25,3.37c0.52,1 1,2.06 1.41,3.12c0.41,1.06 0.85,2.31 1.19,3.48c0.41,1.44 0.69,3.14 -0.26,4.29c-0.295,0.28 -0.553,0.596 -0.77,0.94c-0.18,0.525 -0.18,1.095 0,1.62c0.54,2.28 1.12,4.557 1.74,6.83c0.48,1.78 1,3.55 1.51,5.32c3.86,12.94 8.22,25.75 10.81,39c0.37,1.91 2.81,3.28 4.71,3.69c1.93,0.415 3.946,-0.125 5.41,-1.45c0.136,-0.113 0.263,-0.237 0.38,-0.37c2,-2.14 2.27,-5.42 2.13,-8.38c-0.67,-13.64 -7.54,-26.12 -10.81,-39.38c-1.18,-4.789 -1.89,-9.683 -2.12,-14.61c-0.77,-16.47 -1.07,-33.87 3.58,-49.68c1,-3.29 2.11,-7 0.37,-10c-1.1,-1.86 -3.13,-3 -5.14,-3.76c-8.299,-3.248 -17.568,-3.009 -25.69,0.66c-0.021,0.333 -0.021,0.667 0,1c0.175,1.533 -0.003,3.086 -0.52,4.54c-0.274,0.636 -0.426,1.318 -0.45,2.01Z" style="fill:#3f3d56;fill-rule:nonzero;"/></g><g><path d="M933.52,628.13l0.87,3.17c0.461,1.908 1.08,3.774 1.85,5.58c0.656,1.211 1.208,2.476 1.65,3.78c0.238,1.066 0.332,2.159 0.28,3.25c0.012,1.041 -0.14,2.077 -0.45,3.07c-0.831,1.987 -2.462,3.534 -4.49,4.26c-2.006,0.7 -4.106,1.094 -6.23,1.17c-0.543,0.09 -1.097,0.09 -1.64,0c-0.58,-0.169 -1.12,-0.451 -1.59,-0.83c-2.89,-2.12 -4.38,-6 -4.64,-9.61c0.076,-0.832 0.241,-1.653 0.49,-2.45c0.22,-0.3 2.41,0.93 1.47,2c-1.38,1.53 2.67,0.74 4.73,0.61c0.903,-0.083 1.798,-0.23 2.68,-0.44l3.33,-0.71c1.09,-0.24 2.35,-0.61 2.73,-1.66c0.38,-1.05 -0.46,-2.29 -1.11,-3.3c-1.75,-2.69 -2.19,-6 -2.6,-9.17c-0.08,-0.63 -0.86,-4.68 0.75,-3.42c0.557,0.59 0.944,1.319 1.12,2.11c0.31,0.8 0.55,1.69 0.8,2.59Z" style="fill:#3f3d56;fill-rule:nonzero;"/></g><g><path d="M892.02,561.77c1,-1.15 0.67,-2.85 0.26,-4.28c-0.16,-0.54 -0.32,-1.07 -0.5,-1.6l13.09,-4.42c0,1.17 0.1,2.34 0.15,3.51c0.231,4.931 0.941,9.827 2.12,14.62c3.27,13.25 10.14,25.73 10.81,39.36c0.15,3.14 -0.18,6.65 -2.5,8.77c-1.472,1.317 -3.489,1.853 -5.42,1.44c-1.89,-0.41 -4.34,-1.78 -4.71,-3.69c-2.59,-13.25 -7,-26.06 -10.81,-39c-1.2,-4 -2.283,-8.053 -3.25,-12.16c-0.175,-0.522 -0.175,-1.088 0,-1.61c0.213,-0.344 0.469,-0.659 0.76,-0.94Z" style="fill-opacity:0.05;fill-rule:nonzero;"/></g><g><path d="M928.2,613.76c1,1.78 2.61,3.36 2.85,5.4c-0.002,1.24 -0.079,2.479 -0.23,3.71c0.051,1.02 0.236,2.028 0.55,3c1.267,4.6 2.733,9.14 4.4,13.62c0.273,0.577 0.393,1.214 0.35,1.85c-0.319,1.035 -1.133,1.846 -2.17,2.16c-3.11,1.33 -6.63,1.24 -10,1.1c-0.983,0.05 -1.961,-0.179 -2.82,-0.66c-1.21,-0.83 -1.51,-2.47 -1.59,-3.93c-0.23,-4.25 0.49,-8.52 0,-12.75c-0.16,-1.54 -0.49,-3.06 -0.73,-4.58c-0.45,-2.118 -0.382,-4.314 0.2,-6.4c0.578,-1.452 1.385,-2.803 2.39,-4c0.89,-1.307 2.02,-2.434 3.33,-3.32c0.4,-0.24 1.53,-1 1.93,-0.51c0.21,0.23 0.12,0.85 0.15,1.14c0.051,0.444 0.127,0.885 0.23,1.32c0.249,1 0.64,1.96 1.16,2.85Z" style="fill:#ee8e9e;fill-rule:nonzero;"/></g><g><path d="M903.03,505.05c0.515,0.916 0.606,2.012 0.25,3c-0.44,1.81 -1.16,3.54 -1.75,5.31c-0.969,3.162 -1.724,6.386 -2.26,9.65c-0.55,2.95 -1.71,6.23 -1.23,9.2c-3.595,6.803 -5.965,14.186 -7,21.81c-0.27,1.95 4.07,4.48 4,6.45c-0.16,3.92 -3.29,4.23 -1,7.36c0.11,0.16 -0.87,3.66 -0.74,3.81c0.94,1.13 2.13,2 3.14,3.09c1.301,1.473 2.413,3.102 3.31,4.85c6,10.78 14.59,23 11.93,35c-0.108,0.885 0.348,1.75 1.14,2.16c0.787,0.378 1.647,0.576 2.52,0.58l0.42,-0c2,-2.14 2.27,-5.42 2.13,-8.38c-0.67,-13.64 -7.54,-26.12 -10.81,-39.38c-1.18,-4.789 -1.89,-9.683 -2.12,-14.61c-0.77,-16.47 -1.07,-33.87 3.58,-49.68c1,-3.29 2.11,-7 0.37,-10c-1.1,-1.86 -3.13,-3 -5.14,-3.76c-8.299,-3.248 -17.568,-3.009 -25.69,0.66c-0.021,0.333 -0.021,0.667 0,1c0.175,1.533 -0.003,3.086 -0.52,4.54c-0.293,0.629 -0.466,1.307 -0.51,2c-0.044,0.693 -0.24,-2.65 -0.24,-2.61c5.35,0.77 10.93,4.26 16.28,5c2.779,0.291 5.516,0.895 8.16,1.8c0.697,0.193 1.318,0.594 1.78,1.15Z" style="fill-opacity:0.05;fill-rule:nonzero;"/></g><g><path d="M940.05,475.89c0.72,2.29 1.36,4.6 1.9,6.93c0.246,0.802 0.311,1.65 0.19,2.48c-0.289,0.749 -0.536,1.514 -0.74,2.29c-0.12,1.23 0.73,2.31 1.21,3.46c1.21,2.92 -0.08,6.21 -1.35,9.1l-3.79,8.57l-3.1,7c-0.92,2.09 -1.84,4.18 -2.73,6.29c-4.043,9.604 -7.346,19.503 -9.88,29.61c-0.085,0.459 -0.259,0.897 -0.51,1.29c-0.53,0.7 -1.48,0.9 -2.25,1.33c-1.192,0.771 -1.913,2.098 -1.913,3.517c-0,1.218 0.531,2.378 1.453,3.173c-0.44,5.15 3.42,10.12 5.41,14.89c4.57,11 3.74,23.32 5.32,35.1l-1.78,-1c-1.71,0.78 -1.65,3.2 -2.56,4.83c-1.38,2.46 -4.75,2.81 -7.56,2.62c-0.876,-0.003 -1.74,-0.201 -2.53,-0.58c-0.79,-0.411 -1.243,-1.276 -1.13,-2.16c2.65,-12 -6,-24.25 -11.94,-35c-0.895,-1.746 -2.007,-3.372 -3.31,-4.84c-1,-1.07 -2.19,-2 -3.14,-3.1c-2.63,-3.16 -3,-7.62 -2.79,-11.73c0.42,-9.67 2.971,-19.13 7.47,-27.7c-0.47,-3 0.69,-6.25 1.24,-9.2c0.528,-3.264 1.28,-6.489 2.25,-9.65c0.59,-1.77 1.31,-3.5 1.75,-5.31c0.359,-0.987 0.271,-2.083 -0.24,-3c-0.445,-0.52 -1.033,-0.899 -1.69,-1.09c-2.645,-0.901 -5.382,-1.505 -8.16,-1.8l-18.38,-2.64c-0.59,-3.78 -1.19,-8 -0.78,-11.78c0.902,-7.188 6.034,-13.172 13,-15.16c0.777,-0.321 1.659,-0.265 2.39,0.15c16.219,-3.178 32.987,-2.106 48.67,3.11Z" style="fill:#3f3d56;fill-rule:nonzero;"/></g><g><path d="M923.35,376.5c-0.269,1.794 0.009,3.628 0.8,5.26c0.543,0.896 1.252,1.68 2.09,2.31c1.774,1.434 3.844,2.459 6.06,3c1.3,0.33 2.76,0.55 3.62,1.59c1.29,1.56 0.43,3.91 -0.67,5.61c-1.9,3 -4.55,5.65 -7.94,6.57c-2.71,0.74 -5.61,0.29 -8.38,0.77c-2,0.35 -3.9,1.18 -5.88,1.65c-5.737,1.33 -11.773,-0.349 -16,-4.45c2.94,-2.26 6,-4.67 7.53,-8.06c1.075,-2.423 1.276,-5.145 0.57,-7.7c-0.71,-2.51 -2.3,-5 -1.8,-7.52c0.5,-2.52 3,-4.32 5.51,-5.19c2.257,-0.697 4.579,-1.166 6.93,-1.4c1.29,-0.18 9.52,-2 10,-1.1c0.29,0.51 -1.42,3.51 -1.63,4.17c-0.482,1.45 -0.755,2.962 -0.81,4.49Z" style="fill:#a1616a;fill-rule:nonzero;"/></g><g><path d="M923.35,376.5c-0.269,1.794 0.009,3.628 0.8,5.26c0.543,0.896 1.252,1.68 2.09,2.31c1.774,1.434 3.844,2.459 6.06,3c1.3,0.33 2.76,0.55 3.62,1.59c1.29,1.56 0.43,3.91 -0.67,5.61c-1.9,3 -4.55,5.65 -7.94,6.57c-2.71,0.74 -5.61,0.29 -8.38,0.77c-2,0.35 -3.9,1.18 -5.88,1.65c-5.737,1.33 -11.773,-0.349 -16,-4.45c2.94,-2.26 6,-4.67 7.53,-8.06c1.075,-2.423 1.276,-5.145 0.57,-7.7c-0.71,-2.51 -2.3,-5 -1.8,-7.52c0.5,-2.52 3,-4.32 5.51,-5.19c2.257,-0.697 4.579,-1.166 6.93,-1.4c1.29,-0.18 9.52,-2 10,-1.1c0.29,0.51 -1.42,3.51 -1.63,4.17c-0.482,1.45 -0.755,2.962 -0.81,4.49Z" style="fill-opacity:0.05;fill-rule:nonzero;"/></g><circle cx="913" cy="365.81" r="16.69" style="fill:#a1616a;"/><g><path d="M921.81,393.4l-11.31,1.9c-2.784,0.566 -5.619,0.851 -8.46,0.85c-1.55,-0.15 -3.11,-0.15 -4.66,-0c-1.07,0.18 -2.09,0.59 -3.17,0.72c-1.32,0.17 -2.66,-0.08 -4,0.09c-2.46,0.31 -4.48,2 -6.35,3.64c-2.19,1.9 -4.54,4.13 -4.7,7c-0.043,0.339 0.002,0.683 0.13,1c0.215,0.349 0.502,0.649 0.84,0.88c2.08,1.7 3.25,4.25 4.73,6.5c1.526,2.317 3.425,4.364 5.62,6.06c0.5,-0.32 1.44,0.52 1.22,1.06c-0.22,0.54 -0.75,0.93 -0.93,1.49c-0.4,1.28 1.18,2.22 1.83,3.4c0.65,1.18 0.33,2.66 0.4,4c0.07,1.34 0.67,2.93 0.87,4.43c0.45,3.47 -1.26,7.13 -0,10.42c-1.539,-0.03 -2.902,1.03 -3.25,2.53c-0.306,1.47 -0.262,2.991 0.13,4.44c-1.959,1.154 -3.118,3.31 -3,5.58c0.043,0.113 0.065,0.233 0.065,0.353c-0,0.468 -0.328,0.876 -0.785,0.977c-2.107,0.875 -3.482,2.949 -3.47,5.23c0.048,0.373 0.014,0.752 -0.1,1.11c-0.201,0.343 -0.482,0.631 -0.82,0.84c-1.542,1.242 -2.437,3.12 -2.43,5.1c-0.068,1.34 0.59,2.617 1.72,3.34c2.427,1.074 4.981,1.834 7.6,2.26c2.428,0.567 4.885,1.001 7.36,1.3c2.291,0.19 4.591,0.26 6.89,0.21l15.14,-0.06c4.25,0 8.51,0 12.76,-0.32c4,-0.26 8,-0.76 11.85,0.28c0.48,-0.81 -0.29,-1.75 -0.76,-2.57c-0.542,-1.11 -0.839,-2.325 -0.87,-3.56l-0.95,-10.09c-0.191,-1.385 -0.218,-2.788 -0.08,-4.18c0.21,-1.49 0.77,-2.9 1.06,-4.37c0.55,-2.83 -0,-5.75 0.18,-8.63c0.19,-2.541 0.633,-5.057 1.32,-7.51l3,-12.35c0.355,-2.094 0.849,-4.162 1.48,-6.19c2.3,-5.933 4.72,-11.813 7.25,-17.64c0.19,-0.513 0.15,-1.086 -0.13,-1.56l-2.5,-4.49c-0.67,-1.272 -1.44,-2.493 -2.29,-3.65c-2.116,-2.672 -5.11,-4.511 -8.45,-5.19c-3.343,-0.647 -6.809,-0.131 -9.82,1.46c-1.17,0.62 -2.25,1.39 -3.44,2c-2.01,1 -4.46,2.06 -6.72,1.91Z" style="fill:#f86d70;fill-rule:nonzero;"/></g><g><path d="M881.65,404.39l-3.94,5.26c-0.368,0.442 -0.677,0.929 -0.92,1.45c-0.6,1.38 -0.27,3 -0.59,4.46c-0.241,0.945 -0.629,1.846 -1.15,2.67c-1.483,2.605 -3.154,5.098 -5,7.46c-0.86,1.191 -1.911,2.231 -3.11,3.08c-1.227,0.84 -2.76,1.11 -4.2,0.74c0.597,0.234 1.088,0.679 1.38,1.25c1.398,3.054 1.75,6.486 1,9.76c-0.182,1.121 -0.554,2.204 -1.1,3.2c-0.552,0.998 -1.442,1.768 -2.51,2.17c0.251,1.823 1.825,3.196 3.665,3.196c0.234,0 0.466,-0.022 0.695,-0.066c0.775,-0.237 1.505,-0.602 2.16,-1.08l6.33,-4.1c1.061,-0.626 2.051,-1.367 2.95,-2.21c1.18,-1.18 2,-2.67 3.16,-3.89c2,-2.07 4.84,-3.31 6.23,-5.81c0.87,-1.56 1,-3.41 1.55,-5.12c0.35,-1.11 0.87,-2.17 1.2,-3.29c0.895,-3.552 0.431,-7.312 -1.3,-10.54c-1.63,-3.25 -4.16,-5.83 -6.5,-8.59Z" style="fill:#f86d70;fill-rule:nonzero;"/></g><g><path d="M896.51,356.3c1.54,-2.4 3.534,-4.475 5.87,-6.11c3.11,-2.33 6.7,-4.26 10.59,-4.48c1.624,-0.087 3.248,0.179 4.76,0.78c0.08,-4.72 1.25,-7.85 4.19,-7.38c5.49,0.88 11.59,3 13.69,8.14c1.58,3.89 0.36,8.26 -0,12.44c-0.155,1.102 -0.115,2.222 0.12,3.31c0.596,1.723 1.589,3.282 2.9,4.55c1.676,1.731 3.085,3.703 4.18,5.85c1.092,2.184 1.194,4.736 0.28,7c-0.347,0.563 -0.582,1.188 -0.69,1.84c-0.07,1.43 1.42,2.33 2.52,3.24c4.12,3.41 3.94,9.62 4,15c0.073,10.94 2.52,21.735 7.16,31.64c-3.54,1.8 -7.855,1.239 -10.82,-1.41c0.574,2.438 1.399,4.811 2.46,7.08c-3.49,1.69 -7.69,-1.09 -9.43,-4.54c-1.74,-3.45 -2,-7.48 -3.2,-11.14c-1.2,-3.66 -3.49,-6.89 -4.49,-10.58c-0.193,-1.247 -0.617,-2.448 -1.25,-3.54c-0.628,-0.738 -1.371,-1.369 -2.2,-1.87c-3.59,-2.58 1.7,-22.12 0.3,-26.31c-2.09,0.45 -5.93,-9.63 -8.12,-19.88c-1.524,0.528 -3.151,0.692 -4.75,0.48c-0.557,-0.125 -1.131,-0.165 -1.7,-0.12c-0.525,0.111 -1.026,0.314 -1.48,0.6c-1.613,0.996 -3.302,1.866 -5.05,2.6c-3.62,1.35 -7.61,1.17 -11.46,1c-0.519,-2.836 0.061,-5.765 1.62,-8.19Z" style="fill:#3a3768;fill-rule:nonzero;"/></g><g><path d="M896.51,356.3c1.54,-2.4 3.534,-4.475 5.87,-6.11c3.11,-2.33 6.7,-4.26 10.59,-4.48c1.624,-0.087 3.248,0.179 4.76,0.78c0.08,-4.72 1.25,-7.85 4.19,-7.38c5.49,0.88 11.59,3 13.69,8.14c1.58,3.89 0.36,8.26 -0,12.44c-0.155,1.102 -0.115,2.222 0.12,3.31c0.596,1.723 1.589,3.282 2.9,4.55c1.676,1.731 3.085,3.703 4.18,5.85c1.092,2.184 1.194,4.736 0.28,7c-0.347,0.563 -0.582,1.188 -0.69,1.84c-0.07,1.43 1.42,2.33 2.52,3.24c4.12,3.41 3.94,9.62 4,15c0.073,10.94 2.52,21.735 7.16,31.64c-3.54,1.8 -7.855,1.239 -10.82,-1.41c0.574,2.438 1.399,4.811 2.46,7.08c-3.49,1.69 -7.69,-1.09 -9.43,-4.54c-1.74,-3.45 -2,-7.48 -3.2,-11.14c-1.2,-3.66 -3.49,-6.89 -4.49,-10.58c-0.193,-1.247 -0.617,-2.448 -1.25,-3.54c-0.628,-0.738 -1.371,-1.369 -2.2,-1.87c-3.59,-2.58 1.7,-22.12 0.3,-26.31c-2.09,0.45 -5.93,-9.63 -8.12,-19.88c-1.524,0.528 -3.151,0.692 -4.75,0.48c-0.557,-0.125 -1.131,-0.165 -1.7,-0.12c-0.525,0.111 -1.026,0.314 -1.48,0.6c-1.613,0.996 -3.302,1.866 -5.05,2.6c-3.62,1.35 -7.61,1.17 -11.46,1c-0.519,-2.836 0.061,-5.765 1.62,-8.19Z" style="fill:#3f3d56;fill-rule:nonzero;"/></g><g opacity="0.1"><g><path d="M954.04,432.09c-4.639,-9.907 -7.082,-20.701 -7.16,-31.64c0,-5.35 0.15,-11.56 -4,-15c-1.1,-0.91 -2.59,-1.81 -2.53,-3.24c0.112,-0.653 0.35,-1.278 0.7,-1.84c0.909,-2.265 0.807,-4.815 -0.28,-7c-1.095,-2.147 -2.504,-4.119 -4.18,-5.85c-1.314,-1.267 -2.311,-2.826 -2.91,-4.55c-0.225,-1.089 -0.265,-2.208 -0.12,-3.31c0.41,-4.18 1.64,-8.55 -0,-12.44c-2,-5 -7.81,-7.12 -13.16,-8.05c0.466,-0.147 0.96,-0.178 1.44,-0.09c5.49,0.88 11.59,3 13.69,8.14c1.58,3.89 0.36,8.26 -0,12.44c-0.155,1.102 -0.115,2.222 0.12,3.31c0.596,1.723 1.589,3.282 2.9,4.55c1.676,1.731 3.085,3.703 4.18,5.85c1.092,2.184 1.194,4.736 0.28,7c-0.347,0.563 -0.582,1.188 -0.69,1.84c-0.07,1.43 1.42,2.33 2.52,3.24c4.12,3.41 3.94,9.62 4,15c0.073,10.94 2.52,21.735 7.16,31.64c-1.63,0.847 -3.47,1.194 -5.3,1c1.17,-0.114 2.3,-0.453 3.34,-1Z" style="fill-rule:nonzero;"/></g><g><path d="M945.69,437.76c-1.066,-2.267 -1.89,-4.64 -2.46,-7.08c0.703,0.644 1.503,1.174 2.37,1.57c0.521,1.886 1.189,3.729 2,5.51c-1.006,0.476 -2.137,0.62 -3.23,0.41c0.457,-0.076 0.901,-0.214 1.32,-0.41Z" style="fill-rule:nonzero;"/></g><g><path d="M915.77,346.49c-1.019,-0.4 -2.09,-0.652 -3.18,-0.75l0.38,0c0.945,-0.05 1.893,0.021 2.82,0.21c-0.01,0.16 -0.02,0.34 -0.02,0.54Z" style="fill-rule:nonzero;"/></g><g><path d="M904.41,363.49c1.752,-0.734 3.443,-1.603 5.06,-2.6c0.453,-0.288 0.954,-0.491 1.48,-0.6c0.522,-0.045 1.047,-0.015 1.56,0.09c-0.375,0.135 -0.737,0.306 -1.08,0.51c-1.613,0.996 -3.302,1.866 -5.05,2.6c-2.729,0.897 -5.603,1.271 -8.47,1.1c2.212,-0.006 4.409,-0.378 6.5,-1.1Z" style="fill-rule:nonzero;"/></g><g><path d="M917.4,359.89l0.09,0.45c-0.82,0.128 -1.654,0.152 -2.48,0.07c0.814,-0.084 1.615,-0.258 2.39,-0.52Z" style="fill-rule:nonzero;"/></g></g><g><path d="M952.14,437.32c-0.2,1.788 0.4,3.576 1.64,4.88c0.69,0.67 1.47,1.246 2.32,1.71c0.83,0.546 1.77,0.889 2.76,1c1.33,-0.044 2.59,-0.595 3.53,-1.54c2.91,-2.55 4.36,-6.33 5.7,-9.95c1.94,-4.742 3.38,-9.672 4.31,-14.71c0.82,-5.43 0.47,-11.06 2,-16.33c-1.38,-2.76 -2.26,-5.8 -3.83,-8.46c-0.99,-1.586 -1.88,-3.24 -2.64,-4.95c-1.46,-3.639 -1.63,-7.673 -0.47,-11.42c-0.56,-0.37 -1.3,-0.333 -1.82,0.09c-0.5,0.43 -0.88,0.981 -1.1,1.6c-0.9,2.115 -1.28,4.418 -1.09,6.71c0.11,0.553 0.04,1.127 -0.19,1.64c-0.43,0.529 -1.1,0.811 -1.78,0.75c-1.4,-0.063 -2.79,-0.312 -4.12,-0.74c-4.14,-1.058 -8.431,-1.413 -12.69,-1.05c-0.86,0.02 -1.706,0.225 -2.48,0.6c-0.782,0.391 -1.275,1.196 -1.27,2.07l10.14,1.49c0.77,0.043 1.51,0.295 2.14,0.73c0.62,0.475 0.75,1.369 0.29,2c-0.22,0.177 -0.45,0.332 -0.7,0.46c-0.5,0.396 -0.79,1.001 -0.79,1.64c0,0.674 0.32,1.308 0.87,1.7c0.26,0.113 0.49,0.276 0.69,0.48c0.42,0.56 -0.13,1.29 -0.31,2c-0.16,1.012 0.33,2.022 1.22,2.53c0.88,0.473 1.84,0.795 2.83,0.95c2,0.465 3.94,1.136 5.8,2c0.61,0.215 1.13,0.609 1.51,1.13c0.36,0.927 0.29,1.966 -0.18,2.84l-2.64,7.12c-0.42,1.12 -0.83,2.23 -1.35,3.31c-0.67,1.39 -1.5,2.7 -2.19,4.09c-0.62,1.303 -1.17,2.638 -1.65,4c-1.35,3.61 -4,5.78 -4.46,9.63Z" style="fill:#a1616a;fill-rule:nonzero;"/></g><g><path d="M515.43,162.06l0,335.41c-11.188,-3.601 -22.877,-5.403 -34.63,-5.34c-49.87,-0 -90.37,35.29 -90.37,85.16c-0,49.87 40.5,84.77 90.37,84.77c49.87,-0 90.62,-36.72 90.62,-90l0,-232.92l263,-0l0,158.33c-11.188,-3.601 -22.877,-5.404 -34.63,-5.34c-49.87,-0 -90.37,35.29 -90.37,85.16c0,49.87 40.5,84.77 90.37,84.77c49.87,-0 90.62,-36.72 90.62,-90l-0,-410l-374.98,-0Zm319,125l-263,-0l0,-69l263,-0l0,69Z" style="fill:#007ca6;fill-rule:nonzero;"/></g><g><path d="M249.43,125.06l-0,225.1c-12.937,-7.464 -27.614,-11.393 -42.55,-11.393c-46.712,0 -85.15,38.438 -85.15,85.15c0,46.711 38.438,85.15 85.15,85.15c46.712,0 85.15,-38.439 85.15,-85.15l0,-213.557l85.4,0l0,-85.3l-128,0Z" style="fill:#007ca6;fill-rule:nonzero;"/></g><g><path d="M226.6,652.62c-4.902,-2.637 -10.18,-4.506 -15.65,-5.54c3.97,-0.547 7.887,-1.427 11.71,-2.63c10.17,-3.22 15.3,-7.54 11.45,-9.65c-3.85,-2.11 -15.22,-1.22 -25.39,2c-3.432,0.992 -6.713,2.449 -9.75,4.33c-1.05,-2.23 -3.91,-4.82 -8.37,-7.27c-9,-5 -21.18,-7.47 -27.12,-5.59c-5.94,1.88 -3.43,7.42 5.61,12.39c4.403,2.375 9.115,4.129 14,5.21c-3.248,0.378 -6.47,0.949 -9.65,1.71c-11.07,2.66 -17.47,6.67 -14.3,9c3.17,2.33 14.73,2 25.8,-0.64c4.026,-0.866 7.924,-2.244 11.6,-4.1c0.91,2.3 3.82,5 8.52,7.61c9,5 21.18,7.47 27.12,5.59c5.94,-1.88 3.42,-7.46 -5.58,-12.42Z" style="fill:#007ca6;fill-rule:nonzero;"/></g><g><path d="M290.31,579.54c-2.378,-1.278 -4.938,-2.185 -7.59,-2.69c1.925,-0.268 3.824,-0.693 5.68,-1.27c4.94,-1.57 7.43,-3.66 5.56,-4.69c-1.87,-1.03 -7.39,-0.59 -12.33,1c-1.662,0.489 -3.253,1.195 -4.73,2.1c-0.51,-1.08 -1.9,-2.34 -4.06,-3.53c-4.39,-2.41 -10.29,-3.62 -13.17,-2.71c-2.88,0.91 -1.66,3.61 2.72,6c2.145,1.153 4.441,2.001 6.82,2.52c-1.578,0.189 -3.144,0.469 -4.69,0.84c-5.37,1.28 -8.48,3.23 -6.94,4.35c1.54,1.12 7.15,1 12.52,-0.31c1.957,-0.427 3.852,-1.099 5.64,-2c0.44,1.11 1.85,2.44 4.13,3.69c4.39,2.41 10.28,3.63 13.17,2.72c2.89,-0.91 1.66,-3.61 -2.73,-6.02Z" style="fill:#007ca6;fill-rule:nonzero;"/></g><g><path d="M118.92,505.45c-1.498,-0.801 -3.11,-1.367 -4.78,-1.68c1.215,-0.161 2.413,-0.429 3.58,-0.8c3.09,-1 4.65,-2.29 3.48,-2.93c-1.17,-0.64 -4.62,-0.37 -7.71,0.61c-1.054,0.301 -2.063,0.741 -3,1.31c-0.613,-0.966 -1.497,-1.731 -2.54,-2.2c-2.74,-1.51 -6.43,-2.27 -8.24,-1.7c-1.81,0.57 -1,2.25 1.71,3.76c1.342,0.724 2.78,1.256 4.27,1.58c-0.99,0.117 -1.972,0.294 -2.94,0.53c-3.36,0.8 -5.31,2 -4.35,2.72c0.96,0.72 4.48,0.61 7.84,-0.19c1.224,-0.267 2.41,-0.687 3.53,-1.25c0.593,1.024 1.497,1.834 2.58,2.31c2.75,1.51 6.44,2.27 8.24,1.7c1.8,-0.57 1.07,-2.26 -1.67,-3.77Z" style="fill:#007ca6;fill-rule:nonzero;"/></g><g><path d="M364.43,125.06l0,71.3l-85.4,0l0,213.429c0,46.777 -38.492,85.27 -85.27,85.27c-19.206,0 -37.86,-6.489 -52.92,-18.409c16.163,20.453 40.842,32.405 66.91,32.405c46.783,0 85.28,-38.496 85.28,-85.28l0,-213.415l85.4,0l0,-85.3l-14,0Z" style="fill-opacity:0.1;fill-rule:nonzero;"/></g><g><path d="M123.47,143.58l0.29,2.18l9.45,1.34c0,0 0.77,-0.58 2,-1.37c2.24,-1.47 6,-3.66 9.2,-4.28c4.95,-1 20.69,-8.05 15.62,-8.51c-5.07,-0.46 -4.55,0.59 -4.55,0.59c0,-0 -5.59,-5.49 -11.36,-0.47c-4.38,3.81 -14,7.91 -18.39,9.66c-1.4,0.55 -2.26,0.86 -2.26,0.86Z" style="fill:#efb7b9;fill-rule:nonzero;"/></g><g><path d="M161.22,118.52c1.445,-0.606 2.971,-0.997 4.53,-1.16c1.576,-0.162 3.148,0.363 4.31,1.44c0.61,0.63 1,1.44 1.6,2.08c2.88,3.08 8.47,0.78 11.94,3.17c2.13,1.48 2.79,4.27 3.55,6.76c0.76,2.49 2.14,5.22 4.68,5.75c1.231,0.118 2.472,0.071 3.69,-0.14c1.242,-0.196 2.501,0.266 3.32,1.22c1.18,1.79 -0.45,4.78 1.26,6.06c1.53,1.13 4.3,-0.45 5.37,1.12c0.42,0.859 0.273,1.892 -0.37,2.6c-0.635,0.681 -1.217,1.41 -1.74,2.18c-0.249,0.474 -0.38,1.001 -0.38,1.536c0,1.811 1.49,3.3 3.3,3.3c0.111,-0 0.221,-0.005 0.33,-0.016c1.08,-0.11 2.23,-0.72 3.17,-0.19c0.597,0.396 0.969,1.055 1,1.77c0.14,2.472 -1.717,4.644 -4.18,4.89c-1.84,0.12 -3.53,-0.88 -5.17,-1.72c-1.64,-0.84 -3.57,-1.55 -5.27,-0.85c-0.782,0.38 -1.497,0.883 -2.12,1.49c-1.947,1.635 -4.15,2.939 -6.52,3.86c-2.08,0.82 -4.5,1.31 -6.5,0.29c-2.25,-1.15 -3.41,-3.95 -5.79,-4.8c-2.38,-0.85 -5.1,0.74 -7.38,2.09c-2.28,1.35 -5.33,2.48 -7.39,0.82c-2.22,-1.79 -1.54,-5.38 -2.89,-7.89c-0.548,-0.94 -1.287,-1.755 -2.17,-2.39c-1.52,-1.17 -3.25,-2.05 -4.78,-3.2c-1.605,-1.082 -2.763,-2.71 -3.26,-4.58c-0.45,-2.27 0.63,-4.54 1.86,-6.5c1.23,-1.96 2.66,-3.88 3.06,-6.15c0.3,-1.7 -0,-3.47 0.39,-5.15c0.559,-2.046 2.108,-3.68 4.12,-4.35c1.12,-0.38 1.32,-0.28 1.89,-1.27c0.512,-1.021 1.437,-1.774 2.54,-2.07Z" style="fill:#3f3d56;fill-rule:nonzero;"/></g><g opacity="0.1"><g><path d="M199.11,138.33c0.237,0.981 0.298,1.997 0.18,3c-0.246,-0.98 -0.307,-1.998 -0.18,-3Z" style="fill-rule:nonzero;"/></g><g><path d="M203.39,149.78c-0.177,0.344 -0.293,0.716 -0.34,1.1c-0.367,-0.906 -0.323,-1.928 0.12,-2.8c0.522,-0.768 1.104,-1.493 1.74,-2.17c0.216,-0.306 0.385,-0.643 0.5,-1l0.08,0.09c0.418,0.854 0.275,1.882 -0.36,2.59c-0.636,0.683 -1.218,1.416 -1.74,2.19Z" style="fill-rule:nonzero;"/></g><g><path d="M150.42,147.1c1.53,1.16 3.25,2 4.77,3.21c0.886,0.633 1.626,1.448 2.17,2.39c1.35,2.51 0.67,6.1 2.89,7.89c2.06,1.66 5.12,0.54 7.4,-0.82c2.28,-1.36 4.88,-3 7.37,-2.09c2.49,0.91 3.54,3.65 5.8,4.8c2,1 4.41,0.52 6.5,-0.29c2.366,-0.923 4.565,-2.227 6.51,-3.86c0.627,-0.604 1.341,-1.11 2.12,-1.5c1.71,-0.69 3.64,0 5.28,0.86c1.64,0.86 3.33,1.84 5.16,1.72c2.163,-0.239 3.89,-1.95 4.15,-4.11c0.118,0.28 0.192,0.577 0.22,0.88c0.163,2.474 -1.684,4.664 -4.15,4.92c-1.83,0.12 -3.53,-0.88 -5.16,-1.71c-1.63,-0.83 -3.57,-1.55 -5.28,-0.86c-0.776,0.39 -1.49,0.892 -2.12,1.49c-1.945,1.636 -4.144,2.943 -6.51,3.87c-2.08,0.81 -4.51,1.3 -6.5,0.29c-2.26,-1.15 -3.41,-3.95 -5.8,-4.8c-2.39,-0.85 -5.1,0.73 -7.37,2.09c-2.27,1.36 -5.34,2.48 -7.4,0.81c-2.22,-1.79 -1.54,-5.37 -2.89,-7.89c-0.547,-0.937 -1.287,-1.749 -2.17,-2.38c-1.51,-1.17 -3.24,-2.05 -4.77,-3.21c-1.608,-1.08 -2.771,-2.708 -3.27,-4.58c-0.078,-0.395 -0.111,-0.798 -0.1,-1.2c0.594,1.658 1.697,3.086 3.15,4.08Z" style="fill-rule:nonzero;"/></g></g><g><path d="M154.47,199.04l-3.43,0.73c0,0 3.38,5.56 8.59,1.91c5.21,-3.65 -5.16,-2.64 -5.16,-2.64Z" style="fill:#4c4981;fill-rule:nonzero;"/></g><g><path d="M154.47,199.04l-3.43,0.73c0,0 3.38,5.56 8.59,1.91c5.21,-3.65 -5.16,-2.64 -5.16,-2.64Z" style="fill-opacity:0.1;fill-rule:nonzero;"/></g><g><path d="M228.92,250.79c-0,-0 4.76,2.46 9.19,5.31c3.18,2 6.19,4.27 7.17,5.94c2.36,4 13.83,8.34 13.83,8.34l11.38,8.66c2.68,0.89 5.29,4.15 6.36,5.61c0.32,0.44 0.51,0.72 0.51,0.72l4.56,-0.59l2.4,-3.12c0,-0 0.61,-6.88 -4.13,-6.8c-0.929,-0.037 -1.839,-0.272 -2.67,-0.69c-5.1,-2.25 -12.23,-9.35 -12.23,-9.35c0,0 -12.12,-15.14 -15.75,-15.64c-0.389,-0.059 -0.77,-0.156 -1.14,-0.29c-3.69,-1.29 -9,-6.05 -9,-6.05l-10.48,7.95Z" style="fill:#efb7b9;fill-rule:nonzero;"/></g><g><path d="M181.91,294.56c1.21,7.27 6.72,21.17 8.49,24.07c2.2,3.59 3.35,10.78 3.35,10.78l0.65,5c0.122,0.685 0.366,1.342 0.72,1.94c0.194,0.345 0.408,0.679 0.64,1l9.13,-2.81c0,0 -0.53,-2.1 -1.33,-4.51c-0.8,-2.41 -2,-5.44 -3.14,-6.56c-2.23,-2.19 -2.56,-9.92 -2.56,-9.92c0,0 -1.86,-14.86 -2.43,-16.73c-0.53,-1.785 -0.865,-3.623 -1,-5.48c-0.09,-1 -0.15,-2.14 -0.16,-3.43c-0.189,-3.699 -0.67,-7.377 -1.44,-11l-10.65,1.93l-0.28,11.91c-0.306,1.252 -0.302,2.56 0.01,3.81Z" style="fill:#efb7b9;fill-rule:nonzero;"/></g><g><path d="M276.85,284.65c0.32,0.44 0.51,0.72 0.51,0.72l4.56,-0.59l2.4,-3.12c0,-0 0.61,-6.88 -4.13,-6.8c-0.929,-0.037 -1.839,-0.272 -2.67,-0.69c-0.39,2.06 1.92,3.77 1.92,3.77c0,-0 1,0.7 0.73,3.93c-0.15,2.2 -2.1,2.67 -3.32,2.78Z" style="fill-opacity:0.1;fill-rule:nonzero;"/></g><g><path d="M276.35,285.07c0.3,1.11 3.18,2.74 5.18,3.76c1,0.5 1.75,0.85 1.9,0.93c0.46,0.23 2.88,-2.46 3.21,-4.63c0.33,-2.17 6.1,-8.92 6.1,-8.92c1.219,-2.664 1.944,-5.527 2.14,-8.45c0.22,-2.95 -1,-3.19 -2.45,-2.52c-1.036,0.545 -1.964,1.274 -2.74,2.15c-0.99,0.931 -2.219,1.568 -3.55,1.84c-1.809,0.448 -3.535,1.184 -5.11,2.18c-1.4,0.9 -2.76,2 -3,3c-0.53,2.13 1.89,3.93 1.89,3.93c0,0 1,0.7 0.73,3.93c-0.27,3.23 -4.33,2.7 -4.3,2.8Z" style="fill:#444053;fill-rule:nonzero;"/></g><g><path d="M281.53,288.83c1,0.5 1.75,0.85 1.9,0.93c0.46,0.23 2.88,-2.46 3.21,-4.63c0.33,-2.17 6.1,-8.92 6.1,-8.92c1.219,-2.664 1.944,-5.527 2.14,-8.45c0.22,-2.95 -1,-3.19 -2.45,-2.52c-0.24,2.34 -0.83,6.89 -2,9.26c-1.46,2.82 -7.31,11.88 -8.9,14.33Z" style="fill-opacity:0.1;fill-rule:nonzero;"/></g><g><path d="M195.21,336.17l-0.09,0.17c0.194,0.345 0.408,0.679 0.64,1l9.13,-2.81c0,-0 -0.53,-2.1 -1.33,-4.51c-3.61,-1 -8.79,5.31 -8.79,5.31l0.44,0.84Z" style="fill-opacity:0.1;fill-rule:nonzero;"/></g><g><path d="M194.6,342.97c0,-0 7.62,2.67 11,2.26c2.61,-0.31 2.72,-1.52 2.54,-4c-0.06,-0.8 -0.14,-1.72 -0.19,-2.78c-0.17,-4.4 -1.94,-5.29 -1.94,-5.29c-2.9,-7.6 -11.25,2.6 -11.25,2.6l0.43,0.84c-0.602,1.298 -0.893,2.719 -0.85,4.15c0.018,0.746 0.105,1.49 0.26,2.22Z" style="fill:#444053;fill-rule:nonzero;"/></g><g><path d="M194.6,342.97c0,-0 7.62,2.67 11,2.26c2.61,-0.31 2.72,-1.52 2.54,-4c-1.731,1.431 -3.983,2.077 -6.21,1.78c-2.636,-0.336 -5.2,-1.099 -7.59,-2.26c0.018,0.746 0.105,1.49 0.26,2.22Z" style="fill-opacity:0.1;fill-rule:nonzero;"/></g><g><path d="M156.83,158.15l3,13l0.61,2.68l5.51,0.7l5.68,0.72l6.18,-2.24c-0,0 1.72,-5.88 0.3,-10.29c-0.447,-1.57 -1.469,-2.916 -2.86,-3.77c-0.432,-0.258 -0.831,-0.567 -1.19,-0.92c-0.411,-0.417 -0.749,-0.901 -1,-1.43c-0.301,-0.652 -0.481,-1.354 -0.53,-2.07c-0.31,-3.51 1.91,-7.35 1.91,-7.35c-0,0 -13.1,-4.47 -12.08,-1.58c0.67,1.87 -1.18,5.13 -2.56,7.19c-0.75,1.11 -1.36,1.88 -1.36,1.88l-1.61,3.48Z" style="fill:#efb7b9;fill-rule:nonzero;"/></g><circle cx="168.65" cy="141.76" r="11.38" style="fill-opacity:0.1;"/><circle cx="168.6" cy="141.34" r="11.38" style="fill:#efb7b9;"/><g><path d="M157.65,201.41c0.54,2.51 3,6.46 3,6.46l15.89,3.9l11.35,-11.88l-0,-0.08c-0.35,-1.11 -4.68,-15.12 -1.55,-18.57c3.28,-3.59 2,-13.72 2,-13.72c0,-0 -5.67,-6.52 -6.82,-8.1c-1.15,-1.58 -8.51,-2.82 -8.51,-2.82c0.37,0.5 0.71,1 1,1.43c0.795,1.181 1.405,2.475 1.81,3.84c0.475,1.359 0.421,2.848 -0.15,4.17c-0.174,0.339 -0.305,0.698 -0.39,1.07c-1.24,5.43 -6.9,4.67 -9.15,4.13c-0.58,-0.14 -0.94,-0.26 -0.94,-0.26l-5.41,0.17l-3.4,0.11c-0,-0 1.55,26.78 1.18,28.91c-0.046,0.415 -0.016,0.836 0.09,1.24Z" style="fill:#f86d70;fill-rule:nonzero;"/></g><g><path d="M156.47,172.64l9.85,-1.29l-0.18,-0c-0.58,-0.14 -0.93,-0.26 -0.93,-0.26l-5.42,0.17l-3.39,0.11c0,-0 0.02,0.44 0.07,1.27Z" style="fill:#925978;fill-rule:nonzero;"/></g><path d="M167.52,209.58l4.27,1.04l6.73,-0.88l1.75,-1.83l-12.75,1.67Z" style="fill:#925978;fill-rule:nonzero;"/><path d="M174.63,211.32l1.93,0.47l0.79,-0.83l-2.72,0.36Z" style="fill:#925978;fill-rule:nonzero;"/><g><path d="M157.65,201.41c2.54,0.26 4.88,0.39 4.88,0.39l13.09,-0.49l0,-13.67c-1.558,-1.441 -3.341,-2.617 -5.28,-3.48c-2.28,-0.79 -5,-3.21 -4.46,-9.59c0,-0.37 0.06,-0.75 0.11,-1.14c0.093,-0.713 0.133,-1.431 0.12,-2.15c0.01,-3.187 -1.306,-6.239 -3.63,-8.42c-0.059,-0.061 -0.123,-0.118 -0.19,-0.17l-2.13,-9.92c-0.145,0.005 -0.289,0.025 -0.43,0.06c-0.75,1.11 -1.36,1.88 -1.36,1.88l-1.57,3.44l3,13l-3.4,0.11c0,-0 1.55,26.78 1.18,28.91c-0.053,0.414 -0.029,0.834 0.07,1.24Z" style="fill-opacity:0.1;fill-rule:nonzero;"/></g><g><path d="M162.1,201.89l13.09,-0.48l0,-13.68c-1.556,-1.438 -3.336,-2.614 -5.27,-3.48c-2.41,-0.84 -5.28,-3.48 -4.35,-10.73c0.686,-3.898 -0.621,-7.892 -3.48,-10.63l-0.2,-0.17l-2.13,-9.92c-1.352,0.116 -2.586,0.822 -3.37,1.93c-0.231,0.408 -0.495,0.796 -0.79,1.16c-0.529,0.91 -1.69,1.254 -2.63,0.78c-1.38,-0.61 -7.32,-3.12 -8.65,-0.66c-1.33,2.46 -1.58,17.11 -1.58,17.11c1.964,1.611 3.323,3.845 3.85,6.33c0.91,4.19 2.43,4.29 2.43,4.29l1.64,12c0,-0 1.49,2.61 0.38,4.05" style="fill:#444053;fill-rule:nonzero;"/></g><g><path d="M155.6,155.89l2.23,6.68l4.26,0.37l-0.2,-0.17l-2.13,-9.92c-1.352,0.116 -2.586,0.822 -3.37,1.93c-0.233,0.391 -0.497,0.762 -0.79,1.11Z" style="fill:#444053;fill-rule:nonzero;"/></g><g><path d="M123.47,143.58l0.29,2.18l9.45,1.34c0,0 0.77,-0.58 2,-1.37c-1,-0.23 -5.7,-1.25 -8.16,-2c-0.91,-0.28 -1.51,-0.52 -1.53,-0.68c-0.02,-0.16 0.06,-0.19 0.21,-0.31c-1.4,0.53 -2.26,0.84 -2.26,0.84Z" style="fill-opacity:0.1;fill-rule:nonzero;"/></g><g><path d="M112.39,157.69c-0,0 10.71,8.13 17.35,9.44c-0,0 9.34,2.76 13,6l4,-15.42l-2.45,-1.69c-0,-0 -2.93,1.81 -5.45,1.21c-2.52,-0.6 -5.31,-1 -5.31,-1c-2.206,-0.813 -4.478,-1.436 -6.79,-1.86c-1.8,-0.15 -1.07,-2.49 0.73,-3.73c0.234,-0.167 0.485,-0.308 0.75,-0.42c0.681,0.948 1.977,1.241 3,0.68c0.679,-0.439 1.275,-0.994 1.76,-1.64c0.745,-0.946 1.413,-1.949 2,-3c0.587,-1.051 -5.59,-1.2 -8.37,-2.06c-0.91,-0.28 -1.51,-0.52 -1.53,-0.68c-0.08,-0.64 5,-2.66 5,-2.66c-0,-0 -4.34,-2.1 -6.1,-0.57c-0,-0 1.14,0.85 0.22,1.69c-0.92,0.84 -12,9.37 -12,9.37c-0,-0 -5.47,2.69 0.19,6.34Z" style="fill:#444053;fill-rule:nonzero;"/></g><g><path d="M121.6,149.8l5.93,0.85c0.234,-0.167 0.485,-0.308 0.75,-0.42c0.681,0.948 1.977,1.241 3,0.68c0.679,-0.439 1.275,-0.994 1.76,-1.64c0.594,-0.808 1.135,-1.653 1.62,-2.53c0.485,-0.877 -5.59,-1.2 -8.37,-2.06l-4.69,5.12Z" style="fill-opacity:0.1;fill-rule:nonzero;"/></g><g><path d="M121.94,149.32l6.31,0.91c0.681,0.948 1.977,1.241 3,0.68c1.81,-1 3.76,-4.66 3.76,-4.66c0,0 -5.59,-1.2 -8.37,-2.06l-4.7,5.13Z" style="fill:#444053;fill-rule:nonzero;"/></g><g><path d="M239.43,242.89l-10.51,7.95c-0,-0 4.76,2.46 9.19,5.31c3.87,-2.62 7.52,-5 10.29,-7.21c-3.69,-1.34 -8.97,-6.05 -8.97,-6.05Z" style="fill-opacity:0.1;fill-rule:nonzero;"/></g><g><path d="M181.91,294.56c2.627,-0.325 5.21,-0.942 7.7,-1.84c2.49,-0.898 1.94,-0.42 4.82,-1.38c-0.09,-1 -0.15,-2.14 -0.16,-3.43c-0.189,-3.699 -0.67,-7.377 -1.44,-11l-10.65,1.93l-0.28,11.91c-0.306,1.252 -0.302,2.56 0.01,3.81Z" style="fill-opacity:0.1;fill-rule:nonzero;"/></g><g><path d="M162.93,246.24c2.14,3.17 8,16.65 8,16.65c1.321,2.393 2.811,4.689 4.46,6.87c2.33,2.93 3.94,9.52 5.71,14.79c1.77,5.27 -0.52,4.28 -0.27,7c0.25,2.72 10.26,-0.8 10.26,-0.8c0,0 20.45,-4.5 26.7,-17c6.25,-12.5 31.21,-23.82 36.26,-30.85c5.05,-7.03 -1.43,-4.13 -1.18,-7.94c0.25,-3.81 -2.63,-7 -2.63,-7c0,-0 -9.42,-2.66 -10.95,-4.51c-1.53,-1.85 -9.05,-6.48 -9.05,-6.48c0,-0 -7.09,-3.07 -8,-4.14c-0.91,-1.07 -9.31,-4.39 -11.88,-5c-2.57,-0.61 -5.09,-4.3 -5.09,-4.3c0,-0 -1.59,0.21 -3.94,-2.07c-2.35,-2.28 -12.21,-4.24 -12.21,-4.24c-16.83,12.4 -28.46,10.67 -28.46,10.67l-0.27,2.34c-8.95,11.66 0.4,32.84 2.54,36.01Z" style="fill:#444053;fill-rule:nonzero;"/></g><g><path d="M160.39,210.21c-0,-0 14.55,4.79 28.74,-12.93c-16.84,12.34 -28.47,10.61 -28.47,10.61l-0.27,2.32Z" style="fill-opacity:0.1;fill-rule:nonzero;"/></g><g><path d="M185.43,218.48c0,-0 19.54,28.21 20.75,29.24c1.21,1.03 -19.72,-29.59 -20.75,-29.24Z" style="fill-opacity:0.1;fill-rule:nonzero;"/></g><g><path d="M176.4,216.32c0,0 13.53,21 13.26,23.84c0,-0 -13.06,-20.19 -13.26,-23.84Z" style="fill-opacity:0.1;fill-rule:nonzero;"/></g><g><path d="M168.52,222.09c-0,-0 2.5,11.75 -1.26,18.41l1.26,-18.41Z" style="fill-opacity:0.1;fill-rule:nonzero;"/></g><g><path d="M163.32,222.77c0,-0 -0.16,10.17 -1.3,12.26l1.3,-12.26Z" style="fill-opacity:0.1;fill-rule:nonzero;"/></g><path d="M196.46,213.7l17.97,7.04l-6.58,0.86l-11.39,-7.9Z" style="fill-opacity:0.1;fill-rule:nonzero;"/><g><path d="M161.08,135.03c0.9,0.6 1.65,1.55 2.72,1.69c0.772,0.023 1.536,-0.164 2.21,-0.54c1.79,-0.78 3.81,-1.38 5.67,-0.77c2.64,0.87 4.09,3.91 6.72,4.81c0.812,0.271 1.683,0.319 2.52,0.14c0.501,-0.117 0.98,-0.313 1.42,-0.58c1.014,-0.646 1.733,-1.667 2,-2.84c0.372,-2.069 -0.392,-4.186 -2,-5.54c-1.618,-1.307 -3.542,-2.181 -5.59,-2.54c-5.28,-1.17 -10.77,-0.78 -16.16,-0.37c-0.443,-0.011 -0.88,0.104 -1.26,0.33c-0.82,0.61 -2.22,3.68 -1.93,4.72c0.4,1.35 3.53,0.35 3.68,1.49Z" style="fill-opacity:0.1;fill-rule:nonzero;"/></g><g><path d="M161.03,134.61c0.9,0.59 1.64,1.55 2.72,1.69c0.77,0.02 1.53,-0.17 2.2,-0.55c1.79,-0.78 3.82,-1.38 5.67,-0.77c2.64,0.88 4.09,3.92 6.72,4.81c0.811,0.276 1.683,0.324 2.52,0.14c0.502,-0.109 0.982,-0.302 1.42,-0.57c1.029,-0.644 1.768,-1.662 2.06,-2.84c0.358,-2.081 -0.425,-4.202 -2.05,-5.55c-1.62,-1.302 -3.543,-2.172 -5.59,-2.53c-5.28,-1.18 -10.76,-0.78 -16.16,-0.38c-0.443,-0.006 -0.88,0.111 -1.26,0.34c-0.81,0.6 -2.22,3.68 -1.93,4.72c0.4,1.39 3.53,0.33 3.68,1.49Z" style="fill:#3f3d56;fill-rule:nonzero;"/></g><g><path d="M230.6,142.98l1.72,6.95l2.23,-1.35l12.12,-7.31c0,0 9.18,-0.34 9.89,-7.72c0.71,-7.38 -10.2,-0.07 -10.78,0.49c-0.58,0.56 -1.9,1.55 -1.9,1.55l-11.28,6.3l-2,1.09Z" style="fill:#efb7b9;fill-rule:nonzero;"/></g><g><path d="M230.6,142.98l1.72,6.95l2.23,-1.35c-0.49,-3.14 -1.26,-6 -2,-6.7l-1.95,1.1Z" style="fill-opacity:0.1;fill-rule:nonzero;"/></g><g><path d="M170.78,188.42l2.47,14.5l14.62,-3.03c-0.35,-1.11 -4.68,-15.12 -1.55,-18.57c3.28,-3.59 2,-13.72 2,-13.72c0,0 -5.67,-6.52 -6.82,-8.1c-1.15,-1.58 -8.51,-2.82 -8.51,-2.82c-0.301,-0.652 -0.481,-1.354 -0.53,-2.07c-0.238,0.497 -0.425,1.016 -0.56,1.55c0,2.64 1.07,4.46 3.9,5.79c0.25,0.12 0.51,0.23 0.79,0.34c0.44,0.18 0.93,0.35 1.45,0.51l0.24,0.07c4.71,1.4 5.73,4.22 5.73,4.22c1.647,2.171 2.412,4.888 2.14,7.6c-0.46,4.45 -15.37,13.73 -15.37,13.73Z" style="fill-opacity:0.1;fill-rule:nonzero;"/></g><g><path d="M171.6,188.31l2.47,14.49l16.53,-3.44c0,0 -0.5,-5.47 -1.65,-7.69c-1.15,-2.22 -0.92,-10.89 -0.92,-10.89c7,-7.54 3.32,-13.67 3.32,-13.67c0,-0 20.57,-3.34 20.92,-4c0.35,-0.66 7.21,-4.32 7.21,-4.32c0,-0 7.45,-1.91 8.46,-3c0.372,-0.407 0.78,-0.778 1.22,-1.11c0.127,-0.096 0.26,-0.183 0.4,-0.26l0.55,4.75l0.25,-0c1.173,-0.137 2.29,-0.578 3.24,-1.28c1.7,-1.3 -0.45,-15.55 -2.1,-16.05c-0.312,-0.08 -0.638,-0.08 -0.95,-0c-1.294,0.41 -2.499,1.061 -3.55,1.92l-0.29,0.23l-0.1,0.09c-0,-0 -9.31,3.65 -11.17,5.33c-1.86,1.68 -16.34,3.81 -16.34,3.81c-0,0 -6.49,1.54 -7.33,0.61c-0.84,-0.93 -10.75,-2.45 -11.58,-1c-0.83,1.45 -3.13,1.19 -3.13,1.19c-1.63,-1.88 -2.76,-1.15 -3.45,-0.07c-0.397,0.648 -0.694,1.353 -0.88,2.09c-0,2.88 1.27,4.77 4.69,6.13c0.52,0.2 1.08,0.4 1.69,0.58c4.72,1.4 5.73,4.22 5.73,4.22c1.653,2.169 2.422,4.887 2.15,7.6c-0.45,4.46 -15.39,13.74 -15.39,13.74Z" style="fill:#444053;fill-rule:nonzero;"/></g><g><path d="M230.6,141.89c0.179,-0.011 0.358,0.009 0.53,0.06c1.65,0.5 3.79,14.76 2.09,16.06c-0.85,0.64 -1.841,1.069 -2.89,1.25l-0.25,-0l-0.55,-4.75c-0.14,0.077 -0.273,0.164 -0.4,0.26l-0,-0.2c0.88,-3.688 0.012,-7.584 -2.35,-10.55l3.82,-2.13Z" style="fill-opacity:0.1;fill-rule:nonzero;"/></g><g><path d="M229.52,154.49l0.55,4.75c1.282,-0.099 2.509,-0.568 3.53,-1.35c1.7,-1.3 -0.45,-15.55 -2.1,-16.05c-1.3,-0.4 -3.59,1.22 -4.5,1.91c2.478,2.984 3.412,6.966 2.52,10.74Z" style="fill:#444053;fill-rule:nonzero;"/></g><g><path d="M177.46,162.14l2.37,-2.22l-6.18,-6c-0.397,0.648 -0.694,1.353 -0.88,2.09c0.02,2.88 1.27,4.77 4.69,6.13Z" style="fill:#444053;fill-rule:nonzero;"/></g><g><path d="M160.92,133.76c0.9,0.59 1.64,1.55 2.72,1.69c0.77,0.02 1.53,-0.17 2.2,-0.55c1.79,-0.78 3.82,-1.38 5.67,-0.77c2.64,0.88 4.09,3.92 6.72,4.81c0.811,0.276 1.683,0.324 2.52,0.14c1.717,-0.371 3.074,-1.701 3.48,-3.41c0.096,-0.416 0.133,-0.844 0.11,-1.27c0.16,0.698 0.16,1.422 0,2.12c-0.288,1.179 -1.028,2.2 -2.06,2.84c-0.437,0.27 -0.918,0.462 -1.42,0.57c-0.834,0.184 -1.702,0.136 -2.51,-0.14c-2.64,-0.89 -4.09,-3.93 -6.73,-4.81c-1.85,-0.61 -3.88,0 -5.67,0.77c-0.67,0.38 -1.43,0.57 -2.2,0.55c-1.07,-0.14 -1.82,-1.1 -2.72,-1.69c-0.15,-1.16 -3.28,-0.1 -3.67,-1.49c-0.042,-0.211 -0.042,-0.429 -0,-0.64c0.62,1.07 3.41,0.19 3.56,1.28Z" style="fill-opacity:0.1;fill-rule:nonzero;"/></g><g><path d="M170.6,166.49c0,0 -1.31,3.68 0.36,4.92c0,-0 -1.83,-4.87 -2.89,-4.76" style="fill-opacity:0.1;fill-rule:nonzero;"/></g><g><path d="M252.05,130.65c-0,-0 -8.45,7.31 -2.34,8.49c6.11,1.18 2.34,-8.49 2.34,-8.49Z" style="fill:#efb7b9;fill-rule:nonzero;"/></g><g opacity="0.1"><g><path d="M821.44,333.14l-263,0l0,232.94c0,53.26 -40.75,90 -90.62,90c-11.877,0.045 -23.668,-2.024 -34.82,-6.11c14.638,8.067 31.107,12.237 47.82,12.11c49.87,0 90.62,-36.72 90.62,-90l0,-232.94l250,0l0,-6Z" style="fill-rule:nonzero;"/></g><path d="M558.42,281.05l13,0l0,-63.01l250.02,-0l0,-6l-263.02,-0l0,69.01Z" style="fill-rule:nonzero;"/><g><path d="M877.43,162.06l0,404c0,53.26 -40.75,90 -90.62,90c-11.877,0.045 -23.668,-2.024 -34.82,-6.11c14.638,8.067 31.107,12.237 47.82,12.11c49.87,0 90.62,-36.72 90.62,-90l0,-410l-13,0Z" style="fill-rule:nonzero;"/></g></g><g><path d="M579.83,69.89c6.45,13.33 17,28.49 28.93,22.7c11.93,-5.79 20.84,-30.35 14.39,-43.7c-6.45,-13.35 -21.39,-19.42 -33.35,-13.63c-11.96,5.79 -16.43,21.32 -9.97,34.63Z" style="fill:#007ca6;fill-rule:nonzero;"/></g><g><path d="M605.36,101.03c0,-0 2.33,-0.39 1.44,-2.31c-0.08,-0.17 -0.174,-0.334 -0.28,-0.49c-0.472,-0.753 -0.775,-1.599 -0.89,-2.48c-0.142,-1.029 -0.105,-2.074 0.11,-3.09l-6.35,-0.42c-0,0 2.47,2.1 2.18,3.2c-0.043,0.16 -0.147,0.296 -0.29,0.38c-0.124,0.092 -0.268,0.153 -0.42,0.18l-0.48,0.14c-1.67,0.59 -1,1.43 -1,1.43c0.22,2.74 5.98,3.46 5.98,3.46Z" style="fill:#007ca6;fill-rule:nonzero;"/></g><g><path d="M601.28,95.82l4.48,0.62c-0.058,-0.227 -0.101,-0.457 -0.13,-0.69c-1.14,-0.05 -2.93,-0.2 -4.06,-0.31c-0.043,0.16 -0.147,0.296 -0.29,0.38Z" style="fill:#444053;fill-rule:nonzero;"/></g><g><path d="M605.36,101.03c0,-0 2.33,-0.39 1.44,-2.31c-0.901,0.213 -1.835,0.25 -2.75,0.11c-1.524,-0.389 -2.84,-1.353 -3.67,-2.69c-1.67,0.59 -1,1.43 -1,1.43c0.22,2.74 5.98,3.46 5.98,3.46Z" style="fill:#007ca6;fill-rule:nonzero;"/></g><g><path d="M605.36,101.03c0,-0 2.33,-0.39 1.44,-2.31c-0.901,0.213 -1.835,0.25 -2.75,0.11c-1.524,-0.389 -2.84,-1.353 -3.67,-2.69c-1.67,0.59 -1,1.43 -1,1.43c0.22,2.74 5.98,3.46 5.98,3.46Z" style="fill-opacity:0.1;fill-rule:nonzero;"/></g><g><path d="M601.97,36.66c0,-0 7.1,-0.86 9.11,3.87c-0.85,-0.143 -1.722,-0.092 -2.55,0.15c-0.52,0.236 -1.089,0.346 -1.66,0.32c-1.069,-1.98 -2.806,-3.518 -4.9,-4.34Z" style="fill:#fff;fill-opacity:0.1;fill-rule:nonzero;"/></g><g><path d="M609.6,133.04c0.148,-0.118 0.282,-0.252 0.4,-0.4c0.43,-0.488 0.945,-0.895 1.52,-1.2c0.203,-0.12 0.413,-0.227 0.63,-0.32c0.642,-0.275 1.313,-0.476 2,-0.6c0.331,-0.058 0.665,-0.094 1,-0.11l-0.9,-4.3l0,-0.06l-0.39,-1.87c-0.265,0.543 -0.565,1.067 -0.9,1.57c-0.46,0.7 -1,1.37 -1.6,1.38c-0.165,-0.003 -0.324,-0.063 -0.45,-0.17c-0.113,-0.103 -0.208,-0.225 -0.28,-0.36c-0.1,-0.16 -0.18,-0.3 -0.27,-0.43c-1,-1.44 -1.63,-0.54 -1.63,-0.54c-1.14,0.41 -1.61,1.77 -1.78,3.14c0,0.2 0,0.4 -0.06,0.59c-0.057,0.971 -0.023,1.945 0.1,2.91c0.123,0.965 1.03,2.15 2.61,0.77Z" style="fill:#007ca6;fill-rule:nonzero;"/></g><g><path d="M611.6,131.44c0.203,-0.12 0.413,-0.227 0.63,-0.32c-0.22,-0.93 -0.49,-2.33 -0.68,-3.43l0,-0.23c0,-0.08 0,-0.23 -0.06,-0.33c-0.165,-0.003 -0.324,-0.063 -0.45,-0.17l0.1,0.67l-0,0.27l0.46,3.54Z" style="fill:#444053;fill-rule:nonzero;"/></g><g><path d="M609.6,133.04c-0.446,-0.811 -0.731,-1.701 -0.84,-2.62c-0.019,-0.56 0.045,-1.119 0.19,-1.66c0.05,-0.16 0.09,-0.32 0.15,-0.47c0.231,-0.803 0.665,-1.533 1.26,-2.12c-1,-1.44 -1.63,-0.54 -1.63,-0.54c-1.14,0.41 -1.61,1.77 -1.78,3.14c0,0.2 0,0.4 -0.06,0.59c-0.057,0.971 -0.023,1.945 0.1,2.91c0.123,0.965 1.03,2.15 2.61,0.77Z" style="fill:#007ca6;fill-rule:nonzero;"/></g><g><path d="M609.6,133.04c-0.446,-0.811 -0.731,-1.701 -0.84,-2.62c-0.019,-0.56 0.045,-1.119 0.19,-1.66c0.05,-0.16 0.09,-0.32 0.15,-0.47c0.231,-0.803 0.665,-1.533 1.26,-2.12c-1,-1.44 -1.63,-0.54 -1.63,-0.54c-1.14,0.41 -1.61,1.77 -1.78,3.14c0,0.2 0,0.4 -0.06,0.59c-0.057,0.971 -0.023,1.945 0.1,2.91c0.123,0.965 1.03,2.15 2.61,0.77Z" style="fill-opacity:0.1;fill-rule:nonzero;"/></g><g><path d="M566.35,91.89c5.4,3.47 11.63,6.83 17.55,8.61c4.55,1.38 8.91,1.82 12.56,0.66c1.581,-0.503 3.034,-1.343 4.26,-2.46c0.831,-0.75 1.555,-1.612 2.15,-2.56c4.23,-6.61 4.15,-18.23 0.8,-28.29c-2.34,-7 -6.22,-13.2 -11.33,-16.48c-12.46,-8 -28.38,-5.4 -35.56,5.79c-7.18,11.19 -2.89,26.73 9.57,34.73Z" style="fill:#007ca6;fill-rule:nonzero;"/></g><g><path d="M566.35,91.89c5.4,3.47 11.63,6.83 17.55,8.61c4.55,1.38 8.91,1.82 12.56,0.66c1.581,-0.503 3.034,-1.343 4.26,-2.46c0.831,-0.75 1.555,-1.612 2.15,-2.56c4.23,-6.61 4.15,-18.23 0.8,-28.29c-2.34,-7 -6.22,-13.2 -11.33,-16.48c-12.46,-8 -28.38,-5.4 -35.56,5.79c-7.18,11.19 -2.89,26.73 9.57,34.73Z" style="fill-opacity:0.1;fill-rule:nonzero;"/></g><g><path d="M597.51,105.3c1.59,2.22 6.86,-0.16 6.86,-0.16c0,0 1.79,-1.54 0,-2.71c-0.157,-0.104 -0.321,-0.198 -0.49,-0.28c-0.592,-0.28 -1.13,-0.663 -1.59,-1.13c-0.16,-0.16 -0.32,-0.33 -0.47,-0.51c-0.438,-0.546 -0.814,-1.14 -1.12,-1.77c-0.151,-0.301 -0.281,-0.612 -0.39,-0.93l-5.64,3c0.599,0.101 1.191,0.245 1.77,0.43c0.81,0.26 1.61,0.64 1.76,1.16c0.063,0.154 0.063,0.326 0,0.48c-0.065,0.14 -0.157,0.265 -0.27,0.37c-0.116,0.118 -0.226,0.241 -0.33,0.37c-1.14,1.33 -0.09,1.68 -0.09,1.68Z" style="fill:#007ca6;fill-rule:nonzero;"/></g><g><path d="M598.18,102.89l4.13,-1.82c-0.16,-0.16 -0.32,-0.33 -0.47,-0.51c-1,0.54 -2.59,1.35 -3.62,1.85c0.051,0.159 0.036,0.332 -0.04,0.48Z" style="fill:#444053;fill-rule:nonzero;"/></g><g><path d="M597.51,105.3c1.59,2.22 6.86,-0.16 6.86,-0.16c0,0 1.79,-1.54 0,-2.71c-0.654,0.655 -1.433,1.172 -2.29,1.52c-1.498,0.463 -3.118,0.33 -4.52,-0.37c-1.1,1.37 -0.05,1.72 -0.05,1.72Z" style="fill:#007ca6;fill-rule:nonzero;"/></g><g><path d="M597.51,105.3c1.59,2.22 6.86,-0.16 6.86,-0.16c0,0 1.79,-1.54 0,-2.71c-0.654,0.655 -1.433,1.172 -2.29,1.52c-1.498,0.463 -3.118,0.33 -4.52,-0.37c-1.1,1.37 -0.05,1.72 -0.05,1.72Z" style="fill-opacity:0.1;fill-rule:nonzero;"/></g><g><path d="M567.88,52.01c0,0 5.61,-4.43 9.79,-1.45c-0.797,0.324 -1.511,0.823 -2.09,1.46c-0.324,0.474 -0.756,0.865 -1.26,1.14c-1.943,-1.131 -4.225,-1.538 -6.44,-1.15Z" style="fill:#fff;fill-opacity:0.1;fill-rule:nonzero;"/></g><g opacity="0.1"><g><path d="M628.16,98.66l-1.3,-6.23c-0.26,0.545 -0.561,1.07 -0.9,1.57c0.042,1.662 0.452,3.295 1.2,4.78c0.33,-0.064 0.664,-0.104 1,-0.12Z" style="fill-rule:nonzero;"/></g><g><path d="M622.6,101.3c0.146,-0.12 0.28,-0.254 0.4,-0.4c0.432,-0.489 0.947,-0.898 1.52,-1.21c0.203,-0.12 0.413,-0.227 0.63,-0.32c0.64,-0.277 1.312,-0.475 2,-0.59c0.33,-0.064 0.664,-0.104 1,-0.12l-1.3,-6.23c-0.26,0.545 -0.561,1.07 -0.9,1.57c-0.46,0.7 -1.05,1.38 -1.6,1.39c-0.163,-0.009 -0.318,-0.073 -0.44,-0.18c-0.122,-0.087 -0.227,-0.195 -0.31,-0.32c-0.09,-0.16 -0.18,-0.3 -0.26,-0.43c-1,-1.44 -1.64,-0.53 -1.64,-0.53c-2.57,0.93 -1.74,6.64 -1.74,6.64c0,0 1.03,2.1 2.64,0.73Z" style="fill-rule:nonzero;"/></g><g><path d="M624.52,99.69c0.203,-0.12 0.413,-0.227 0.63,-0.32c-0.26,-1.09 -0.58,-2.86 -0.79,-4c-0.163,-0.009 -0.318,-0.073 -0.44,-0.18l0.6,4.5Z" style="fill-rule:nonzero;"/></g><g><path d="M622.6,101.3c-0.444,-0.816 -0.729,-1.708 -0.84,-2.63c-0.027,-1.57 0.55,-3.092 1.61,-4.25c-1,-1.44 -1.64,-0.53 -1.64,-0.53c-2.57,0.93 -1.74,6.64 -1.74,6.64c0,-0 1,2.14 2.61,0.77Z" style="fill-rule:nonzero;"/></g><g><path d="M622.6,101.3c-0.444,-0.816 -0.729,-1.708 -0.84,-2.63c-0.027,-1.57 0.55,-3.092 1.61,-4.25c-1,-1.44 -1.64,-0.53 -1.64,-0.53c-2.57,0.93 -1.74,6.64 -1.74,6.64c0,-0 1,2.14 2.61,0.77Z" style="fill-opacity:0.1;fill-rule:nonzero;"/></g></g><g><path d="M621.78,100.06c0.148,-0.118 0.282,-0.252 0.4,-0.4c0.433,-0.485 0.947,-0.891 1.52,-1.2c0.203,-0.12 0.413,-0.227 0.63,-0.32c0.64,-0.277 1.312,-0.475 2,-0.59c0.33,-0.064 0.664,-0.104 1,-0.12l-1.3,-6.23c-0.262,0.544 -0.563,1.069 -0.9,1.57c-0.46,0.7 -1,1.38 -1.6,1.38c-0.163,-0.001 -0.319,-0.061 -0.44,-0.17c-0.116,-0.103 -0.214,-0.225 -0.29,-0.36c-0.09,-0.16 -0.18,-0.3 -0.26,-0.43c-1,-1.44 -1.64,-0.54 -1.64,-0.54c-2.57,0.94 -1.74,6.65 -1.74,6.65c0,0 1.01,2.14 2.62,0.76Z" style="fill:#007ca6;fill-rule:nonzero;"/></g><g><path d="M623.7,98.46c0.203,-0.12 0.413,-0.227 0.63,-0.32c-0.26,-1.09 -0.58,-2.86 -0.79,-4c-0.163,-0.001 -0.319,-0.061 -0.44,-0.17l0.6,4.49Z" style="fill:#444053;fill-rule:nonzero;"/></g><g><path d="M621.78,100.06c-0.446,-0.811 -0.731,-1.701 -0.84,-2.62c-0.013,-1.577 0.582,-3.1 1.66,-4.25c-1,-1.44 -1.64,-0.54 -1.64,-0.54c-2.57,0.94 -1.74,6.65 -1.74,6.65c0,0 0.95,2.14 2.56,0.76Z" style="fill:#007ca6;fill-rule:nonzero;"/></g><g><path d="M621.78,100.06c-0.446,-0.811 -0.731,-1.701 -0.84,-2.62c-0.013,-1.577 0.582,-3.1 1.66,-4.25c-1,-1.44 -1.64,-0.54 -1.64,-0.54c-2.57,0.94 -1.74,6.65 -1.74,6.65c0,0 0.95,2.14 2.56,0.76Z" style="fill-opacity:0.1;fill-rule:nonzero;"/></g><g opacity="0.1"><g><path d="M616.6,81.89c1.397,0.9 2.974,1.483 4.62,1.71c0.135,-0.309 0.289,-0.61 0.46,-0.9l-5.88,-2.44c0.307,0.522 0.575,1.067 0.8,1.63Z" style="fill-rule:nonzero;"/></g><g><path d="M618.6,90.52c0,0 2.33,0.39 2.11,-1.72c-0.02,-0.19 -0.057,-0.377 -0.11,-0.56c-0.16,-0.63 -0.207,-1.283 -0.14,-1.93c0.018,-0.235 0.051,-0.469 0.1,-0.7c0.209,-1.016 0.58,-1.992 1.1,-2.89l-5.88,-2.44c0.313,0.515 0.588,1.053 0.82,1.61c0.32,0.78 0.54,1.65 0.24,2.1c-0.096,0.135 -0.239,0.231 -0.4,0.27c-0.148,0.032 -0.302,0.032 -0.45,0l-0.51,0c-1.76,0 -1.36,1 -1.36,1c-0.73,2.73 4.48,5.26 4.48,5.26Z" style="fill-rule:nonzero;"/></g><g><path d="M616.4,84.28l4,2c0.018,-0.235 0.051,-0.469 0.1,-0.7c-1.06,-0.41 -2.7,-1.14 -3.74,-1.6c-0.081,0.139 -0.209,0.245 -0.36,0.3Z" style="fill-rule:nonzero;"/></g><g><path d="M618.6,90.52c0,0 2.33,0.39 2.11,-1.72c-0.922,-0.088 -1.818,-0.353 -2.64,-0.78c-1.314,-0.864 -2.248,-2.2 -2.61,-3.73c-1.76,0 -1.36,1 -1.36,1c-0.71,2.7 4.5,5.23 4.5,5.23Z" style="fill-rule:nonzero;"/></g><g><path d="M618.6,90.52c0,0 2.33,0.39 2.11,-1.72c-0.922,-0.088 -1.818,-0.353 -2.64,-0.78c-1.314,-0.864 -2.248,-2.2 -2.61,-3.73c-1.76,0 -1.36,1 -1.36,1c-0.71,2.7 4.5,5.23 4.5,5.23Z" style="fill-opacity:0.1;fill-rule:nonzero;"/></g></g><g><path d="M618.17,89.89c0,0 2.33,0.39 2.11,-1.71c-0.019,-0.19 -0.056,-0.377 -0.11,-0.56c-0.16,-0.634 -0.207,-1.29 -0.14,-1.94c0.018,-0.232 0.051,-0.462 0.1,-0.69c0.126,-0.691 0.342,-1.364 0.64,-2c0.135,-0.309 0.289,-0.61 0.46,-0.9l-5.88,-2.45c0.307,0.522 0.575,1.067 0.8,1.63c0.32,0.79 0.54,1.65 0.24,2.11c-0.1,0.13 -0.241,0.221 -0.4,0.26c-0.149,0.028 -0.301,0.028 -0.45,0l-0.51,0c-1.76,0 -1.36,1 -1.36,1c-0.69,2.73 4.5,5.25 4.5,5.25Z" style="fill:#007ca6;fill-rule:nonzero;"/></g><g><path d="M615.99,83.66l4,2c0.018,-0.232 0.051,-0.462 0.1,-0.69c-1.06,-0.41 -2.7,-1.14 -3.74,-1.6c-0.085,0.134 -0.211,0.236 -0.36,0.29Z" style="fill:#444053;fill-rule:nonzero;"/></g><g><path d="M618.17,89.89c0,0 2.33,0.39 2.11,-1.71c-0.921,-0.097 -1.817,-0.365 -2.64,-0.79c-1.313,-0.86 -2.248,-2.192 -2.61,-3.72c-1.76,0 -1.36,1 -1.36,1c-0.69,2.7 4.5,5.22 4.5,5.22Z" style="fill:#007ca6;fill-rule:nonzero;"/></g><g><path d="M618.17,89.89c0,0 2.33,0.39 2.11,-1.71c-0.921,-0.097 -1.817,-0.365 -2.64,-0.79c-1.313,-0.86 -2.248,-2.192 -2.61,-3.72c-1.76,0 -1.36,1 -1.36,1c-0.69,2.7 4.5,5.22 4.5,5.22Z" style="fill-opacity:0.1;fill-rule:nonzero;"/></g><g><path d="M595.09,117.28c0.265,-0.541 0.569,-1.063 0.91,-1.56c0.48,-0.7 1.07,-1.37 1.61,-1.37c0.168,-0.002 0.33,0.062 0.45,0.18c0.113,0.1 0.208,0.218 0.28,0.35c0.09,0.17 0.18,0.31 0.26,0.44c1,1.46 1.64,0.55 1.64,0.55c2.58,-0.9 1.8,-6.63 1.8,-6.63c0,0 -1,-2.15 -2.6,-0.79c-0.146,0.119 -0.284,0.25 -0.41,0.39c-0.607,0.648 -1.343,1.162 -2.16,1.51c-0.642,0.267 -1.314,0.458 -2,0.57c-0.33,0.063 -0.664,0.1 -1,0.11l1.22,6.25Z" style="fill:#007ca6;fill-rule:nonzero;"/></g><g><path d="M597.6,114.35c0.168,-0.002 0.33,0.062 0.45,0.18l-0.56,-4.49c-0.203,0.117 -0.413,0.221 -0.63,0.31c0.26,1.1 0.56,2.87 0.74,4Z" style="fill:#444053;fill-rule:nonzero;"/></g><g><path d="M598.6,115.32c1,1.46 1.64,0.55 1.64,0.55c2.58,-0.9 1.8,-6.63 1.8,-6.63c0,-0 -1,-2.15 -2.6,-0.79c0.438,0.815 0.71,1.709 0.8,2.63c0.024,1.572 -0.564,3.093 -1.64,4.24Z" style="fill:#007ca6;fill-rule:nonzero;"/></g><g><path d="M598.6,115.32c1,1.46 1.64,0.55 1.64,0.55c2.58,-0.9 1.8,-6.63 1.8,-6.63c0,-0 -1,-2.15 -2.6,-0.79c0.438,0.815 0.71,1.709 0.8,2.63c0.024,1.572 -0.564,3.093 -1.64,4.24Z" style="fill-opacity:0.1;fill-rule:nonzero;"/></g><g><path d="M592.96,125.7c1.888,-2.999 2.925,-6.457 3,-10c0.48,-0.7 1.07,-1.37 1.61,-1.37c0.168,-0.002 0.33,0.062 0.45,0.18c0.113,0.1 0.208,0.218 0.28,0.35c0.09,0.17 0.18,0.31 0.26,0.44c1,1.46 1.64,0.55 1.64,0.55c2.58,-0.9 1.8,-6.63 1.8,-6.63c0,0 -1,-2.15 -2.6,-0.79c-0.146,0.119 -0.284,0.25 -0.41,0.39c-0.607,0.648 -1.343,1.162 -2.16,1.51c-0.642,0.267 -1.314,0.458 -2,0.57c-0.499,-1 -1.12,-1.934 -1.85,-2.78c-2.461,-2.632 -5.511,-4.644 -8.9,-5.87c1.4,8.87 4.01,18.21 8.88,23.45Z" style="fill-opacity:0.1;fill-rule:nonzero;"/></g><g><path d="M606.99,128.77c0.726,-0.114 1.444,-0.275 2.15,-0.48c0.648,-0.186 1.286,-0.406 1.91,-0.66l0.41,-0.17c0.53,-0.23 1.07,-0.48 1.61,-0.76c0.54,-0.28 0.81,-0.42 1.22,-0.65c7.61,-4.39 15,-13.22 18.3,-22.18c0.937,-2.448 1.539,-5.011 1.79,-7.62c0.121,-1.382 0.1,-2.772 -0.06,-4.15c-0.466,-3.95 -1.732,-7.765 -3.72,-11.21c-0.22,-0.37 -0.43,-0.72 -0.66,-1.06c-5,-7.72 -13.41,-12.38 -22.35,-11.44c1.94,5.61 4.7,10.39 8.59,12.88c0.32,0.79 0.54,1.65 0.24,2.11c-0.1,0.13 -0.241,0.221 -0.4,0.26c-0.149,0.028 -0.301,0.028 -0.45,0l-0.51,0c-1.76,0 -1.36,1 -1.36,1c-0.69,2.65 4.5,5.18 4.5,5.18c0,0 2.33,0.39 2.11,-1.71c-0.019,-0.19 -0.056,-0.377 -0.11,-0.56c-0.16,-0.634 -0.207,-1.29 -0.14,-1.94c0.018,-0.232 0.051,-0.462 0.1,-0.69c0.126,-0.691 0.342,-1.364 0.64,-2c1.109,0.145 2.231,0.145 3.34,0c1.568,-0.208 3.102,-0.625 4.56,-1.24c-0.21,0.33 -0.4,0.66 -0.58,1c-1.885,3.001 -2.922,6.457 -3,10c-0.46,0.7 -1,1.38 -1.6,1.38c-0.163,-0.001 -0.319,-0.061 -0.44,-0.17c-0.116,-0.103 -0.214,-0.225 -0.29,-0.36c-0.09,-0.16 -0.18,-0.3 -0.26,-0.43c-1,-1.44 -1.64,-0.54 -1.64,-0.54c-2.57,0.94 -1.74,6.65 -1.74,6.65c0,0 1,2.14 2.61,0.76c0.148,-0.118 0.282,-0.252 0.4,-0.4c0.433,-0.485 0.947,-0.891 1.52,-1.2c0.203,-0.12 0.413,-0.227 0.63,-0.32c0.64,-0.277 1.312,-0.475 2,-0.59c0.499,1.001 1.128,1.933 1.87,2.77l0.4,0.43l-0.14,0.13c-3.21,2.899 -6.177,6.056 -8.87,9.44c-0.81,1 -1.59,2.1 -2.28,3.18c-0.493,0.753 -0.953,1.503 -1.38,2.25c-1.861,3.008 -2.877,6.463 -2.94,10c-0.46,0.7 -1,1.37 -1.6,1.38c-0.165,-0.003 -0.324,-0.063 -0.45,-0.17c-0.113,-0.103 -0.208,-0.225 -0.28,-0.36c-0.1,-0.16 -0.18,-0.3 -0.27,-0.43c-1,-1.44 -1.63,-0.54 -1.63,-0.54c-1.14,0.5 -1.58,1.86 -1.75,3.23Z" style="fill-opacity:0.1;fill-rule:nonzero;"/></g><g opacity="0.1"><g><path d="M618.38,78.75c0.534,0.209 1.11,0.288 1.68,0.23c0.86,0.042 1.7,0.274 2.46,0.68c-0.38,-5.12 -7.38,-6.6 -7.38,-6.6c1.72,1.452 2.868,3.47 3.24,5.69Z" style="fill-rule:nonzero;"/></g><g><path d="M583.46,97.39c0.13,1 0.27,2.09 0.44,3.15c4.55,1.38 8.91,1.82 12.56,0.66c0.81,0.26 1.61,0.64 1.76,1.16c0.063,0.154 0.063,0.326 0,0.48c-0.065,0.14 -0.157,0.265 -0.27,0.37c-0.116,0.118 -0.226,0.241 -0.33,0.37c-1.12,1.37 -0.07,1.72 -0.07,1.72c1.59,2.22 6.86,-0.16 6.86,-0.16c0,-0 1.79,-1.54 0,-2.71c-0.157,-0.104 -0.321,-0.198 -0.49,-0.28c-0.592,-0.28 -1.13,-0.663 -1.59,-1.13c-0.16,-0.16 -0.32,-0.33 -0.47,-0.51c-0.438,-0.546 -0.814,-1.14 -1.12,-1.77c0.831,-0.75 1.555,-1.612 2.15,-2.56c4.23,-6.61 4.15,-18.23 0.8,-28.29c-13,1.84 -22.02,15 -20.23,29.5Z" style="fill-rule:nonzero;"/></g><g><path d="M595.6,126.46c1.392,0.906 2.966,1.496 4.61,1.73c0.136,-0.311 0.293,-0.611 0.47,-0.9l-5.9,-2.4c0.307,0.505 0.58,1.03 0.82,1.57Z" style="fill-rule:nonzero;"/></g><g><path d="M597.6,135.08c0,-0 2.34,0.4 2.11,-1.71c-0.016,-0.189 -0.049,-0.377 -0.1,-0.56c-0.159,-0.634 -0.207,-1.29 -0.14,-1.94c0.014,-0.232 0.044,-0.462 0.09,-0.69c0.135,-0.689 0.349,-1.361 0.64,-2c0.136,-0.311 0.293,-0.611 0.47,-0.9l-5.89,-2.39c0.302,0.522 0.569,1.063 0.8,1.62c0.31,0.79 0.53,1.66 0.23,2.11c-0.092,0.135 -0.231,0.231 -0.39,0.27c-0.152,0.027 -0.308,0.027 -0.46,-0c-0.167,-0.009 -0.333,-0.009 -0.5,-0c-1.77,-0 -1.37,1 -1.37,1c-0.68,2.67 4.51,5.19 4.51,5.19Z" style="fill-rule:nonzero;"/></g><g><path d="M595.42,128.89l4,2c0,-0.24 0.03,-0.47 0.09,-0.69c-1.05,-0.41 -2.7,-1.14 -3.74,-1.6c-0.079,0.134 -0.203,0.237 -0.35,0.29Z" style="fill-rule:nonzero;"/></g><g><path d="M597.6,135.08c0,-0 2.33,0.39 2.11,-1.72c-0.922,-0.085 -1.819,-0.35 -2.64,-0.78c-1.316,-0.857 -2.252,-2.191 -2.61,-3.72c-1.77,0 -1.37,1 -1.37,1c-0.69,2.7 4.51,5.22 4.51,5.22Z" style="fill-rule:nonzero;"/></g><g><path d="M597.6,135.08c0,-0 2.33,0.39 2.11,-1.72c-0.922,-0.085 -1.819,-0.35 -2.64,-0.78c-1.316,-0.857 -2.252,-2.191 -2.61,-3.72c-1.77,0 -1.37,1 -1.37,1c-0.69,2.7 4.51,5.22 4.51,5.22Z" style="fill-opacity:0.1;fill-rule:nonzero;"/></g><g><path d="M618.38,78.75c0.534,0.209 1.11,0.288 1.68,0.23c0.86,0.042 1.7,0.274 2.46,0.68c-0.38,-5.12 -7.38,-6.6 -7.38,-6.6c1.72,1.452 2.868,3.47 3.24,5.69Z" style="fill-opacity:0.1;fill-rule:nonzero;"/></g></g><g><path d="M584.9,98.21c1.81,14.7 6.88,32.44 20.07,30.81c13.19,-1.63 29.52,-22 27.71,-36.71c-1.81,-14.71 -14,-25.28 -27.18,-23.65c-13.18,1.63 -22.42,14.86 -20.6,29.55Z" style="fill:#007ca6;fill-rule:nonzero;"/></g><g><path d="M599.03,135.89c0,-0 2.33,0.4 2.11,-1.71c-0.021,-0.189 -0.055,-0.376 -0.1,-0.56c-0.168,-0.632 -0.219,-1.29 -0.15,-1.94c0,-0.23 0.06,-0.47 0.1,-0.69c0.2,-1.02 0.576,-1.998 1.11,-2.89l-5.88,-2.45c0,-0 1.66,2.79 1,3.74c-0.096,0.135 -0.239,0.231 -0.4,0.27c-0.149,0.022 -0.301,0.022 -0.45,0l-0.5,0c-1.77,0 -1.37,1 -1.37,1c-0.66,2.72 4.53,5.23 4.53,5.23Z" style="fill:#007ca6;fill-rule:nonzero;"/></g><g><path d="M596.85,129.67l4,2c0,-0.23 0.06,-0.47 0.1,-0.69c-1.06,-0.41 -2.7,-1.14 -3.74,-1.6c-0.083,0.135 -0.21,0.238 -0.36,0.29Z" style="fill:#444053;fill-rule:nonzero;"/></g><g><path d="M599.03,135.89c0,-0 2.33,0.4 2.11,-1.71c-0.924,-0.086 -1.821,-0.354 -2.64,-0.79c-1.315,-0.856 -2.248,-2.191 -2.6,-3.72c-1.77,0 -1.37,1 -1.37,1c-0.69,2.71 4.5,5.22 4.5,5.22Z" style="fill:#007ca6;fill-rule:nonzero;"/></g><g><path d="M599.03,135.89c0,-0 2.33,0.4 2.11,-1.71c-0.924,-0.086 -1.821,-0.354 -2.64,-0.79c-1.315,-0.856 -2.248,-2.191 -2.6,-3.72c-1.77,0 -1.37,1 -1.37,1c-0.69,2.71 4.5,5.22 4.5,5.22Z" style="fill-opacity:0.1;fill-rule:nonzero;"/></g><g><path d="M616.6,73.89c0,0 7,1.48 7.38,6.6c-0.762,-0.406 -1.607,-0.635 -2.47,-0.67c-0.568,0.052 -1.14,-0.03 -1.67,-0.24c-0.377,-2.218 -1.525,-4.234 -3.24,-5.69Z" style="fill:#fff;fill-opacity:0.1;fill-rule:nonzero;"/></g><g><path d="M599.39,130.99c2.197,0.182 3.908,2.041 3.908,4.245c0,0.335 -0.04,0.669 -0.118,0.995c-0.88,2.95 -4.5,3.88 -6.86,5.85c-2.36,1.97 -3.49,5.12 -3.78,8.19c-0.505,5.881 1.607,11.695 5.77,15.88c2.12,2.09 4.68,3.69 6.77,5.81c2.4,2.653 4.373,5.662 5.85,8.92c1.335,2.311 2.214,4.857 2.59,7.5c0.35,4.21 -1.77,8.24 -4.3,11.62c-2.53,3.38 -5.56,6.44 -7.52,10.18c-2.681,5.185 -3.126,11.249 -1.23,16.77c0.114,0.438 0.362,0.83 0.71,1.12c0.136,0.101 0.301,0.155 0.47,0.155c0.286,-0 0.551,-0.155 0.69,-0.405" style="fill:none;fill-rule:nonzero;stroke:#444053;stroke-width:1px;"/></g><g><path d="M611.68,130.25c0.631,0.714 0.669,1.784 0.09,2.54c-0.598,0.729 -1.497,1.146 -2.44,1.13c-1.13,0 -2.39,-0.35 -3.32,0.31c-0.633,0.543 -0.998,1.336 -1,2.17c0.008,0.823 -0.076,1.645 -0.25,2.45c-0.23,0.657 -0.599,1.257 -1.08,1.76c-0.545,0.635 -1.229,1.135 -2,1.46c-1.67,0.65 -3.6,0.06 -5.31,0.6c-2.25,0.71 -3.46,3.14 -4.14,5.4c-0.928,2.695 -1.098,5.595 -0.49,8.38c0.589,1.783 1.349,3.504 2.27,5.14c0.919,1.641 1.427,3.48 1.48,5.36c0.02,1.919 -1.085,3.681 -2.82,4.5" style="fill:none;fill-rule:nonzero;stroke:#444053;stroke-width:1px;"/></g><g><path d="M608.86,194.8c-2.69,3.58 -3.71,9.3 -8.11,10.17c-2.27,0.45 -4.52,-0.72 -6.55,-1.84c-4.73,-2.64 -9.6,-5.3 -15,-6.17c-5.4,-0.87 -11.36,0.38 -14.9,4.49c-2.41,2.82 -3.4,6.6 -5.52,9.64c-2.763,3.681 -6.725,6.285 -11.2,7.36c-4.444,1.061 -9.021,1.452 -13.58,1.16c-1.69,-0.05 -3.53,-0.18 -4.79,-1.3c-0.823,-0.905 -1.497,-1.935 -2,-3.05c-2.17,-3.64 -6.46,-5.64 -10.69,-5.91c-4.23,-0.27 -8.41,1 -12.32,2.61c-2,0.82 -4,1.76 -6.14,1.55c-3,-0.3 -5.21,-2.72 -7.06,-5.05c-4.794,-6.088 -8.865,-12.712 -12.13,-19.74" style="fill:none;fill-rule:nonzero;stroke:#444053;stroke-width:1px;"/></g><g><path d="M447.51,516.31c1.07,-3.89 1.77,-7.31 1.77,-7.31c0.026,-2.6 0.715,-5.15 2,-7.41l0.05,-1.07l0.3,-7.89c-0.487,-1.454 -1.1,-2.862 -1.83,-4.21c-1.33,-2.53 0.45,-11.57 0.45,-11.57c0,-0 5.76,-12.61 4.79,-20.78c-0.97,-8.17 12.2,-35.68 12.2,-35.68c0.028,-2.69 -0.25,-5.374 -0.83,-8c-0.099,-0.554 -0.13,-1.118 -0.09,-1.68l0,-0.14c0.39,-5.35 5,-15.24 5,-15.24l0.17,-19.16c-0,-0 -2.27,-11.4 2.73,-26.39c1.74,-5.23 2.89,-9.42 3.64,-12.66c0.09,-0.37 0.17,-0.72 0.24,-1.06c-9,-1.74 -15.92,-3.16 -15.92,-3.16c0,0 6.11,-21.83 9.82,-25.55c3.71,-3.72 7,-15.74 7,-15.74c-0,0 2.45,-15.49 -0.37,-20.15c-2.82,-4.66 -2.9,-12.57 -2.9,-12.57c-0,0 -6.64,-5.22 -7.41,-7.46c-0.77,-2.24 -2,-7.25 -1.9,-9.87c0.1,-2.62 1,-4.93 0.81,-6.31c-0.19,-1.38 2.25,-6.54 1.2,-9.06c-0.26,-0.776 -0.382,-1.592 -0.36,-2.41c0.022,-0.818 0,0 0,-0.07c0.074,-2.169 0.359,-4.326 0.85,-6.44c2.036,-1.593 4.389,-2.735 6.9,-3.35l0.17,-0.59l0.44,-1.53c0.24,-0.15 0.47,-0.27 0.69,-0.38l-0,-0.56l0.15,-2.24l-0.88,-5.07c-1.76,-8.82 10,-9.68 10,-9.68c0.758,-1.314 1.977,-2.301 3.42,-2.77c2.38,-0.74 -0.12,13.17 -1.25,14c-0.85,0.64 -3.57,4.93 -4.88,7l-0.22,0.35c0.188,0.179 0.362,0.373 0.52,0.58l-0.56,3l-0.09,0.46c0.736,0.992 1.322,2.087 1.74,3.25c0.418,1.163 -2.23,2.26 -1.9,4.9c0.086,2.042 -0.233,4.082 -0.94,6c0.13,-0.13 1.7,-1.7 3.18,-1.25c1.48,0.45 5.63,1.87 5.63,1.87c0,0 3.11,0.68 2.8,1.35c-0.31,0.67 2,3.8 2,3.8l8.76,-7.52c0.09,-0.24 0.19,-0.47 0.27,-0.72c0.394,-1.125 0.685,-2.283 0.87,-3.46c-0.91,-0.267 -1.799,-0.601 -2.66,-1c-0.873,-0.335 -1.652,-0.877 -2.27,-1.58c-0.666,-1.124 -1.079,-2.38 -1.21,-3.68c-0.58,-2.48 -1.92,-4.71 -2.86,-7.08c-1.581,-3.992 -1.997,-8.351 -1.2,-12.57c0.186,-1.301 0.68,-2.538 1.44,-3.61c1.44,-1.84 4,-2.51 5.83,-3.94c1.83,-1.43 3.13,-3.7 5.28,-4.75c1.95,-0.95 4.28,-0.74 6.41,-0.3c4.184,0.851 8.172,2.475 11.76,4.79c1.2,0.77 2.51,1.67 3.93,1.46c1.203,-0.295 2.265,-1.003 3,-2l0,-0.11l0.09,-0.11c0.817,2.013 1.182,4.181 1.07,6.35c0,0.33 0,0.67 -0.08,1l0,0.35c-0.01,0.096 -0.01,0.194 0,0.29c-0.02,0.149 -0.02,0.301 0,0.45c0.159,0.439 0.412,0.838 0.74,1.17c0.249,0.311 0.467,0.646 0.65,1c0,-0.12 -0.06,-0.23 -0.1,-0.35c0.507,0.805 0.775,1.738 0.77,2.69c0.016,0.69 -0.235,1.36 -0.7,1.87c-0.436,0.397 -0.912,0.749 -1.42,1.05c0.952,6.654 -2.386,13.231 -8.32,16.39c-0.1,0.23 -0.21,0.47 -0.31,0.71c-1.331,2.851 -1.975,5.975 -1.88,9.12c0,0.22 0,0.44 0.08,0.67c0.1,0.115 0.193,0.235 0.28,0.36c0.087,0.125 13.88,0.67 17.27,-2.17c3.39,-2.84 8,7.56 8,7.56c0,0 4.95,1.15 6,0.23c1.05,-0.92 6.84,0.12 6.84,0.12c2.465,-2.03 5.614,-3.043 8.8,-2.83c2.002,-1.404 4.194,-2.515 6.51,-3.3l0.16,0c1.013,-0.324 2.086,-0.42 3.14,-0.28c1.054,0.14 7.05,-5.38 9.16,-8.33c2.11,-2.95 12,-13.84 12.08,-13.88l0.05,-0.55l0.17,-1.63c0.28,0.057 0.564,0.093 0.85,0.11c0.06,-0.16 0.13,-0.35 0.22,-0.56c0.6,-1.576 1.332,-3.098 2.19,-4.55c0.858,-1.452 0.08,-2.07 -0.51,-2.61c-0.59,-0.54 0.57,-8.09 0.57,-8.09c0,0 6.7,-14.15 11.81,-3.2c0,0 10.15,7.36 1.09,15.12c0,0 -3.55,1.55 -4.1,2.87c-0.36,0.86 -1.64,3.25 -2.49,4.83c-0.15,0.26 -0.28,0.5 -0.39,0.71l0.1,0.09l-0.18,1.34l-0.08,0.52c1.62,1 2.7,2 2.4,2.67c-0.533,1.174 -0.916,2.41 -1.14,3.68c-0.224,1.27 -12.68,14.68 -14.5,21.1c0,0 -33.19,18 -43.91,19l1.48,9.71c0,0 0.34,5.81 0.12,7.87c-0.22,2.06 0.84,11.49 0.84,11.49c0,0 1.32,13.84 2.81,15.83c1.49,1.99 0.89,10.24 0.89,10.24c0.223,3.971 0.788,7.916 1.69,11.79c1.36,5.3 0,11.73 0,11.73c0,0 4.93,12.61 -7.69,3.7c0,0 -6.35,-0.64 -13.66,-1.17l0,0.74c0,0.94 0,2 -0.08,3c-0.17,7.11 -0.51,16.9 -1.11,24.29c-1.08,13.06 -6.06,38.8 -6.06,38.8l-0.5,13c0.214,1.231 0.291,2.482 0.23,3.73c-0.082,4.589 -1.47,9.061 -4,12.89l-1.53,8.59c0,0 -2.56,5.62 -2.74,9c-0.004,0.278 0.02,0.556 0.07,0.83c0.069,0.443 0.089,0.892 0.06,1.34c0,3.94 -2.75,13.28 -2.75,13.28c0,0 -0.51,9.5 -2,10c-1.23,0.43 1.42,5.54 2.21,7c0.025,-0.089 0.045,-0.179 0.06,-0.27l0.17,0.3c0.263,0.779 0.382,1.599 0.35,2.42c0.111,1.33 -0.556,2.61 -1.71,3.28c-2.77,1.54 -4.27,2.87 -2,3.5c0.87,0.25 1.8,0.34 2.49,0.63c0,-0.11 0.09,-0.22 0.13,-0.32c0.656,0.291 1.021,1.008 0.87,1.71c-0.071,1.128 -0.414,2.223 -1,3.19c-1.099,2.444 -2.482,4.75 -4.12,6.87l-1.09,-0.16c0.146,0.423 0.344,0.826 0.59,1.2c0.393,0.611 0.924,1.122 1.55,1.49c0.582,0.377 1.236,0.629 1.92,0.74c1.575,0.098 3.034,0.872 4,2.12c1.34,1.88 2.14,4.42 -0.75,6.51l-10.31,3.12c0,0 -17.6,1.6 -16.52,-2.29c1.08,-3.89 1.78,-7.31 1.78,-7.31c0.048,-2.383 0.643,-4.724 1.74,-6.84c0.192,-0.351 0.413,-0.686 0.66,-1l-0.62,-0.1c0,0 -0.94,-8.72 -2.59,-10.44c-0.38,-0.4 -0.46,-0.7 -0.35,-0.92c-0.16,-0.48 0.29,-0.74 0.87,-0.87c0,0.11 0.08,0.23 0.11,0.34c0.565,-0.094 1.137,-0.134 1.71,-0.12c0.573,0.014 0.75,-4.52 -1,-6.25c-0.287,-0.391 -0.4,-0.884 -0.31,-1.36c0.012,-0.626 0.102,-1.247 0.27,-1.85l0.06,0.11c1.09,-4.09 4.49,-10.52 4.49,-10.52c0,0 0.31,-4.13 -0.77,-5.82c-1.08,-1.69 1,-22.45 1,-22.45c0,0 0,-10.07 1.42,-14.71c1.42,-4.64 -1.18,-10.25 -1.18,-10.25l0,-0.3c0.004,-0.023 0.004,-0.047 0,-0.07l0.23,-1.58l0,0.1c0.39,-2.65 1.12,-7.45 1.6,-9.67c0.69,-3.14 0.57,-18.32 0.57,-18.32l-2.32,-6.58l-5,11l-5.38,14.63c0,0 -2.52,3.05 -2.7,6.23l0,0.47c0.02,0.333 0.02,0.667 0,1c0.014,1.884 -0.575,3.724 -1.68,5.25c-1.105,1.526 -1.55,7 -3.61,8.69c-2.06,1.69 -2.19,5.15 -2.19,5.15c0,0 -2.82,10.1 -4,11.85c-1,1.47 -1.23,5.62 -1.27,6.89l0,0.37c0,0 -0.48,3.63 -0.58,6.7l0,1.09l0,-0.08c-0.027,0.835 0.04,1.67 0.2,2.49c0.16,0.82 0,0.09 0,0.14l0,-0.51c0.427,2.098 0.591,4.241 0.49,6.38c-0.08,3.66 -0.8,8 -3.12,10.44c-4,4.26 -6.41,3.62 -6.41,3.62c0,0 1.64,5.58 3.87,6.77c0.087,0.041 0.168,0.095 0.24,0.16c0,-0.1 0,-0.21 0.07,-0.32c0.479,0.58 0.693,1.335 0.59,2.08c0.07,2.43 -1.61,6.31 -3.14,8.06c-0.567,0.514 -1.255,0.875 -2,1.05l0.35,0.24c0.28,0.16 0.53,0.29 0.77,0.4c0.362,0.176 0.751,0.291 1.15,0.34c1.578,0.091 3.039,0.865 4,2.12c1.35,1.88 2.15,4.42 -0.74,6.51l-10.32,3.12c0,0 -17.61,1.61 -16.53,-2.28Z" style="fill:url(#_Linear2);fill-rule:nonzero;"/></g><g><path d="M514.12,525.39l10,-3.13c2.8,-2.1 2,-4.63 0.73,-6.52c-0.904,-1.227 -2.301,-1.998 -3.82,-2.11c-0.666,-0.111 -1.3,-0.363 -1.86,-0.74c-0.612,-0.369 -1.127,-0.88 -1.5,-1.49c-0.685,-1.165 -1.031,-2.499 -1,-3.85c0.031,-1.351 -10.7,-3.58 -13.78,-0.53c-0.547,0.554 -1.012,1.184 -1.38,1.87c-1.062,2.154 -1.626,4.519 -1.65,6.92c-0.024,2.401 -0.68,3.41 -1.72,7.31c-1.04,3.9 15.98,2.27 15.98,2.27Z" style="fill:#2d293d;fill-rule:nonzero;"/></g><g><path d="M466.09,518.68l10,-3.13c2.8,-2.1 2,-4.63 0.73,-6.51c-0.902,-1.233 -2.305,-2.006 -3.83,-2.11c-0.385,-0.061 -0.76,-0.179 -1.11,-0.35c-0.257,-0.112 -0.505,-0.246 -0.74,-0.4c-2.71,-1.62 -2.54,-5.29 -2.54,-5.29c0,-0 -10.69,-3.58 -13.77,-0.53c-0.413,0.415 -0.779,0.874 -1.09,1.37c-1.253,2.274 -1.92,4.824 -1.94,7.42c-0.02,2.596 -0.69,3.42 -1.73,7.31c-1.04,3.89 16.02,2.22 16.02,2.22Z" style="fill:#2d293d;fill-rule:nonzero;"/></g><g><path d="M502.89,507.02c-0.547,0.554 -1.012,1.184 -1.38,1.87l16.14,2.5c-0.685,-1.165 -1.031,-2.499 -1,-3.85c0.031,-1.351 -10.68,-3.57 -13.76,-0.52Z" style="fill-opacity:0.1;fill-rule:nonzero;"/></g><g><path d="M453.78,501.68l-0.12,3c2.36,4.26 14.59,3.82 18.21,1.87c-0.257,-0.112 -0.505,-0.246 -0.74,-0.4c-2.7,-1.59 -2.53,-5.26 -2.53,-5.26c0,-0 -10.69,-3.58 -13.77,-0.53c-0.396,0.401 -0.748,0.844 -1.05,1.32Z" style="fill-opacity:0.1;fill-rule:nonzero;"/></g><g><path d="M452.35,488.52c0.71,1.35 1.302,2.759 1.77,4.21l-0.42,10.88c2.58,4.65 17,3.69 19,1.28c2,-2.41 4.34,-8.8 2.18,-10c-2.16,-1.2 -3.74,-6.77 -3.74,-6.77c0,0 2.32,0.64 6.21,-3.62c3.89,-4.26 3.16,-14.09 2.56,-16.46c-0.6,-2.37 0.4,-10.19 0.4,-10.19c0,0 0.07,-5.52 1.24,-7.26c1.17,-1.74 3.91,-11.86 3.91,-11.86c0,0 0.13,-3.44 2.13,-5.16c2,-1.72 3.5,-8.69 3.5,-8.69c1.202,-1.71 1.771,-3.786 1.61,-5.87c-0.28,-3.46 2.62,-7.07 2.62,-7.07l5.25,-14.7l4.84,-11l2.19,6.65c0,0 0.1,15.18 -0.57,18.33c-0.67,3.15 -1.82,11.52 -1.82,11.52c0,0 2.54,5.61 1.12,10.25c-1.42,4.64 -1.39,14.7 -1.39,14.7c0,0 -2,20.76 -1,22.45c1,1.69 0.74,5.82 0.74,5.82c0,0 -6.12,11.91 -4.39,13.63c1.73,1.72 1,6.25 1,6.25c0,0 -3.85,-0.15 -2.26,1.57c1.59,1.72 2.57,10.39 2.57,10.39l16.58,2.57c1.592,-2.133 2.934,-4.441 4,-6.88c2.4,-5 -0.23,-4.57 -2.43,-5.2c-2.2,-0.63 -0.74,-2 1.94,-3.51c2.68,-1.51 1.31,-5.33 1.31,-5.33c-0,0 -3.74,-6.91 -2.34,-7.41c1.4,-0.5 1.91,-10 1.91,-10c0,0 3.18,-11.19 2.61,-14.25c-0.57,-3.06 2.6,-10.25 2.6,-10.25l1.3,-8.64c3.137,-4.805 4.437,-10.584 3.66,-16.27l0.52,-13.36c0,0 4.85,-25.75 5.91,-38.82c0.67,-8.36 1,-19.81 1.17,-26.95c0.09,-4 0.12,-6.66 0.12,-6.66l-59.27,-8.49c-0.202,2.971 -0.678,5.916 -1.42,8.8c-0.73,3.25 -1.85,7.44 -3.54,12.67c-4.86,15 -2.67,26.39 -2.67,26.39l-0.19,19.16c0,0 -5.73,12.61 -4.8,17.06c0.561,2.629 0.83,5.312 0.8,8c-0.03,2.688 -12.79,27.51 -11.86,35.68c0.93,8.17 -4.66,20.79 -4.66,20.79c0,0 -1.78,9.09 -0.5,11.62Z" style="fill:#3f3d56;fill-rule:nonzero;"/></g><g><path d="M489.14,418.07l-18,-3.11c0,0 9.84,10.86 18,3.11Z" style="fill-opacity:0.05;fill-rule:nonzero;"/></g><g><path d="M474.42,397.36c0,0 -0.87,6.38 3,8.94c-0.04,0 -7.02,-1.41 -3,-8.94Z" style="fill-opacity:0.1;fill-rule:nonzero;"/></g><g><path d="M476.31,377.01c0,0 14.67,13.05 20.21,12.23c5.54,-0.82 -20.21,-12.23 -20.21,-12.23Z" style="fill-opacity:0.1;fill-rule:nonzero;"/></g><g><path d="M511.37,424.78c0,-0 11.4,3.06 11.56,7.69c0.16,4.63 -11.56,-7.69 -11.56,-7.69Z" style="fill-opacity:0.1;fill-rule:nonzero;"/></g><g><path d="M506.6,482.13c0,0 16.13,3.65 11.44,5.54c-4.006,1.405 -8.12,2.481 -12.3,3.22c-4.18,0.739 -5.25,0.11 0.86,-8.76Z" style="fill-opacity:0.05;fill-rule:nonzero;"/></g><g opacity="0.05"><g><path d="M521.23,491.08c0.846,-0.486 1.425,-1.335 1.57,-2.3l0.16,0.3c0,0 1.37,3.77 -1.31,5.32l-0.87,0.53c-0.48,-0.11 -1,-0.2 -1.49,-0.34c-2.2,-0.64 -0.69,-1.96 1.94,-3.51Z" style="fill-rule:nonzero;"/></g><g><path d="M500.33,489.17c-0.43,-0.43 -0.37,-1.49 -0.05,-2.84c0.613,1.239 0.88,2.622 0.77,4c-0.155,-0.433 -0.401,-0.829 -0.72,-1.16Z" style="fill-rule:nonzero;"/></g><g><path d="M505.47,420.74c0.538,1.649 0.841,3.366 0.9,5.1c-0.267,-1.208 -0.642,-2.389 -1.12,-3.53c-0.478,-1.141 0.08,-0.61 0.22,-1.57Z" style="fill-rule:nonzero;"/></g><g><path d="M468.53,412.07c-0.089,-0.498 -0.119,-1.005 -0.09,-1.51c0.16,1 0.27,2 0.34,2.84c-0.07,-0.44 -0.18,-0.88 -0.25,-1.33Z" style="fill-rule:nonzero;"/></g><g><path d="M503.98,469.72c-0.279,-1.001 -0.381,-2.044 -0.3,-3.08c0.465,1.246 0.686,2.57 0.65,3.9c-0.085,-0.286 -0.202,-0.561 -0.35,-0.82Z" style="fill-rule:nonzero;"/></g><g><path d="M499.6,495.57c0.756,2.796 1.285,5.649 1.58,8.53l16.58,2.57c1.592,-2.133 2.934,-4.441 4,-6.88c0.21,-0.44 0.38,-0.84 0.52,-1.2c1,0.5 1.33,1.55 -0.1,4.52c-1.065,2.442 -2.407,4.754 -4,6.89l-16.58,-2.57c0,0 -0.91,-8.73 -2.5,-10.45c-0.82,-0.84 -0.28,-1.23 0.5,-1.41Z" style="fill-rule:nonzero;"/></g><g><path d="M522.52,471.68c0,-0 -0.5,9.5 -1.9,10c-0.63,-1.6 -1,-3.11 -0.41,-3.33c1.4,-0.5 1.9,-10 1.9,-10c0,0 3.19,-11.19 2.62,-14.25c-0.57,-3.06 2.6,-10.24 2.6,-10.24l1.3,-8.64c3.137,-4.809 4.437,-10.591 3.66,-16.28l0.51,-13.36c0,-0 4.86,-25.75 5.91,-38.81c0.68,-8.37 1,-19.81 1.18,-26.95c0,-1.29 0.05,-2.44 0.06,-3.41l0.48,0.07c0,-0 0,2.66 -0.12,6.66c-0.16,7.14 -0.5,18.59 -1.17,26.95c-1.06,13.07 -5.91,38.82 -5.91,38.82l-0.52,13.36c0.777,5.686 -0.523,11.465 -3.66,16.27l-1.3,8.64c0,-0 -3.17,7.19 -2.6,10.25c0.57,3.06 -2.63,14.25 -2.63,14.25Z" style="fill-rule:nonzero;"/></g><g><path d="M472.28,501.2c1.427,-1.911 2.414,-4.113 2.89,-6.45c1.64,1.6 -0.55,7.49 -2.47,9.77c-1.92,2.28 -16.41,3.37 -19,-1.28l0.1,-2.62c3.6,3.83 16.56,2.85 18.48,0.58Z" style="fill-rule:nonzero;"/></g><g><path d="M451.94,484.82c0.704,1.353 1.296,2.761 1.77,4.21l-0.08,1.93c-0.28,-0.71 -0.69,-1.67 -1.27,-2.81c-0.398,-1.097 -0.558,-2.266 -0.47,-3.43l0.05,0.1Z" style="fill-rule:nonzero;"/></g><g><path d="M471.95,487.77c-0.485,-1.081 -0.896,-2.193 -1.23,-3.33c-0.334,-1.137 2.32,0.64 6.2,-3.62c2.84,-3.1 3.22,-9.15 3,-13.13c0.6,2.37 1.33,12.19 -2.56,16.46c-2.56,2.79 -4.42,3.47 -5.41,3.62Z" style="fill-rule:nonzero;"/></g><g><path d="M480.31,457.5c-0.35,2.703 -0.547,5.424 -0.59,8.15c-0.08,-0.53 -0.16,-1 -0.24,-1.29c-0.6,-2.36 0.4,-10.19 0.4,-10.19c0,0 0.08,-5.51 1.25,-7.26c1.17,-1.75 3.9,-11.85 3.9,-11.85c0,0 0.13,-3.45 2.13,-5.16c2,-1.71 3.51,-8.7 3.51,-8.7c1.193,-1.714 1.758,-3.788 1.6,-5.87c-0.28,-3.46 2.62,-7.07 2.62,-7.07l5.26,-14.7l4.83,-11l2.23,6.57l0,2.1l-1.8,-5.34l-4.81,11l-5.25,14.7c0,0 -2.9,3.61 -2.62,7.07c0.161,2.084 -0.408,4.16 -1.61,5.87c-1.202,1.71 -1.51,7 -3.5,8.69c-1.99,1.69 -2.13,5.16 -2.13,5.16c0,0 -2.74,10.11 -3.91,11.85c-1.17,1.74 -1.27,7.27 -1.27,7.27Z" style="fill-rule:nonzero;"/></g></g><g><path d="M478.49,203.62l0.84,5.07l-0.14,2.24l-0.11,1.65l5.72,0.81l0.69,-1.17c1.28,-2.11 3.91,-6.4 4.74,-7c1.1,-0.86 3.53,-14.77 1.22,-14c-1.41,0.483 -2.591,1.475 -3.31,2.78c-0.719,1.305 -11.35,0.8 -9.65,9.62Z" style="fill:#ffcdd3;fill-rule:nonzero;"/></g><g><path d="M479.08,212.58l5.72,0.81l0.69,-1.17c-1.514,-1.877 -4.171,-2.421 -6.3,-1.29l-0.11,1.65Z" style="fill-opacity:0.1;fill-rule:nonzero;"/></g><g><path d="M477.52,215.24l7.51,2l0.21,-1.12l0.54,-3c-0.974,-1.405 -2.58,-2.246 -4.29,-2.246c-1.078,-0 -2.129,0.334 -3.01,0.956l-0.43,1.54l-0.53,1.87Z" style="fill:#dce6f2;fill-rule:nonzero;"/></g><g><path d="M600.72,208.89l7.93,4.65l0.79,-1.5c0.83,-1.58 2.07,-4 2.42,-4.83c0.53,-1.32 4,-2.88 4,-2.88c8.78,-7.77 -1,-15.11 -1,-15.11c-4.93,-10.95 -11.44,3.21 -11.44,3.21c0,-0 -1.11,7.55 -0.55,8.09c0.56,0.54 0.49,2.6 0.49,2.6c-0.836,1.458 -1.548,2.983 -2.13,4.56c-0.36,0.73 -0.51,1.21 -0.51,1.21Z" style="fill:#ffcdd3;fill-rule:nonzero;"/></g><g><path d="M600.72,208.89l7.93,4.65l0.79,-1.5c-1.11,-1 -5,-4.44 -6.36,-4.34c-0.638,0.065 -1.282,0.065 -1.92,-0c-0.29,0.71 -0.44,1.19 -0.44,1.19Z" style="fill-opacity:0.1;fill-rule:nonzero;"/></g><g><path d="M599.8,211.29l8.92,4.83l0.26,-2l0.18,-1.34c0,-0 -5.1,-4.72 -6.66,-4.61c-0.791,0.082 -1.589,0.048 -2.37,-0.1l-0.17,1.64l-0.16,1.58Z" style="fill:#dce6f2;fill-rule:nonzero;"/></g><g><path d="M499.25,237.89c0,-0 39.47,6 32.15,3.3c-5.09,-1.88 -7,-5.23 -7.31,-8.89c-0.087,-3.136 0.539,-6.251 1.83,-9.11c1.032,-2.457 2.312,-4.802 3.82,-7c1.508,-2.198 -29.66,-17.84 -24.18,-2.45c0.846,2.329 1.332,4.774 1.44,7.25c0.088,2.454 -0.272,4.904 -1.06,7.23c-1.299,3.777 -3.614,7.123 -6.69,9.67Z" style="fill:#ffcdd3;fill-rule:nonzero;"/></g><g><path d="M505.6,213.7c0.846,2.329 1.332,4.774 1.44,7.25c2.76,2.5 5.9,2.47 9.91,2.62c3.1,0.12 6.49,1 9,-0.39c1.032,-2.457 2.312,-4.802 3.82,-7c1.508,-2.198 -29.69,-17.87 -24.17,-2.48Z" style="fill-opacity:0.1;fill-rule:nonzero;"/></g><circle cx="518.04" cy="208.24" r="16.4" style="fill:#ffcdd3;"/><g><path d="M499.25,237.89c0,-0 39.47,6 32.15,3.3c-5.09,-1.88 -7,-5.23 -7.31,-8.89c-1.89,-2.21 -5.8,-3.91 -8.31,-4.83c-2.296,-0.867 -4.804,-1.003 -7.18,-0.39c-0.935,0.241 -1.831,0.615 -2.66,1.11c-1.294,3.787 -3.609,7.145 -6.69,9.7Z" style="fill-opacity:0.1;fill-rule:nonzero;"/></g><g><path d="M477.52,215.24l7.51,2l0.21,-1.12c-1.569,-2.341 -4.456,-3.453 -7.19,-2.77l-0.53,1.89Z" style="fill-opacity:0.1;fill-rule:nonzero;"/></g><g><path d="M599.8,211.29l8.92,4.83l0.26,-2c-2.886,-1.692 -5.894,-3.166 -9,-4.41l-0.18,1.58Z" style="fill-opacity:0.1;fill-rule:nonzero;"/></g><g><path d="M479.72,337.16c15.26,3 37,7 40.49,6.09c2.91,-0.77 12.1,-0.32 20.08,0.26c0.09,-4 0.12,-6.66 0.12,-6.66l-59.27,-8.49c-0.202,2.971 -0.678,5.916 -1.42,8.8Z" style="fill-opacity:0.1;fill-rule:nonzero;"/></g><g><path d="M464.6,332.97c0,-0 50.22,10.62 55.71,9.18c5.49,-1.44 33.27,1.42 33.27,1.42c12.21,8.88 7.46,-3.72 7.46,-3.72c0,-0 1.35,-6.43 0,-11.72c-0.862,-3.879 -1.4,-7.822 -1.61,-11.79c-0.21,-3.968 0.59,-8.25 -0.85,-10.24c-1.44,-1.99 -2.7,-15.83 -2.7,-15.83c0,0 -1,-9.42 -0.8,-11.48c0.2,-2.06 -0.11,-7.87 -0.11,-7.87l-1.42,-9.71c10.38,-1 42.53,-19.06 42.53,-19.06c1.77,-6.41 14.06,-21.12 14.06,-21.12c0.214,-1.267 0.583,-2.503 1.1,-3.68c0.92,-2.17 -11.31,-7 -11.31,-7c0,0 -9.67,10.94 -11.71,13.89c-2.04,2.95 -8.88,8.35 -8.88,8.35c-1.008,-0.134 -2.034,-0.038 -3,0.28l-0.16,0c-2.253,0.791 -4.379,1.906 -6.31,3.31c-3.099,-0.192 -6.155,0.827 -8.52,2.84c-2.365,2.013 -5.62,-1 -6.62,-0.12c-1,0.88 -5.78,-0.22 -5.78,-0.22c-0,0 -4.43,-10.38 -7.71,-7.54c-3.28,2.84 -16.73,2.19 -16.73,2.19c-1.69,-2.45 -6,-4.33 -8.68,-5.31c-2.295,-0.87 -4.803,-1.01 -7.18,-0.4c-1.03,0.253 -2.007,0.683 -2.89,1.27l-8.46,7.67c-0,0 -2.23,-3.12 -1.93,-3.8c0.3,-0.68 -2.7,-1.35 -2.7,-1.35c-0,0 -4,-1.39 -5.45,-1.86c-1.45,-0.47 -2.95,1.11 -3.08,1.25c0.685,-1.923 0.997,-3.96 0.92,-6c-0.31,-2.63 1.84,-4.89 1.84,-4.89c-4.36,-12 -15.63,-2.54 -15.63,-2.54c-0,0 -1.49,6.43 -0.48,8.95c1.01,2.52 -1.4,7.67 -1.18,9.06c0.22,1.39 -0.69,3.7 -0.79,6.32c-0.1,2.62 1.09,7.63 1.83,9.86c0.74,2.23 7.16,7.45 7.16,7.45c-0,0 0.11,7.87 2.83,12.53c2.72,4.66 0.33,20.15 0.33,20.15c-0,0 -3.22,12 -6.82,15.74c-3.6,3.74 -9.55,25.54 -9.55,25.54Z" style="fill:#3f3d56;fill-rule:nonzero;"/></g><g><path d="M541.73,245.17c0,-0 1.69,-4.49 3.08,-4.85c1.393,-0.453 2.753,-1.001 4.07,-1.64l-0.82,-1.73c0,-0 -5.23,1.22 -6.12,2.71c-0.89,1.49 -0.21,5.51 -0.21,5.51Z" style="fill-opacity:0.1;fill-rule:nonzero;"/></g><g><path d="M569.8,236.18c0.23,1.38 12.44,3.1 12.44,3.1l-6,-6.46l-0.15,0c-2.249,0.808 -4.368,1.94 -6.29,3.36Z" style="fill-opacity:0.1;fill-rule:nonzero;"/></g><g><path d="M540.22,282.49c0.14,-0.15 -32.42,37.86 -55.66,14.28c0.04,0 37.89,6.63 55.66,-14.28Z" style="fill-opacity:0.1;fill-rule:nonzero;"/></g><g><path d="M548.69,262.83c-2.07,4.312 -4.648,8.361 -7.68,12.06c-3.308,4.1 -7.264,7.633 -11.71,10.46c-4.446,2.827 18.98,-19.98 19.39,-22.52Z" style="fill-opacity:0.1;fill-rule:nonzero;"/></g><g><path d="M555.6,241.47c0,-0 -3.62,13.26 -11.78,17.5l11.78,-17.5Z" style="fill-opacity:0.1;fill-rule:nonzero;"/></g><g><path d="M560.3,243.01c0.09,-0.25 2.35,10.69 -10.94,16.18c0,0 5.62,-1.67 10.94,-16.18Z" style="fill-opacity:0.1;fill-rule:nonzero;"/></g><g><path d="M479.51,230.89c0.21,-0 -6.61,4 -8.49,5.88c0,0.02 4.58,-6.29 8.49,-5.88Z" style="fill-opacity:0.1;fill-rule:nonzero;"/></g><g><path d="M521.9,223.28c-0.159,0.868 -0.646,1.642 -1.36,2.16c-0.489,0.221 -1.024,0.321 -1.56,0.29c-5,0.12 -10.22,0.14 -14.77,-2c-0.848,-0.339 -1.6,-0.882 -2.19,-1.58c-0.646,-1.127 -1.045,-2.378 -1.17,-3.67c-0.56,-2.48 -1.86,-4.71 -2.76,-7.08c-1.513,-3.988 -1.907,-8.314 -1.14,-12.51c0.177,-1.298 0.653,-2.537 1.39,-3.62c1.4,-1.84 3.84,-2.51 5.65,-3.95c1.81,-1.44 3,-3.7 5.12,-4.75c1.89,-1 4.14,-0.75 6.2,-0.31c4.065,0.849 7.928,2.472 11.38,4.78c1.16,0.77 2.43,1.66 3.81,1.46c1.18,-0.333 2.209,-1.064 2.91,-2.07c0.914,2.279 1.257,4.748 1,7.19c-0.06,0.357 -0.06,0.723 0,1.08c0.158,0.432 0.403,0.827 0.72,1.16c1.18,1.48 1.86,3.78 0.59,5.17c-0.55,0.62 -1.38,0.93 -1.92,1.55c-1,1.11 -0.73,2.78 -0.76,4.26c0.034,0.514 -0.115,1.025 -0.42,1.44c-0.555,0.464 -1.309,0.615 -2,0.4c-0.691,-0.234 -1.421,-0.332 -2.15,-0.29c-0.777,0.23 -1.457,0.712 -1.93,1.37c-2.51,2.83 -3.53,6.02 -4.64,9.52Z" style="fill:#3f3d56;fill-rule:nonzero;"/></g><g opacity="0.1"><g><path d="M501.51,220.89c0.592,0.7 1.347,1.243 2.2,1.58c4.55,2.1 9.76,2.08 14.77,2c0.535,0.021 1.068,-0.078 1.56,-0.29c0.716,-0.52 1.204,-1.299 1.36,-2.17c1.11,-3.49 2.13,-6.68 4.55,-9.53c0.471,-0.66 1.151,-1.143 1.93,-1.37c0.729,-0.042 1.459,0.056 2.15,0.29c0.692,0.216 1.449,0.061 2,-0.41c0.305,-0.415 0.454,-0.926 0.42,-1.44c0,-1.47 -0.21,-3.14 0.75,-4.25c0.54,-0.63 1.37,-0.94 1.93,-1.55c0.737,-0.924 0.907,-2.184 0.44,-3.27c0.82,1.42 1.14,3.22 0.07,4.39c-0.56,0.61 -1.39,0.93 -1.93,1.55c-1,1.11 -0.72,2.78 -0.75,4.26c0.034,0.514 -0.115,1.025 -0.42,1.44c-0.555,0.464 -1.309,0.615 -2,0.4c-0.692,-0.233 -1.421,-0.331 -2.15,-0.29c-0.779,0.227 -1.459,0.71 -1.93,1.37c-2.42,2.85 -3.45,6 -4.55,9.54c-0.159,0.868 -0.646,1.642 -1.36,2.16c-0.489,0.221 -1.024,0.321 -1.56,0.29c-5,0.12 -10.22,0.14 -14.77,-2c-0.853,-0.337 -1.608,-0.88 -2.2,-1.58c-0.295,-0.409 -0.518,-0.866 -0.66,-1.35l0.15,0.23Z" style="fill-rule:nonzero;"/></g><g><path d="M534.33,198.24c-0.214,-0.248 -0.374,-0.537 -0.47,-0.85c-0.064,-0.354 -0.064,-0.716 0,-1.07c0.221,-2.016 0.037,-4.056 -0.54,-6l0.09,-0.1c0.893,2.285 1.219,4.752 0.95,7.19c-0.032,0.275 -0.042,0.553 -0.03,0.83Z" style="fill-rule:nonzero;"/></g></g><g><path d="M524.45,233.33c0,-0 -20.59,1.92 -22.31,-1.23" style="fill-opacity:0.1;fill-rule:nonzero;"/></g><g><path d="M484.96,223.32c0,0 -11.38,-0.42 -14,3.75" style="fill-opacity:0.1;fill-rule:nonzero;"/></g><defs><linearGradient id="_Linear1" x1="0" y1="0" x2="1" y2="0" gradientUnits="userSpaceOnUse" gradientTransform="matrix(-152.66,1.86955e-14,-1.86955e-14,-152.66,974.6,493.69)"><stop offset="0" style="stop-color:#808080;stop-opacity:0.25"/><stop offset="0.54" style="stop-color:#808080;stop-opacity:0.12"/><stop offset="1" style="stop-color:#808080;stop-opacity:0.1"/></linearGradient><linearGradient id="_Linear2" x1="0" y1="0" x2="1" y2="0" gradientUnits="userSpaceOnUse" gradientTransform="matrix(2407.84,-117258,117258,2407.84,101428,209305)"><stop offset="0" style="stop-color:#808080;stop-opacity:0.25"/><stop offset="0.54" style="stop-color:#808080;stop-opacity:0.12"/><stop offset="1" style="stop-color:#808080;stop-opacity:0.1"/></linearGradient></defs></svg>