<?xml version="1.0" encoding="UTF-8" standalone="no"?><!DOCTYPE svg PUBLIC "-//W3C//DTD SVG 1.1//EN" "http://www.w3.org/Graphics/SVG/1.1/DTD/svg11.dtd"><svg width="100%" height="100%" viewBox="0 0 1023 814" version="1.1" xmlns="http://www.w3.org/2000/svg" xmlns:xlink="http://www.w3.org/1999/xlink" xml:space="preserve" xmlns:serif="http://www.serif.com/" style="fill-rule:evenodd;clip-rule:evenodd;stroke-miterlimit:10;"><g><path d="M599.86,137.42c-64.72,-2.25 -126.37,-23.14 -185.23,-46c-58.86,-22.86 -117.16,-48.19 -180.33,-60.3c-40.63,-7.79 -87.1,-8.89 -119.83,12.89c-31.51,21 -41.69,57.15 -47.16,90.73c-4.12,25.26 -6.54,51.84 4.75,75.49c7.83,16.42 21.74,30.22 31.35,46c33.47,54.72 9.82,122.2 -26.45,175.63c-17,25.07 -36.75,49 -49.87,75.66c-13.12,26.66 -19.2,57.25 -7.72,84.47c11.39,27 38.52,47.24 67.9,61.49c59.69,28.95 130,37.23 198.61,41.92c151.83,10.39 304.46,5.89 456.69,1.39c56.34,-1.67 112.92,-3.36 168.34,-12.07c30.78,-4.84 62.55,-12.51 84.9,-31.05c28.36,-23.53 35.39,-63.38 16.39,-92.88c-31.89,-49.49 -120,-61.78 -142.32,-114.9c-12.26,-29.23 0.34,-61.79 18.16,-88.91c38.24,-58.16 102.33,-109.19 105.71,-175.67c2.32,-45.67 -28.5,-91.39 -76.14,-113c-49.93,-22.73 -119.19,-19.85 -156.01,17.64c-37.94,38.63 -104.6,53.45 -161.74,51.47Z" style="fill:#007ca6;fill-opacity:0.15;fill-rule:nonzero;"/></g><path d="M435.45,690.5l-342.28,-1.67l-34.01,-79.77l120.26,-8.73l-20.96,-87.46l237.86,-30.83l-227.77,-79.18l20.12,-4.78l366.25,59.75l-20.17,136.49l-28.83,75.01l-70.47,21.17Z" style="fill:#007ca6;fill-rule:nonzero;"/><g><path d="M98.42,655.42c0,0 21,-3.36 33.6,11.48c-0,0 -9.24,7.28 -29.12,-2.8l-4.48,-8.68Z" style="fill:#007ca6;fill-rule:nonzero;"/></g><g><path d="M96.22,655.09c0,0 -13.4,16.49 -6.8,34.85c0,0 10.92,-4.37 12.11,-26.63l-5.31,-8.22Z" style="fill:#007ca6;fill-rule:nonzero;"/></g><g><path d="M84.18,627.98c-0,0 8.4,-15.41 42,6.16c-0,0 -4.48,10.36 -19.32,9.52c-14.84,-0.84 -18.76,-7.56 -22.68,-15.68Z" style="fill:#007ca6;fill-rule:nonzero;"/></g><g><path d="M82.01,626.87c0,0 -17.43,-2 -19.12,37.9c0,0 11.05,2.29 18.9,-10.33c7.85,-12.62 4.63,-19.7 0.22,-27.57Z" style="fill:#007ca6;fill-rule:nonzero;"/></g><g><path d="M71.86,595.04c0,0 9.8,-27.16 45.36,-7.84c0,0 -8.12,24.92 -41.72,17.08l-3.64,-9.24Z" style="fill:#007ca6;fill-rule:nonzero;"/></g><g><path d="M60.94,554.44c0,0 18.48,-27.44 51.24,-2c-0,0 -11.48,25.76 -48.44,11.76l-2.8,-9.76Z" style="fill:#007ca6;fill-rule:nonzero;"/></g><g><path d="M57.02,515.8c-0,0 21.56,-25.21 54,0c-0,0 -20.44,22.12 -54,6.44l-0,-6.44Z" style="fill:#007ca6;fill-rule:nonzero;"/></g><g><path d="M53.66,478.27c0,0 21.84,-26.32 52.92,-1.4c-0,-0 -24.64,23.24 -52.92,7.56l0,-6.16Z" style="fill:#007ca6;fill-rule:nonzero;"/></g><g><path d="M55.62,444.95c-0,0 23,-33.88 52.08,-10.92c0,0 -24.64,29.12 -52.08,17.36l-0,-6.44Z" style="fill:#007ca6;fill-rule:nonzero;"/></g><g><path d="M60.94,406.03c0,-0 24.36,-33.6 52.64,-7.84c0,-0 -28.84,29.12 -52.64,14l0,-6.16Z" style="fill:#007ca6;fill-rule:nonzero;"/></g><g><path d="M69.06,371.24c-0,0 28.84,-31.58 54,-19c-0,0 -30.05,33.54 -55.26,27.38l1.26,-8.38Z" style="fill:#007ca6;fill-rule:nonzero;"/></g><g><path d="M79.14,338.26c0,0 33.28,-38.68 52.64,-25.76c0,0 -24.52,30 -55,33l2.36,-7.24Z" style="fill:#007ca6;fill-rule:nonzero;"/></g><g><path d="M93.69,300.01c0,0 29.13,-31.58 50.41,-23.74c0,0 -24.92,32.76 -54.32,33.6l3.91,-9.86Z" style="fill:#007ca6;fill-rule:nonzero;"/></g><g><path d="M106.86,264.23c0,-0 32.2,-30.24 46.2,-24.92c0,0 -23.24,33.6 -47.6,31.64l1.4,-6.72Z" style="fill:#007ca6;fill-rule:nonzero;"/></g><g><path d="M119.74,231.19c-0,0 27.72,-36.13 42.85,-33.33c-0,0 -16.81,32.21 -42.85,37l-0,-3.67Z" style="fill:#007ca6;fill-rule:nonzero;"/></g><g><path d="M133.72,186.64c0,-0 24.5,-27.69 37.74,-27.63c0,-0 -19.34,37 -38.75,36.66l1.01,-9.03Z" style="fill:#007ca6;fill-rule:nonzero;"/></g><g><path d="M142,156.98l23.67,-57.68c0,0 1.18,52.14 -26.68,68.38l3.01,-10.7Z" style="fill:#007ca6;fill-rule:nonzero;"/></g><g><path d="M151.61,93.37c0,-0 3.92,-48.17 1.4,-52.09c-0,0 16.92,40.05 -1.56,73.37l0.16,-21.28Z" style="fill:#007ca6;fill-rule:nonzero;"/></g><g><path d="M70.94,594.4c0,0 -24.54,-15.21 -40.43,22c0,0 21.84,14.5 43.32,-12.51l-2.89,-9.49Z" style="fill:#007ca6;fill-rule:nonzero;"/></g><g><path d="M60.15,552.89c-0,0 -30.1,-13.73 -44.7,25.12c0,0 23.25,16 47.44,-15.3l-2.74,-9.82Z" style="fill:#007ca6;fill-rule:nonzero;"/></g><g><path d="M55.62,518.11c-0,0 -21.56,-25.21 -54,0c0,0 20.44,22.12 54,6.44l-0,-6.44Z" style="fill:#007ca6;fill-rule:nonzero;"/></g><g><path d="M52.92,478.27c0,0 -21.84,-26.32 -52.92,-1.4c0,-0 24.64,23.24 52.92,7.56l0,-6.16Z" style="fill:#007ca6;fill-rule:nonzero;"/></g><g><path d="M55.62,445.91c-0,-0 -15.32,-37.95 -48.62,-21.63c0,-0 18,33.65 47.26,27.93l1.36,-6.3Z" style="fill:#007ca6;fill-rule:nonzero;"/></g><g><path d="M62.87,405.84c-0,-0 -15.23,-38.61 -49,-20.71c0,-0 20.68,35.39 47.5,26.67l1.5,-5.96Z" style="fill:#007ca6;fill-rule:nonzero;"/></g><g><path d="M72.31,371.43c-0,0 -6,-42.33 -34,-46.12c0,0 5.94,44.64 30.23,53.75l3.77,-7.63Z" style="fill:#007ca6;fill-rule:nonzero;"/></g><g><path d="M79.85,338.34c0,-0 -2.34,-51 -25.49,-52.78c-0,-0 0.78,38.71 22.88,60l2.61,-7.22Z" style="fill:#007ca6;fill-rule:nonzero;"/></g><g><path d="M96.09,298.58c-0,0 -6.9,-42.41 -29,-47.59c-0,0 2.74,41.07 26.81,58l2.19,-10.41Z" style="fill:#007ca6;fill-rule:nonzero;"/></g><g><path d="M109.48,264.58c0,0 -0.23,-44.18 -13.73,-50.67c0,0 -8.37,40 9.82,56.31l3.91,-5.64Z" style="fill:#007ca6;fill-rule:nonzero;"/></g><g><path d="M120.77,230.69c0,0 -1.89,-45.49 -15.87,-51.9c0,0 -4.78,36 13.78,54.88l2.09,-2.98Z" style="fill:#007ca6;fill-rule:nonzero;"/></g><g><path d="M135.67,190.27c0,-0 -0.08,-37 -10.06,-45.68c-0,-0 -9.92,40.53 4.85,53.12l5.21,-7.44Z" style="fill:#007ca6;fill-rule:nonzero;"/></g><g><path d="M140.83,155.16l-9.71,-61.58c0,0 -13.19,50.46 10.17,72.7l-0.46,-11.12Z" style="fill:#007ca6;fill-rule:nonzero;"/></g><g><path d="M142.72,93.95c0,0 -24.92,-41.4 -24.41,-46c-0,0 2.65,43.39 34,65l-9.59,-19Z" style="fill:#007ca6;fill-rule:nonzero;"/></g><g><path d="M145.64,81.72c-0,0 -23.52,-58.8 -34.16,-63.56c-0,0 33.6,17.08 36.12,61.88l-1.96,1.68Z" style="fill:#007ca6;fill-rule:nonzero;"/></g><g><path d="M132.59,196.02l-1.61,-0.49c19.85,-64.73 24.8,-106 13.95,-116.35l1.15,-1.22c11.51,10.92 6.84,51.74 -13.49,118.06Z" style="fill:#444053;fill-rule:nonzero;"/></g><g><path d="M77.93,347.58l-2.38,-0.85c2.11,-5.93 4.38,-11.95 6.76,-17.88c20.72,-51.64 38.36,-99.68 49.67,-136.56l2.07,-1c-11.33,36.95 -28.66,86.83 -49.4,138.54c-2.37,5.82 -4.63,11.81 -6.72,17.75Z" style="fill:#444053;fill-rule:nonzero;"/></g><g><path d="M128.01,703.86c-0.32,-0.35 -32.49,-36.58 -54.92,-98.43c-13.143,-36.21 -20.457,-74.278 -21.67,-112.78c-1.54,-48.13 8.56,-101.87 25.86,-150.69l1.88,2.2c-38.84,109.57 -23.41,203.46 -2.94,260c22.19,61.29 54,97.12 54.31,97.48l-2.52,2.22Z" style="fill:#444053;fill-rule:nonzero;"/></g><g><path d="M630.73,626.94c-0,0 -22.67,27.67 -4.67,69.5l-181,78.5l-17.37,3.64l-8,-35l5.35,-44.17l-0,-24.14l205.69,-48.33Z" style="fill:#d5d6db;fill-rule:nonzero;"/></g><path d="M59.16,609.06l250.52,-45.67l331.95,52.88l-206.18,74.23l-376.29,-81.44Z" style="fill:#007ca6;fill-rule:nonzero;"/><path d="M59.16,609.06l250.52,-45.67l331.95,52.88l-206.18,74.23l-376.29,-81.44Z" style="fill:#007ca6;fill-rule:nonzero;"/><g><path d="M59.16,609.05c0,0 -23.43,44.39 3.57,85.39l371.5,80.5c-0,0 -23.06,-35.36 1.19,-84.44l-376.26,-81.45Z" style="fill:#007ca6;fill-rule:nonzero;"/></g><g><path d="M59.16,609.05c0,0 -23.43,44.39 3.57,85.39l371.5,80.5c-0,0 -23.06,-35.36 1.19,-84.44l-376.26,-81.45Z" style="fill-opacity:0.1;fill-rule:nonzero;"/></g><g><path d="M70.23,624.44c0,0 -13.39,32.48 0,53.5" style="fill-opacity:0.1;fill-rule:nonzero;"/></g><g><path d="M434.23,774.94l207.4,-88.5c0,0 11.6,2.5 4.1,11c-7.5,8.5 -207.5,86 -207.5,86l-375.5,-89l371.5,80.5Z" style="fill:#007ca6;fill-rule:nonzero;"/></g><g><path d="M434.23,774.94l207.4,-88.5c0,0 11.6,2.5 4.1,11c-7.5,8.5 -207.5,86 -207.5,86l-375.5,-89l371.5,80.5Z" style="fill-opacity:0.1;fill-rule:nonzero;"/></g><g><path d="M417.23,699.44c0,0 -20,24 0,60" style="fill-opacity:0.1;fill-rule:nonzero;"/></g><g><path d="M514.057,699.034l0.317,0.949l-89.709,29.929l-0.317,-0.949l89.709,-29.929Z" style="fill-opacity:0.1;"/></g><g><path d="M532.025,696.056l0.356,0.935l-107.706,40.957l-0.355,-0.935l107.705,-40.957Z" style="fill-opacity:0.1;"/></g><g><path d="M548.527,695.912l0.379,0.926l-123.607,50.594l-0.378,-0.926l123.606,-50.594Z" style="fill-opacity:0.1;"/></g><g><path d="M566.471,691.58l0.412,0.911l-140.108,63.291l-0.412,-0.912l140.108,-63.29Z" style="fill-opacity:0.1;"/></g><g><path d="M581.547,691.601l0.401,0.916l-154.075,67.346l-0.4,-0.917l154.074,-67.345Z" style="fill-opacity:0.1;"/></g><g><path d="M614.523,686.001l0.396,0.918l-184.726,79.785l-0.397,-0.918l184.727,-79.785Z" style="fill-opacity:0.1;"/></g><path d="M152.23,613.94l176,-37l107.22,20.5l-144.22,46.5l-139,-30Z" style="fill:#fff;fill-opacity:0.3;fill-rule:nonzero;"/><g><path d="M641.63,616.27c0,0 9.1,3.67 3.76,9.34c-5.34,5.67 -209.97,64.89 -209.97,64.89l206.21,-74.23Z" style="fill:#007ca6;fill-rule:nonzero;"/></g><g><path d="M730.02,530.76c0,0 -22.66,27.66 -4.66,69.5l-181,78.5l-17.37,3.66l-8,-35l5.43,-44.16l0,-24.17l205.6,-48.33Z" style="fill:#d5d6db;fill-rule:nonzero;"/></g><path d="M158.46,512.87l250.51,-45.66l331.96,52.88l-206.18,74.23l-376.29,-81.45Z" style="fill:#3a3768;fill-rule:nonzero;"/><g><path d="M158.42,512.87c0,0 -23.44,44.39 3.56,85.39l371.5,80.5c-0,0 -23.05,-35.39 1.23,-84.45l-376.29,-81.44Z" style="fill:#3a3768;fill-rule:nonzero;"/></g><g><path d="M158.42,512.87c0,0 -23.44,44.39 3.56,85.39l371.5,80.5c-0,0 -23.05,-35.39 1.23,-84.45l-117.48,-25.43l-258.81,-56.01Z" style="fill-opacity:0.1;fill-rule:nonzero;"/></g><g><path d="M169.52,528.26c0,0 -13.38,32.47 0,53.5" style="fill-opacity:0.1;fill-rule:nonzero;"/></g><g><path d="M533.52,678.76l207.41,-88.5c0,0 11.59,2.5 4.09,11c-7.5,8.5 -207.5,86 -207.5,86l-375.5,-89l371.5,80.5Z" style="fill:#3a3768;fill-rule:nonzero;"/></g><g><path d="M533.52,678.76l207.41,-88.5c0,0 11.59,2.5 4.09,11c-7.5,8.5 -207.5,86 -207.5,86l-375.5,-89l371.5,80.5Z" style="fill-opacity:0.1;fill-rule:nonzero;"/></g><g><path d="M516.52,603.26c0,0 -20,24 0,60" style="fill-opacity:0.1;fill-rule:nonzero;"/></g><g><path d="M613.355,602.865l0.316,0.948l-89.709,29.929l-0.316,-0.948l89.709,-29.929Z" style="fill-opacity:0.1;"/></g><g><path d="M631.336,599.882l0.355,0.935l-107.705,40.956l-0.356,-0.934l107.706,-40.957Z" style="fill-opacity:0.1;"/></g><g><path d="M647.822,599.724l0.379,0.926l-123.606,50.594l-0.379,-0.926l123.606,-50.594Z" style="fill-opacity:0.1;"/></g><g><path d="M665.778,595.394l0.412,0.911l-140.108,63.291l-0.412,-0.912l140.108,-63.29Z" style="fill-opacity:0.1;"/></g><g><path d="M680.84,595.402l0.401,0.916l-154.075,67.346l-0.4,-0.917l154.074,-67.345Z" style="fill-opacity:0.1;"/></g><g><path d="M713.823,589.802l0.397,0.918l-184.727,79.785l-0.396,-0.918l184.726,-79.785Z" style="fill-opacity:0.1;"/></g><path d="M251.53,517.76l176,-37l107.22,20.5l-144.22,46.5l-139,-30Z" style="fill:#fff;fill-opacity:0.45;fill-rule:nonzero;"/><g><path d="M740.93,520.09c-0,0 9.09,3.67 3.76,9.33c-5.33,5.66 -209.94,64.89 -209.94,64.89l206.18,-74.22Z" style="fill:#3a3768;fill-rule:nonzero;"/></g><g><path d="M739.42,420.73c0,-0 -22.67,49.67 -4.67,91.5l-181,56.5l-17.33,3.67l-8,-35l5.35,-44.17l0,-24.17l205.65,-48.33Z" style="fill:#d5d6db;fill-rule:nonzero;"/></g><path d="M167.89,402.85l250.52,-45.67l331.96,52.88l-206.19,74.23l-376.29,-81.44Z" style="fill:#007ca6;fill-rule:nonzero;"/><g><path d="M167.89,402.84c0,-0 -23.47,44.39 3.53,85.39l371.5,80.5c-0,0 -23.06,-35.39 1.22,-84.44l-376.25,-81.45Z" style="fill:#007ca6;fill-rule:nonzero;"/></g><g><path d="M167.89,402.84c0,-0 -23.47,44.39 3.53,85.39l371.5,80.5c-0,0 -23.06,-35.39 1.22,-84.44l-376.25,-81.45Z" style="fill-opacity:0.1;fill-rule:nonzero;"/></g><g><path d="M178.96,418.23c0,-0 -13.39,32.48 0,53.5" style="fill-opacity:0.1;fill-rule:nonzero;"/></g><g><path d="M542.96,568.73l207.4,-66.5c0,-0 11.6,2.5 4.1,11c-7.5,8.5 -207.5,64 -207.5,64l-375.5,-89l371.5,80.5Z" style="fill:#007ca6;fill-rule:nonzero;"/></g><g><path d="M542.96,568.73l207.4,-66.5c0,-0 11.6,2.5 4.1,11c-7.5,8.5 -207.5,64 -207.5,64l-375.5,-89l371.5,80.5Z" style="fill-opacity:0.1;fill-rule:nonzero;"/></g><g><path d="M525.96,493.23c-0,-0 -20,24 -0,60" style="fill-opacity:0.1;fill-rule:nonzero;"/></g><g><path d="M622.798,492.833l0.316,0.948l-89.709,29.929l-0.316,-0.948l89.709,-29.929Z" style="fill-opacity:0.1;"/></g><g><path d="M640.772,489.855l0.355,0.935l-107.705,40.956l-0.356,-0.934l107.706,-40.957Z" style="fill-opacity:0.1;"/></g><g><path d="M657.249,489.702l0.379,0.926l-123.606,50.593l-0.379,-0.925l123.606,-50.594Z" style="fill-opacity:0.1;"/></g><g><path d="M675.219,485.363l0.412,0.911l-140.108,63.291l-0.412,-0.911l140.108,-63.291Z" style="fill-opacity:0.1;"/></g><g><path d="M690.286,485.381l0.401,0.916l-154.075,67.345l-0.4,-0.916l154.074,-67.345Z" style="fill-opacity:0.1;"/></g><g><path d="M723.266,479.787l0.396,0.918l-184.726,79.785l-0.397,-0.918l184.727,-79.785Z" style="fill-opacity:0.1;"/></g><path d="M260.96,407.73l176,-37l107.22,20.5l-144.22,46.5l-139,-30Z" style="fill:#fff;fill-opacity:0.3;fill-rule:nonzero;"/><g><path d="M750.36,410.06c0,0 9.1,3.67 3.76,9.34c-5.34,5.67 -209.94,64.89 -209.94,64.89l206.18,-74.23Z" style="fill:#007ca6;fill-rule:nonzero;"/></g><g><path d="M310.42,106.5c0,-0 -38,-2.29 -33.56,24.37c0,0 -0.89,4.71 3.38,6.85c0,-0 0.07,-2 3.9,-1.31c1.367,0.235 2.757,0.302 4.14,0.2c1.864,-0.128 3.637,-0.858 5.05,-2.08c1.413,-1.222 10.69,-4.42 14.85,-21.9c0,0 3.08,-3.81 3,-4.79l-6.44,2.74c0,0 2.19,4.63 0.47,8.48c0,0 -0.21,-8.31 -1.45,-8.12c-0.25,0 -3.33,1.61 -3.33,1.61c-0,0 3.77,8.07 0.92,13.93c-0,0 1.08,-9.94 -2.1,-13.35l-4.52,2.64c-0,0 4.41,8.33 1.42,15.13c-0,0 0.77,-10.43 -2.37,-14.49l-4.1,3.2c-0,0 4.15,8.21 1.62,13.85c-0,0 -0.33,-12.14 -2.5,-13.06c-0,0 -3.59,3.16 -4.13,4.46c-0,0 2.84,6 1.07,9.11c-0,0 -1.07,-8.09 -2,-8.13c-0,0 -3.57,5.36 -3.94,9c0.173,-3.393 1.231,-6.683 3.07,-9.54c-2.057,0.389 -3.956,1.373 -5.46,2.83c-1.504,1.457 0.55,-3.79 6.35,-4.12c-0,0 2.95,-4.07 3.74,-4.31c-0,0 -5.77,-0.49 -9.26,1.06c-0,0 3.08,-3.57 10.31,-2l4,-3.3c-0,0 -7.58,-1 -10.8,0.11c-0,0 3.71,-3.16 11.89,-0.86l4.41,-2.63c-0,0 -6.47,-1.39 -10.32,-0.89c-0,0 4.06,-2.19 11.61,0.18l3.14,-1.41c-0,0 -4.73,-0.93 -6.12,-1.08c-1.39,-0.15 -1.46,-0.53 -1.46,-0.53c3.002,-0.493 6.082,-0.147 8.9,1c2.818,1.147 6.75,-2.43 6.62,-2.85Z" style="fill:#007ca6;fill-rule:nonzero;"/></g><g><path d="M845.02,216.08c0,-0 -38,-2.29 -33.56,24.37c-0,-0 -0.89,4.71 3.38,6.85c-0,0 0.07,-2 3.9,-1.31c1.367,0.229 2.757,0.296 4.14,0.2c1.847,-0.136 3.601,-0.866 5,-2.08c1.399,-1.214 10.7,-4.42 14.85,-21.9c-0,0 3.08,-3.81 3,-4.79l-6.42,2.74c-0,-0 2.19,4.63 0.47,8.48c-0,0 -0.21,-8.31 -1.44,-8.12c-0.25,0 -3.34,1.61 -3.34,1.61c0,0 3.77,8.07 0.93,13.93c0,0 1.08,-9.94 -2.11,-13.35l-4.52,2.64c0,-0 4.41,8.33 1.42,15.13c0,-0 0.77,-10.43 -2.37,-14.49l-4.09,3.2c0,0 4.14,8.21 1.61,13.85c0,0 -0.33,-12.14 -2.5,-13.06c0,0 -3.58,3.16 -4.13,4.46c0,0 2.84,6 1.08,9.11c0,0 -1.08,-8.09 -2,-8.13c0,0 -3.57,5.36 -3.94,9c0.173,-3.395 1.235,-6.685 3.08,-9.54c-2.06,0.39 -3.962,1.374 -5.47,2.83c-1.508,1.456 0.56,-3.79 6.35,-4.12c0,0 2.95,-4.07 3.74,-4.32c0,0 -5.76,-0.48 -9.26,1.07c0,0 3.08,-3.57 10.31,-2l4,-3.3c0,0 -7.59,-1 -10.8,0.11c0,0 3.7,-3.16 11.89,-0.86l4.4,-2.63c0,0 -6.47,-1.39 -10.32,-0.89c0,0 4.06,-2.19 11.61,0.18l3.15,-1.41c0,-0 -4.74,-0.93 -6.13,-1.08c-1.39,-0.15 -1.46,-0.53 -1.46,-0.53c3.002,-0.499 6.084,-0.153 8.9,1c2.816,1.153 6.77,-2.43 6.65,-2.85Z" style="fill:#007ca6;fill-opacity:0.1;fill-rule:nonzero;"/></g><g><path d="M374.42,271.2c0,0 -16.56,-34.33 -37.64,-17.41c0,-0 -4.55,1.52 -4.33,6.29c-0,0 1.75,-0.91 3,2.77c0.467,1.301 1.084,2.543 1.84,3.7c1.023,1.569 2.529,2.762 4.29,3.4c1.761,0.638 9.07,7.18 26.36,2.28c-0,0 4.83,0.83 5.62,0.25l-5.52,-4.27c-0,0 -3,4.17 -7.18,4.54c-0,0 7.16,-4.23 6.39,-5.21c-0.16,-0.2 -3,-2.13 -3,-2.13c-0,0 -5.21,7.23 -11.71,7.6c-0,0 9.2,-3.9 10.62,-8.35l-4.5,-2.66c-0,0 -5.13,7.92 -12.52,8.62c-0,0 9.48,-4.41 11.49,-9.13l-4.78,-2c-0,0 -5.15,7.62 -11.31,8.17c-0,0 10.44,-6.21 10.18,-8.56c-0,0 -4.51,-1.58 -5.91,-1.43c-0,0 -3.82,5.39 -7.42,5.39c-0,0 6.53,-4.89 6.13,-5.68c-0,0 -6.42,-0.5 -9.8,1c3.046,-1.514 6.435,-2.203 9.83,-2c-1.347,-1.606 -3.134,-2.784 -5.14,-3.39c-2.006,-0.606 3.58,-1.36 6.69,3.53c-0,0 5,0.59 5.59,1.16c-0,0 -2.39,-5.26 -5.44,-7.55c-0,0 4.62,0.93 6.73,8l4.85,1.92c-0,0 -2.79,-7.12 -5.36,-9.37c-0,0 4.56,1.69 6.55,10l4.44,2.56c-0,0 -1.93,-6.33 -4.25,-9.44c-0,0 3.89,2.48 5.5,10.22l2.77,2.06c-0,0 -1.5,-4.59 -2,-5.87c-0.5,-1.28 -0.25,-1.54 -0.25,-1.54c1.902,2.374 3.107,5.231 3.48,8.25c0.373,3.019 5.35,4.58 5.71,4.28Z" style="fill:#007ca6;fill-opacity:0.1;fill-rule:nonzero;"/></g><g><path d="M758.2,167.58c-0,-0 -16.55,-34.33 -37.64,-17.41c-0,0 -4.54,1.52 -4.33,6.29c-0,-0 1.76,-0.9 3,2.77c0.466,1.306 1.087,2.552 1.85,3.71c1.019,1.566 2.523,2.756 4.28,3.39c1.757,0.634 9.08,7.18 26.36,2.29c-0,0 4.83,0.82 5.63,0.24l-5.49,-4.28c0,-0 -3,4.18 -7.17,4.55c-0,-0 7.15,-4.24 6.38,-5.22c-0.16,-0.2 -3,-2.13 -3,-2.13c-0,-0 -5.2,7.23 -11.71,7.6c0,-0 9.21,-3.9 10.63,-8.34l-4.57,-2.64c0,-0 -5.12,7.91 -12.52,8.62c0,-0 9.48,-4.42 11.5,-9.14l-4.79,-2c0,-0 -5.15,7.63 -11.3,8.17c-0,-0 10.43,-6.21 10.17,-8.55c-0,-0 -4.5,-1.59 -5.9,-1.43c-0,-0 -3.82,5.38 -7.43,5.38c-0,-0 6.54,-4.89 6.14,-5.68c-0,-0 -6.42,-0.5 -9.81,1c3.045,-1.514 6.435,-2.204 9.83,-2c-1.342,-1.607 -3.126,-2.786 -5.13,-3.39c-2.004,-0.604 3.58,-1.36 6.69,3.53c-0,0 5,0.6 5.59,1.17c-0,-0 -2.39,-5.27 -5.45,-7.56c-0,-0 4.62,0.94 6.73,8.05l4.86,1.92c-0,0 -2.79,-7.13 -5.36,-9.38c-0,0 4.56,1.69 6.54,10l4.45,2.56c-0,0 -1.94,-6.32 -4.26,-9.44c-0,0 3.9,2.48 5.5,10.22l2.77,2.06c-0,-0 -1.49,-4.59 -2,-5.87c-0.51,-1.28 -0.25,-1.53 -0.25,-1.53c1.897,2.376 3.098,5.232 3.47,8.25c0.372,3.018 5.43,4.54 5.74,4.22Z" style="fill:#007ca6;fill-opacity:0.1;fill-rule:nonzero;"/></g><g><path d="M811.09,337.39c-0,0 -16.55,-34.34 -37.67,-17.42c-0,0 -4.54,1.52 -4.33,6.29c-0,0 1.76,-0.9 3,2.77c0.463,1.306 1.081,2.551 1.84,3.71c1.019,1.566 2.523,2.756 4.28,3.39c1.757,0.634 9.08,7.19 26.37,2.29c-0,0 4.82,0.83 5.62,0.24l-5.52,-4.27c-0,0 -3,4.18 -7.18,4.55c-0,0 7.15,-4.24 6.38,-5.22c-0.16,-0.2 -3,-2.13 -3,-2.13c-0,0 -5.2,7.23 -11.71,7.61c-0,0 9.21,-3.91 10.63,-8.35l-4.51,-2.66c-0,0 -5.12,7.92 -12.52,8.62c-0,0 9.48,-4.42 11.5,-9.14l-4.79,-2c-0,0 -5.15,7.62 -11.3,8.17c-0,0 10.44,-6.21 10.18,-8.56c-0,0 -4.51,-1.59 -5.91,-1.43c-0,0 -3.82,5.38 -7.43,5.38c-0,0 6.54,-4.89 6.14,-5.68c-0,0 -6.42,-0.5 -9.81,1c3.049,-1.513 6.442,-2.203 9.84,-2c-1.344,-1.609 -3.132,-2.789 -5.14,-3.39c-2.008,-0.601 3.58,-1.37 6.69,3.53c-0,0 5,0.59 5.59,1.16c-0,0 -2.39,-5.26 -5.44,-7.56c-0,0 4.62,0.94 6.73,8.05l4.85,1.92c-0,0 -2.79,-7.13 -5.36,-9.37c-0,0 4.56,1.68 6.54,10l4.45,2.55c-0,0 -1.94,-6.32 -4.26,-9.44c-0,0 3.9,2.48 5.51,10.23l2.77,2c-0,-0 -1.5,-4.59 -2,-5.87c-0.5,-1.28 -0.25,-1.53 -0.25,-1.53c1.901,2.374 3.103,5.231 3.47,8.25c0.367,3.019 5.44,4.61 5.75,4.31Z" style="fill:#007ca6;fill-opacity:0.1;fill-rule:nonzero;"/></g><ellipse cx="201.95" cy="781.59" rx="22.99" ry="2.57" style="fill:#007ca6;fill-opacity:0.1;"/><ellipse cx="51.24" cy="737.91" rx="22.99" ry="2.57" style="fill:#007ca6;fill-opacity:0.1;"/><ellipse cx="316.83" cy="810.6" rx="22.99" ry="2.57" style="fill:#007ca6;fill-opacity:0.1;"/><ellipse cx="905.53" cy="747.41" rx="22.99" ry="2.57" style="fill:#007ca6;fill-opacity:0.1;"/><ellipse cx="714.22" cy="734.94" rx="22.99" ry="2.57" style="fill:#007ca6;fill-opacity:0.1;"/><ellipse cx="590.46" cy="793.66" rx="27.19" ry="4.67" style="fill:#007ca6;fill-opacity:0.1;"/><g><path d="M602.59,746.72c-0,0 -37.86,19.56 -18.3,42.6c-0,0 1.84,5 7.16,4.65c-0,0 -1.06,-1.94 3,-3.49c1.445,-0.558 2.818,-1.287 4.09,-2.17c1.719,-1.188 3.004,-2.906 3.66,-4.89c0.656,-1.984 7.74,-10.36 1.74,-29.53c-0,-0 0.78,-5.42 0.1,-6.3l-4.6,6.31c-0,0 4.75,3.19 5.3,7.88c0,0 -5,-7.87 -6,-7c-0.22,0.18 -2.28,3.45 -2.28,3.45c-0,-0 8.24,5.59 8.85,12.85c-0,-0 -4.64,-10.17 -9.65,-11.62l-2.87,5.12c-0,-0 9,5.48 10,13.72c-0,-0 -5.23,-10.45 -10.57,-12.56l-2.11,5.41c0,-0 8.68,5.52 9.48,12.38c-0,-0 -7.26,-11.47 -9.87,-11.11c-0,-0 -1.64,5.08 -1.42,6.65c-0,-0 6.13,4.1 6.24,8.13c-0,-0 -5.66,-7.15 -6.53,-6.68c-0,-0 -0.36,7.19 1.38,10.93c-0,-0 -3,-5.34 -2.51,-10.93c-1.754,1.551 -3.016,3.581 -3.63,5.84c-0.614,2.259 -1.63,-3.95 3.74,-7.59c-0,-0 0.51,-5.59 1.13,-6.28c-0,-0 -5.81,2.84 -8.28,6.32c-0,-0 0.91,-5.19 8.79,-7.77l2,-5.48c-0,-0 -7.88,3.34 -10.31,6.28c-0,-0 1.75,-5.15 10.93,-7.62l2.72,-5c-0,-0 -7,2.36 -10.42,5c-0,-0 2.65,-4.43 11.26,-6.47l2.21,-3.15c-0,-0 -5.08,1.81 -6.5,2.46c-1.42,0.65 -1.7,0.33 -1.7,0.33c2.595,-2.195 5.749,-3.629 9.11,-4.14c3.361,-0.511 5.01,-6.19 4.66,-6.53Z" style="fill:#007ca6;fill-rule:nonzero;"/></g><g><path d="M714.96,377.29c-6.54,-17.77 -42.54,-19.44 -58.16,-14.91c-11.1,3.23 -34.5,6.87 -47,8.7l-0.81,-0.77c1.62,-0.48 1.66,-1.66 1.46,-3.41c-0.116,-2.306 -0.083,-4.618 0.1,-6.92c7.66,2.38 14.48,-3.25 14.48,-3.25c9,-4 6.58,-21.12 8.3,-25.8c1.29,-3.5 2.68,-24.12 3.3,-34.4l0.13,0l0.07,-3.45c0.09,-1.49 0.13,-2.36 0.13,-2.36c-0,0 0.88,-25.14 2.6,-30.23c1.6,-4.68 2.9,-28.26 3.1,-32l-0,-0.49l-0.13,-2.18c0.09,-1.59 0.13,-3.36 0.12,-5.22c-0,-8.55 -0.89,-19.32 -1,-21.06l-0,-0.91c0.07,-3.65 -0.39,-21.93 -15.94,-28.84c-5.73,-2.56 -12.62,-5.61 -19.29,-8.58c-1.72,-14.85 -5.65,-29.62 -5.31,-44.58c-0,-2.25 0.2,-4.5 0.42,-6.74c-0,0.65 -0.07,1.31 -0.08,2l-0,4.36c0.59,-18.71 7.66,-37.52 7,-55.83c-0.06,1.79 -0.19,3.59 -0.36,5.39c0.345,-6.193 -0.303,-12.402 -1.92,-18.39c-0.6,-2.11 -1.41,-4.29 -3.14,-5.7c-1.635,-1.136 -3.511,-1.878 -5.48,-2.17c-4.732,-1.211 -9.539,-2.107 -14.39,-2.68c-0.737,-2.256 -1.831,-4.38 -3.24,-6.29c-10.14,-13.92 -25.16,-27 -42.92,-30c-8.91,-1.5 -19.16,-0.25 -25.22,6.12c-0.633,0.56 -1.228,1.161 -1.78,1.8c-3.26,3.89 -4.66,9 -8,12.88c-0.22,0.26 -0.47,0.5 -0.71,0.75c-6.54,5.85 -16.73,7.07 -24,12.32c-1.281,0.942 -2.482,1.989 -3.59,3.13c-2.929,2.903 -5.556,6.096 -7.84,9.53c-3.27,4.6 -6.63,9.39 -7.67,14.88c-2.09,11 5.4,21.43 6.79,32.5c3.1,24.77 -24.31,46.75 -19.12,71.19c1.385,6.004 4.443,11.493 8.82,15.83c-10.69,9.68 -19.79,19.07 -19.79,19.07l-0,0.56l-1.69,0l0.17,2l-0.17,0l0.93,10.85l-0.93,15.8l-0,1.49l0.06,0c0.31,5.79 1.54,26.61 3,31c1.72,5.09 2.59,30.23 2.59,30.23c-0,0 1.9,35.53 3.64,40.23c1.74,4.7 -0.73,21.77 8.3,25.8c2.641,2.026 5.77,3.323 9.07,3.76c-0.46,3.74 -0.17,6.45 1.32,7.3c0.638,0.375 1.36,0.581 2.1,0.6c-0.613,0.909 -1.157,1.861 -1.63,2.85c-3.584,-0.374 -7.106,-1.204 -10.48,-2.47c-9.7,-4 -41.89,-13 -51.24,-6.67c-9.35,6.33 -31.85,12.07 -21.46,37.55c10.39,25.48 15.23,26.12 15.23,26.12c3.198,2.322 6.004,5.141 8.31,8.35c3.12,4.69 32.19,15.42 39.46,15.42c3.09,-0.048 6.18,0.106 9.25,0.46c3.07,0.354 -7.89,6.92 -6.84,10.94c1.05,4.02 -2.4,36.2 -2.4,36.2c-0,-0 8,8.06 11.42,-2.51l0.12,0.16c0.64,0.87 4.1,4.8 10.61,-0.16c2.664,-2.021 5.494,-3.814 8.46,-5.36l31.52,-4.46c3.286,-0.205 6.581,-0.229 9.87,-0.07c5,0.41 9.91,-2.55 13,-4.84c6.53,2.48 13.87,5.19 17.36,6.18c7.08,2 39.62,10.73 47.23,8c1.582,-0.629 2.988,-1.631 4.1,-2.92l7.26,0.23l-3.4,0.68c-0,-0 6.62,0.11 15.62,0.23l-0.38,0.22l11.29,-0.1c16.52,0.15 35.08,0.2 37.52,-0.35c3.82,-0.85 23.67,-0.25 29.52,-0l1.63,-0c-0,-0 21.81,-4.35 12.81,-26.48c-6.92,-17 -28.19,-21.94 -37.63,-23.3c2.66,-0.53 4.95,-0.94 6.47,-1.18c6.59,-1 19.39,-7 20.43,-9.05c1.04,-2.05 11.77,-8 14.54,-11.39c2.77,-3.39 10.68,-27.42 4.11,-45.19Zm-180.65,49.73l-1.07,0.35l-0.72,0.24l-1.38,1.36c-1.1,-0.74 -2.28,-1.52 -3.51,-2.32c2.17,0.13 4.4,0.26 6.68,0.37Z" style="fill:url(#_Linear1);fill-rule:nonzero;"/></g><g><path d="M598.07,321.58c-0,0 15.3,40 24,36c8.7,-4 6.34,-21 8,-25.66c1.66,-4.66 3.5,-40 3.5,-40c-0,0 0.84,-25 2.5,-30.06c1.54,-4.65 2.79,-28.1 3,-31.79l-0,-0.49l-1.65,-29l-9.34,-2.33l-21.66,8l-3,17.13l-1.17,6.69l-0.5,2.85l-3.68,88.66Z" style="fill:#be6f72;fill-rule:nonzero;"/></g><g><path d="M603.11,314.88c0,0 14.6,11.95 19,13c4.4,1.05 7.1,10.37 7.1,10.37" style="fill-opacity:0.1;fill-rule:nonzero;"/></g><g><path d="M478.42,323.33c0,0 -15.3,40 -24,36c-8.7,-4 -6.34,-21 -8,-25.66c-1.66,-4.66 -3.5,-40 -3.5,-40c0,0 -0.84,-25 -2.5,-30.06c-1.54,-4.65 -2.79,-28.1 -3,-31.79l0,-0.49l1.66,-29l9.34,-2.33l21.66,8l3,17.13l1.17,6.69l0.5,2.85l3.67,88.66Z" style="fill:#be6f72;fill-rule:nonzero;"/></g><rect x="543.9" y="109.27" width="34.15" height="53.23" style="fill:#3e373a;"/><rect x="543.9" y="109.27" width="34.15" height="53.23" style="fill-opacity:0.1;"/><g><path d="M472.42,363.17c0,-0 -11.67,12.83 -7.34,15.16c4.33,2.33 32.34,46 32.34,46c-0,-0 92,11.33 109.35,-5.67c17.35,-17 17,-47.37 17,-47.37c-0,-0 -13.94,3 -15.46,1.37c-1.52,-1.63 -9.87,-9.49 -9.87,-9.49c-0,-0 -118.02,-7.16 -126.02,-0Z" style="fill:#4b4b5b;fill-rule:nonzero;"/></g><g><path d="M472.42,363.17c0,-0 -11.67,12.83 -7.34,15.16c4.33,2.33 32.34,46 32.34,46c-0,-0 92,11.33 109.35,-5.67c17.35,-17 17,-47.37 17,-47.37c-0,-0 -13.94,3 -15.46,1.37c-1.52,-1.63 -9.87,-9.49 -9.87,-9.49c-0,-0 -118.02,-7.16 -126.02,-0Z" style="fill-opacity:0.02;fill-rule:nonzero;"/></g><g><path d="M638.04,201l-30,24l-9.07,0.66l-3.33,0.24l-55.93,4.1l-58,-4.24l-8.63,-0.63l-11,-0.8l-23,-22c0,0 16.28,-17.44 30.54,-29.21c5.62,-4.65 10.93,-8.41 14.8,-9.89l0.66,-0.23c2.434,-0.949 4.608,-2.464 6.34,-4.42c11.26,-11.61 21.67,-40.26 21.67,-40.26c0,0 49.67,-25.66 43.67,8c-6,33.66 22.33,25.34 22.33,25.34l9.34,4.26l3.69,1.69l9.41,4.31l21.23,9.74c16.66,7.67 15.28,29.34 15.28,29.34Z" style="fill:#be6f72;fill-rule:nonzero;"/></g><circle cx="537.38" cy="101.06" r="44.67" style="fill-opacity:0.1;"/><g><path d="M638.11,232.82l-200.69,0l0,-0.49l1.66,-29c-0,0 16.28,-17.44 30.54,-29.21l126,-5l5.86,-6.18l21.23,9.74c16.67,7.66 15.33,29.33 15.33,29.33c-0,0 2.28,25.11 0.07,30.81Z" style="fill-opacity:0.1;fill-rule:nonzero;"/></g><g><path d="M638.11,231.82l-200.69,0l0,-0.49l1.66,-29c-0,0 16.28,-17.44 30.54,-29.21l126,-5l5.86,-6.18l21.23,9.74c16.67,7.66 15.33,29.33 15.33,29.33c-0,0 2.28,25.11 0.07,30.81Z" style="fill:#e7c7ca;fill-rule:nonzero;"/></g><g><path d="M505.21,150.5c-0,0 31.66,40.34 73.83,-0.83c42.17,-41.17 4.67,91.83 4.67,91.83l-91,10.8l12.5,-101.8Z" style="fill-opacity:0.1;fill-rule:nonzero;"/></g><g><path d="M505.21,152.5c-0,0 31.66,40.34 73.83,-0.83c42.17,-41.17 4.67,91.83 4.67,91.83l-91,10.8l12.5,-101.8Z" style="fill:#e7c7ca;fill-rule:nonzero;"/></g><g><path d="M592.07,159.58l3.35,51.09l3.59,17l2.74,13c-0,-0 7,100 5,105c-2,5 1,9 1.42,11.66c0.42,2.66 -0.42,9.34 -0.09,12.34c0.33,3 -0,4.33 -7.66,3.26c-7.66,-1.07 -18.34,-2.93 -18.34,-2.93c-0,0 -27,2 -36.33,-1.33c-9.33,-3.33 -27,-3.34 -27,-3.34c0,-0 -26.67,0.67 -35.33,-0.33c-8.66,-1 -13.34,10.67 -19,7.33c-5.66,-3.34 6.66,-35.66 10.66,-45c4,-9.34 -5.33,-33 -5.33,-33l12,-66.57l2.67,-15.09l-0,-47.44l0.66,-0.23c2.434,-0.949 4.608,-2.464 6.34,-4.42l3,47.74l94,3.34l-0,-53.73" style="fill-opacity:0.1;fill-rule:nonzero;"/></g><g><path d="M592.07,157.58l3.35,51.09l3.59,17l2.74,13c-0,-0 7,100 5,105c-2,5 1,9 1.42,11.66c0.42,2.66 -0.42,9.34 -0.09,12.34c0.33,3 -0,4.33 -7.66,3.26c-7.66,-1.07 -18.34,-2.93 -18.34,-2.93c-0,0 -27,2 -36.33,-1.33c-9.33,-3.33 -27,-3.34 -27,-3.34c0,-0 -26.67,0.67 -35.33,-0.33c-8.66,-1 -13.34,10.67 -19,7.33c-5.66,-3.34 6.66,-35.66 10.66,-45c4,-9.34 -5.33,-33 -5.33,-33l12,-66.57l2.67,-15.09l-0,-47.44l0.66,-0.23c2.434,-0.949 4.608,-2.464 6.34,-4.42l3,47.74l94,3.34l-0,-53.73" style="fill:#e7c7ca;fill-rule:nonzero;"/></g><g><path d="M602.88,50.96c-0.57,-2.09 -1.36,-4.26 -3,-5.66c-1.566,-1.124 -3.375,-1.864 -5.28,-2.16c-4.561,-1.199 -9.199,-2.088 -13.88,-2.66c-0.669,-2.22 -1.681,-4.323 -3,-6.23c-9.8,-13.84 -24.3,-26.89 -41.36,-29.84c-8.93,-1.55 -19.28,-0.16 -25,6.88c-3.14,3.87 -4.49,9 -7.66,12.8c-6.11,7.38 -17.14,8.29 -24.84,14c-4.11,3 -7.09,7.35 -10,11.57c-3.15,4.57 -6.39,9.33 -7.39,14.79c-2,10.91 5.21,21.31 6.54,32.32c3,24.63 -23.4,46.48 -18.41,70.78c2.91,14.17 16,24.15 29.54,29.21c4.77,1.79 10.22,3.57 12.45,8.15c1,2 1.17,4.31 2.11,6.33c3.16,6.74 13.55,7 19.13,2.09c5.58,-4.91 7.34,-12.85 8,-20.26c2.68,-32.36 -10.28,-64.33 -8.77,-96.77c0.45,-9.81 3.21,-20.94 12,-25.38c11.83,-6 26.06,4 39.08,2.09c6.16,14.989 7.469,31.539 3.74,47.31c-2.07,8.63 -5.65,17 -5.91,25.9c-0.39,13.55 6.92,25.93 13.24,37.91c1.356,2.24 2.263,4.723 2.67,7.31c0.099,2.625 -0.389,5.239 -1.43,7.65c-3.57,9.61 -9.73,18.53 -10.43,28.76c-0.205,1.194 0.064,2.422 0.75,3.42c0.704,0.666 1.614,1.075 2.58,1.16c10.8,1.85 20.14,-7.72 25.41,-17.33c5.875,-10.614 9.299,-22.41 10.02,-34.52c1.09,-20.36 -6.21,-40.39 -5.76,-60.77c0.52,-23.17 10.99,-46.5 4.86,-68.85Z" style="fill-opacity:0.1;fill-rule:nonzero;"/></g><g><path d="M603.88,49.96c-0.57,-2.09 -1.36,-4.26 -3,-5.66c-1.566,-1.124 -3.375,-1.864 -5.28,-2.16c-4.561,-1.199 -9.199,-2.088 -13.88,-2.66c-0.669,-2.22 -1.681,-4.323 -3,-6.23c-9.8,-13.84 -24.3,-26.89 -41.36,-29.84c-8.93,-1.55 -19.28,-0.16 -25,6.88c-3.14,3.87 -4.49,9 -7.66,12.8c-6.11,7.38 -17.14,8.29 -24.84,14c-4.11,3 -7.09,7.35 -10,11.57c-3.15,4.57 -6.39,9.33 -7.39,14.79c-2,10.91 5.21,21.31 6.54,32.32c3,24.63 -23.4,46.48 -18.41,70.78c2.91,14.17 16,24.15 29.54,29.21c4.77,1.79 10.22,3.57 12.45,8.15c1,2 1.17,4.31 2.11,6.33c3.16,6.74 13.55,7 19.13,2.09c5.58,-4.91 7.34,-12.85 8,-20.26c2.68,-32.36 -10.28,-64.33 -8.77,-96.77c0.45,-9.81 3.21,-20.94 12,-25.38c11.83,-6 26.06,4 39.08,2.09c6.16,14.989 7.469,31.539 3.74,47.31c-2.07,8.63 -5.65,17 -5.91,25.9c-0.39,13.55 6.92,25.93 13.24,37.91c1.356,2.24 2.263,4.723 2.67,7.31c0.099,2.625 -0.389,5.239 -1.43,7.65c-3.57,9.61 -9.73,18.53 -10.43,28.76c-0.205,1.194 0.064,2.422 0.75,3.42c0.704,0.666 1.614,1.075 2.58,1.16c10.8,1.85 20.14,-7.72 25.41,-17.33c5.875,-10.614 9.299,-22.41 10.02,-34.52c1.09,-20.36 -6.21,-40.39 -5.76,-60.77c0.52,-23.17 10.99,-46.5 4.86,-68.85Z" style="fill:#3e373a;fill-rule:nonzero;"/></g><path d="M581.79,492.73l39.67,1.27l-5.69,-29.42l-30.39,2.89l-3.59,25.26Z" style="fill:#c3c7d9;fill-rule:nonzero;"/><g><path d="M704.71,423c-2.67,3.33 -13,9.33 -14,11.33c-1,2 -13.33,8 -19.67,9c-6.34,1 -26.33,5.34 -30,7.67c-2.63,1.68 -23.74,7 -37.61,9.95c-3.757,0.889 -7.559,1.573 -11.39,2.05c-6,0.33 -71.66,-22 -71.66,-22l12.66,-13l0.7,-0.24c3.58,-1.21 20.12,-6.8 29.3,-9.46c10.34,-3 22.34,-15.33 22.34,-15.33c-0,-0 17.66,-6 20,-6.67c2.34,-0.67 -6,-23.33 -6,-23.33c-0,-0 38.33,-5.32 53.33,-9.83c15,-4.51 49.67,-2.84 56,14.83c6.33,17.67 -1.29,41.7 -4,45.03Z" style="fill:#4b4b5b;fill-rule:nonzero;"/></g><g><path d="M530.04,479.33c0,0 -7.66,8 -15.33,7.34c-7.67,-0.66 -34.49,2 -34.49,2c-4.86,1.939 -9.412,4.577 -13.51,7.83c-6.27,4.94 -9.6,1 -10.22,0.16l-0.11,-0.16c-3.34,10.51 -11,2.5 -11,2.5c0,0 3.33,-32 2.31,-36c-1.02,-4 6.59,-10.87 6.59,-10.87l9,-2.29l22.8,-5.84l32.67,11.33l11.29,24Z" style="fill:#e7c7ca;fill-rule:nonzero;"/></g><g><path d="M463.24,449.84l-6.75,46.82l-0.11,-0.16c-3.34,10.51 -11,2.5 -11,2.5c0,-0 3.33,-32 2.31,-36c-1.02,-4 6.59,-10.87 6.59,-10.87l8.96,-2.29Z" style="fill-opacity:0.1;fill-rule:nonzero;"/></g><g><path d="M510.42,316.66c0,-0 17.66,6 33,-0" style="fill-opacity:0.1;fill-rule:nonzero;"/></g><g><path d="M570.71,328c-0,0 7.33,3.66 13,0" style="fill-opacity:0.1;fill-rule:nonzero;"/></g><g><path d="M570.71,336.68c-0,0 12.33,1.65 14.67,-1.68" style="fill-opacity:0.1;fill-rule:nonzero;"/></g><g><path d="M566.71,355.33c-0,0 23.16,-3 28.91,-7" style="fill-opacity:0.1;fill-rule:nonzero;"/></g><g><path d="M496.04,348.33c0,0 13,7.33 22.67,7" style="fill-opacity:0.1;fill-rule:nonzero;"/></g><g><path d="M603.42,460.95c-3.757,0.889 -7.559,1.573 -11.39,2.05c-6,0.33 -71.66,-22 -71.66,-22l12.66,-13l0.7,-0.24c2,1.41 3.64,2.62 4.81,3.54c5.51,4.34 10.83,-1.33 12.83,-1.33c2,-0 19.33,14.33 19.33,14.33c-0,0 16,3.67 18.67,7c2.67,3.33 12,2.67 13.66,5c0.5,0.72 0.56,2.49 0.39,4.65Z" style="fill-opacity:0.1;fill-rule:nonzero;"/></g><g><path d="M480.22,374.33c-0,0 -16.18,0.93 -25.51,-3c-9.33,-3.93 -40.33,-13 -49.33,-6.63c-9,6.37 -30.67,12 -20.67,37.34c10,25.34 14.67,26 14.67,26c3.094,2.32 5.795,5.123 8,8.3c3,4.67 31,15.33 38,15.33c7,0 19.33,0 36.66,12c17.33,12 33,13.34 33,13.34c-0,0 22,9 28.85,11c6.85,2 38.15,10.66 45.49,8c7.34,-2.66 12,-19.34 12,-19.34c-0,0 3.33,-15 1.66,-17.33c-1.67,-2.33 -11,-1.67 -13.66,-5c-2.66,-3.33 -18.67,-7 -18.67,-7c-0,0 -17.29,-14.34 -19.29,-14.34c-2,0 -7.32,5.66 -12.83,1.33c-10.976,-8.13 -22.507,-15.481 -34.51,-22c-12.66,-6.67 -23.86,-38 -23.86,-38Z" style="fill:#4b4b5b;fill-rule:nonzero;"/></g><g><path d="M447.69,384c5.835,-1.192 11.905,0.411 16.39,4.33c8,6.67 34.92,20.06 34.92,20.06" style="fill-opacity:0.1;fill-rule:nonzero;"/></g><g><path d="M647.71,383.58c-0,0 -35.67,5.4 -42.33,12.73" style="fill-opacity:0.1;fill-rule:nonzero;"/></g><g><path d="M688.71,494l-1.57,-0c-5.64,-0.2 -24.75,-0.8 -28.43,-0c-4.33,1 -61.67,-0 -61.67,-0l11.21,-2.33c-0,0 -4.16,-14.58 -1.52,-15.79c-0,-0 -15,-9.88 -3.69,-16.55c11.31,-6.67 23.5,-3.86 23.5,-3.86l28.39,-9.62l5.45,-1.85c-0,0 32,1.67 40.66,23.67c8.66,22 -12.33,26.33 -12.33,26.33Z" style="fill:#e7c7ca;fill-rule:nonzero;"/></g><g><path d="M688.71,494l-1.57,-0c9.31,-7.68 30.37,-31.06 -32.21,-48.1l5.45,-1.85c0,0 32,1.67 40.66,23.67c8.66,22 -12.33,26.28 -12.33,26.28Z" style="fill-opacity:0.1;fill-rule:nonzero;"/></g><circle cx="629.88" cy="466.33" r="1.75" style="fill:#4b4b5b;"/><circle cx="619.71" cy="469.22" r="1.75" style="fill:#4b4b5b;"/><g opacity="0.1"><g><path d="M570.16,99.41c0.388,-10.999 -1.569,-21.955 -5.74,-32.14c-13,1.94 -27.24,-8.09 -39.08,-2.09c-8.76,4.44 -11.51,15.57 -12,25.38c-0.12,2.59 -0.14,5.18 -0.09,7.77c0,-0.92 0,-1.85 0.09,-2.77c0.46,-9.81 3.21,-20.94 12,-25.38c11.84,-6 26.06,4 39.08,2.09c3.532,8.627 5.477,17.822 5.74,27.14Z" style="fill-rule:nonzero;"/></g><g><path d="M469.42,97.58c0.171,-2.179 0.128,-4.37 -0.13,-6.54c-1.06,-8.8 -5.87,-17.21 -6.74,-25.79c-1.12,10.35 5.47,20.29 6.74,30.79c0.13,0.54 0.13,1.02 0.13,1.54Z" style="fill-rule:nonzero;"/></g><g><path d="M522.11,187.32c-0.62,7.42 -2.37,15.35 -8,20.27c-5.63,4.92 -16,4.65 -19.13,-2.09c-1,-2 -1.15,-4.33 -2.12,-6.33c-2.22,-4.58 -7.68,-6.36 -12.45,-8.15c-13.55,-5.07 -26.62,-15 -29.53,-29.21c-0.26,-1.287 -0.437,-2.59 -0.53,-3.9c-0.246,2.977 -0.067,5.973 0.53,8.9c2.91,14.17 16,24.14 29.53,29.21c4.77,1.79 10.23,3.57 12.45,8.15c1,2 1.17,4.31 2.12,6.33c3.15,6.74 13.54,7 19.13,2.09c5.59,-4.91 7.33,-12.85 8,-20.27c0.304,-3.905 0.408,-7.824 0.31,-11.74c0,2.27 -0.13,4.51 -0.31,6.74Z" style="fill-rule:nonzero;"/></g><g><path d="M599.35,114.07l-0,4.33c0.56,-18.6 7.38,-37.3 6.71,-55.51c-0.52,16.84 -6.33,34.06 -6.71,51.18Z" style="fill-rule:nonzero;"/></g><g><path d="M577.89,189.31c0.246,-1.187 0.323,-2.402 0.23,-3.61c-0.403,-2.588 -1.31,-5.072 -2.67,-7.31c-5.78,-11 -12.37,-22.26 -13.15,-34.47c-0,0.52 -0.07,1 -0.08,1.56c-0.4,13.54 6.91,25.93 13.23,37.91c1.074,1.855 1.895,3.847 2.44,5.92Z" style="fill-rule:nonzero;"/></g><g><path d="M605.1,174.84c-0.746,12.115 -4.194,23.91 -10.09,34.52c-5.28,9.61 -14.61,19.18 -25.42,17.33c-0.968,-0.083 -1.879,-0.497 -2.58,-1.17c-0.203,-0.229 -0.362,-0.493 -0.47,-0.78c-0.12,0.78 -0.22,1.57 -0.28,2.37c-0.207,1.191 0.063,2.416 0.75,3.41c0.701,0.673 1.612,1.087 2.58,1.17c10.81,1.85 20.14,-7.72 25.42,-17.33c5.896,-10.61 9.344,-22.405 10.09,-34.52c0.12,-2.34 0.13,-4.67 0.06,-7c-0.02,0.67 -0.02,1.33 -0.06,2Z" style="fill-rule:nonzero;"/></g></g><g><path d="M606.73,475.88c-0,-0 25.31,10.62 42,-12.88" style="fill:none;fill-rule:nonzero;stroke:#000;stroke-opacity:0.1;stroke-width:1px;"/></g><g><path d="M611.71,494.44c-0,0 20.67,-13.44 47,-0.44" style="fill:none;fill-rule:nonzero;stroke:#000;stroke-opacity:0.1;stroke-width:1px;"/></g><g><path d="M473.35,491.39c-0,-0 8.68,-19.58 31.86,-4.65" style="fill:none;fill-rule:nonzero;stroke:#000;stroke-opacity:0.1;stroke-width:1px;"/></g><g><path d="M445.21,201.83l17.7,-16c0,-0 68.63,-4.5 71.47,18.83c0,0 24.33,-27.66 75.5,-21.5l21.65,17.24l-59.84,26.26l-58.15,20.17l-42.83,-19.17l-25.5,-25.83Z" style="fill-opacity:0.1;fill-rule:nonzero;"/></g><g><path d="M445.21,202.83l17.7,-16c0,-0 68.63,-4.5 71.47,18.83c0,0 24.33,-27.66 75.5,-21.5l21.65,17.24l-59.84,26.26l-58.15,20.17l-42.83,-19.17l-25.5,-25.83Z" style="fill:#d5d6db;fill-rule:nonzero;"/></g><path d="M437.38,204.83l7.83,93.67l83,4.17l-3.6,-93.27l-0.07,-1.57l-87.16,-3Z" style="fill-opacity:0.1;fill-rule:nonzero;"/><path d="M437.38,202.83l7.83,93.67l83,4.17l-3.6,-93.27l-0.07,-1.57l-87.16,-3Z" style="fill:#007ca6;fill-rule:nonzero;"/><path d="M635.33,202.83l-85.62,12.84l0,94.09l83.67,-12.09l1.95,-94.84Z" style="fill-opacity:0.1;fill-rule:nonzero;"/><path d="M635.33,200.83l-85.62,12.84l0,94.09l83.67,-12.09l1.95,-94.84Z" style="fill:#007ca6;fill-rule:nonzero;"/><path d="M615.14,223.79l-46.25,5.14l1.01,15.76l45.21,-4.94l0.03,-15.96Z" style="fill:#fff;fill-opacity:0.3;fill-rule:nonzero;"/><g><path d="M449.71,346.66l4.71,12.67c0,-0 7,6 14.66,3c7.66,-3 14.34,-4.49 17.67,-7.41c3.33,-2.92 8,-17.59 8,-17.59c0,-0 4.67,-16 9.33,-20c4.66,-4 17,-59.11 -0,-53.72c-17,5.39 -30,55.39 -30,55.39c-0,0 -3,3.66 -7.33,4c-4.33,0.34 -13,-0.67 -14.67,3c-1.67,3.67 -7.37,13.33 -2.37,20.66Z" style="fill:#be6f72;fill-rule:nonzero;"/></g><g><path d="M549.71,215.66c-8.882,2.001 -18.207,-0.323 -25.11,-6.26l3.61,93.26c-0,-0 8.5,9.2 21.5,7.1l-0,-94.1Z" style="fill-opacity:0.1;fill-rule:nonzero;"/></g><g><path d="M549.71,213.66c-8.882,2.001 -18.207,-0.323 -25.11,-6.26l3.61,93.26c-0,-0 8.5,9.2 21.5,7.1l-0,-94.1Z" style="fill:#007ca6;fill-rule:nonzero;"/></g><g><path d="M549.71,213.66c-8.882,2.001 -18.207,-0.323 -25.11,-6.26l3.61,93.26c-0,-0 8.5,9.2 21.5,7.1l-0,-94.1Z" style="fill-opacity:0.1;fill-rule:nonzero;"/></g><g><path d="M551.71,203.15c-0,-0 34.83,-10.65 43.91,-9.15" style="fill-opacity:0.1;fill-rule:nonzero;"/></g><g><path d="M512.75,198.5c0,0 -33.76,-8 -39.4,-5.73" style="fill-opacity:0.1;fill-rule:nonzero;"/></g><g><path d="M573.67,204.48c0,0 23.29,-8.54 31.71,-4.48" style="fill-opacity:0.1;fill-rule:nonzero;"/></g><g><path d="M561.94,418.71c3.609,-2.71 7.451,-5.096 11.48,-7.13c6,-2.89 17,-10.39 17,-10.39" style="fill-opacity:0.1;fill-rule:nonzero;"/></g><g><path d="M473.35,316.66c-0,-0 -14.61,11.95 -19,13c-4.39,1.05 -7.1,10.37 -7.1,10.37" style="fill-opacity:0.1;fill-rule:nonzero;"/></g><g><path d="M626.74,344.88l-4.66,12.7c-0,0 -7,6 -14.67,3c-7.67,-3 -14.33,-4.49 -17.67,-7.41c-3.34,-2.92 -8,-17.59 -8,-17.59c-0,0 -4.66,-16 -9.33,-20c-4.67,-4 -17,-59.11 -0,-53.72c17,5.39 30,55.39 30,55.39c-0,0 3,3.66 7.33,4c4.33,0.34 13,-0.67 14.67,3c1.67,3.67 7.33,13.33 2.33,20.63Z" style="fill:#be6f72;fill-rule:nonzero;"/></g><g><path d="M618.57,321.52c-0,0 9.55,6.14 9.51,13.48" style="fill-opacity:0.1;fill-rule:nonzero;"/></g><circle cx="537.54" cy="98.87" r="44.67" style="fill:#be6f72;"/><g><path d="M509.49,86.88c5.42,-0.85 10.17,-4 15.35,-5.81c11.59,-4.07 24.41,-1.28 36.14,2.39c4.5,1.41 9.07,3 13.79,3c4.72,0 9.73,-1.93 12.14,-6c2.22,-3.74 1.79,-8.6 -0.08,-12.53c-1.87,-3.93 -5,-7.09 -8.16,-10.07c-10.4,-9.82 -23.3,-19 -37.57,-18c-5.74,0.41 -11.23,2.46 -16.51,4.73c-6.648,2.865 -13.12,6.124 -19.38,9.76c-4.81,2.79 -13.72,6.52 -16.49,11.62c-6.3,11.49 10.97,22.45 20.77,20.91Z" style="fill:#3e373a;fill-rule:nonzero;"/></g><g><path d="M586.91,76.26c-2.41,4.07 -7.42,6 -12.14,6c-4.72,0 -9.29,-1.53 -13.8,-2.94c-11.73,-3.67 -24.54,-6.47 -36.14,-2.39c-5.17,1.81 -9.93,5 -15.35,5.8c-7.9,1.24 -20.62,-5.64 -22,-14.39c-1.55,10.11 13.2,18.77 22,17.39c5.42,-0.85 10.18,-4 15.35,-5.8c11.6,-4.08 24.41,-1.28 36.14,2.39c4.51,1.41 9.07,3 13.8,2.94c4.73,-0.06 9.73,-1.92 12.14,-6c1.249,-2.219 1.741,-4.786 1.4,-7.31c-0.156,1.52 -0.633,2.989 -1.4,4.31Z" style="fill-opacity:0.1;fill-rule:nonzero;"/></g><g><path d="M949.42,618.21c-0,0 5.93,7.75 -2.74,19.46c-8.67,11.71 -15.81,21.59 -12.93,28.89c-0,0 13.08,-21.74 23.72,-22.05c10.64,-0.31 3.64,-13.23 -8.05,-26.3Z" style="fill:#007ca6;fill-rule:nonzero;"/></g><g><path d="M949.42,618.21c0.52,0.749 0.92,1.567 1.21,2.43c10.38,12.2 15.92,23.59 5.93,23.87c-9.3,0.27 -20.45,16.9 -23.12,21.09c0.09,0.339 0.19,0.672 0.31,1c0.12,0.328 13.08,-21.74 23.72,-22.05c10.64,-0.31 3.64,-13.27 -8.05,-26.34Z" style="fill-opacity:0.1;fill-rule:nonzero;"/></g><g><path d="M960.42,628.09c-0,2.73 -0.31,4.94 -0.68,4.94c-0.37,0 -0.69,-2.21 -0.69,-4.94c0,-2.73 0.38,-1.44 0.76,-1.44c0.38,0 0.61,-1.29 0.61,1.44Z" style="fill:#ffd037;fill-rule:nonzero;"/></g><g><path d="M964.21,631.35c-2.39,1.3 -4.48,2.09 -4.66,1.76c-0.18,-0.33 1.61,-1.66 4,-3c2.39,-1.34 1.45,-0.36 1.63,0c0.18,0.36 1.43,-0.07 -0.97,1.24Z" style="fill:#ffd037;fill-rule:nonzero;"/></g><g><path d="M918.08,618.21c-0,0 -5.93,7.75 2.74,19.46c8.67,11.71 15.81,21.59 12.92,28.89c0,0 -13.07,-21.74 -23.72,-22.05c-10.65,-0.31 -3.6,-13.23 8.06,-26.3Z" style="fill:#007ca6;fill-rule:nonzero;"/></g><g><path d="M918.08,618.21c-0.52,0.749 -0.92,1.567 -1.21,2.43c-10.38,12.2 -15.92,23.59 -5.93,23.87c9.29,0.27 20.45,16.9 23.12,21.09c-0.08,0.34 -0.19,0.674 -0.32,1c-0.13,0.326 -13.07,-21.74 -23.72,-22.05c-10.65,-0.31 -3.6,-13.27 8.06,-26.34Z" style="fill-opacity:0.1;fill-rule:nonzero;"/></g><g><path d="M907.06,628.09c-0,2.73 0.3,4.94 0.68,4.94c0.38,0 0.69,-2.21 0.69,-4.94c-0,-2.73 -0.39,-1.44 -0.76,-1.44c-0.37,0 -0.61,-1.29 -0.61,1.44Z" style="fill:#ffd037;fill-rule:nonzero;"/></g><g><path d="M903.28,631.35c2.39,1.3 4.48,2.09 4.66,1.76c0.18,-0.33 -1.61,-1.66 -4,-3c-2.39,-1.34 -1.45,-0.36 -1.63,0c-0.18,0.36 -1.43,-0.07 0.97,1.24Z" style="fill:#ffd037;fill-rule:nonzero;"/></g><ellipse cx="933.75" cy="716.37" rx="62" ry="9.51" style="fill:#007ca6;fill-opacity:0.1;"/><g><path d="M965.66,656.11l-0.3,2.42l-0.42,3.42l-0.17,1.43l-0.42,3.42l-0.18,1.43l-0.41,3.41l-4.75,38.9c-0.42,3.47 -6.09,6.18 -12.94,6.18l-24.65,0c-6.85,0 -12.51,-2.71 -12.94,-6.18l-4.75,-38.9l-0.42,-3.41l-0.17,-1.43l-0.42,-3.42l-0.18,-1.43l-0.41,-3.42l-0.3,-2.42c-0.23,-2 2.83,-3.62 6.71,-3.62l50.42,0c3.87,0 6.94,1.65 6.7,3.62Z" style="fill:#65617d;fill-rule:nonzero;"/></g><path d="M965.36,658.53l-0.41,3.42l-62.4,0l-0.42,-3.42l63.23,0Z" style="fill:#9d9cb5;fill-rule:nonzero;"/><path d="M964.77,663.38l-0.41,3.42l-61.22,0l-0.42,-3.42l62.05,0Z" style="fill:#9d9cb5;fill-rule:nonzero;"/><path d="M964.18,668.23l-0.42,3.42l-60.03,0l-0.41,-3.42l60.86,0Z" style="fill:#9d9cb5;fill-rule:nonzero;"/><defs><linearGradient id="_Linear1" x1="0" y1="0" x2="1" y2="0" gradientUnits="userSpaceOnUse" gradientTransform="matrix(3.07337e-14,-501.92,501.92,3.07337e-14,546.64,501.92)"><stop offset="0" style="stop-color:#808080;stop-opacity:0.25"/><stop offset="0.54" style="stop-color:#808080;stop-opacity:0.12"/><stop offset="1" style="stop-color:#808080;stop-opacity:0.1"/></linearGradient></defs></svg>