<?xml version="1.0" encoding="UTF-8" standalone="no"?>
<!DOCTYPE svg PUBLIC "-//W3C//DTD SVG 1.1//EN" "http://www.w3.org/Graphics/SVG/1.1/DTD/svg11.dtd">
<svg width="100%" height="100%" viewBox="0 0 884 714" version="1.1" xmlns="http://www.w3.org/2000/svg" xmlns:xlink="http://www.w3.org/1999/xlink" xml:space="preserve" xmlns:serif="http://www.serif.com/" style="fill-rule:evenodd;clip-rule:evenodd;stroke-linejoin:round;stroke-miterlimit:2;">
    <g transform="matrix(1,0,0,1,-158.035,-93.1272)">
        <path d="M739.66,492.741C721.013,503.924 687.791,517.936 653.841,503.536L631.895,494.227L675.873,444.928C640.839,406.3 621.417,355.975 621.417,303.826C621.417,188.605 716.23,93.793 831.451,93.793C946.672,93.793 1041.49,188.605 1041.49,303.826C1041.49,419.047 946.672,513.86 831.451,513.86C799.651,513.86 768.263,506.638 739.66,492.741L739.66,492.741ZM655.398,303.494C655.202,352.154 675.364,398.744 710.97,431.912L723.1,443.311L695.427,474.332C709.841,471.408 722.396,463.61 728.763,459.081L737.498,452.865L746.892,458.027C772.86,472.245 801.994,479.697 831.598,479.694C928.755,479.694 1007.8,400.651 1007.8,303.494C1007.8,206.337 928.755,127.293 831.598,127.293C734.441,127.293 655.398,206.337 655.398,303.494L655.398,303.494Z" style="fill:rgb(90,87,117);fill-rule:nonzero;"/>
    </g>
    <g transform="matrix(1,0,0,1,-158.035,-93.1272)">
        <path d="M638.315,303.494C638.315,196.746 724.851,110.21 831.598,110.21C938.346,110.21 1024.88,196.746 1024.88,303.494C1024.88,410.241 938.346,496.777 831.598,496.777C799.112,496.824 767.137,488.644 738.666,473C725.305,482.507 692.711,501.468 660.512,487.809L699.271,444.361C660.343,407.887 638.254,356.84 638.315,303.494Z" style="fill:rgb(0,124,166);fill-rule:nonzero;"/>
    </g>
    <g transform="matrix(1,0,0,1,-158.035,-93.1272)">
        <path d="M991.955,303.912C991.955,202.923 914.498,120.039 815.755,111.389C821.385,110.896 827.08,110.629 832.838,110.629C939.585,110.629 1026.12,197.165 1026.12,303.912C1026.12,410.66 939.585,497.196 832.838,497.196C827.088,497.196 821.403,496.925 815.782,496.433C914.512,487.771 991.955,404.892 991.955,303.912Z" style="fill-opacity:0.1;fill-rule:nonzero;"/>
    </g>
    <g transform="matrix(1,0,0,1,-158.035,-93.1272)">
        <path d="M386.198,761.252C386.165,761.252 386.132,761.252 386.099,761.252C270.572,761.252 175.509,666.188 175.509,550.662C175.509,435.135 270.572,340.072 386.099,340.072C501.625,340.072 596.689,435.135 596.689,550.662C596.689,603.034 577.152,653.568 541.923,692.32L585.901,741.619L563.955,750.928C530.005,765.328 496.783,751.316 478.136,740.133C449.479,754.025 418.044,761.246 386.198,761.252ZM386.198,374.686C289.041,374.686 209.998,453.729 209.998,550.886C209.998,648.043 289.041,727.086 386.198,727.086C415.803,727.089 444.937,719.637 470.904,705.419L480.299,700.257L489.034,706.473C495.4,711.002 507.955,718.8 522.37,721.724L494.696,690.703L506.827,679.304C542.432,646.136 562.594,599.546 562.398,550.886C562.398,453.729 483.355,374.686 386.198,374.686Z" style="fill:rgb(90,87,117);fill-rule:nonzero;"/>
    </g>
    <g transform="matrix(1,0,0,1,-158.035,-93.1272)">
        <path d="M579.481,550.886C579.481,444.138 492.945,357.602 386.198,357.602C279.45,357.602 192.915,444.138 192.915,550.886C192.915,657.633 279.45,744.169 386.198,744.169C418.684,744.216 450.659,736.036 479.13,720.392C492.491,729.899 525.085,748.86 557.284,735.201L518.525,691.753C557.453,655.279 579.542,604.231 579.481,550.886Z" style="fill:rgb(0,124,166);fill-rule:nonzero;"/>
    </g>
    <g transform="matrix(1,0,0,1,-158.035,-93.1272)">
        <path d="M227.081,549.909C227.081,448.92 304.537,366.036 403.281,357.386C397.651,356.893 391.956,356.626 386.198,356.626C279.45,356.626 192.915,443.162 192.915,549.909C192.915,656.657 279.45,743.193 386.198,743.193C391.947,743.193 397.632,742.922 403.254,742.43C304.523,733.768 227.081,650.889 227.081,549.909Z" style="fill-opacity:0.1;fill-rule:nonzero;"/>
    </g>
    <g transform="matrix(1,0,0,1,-158.035,-93.1272)">
        <path d="M876.973,242.088C864.327,220.719 839.308,219.724 839.308,219.724C839.308,219.724 814.927,216.606 799.288,249.15C784.71,279.484 764.592,308.771 796.049,315.872L801.731,298.187L805.25,317.189C809.729,317.511 814.222,317.588 818.709,317.419C852.397,316.331 884.48,317.737 883.447,305.648C882.074,289.578 889.141,262.648 876.973,242.088Z" style="fill:rgb(47,46,65);fill-rule:nonzero;"/>
    </g>
    <g transform="matrix(1,0,0,1,-158.035,-93.1272)">
        <path d="M794.253,429.219C793.881,431.569 793.342,433.89 792.639,436.163C791.848,438.389 790.626,440.447 789.903,442.695C787.596,449.861 790.794,457.851 795.9,463.383C800.328,468.16 806.046,471.555 812.36,473.156C817.009,474.151 821.75,474.649 826.504,474.643C839.651,475.088 853.135,475.487 865.592,471.262C869.528,469.895 873.329,468.168 876.948,466.103C878.091,465.559 879.098,464.766 879.895,463.783C880.73,462.343 881.101,460.681 880.958,459.023C880.93,453.45 879.801,447.905 880.069,442.339C880.218,439.255 880.795,436.174 880.511,433.1C879.707,425.964 874.475,420.068 867.486,418.42C863.952,417.661 860.287,418.074 856.689,418.42C847.35,419.318 837.972,419.737 828.59,419.677C819.004,419.616 809.478,418.152 799.94,418C797.12,417.954 797.177,418.824 796.279,421.554C795.451,424.066 794.775,426.626 794.253,429.219Z" style="fill:rgb(47,46,65);fill-rule:nonzero;"/>
    </g>
    <g transform="matrix(1,0,0,1,-158.035,-93.1272)">
        <path d="M821.456,291.605C820.995,294.017 820.497,296.518 819.048,298.5C817.38,300.78 814.661,302.083 812.867,304.266C810.167,307.551 810.012,312.173 810.001,316.426C809.99,320.343 810.07,324.522 812.254,327.774C813.809,329.794 815.739,331.495 817.938,332.785C826.131,338.306 834.984,343.926 844.862,344.108C848.954,344.184 853.343,343.127 856.036,340.044C857.198,338.596 858.113,336.965 858.741,335.217C861.267,328.991 862.798,322.407 863.278,315.705C863.642,312.555 863.348,309.363 862.414,306.332C861.214,302.986 858.788,300.233 857.184,297.061C855.289,293.29 854.596,289.026 855.198,284.849C855.278,284.554 855.253,284.242 855.128,283.964C854.861,283.662 854.468,283.503 854.066,283.533L834.48,282.123C832.656,282.032 830.839,281.825 829.042,281.501C827.986,281.286 825.197,279.787 824.191,280.185C822.327,280.924 821.838,289.605 821.456,291.605Z" style="fill:rgb(160,97,106);fill-rule:nonzero;"/>
    </g>
    <g transform="matrix(1,0,0,1,-158.035,-93.1272)">
        <path d="M821.456,292.217C820.995,294.629 820.497,297.129 819.048,299.111C817.38,301.392 814.661,302.695 812.867,304.877C810.167,308.162 810.012,312.785 810.001,317.037C809.99,320.955 810.07,325.133 812.254,328.385C813.809,330.405 815.739,332.107 817.938,333.396C826.131,338.917 834.984,344.537 844.862,344.72C848.954,344.795 853.343,343.738 856.036,340.655C857.198,339.207 858.113,337.576 858.741,335.828C861.267,329.603 862.798,323.018 863.278,316.316C863.642,313.166 863.348,309.974 862.414,306.943C861.214,303.598 858.788,300.845 857.184,297.673C855.289,293.901 854.596,289.638 855.198,285.46C855.278,285.166 855.253,284.853 855.128,284.575C854.861,284.273 854.468,284.114 854.066,284.144L834.48,282.734C832.656,282.644 830.839,282.436 829.042,282.112C827.986,281.898 825.197,280.398 824.191,280.797C822.327,281.535 821.838,290.217 821.456,292.217Z" style="fill-opacity:0.1;fill-rule:nonzero;"/>
    </g>
    <circle cx="682.151" cy="172.37" r="28.735" style="fill:rgb(160,97,106);"/>
    <g transform="matrix(1,0,0,1,-158.035,-93.1272)">
        <path d="M825.486,329.856C826.905,331.5 828.617,332.867 830.533,333.889C832.531,334.715 834.677,335.124 836.839,335.09C842.018,335.236 847.634,334.286 851.237,330.563C855.882,325.762 855.729,318.02 859.369,312.42C859.663,311.912 860.063,311.474 860.543,311.137C861.153,310.804 861.843,310.645 862.538,310.678C867.136,310.635 871.142,313.617 874.756,316.459C876.458,317.63 877.918,319.117 879.057,320.84C879.772,322.235 880.261,323.734 880.507,325.281C882.301,334.038 882.882,342.992 883.459,351.912C883.777,356.839 884.096,361.771 884.072,366.708C883.994,382.974 880.214,398.968 876.454,414.794C875.969,416.833 875.306,419.113 873.452,420.089C872.625,420.461 871.738,420.678 870.833,420.729C860.064,421.993 849.273,423.26 838.432,423.427C834.201,423.492 829.972,423.389 825.745,423.119C825.018,423.11 824.296,422.984 823.608,422.747C822.674,422.298 821.872,421.617 821.278,420.768C815.414,413.379 815.068,403.162 815.105,393.729C815.197,370.664 816.021,347.618 817.577,324.59C817.706,322.69 817.734,320.381 816.364,318.886C819.031,322.838 822.087,326.513 825.486,329.856Z" style="fill:white;fill-rule:nonzero;"/>
    </g>
    <g transform="matrix(1,0,0,1,-158.035,-93.1272)">
        <path d="M819.399,296.677C818.429,298.434 811.274,302.797 809.892,304.253C802.174,312.388 788.088,312.083 781.029,320.796C778.546,323.862 777.256,327.714 776.307,331.543C774.965,336.959 774.248,342.866 776.496,347.973C778.66,352.887 783.214,356.285 786.306,360.674C789.701,365.494 791.227,371.346 792.69,377.057C793.77,381.274 794.859,385.595 794.439,389.927C793.96,394.853 791.577,399.364 790.169,404.109C788.762,408.854 788.519,414.505 791.773,418.234C794.164,420.973 797.914,422.059 801.498,422.67C806.089,423.36 810.718,423.763 815.359,423.877C819.456,424.058 823.973,424.093 827.123,421.466C829.608,419.394 830.688,416.03 830.828,412.797C830.968,409.564 830.295,406.36 829.874,403.151C829.437,399.825 829.269,396.47 829.129,393.118C828.499,378.079 828.413,363.03 828.871,347.971C829.102,344.842 828.948,341.695 828.414,338.603C827.535,334.575 825.358,330.975 823.541,327.274C819.911,320.303 818.267,312.467 818.788,304.625C819.338,296.566 822.853,290.426 819.399,296.677Z" style="fill:white;fill-rule:nonzero;"/>
    </g>
    <g transform="matrix(1,0,0,1,-158.035,-93.1272)">
        <path d="M859.751,297.289C861.229,298.808 866.252,299.309 868.132,300.287C869.901,301.104 871.747,301.743 873.642,302.195C880.502,304.174 887.026,307.168 892.999,311.079C894.24,311.805 895.337,312.753 896.236,313.875C897.182,315.415 897.793,317.138 898.026,318.931C898.947,323.492 899.872,328.108 899.665,332.757C899.446,337.691 897.959,342.47 896.485,347.183L890.976,364.797C886.863,377.944 882.725,391.221 881.568,404.948C880.927,412.555 881.212,420.213 882.415,427.752C882.644,428.493 882.543,429.299 882.137,429.96C881.774,430.319 881.297,430.539 880.788,430.581C878.129,430.997 875.556,429.641 873.147,428.442C865.783,424.777 857.925,422.206 849.819,420.809C852.986,416.231 855.43,411.194 857.065,405.873C857.993,402.494 858.724,399.064 859.254,395.601L861.817,380.778C862.859,375.36 863.593,369.887 864.015,364.386C864.209,362.321 864.089,360.239 863.658,358.211C863.068,356.281 862.283,354.415 861.318,352.642C857.094,343.856 855.112,333.83 856.774,324.224C857.501,320.02 858.915,315.811 858.325,311.586C857.759,307.523 858.347,304.366 857.305,300.346C853.025,283.838 856.97,294.43 859.751,297.289Z" style="fill:white;fill-rule:nonzero;"/>
    </g>
    <g transform="matrix(1,0,0,1,-158.035,-93.1272)">
        <path d="M780.956,334.687C779.031,338.683 775.811,342.087 774.716,346.385C774.289,348.394 774.107,350.447 774.172,352.499C773.982,355.593 774.288,358.696 775.079,361.693C775.69,363.588 776.685,365.336 777.402,367.195C778.401,369.79 778.846,372.567 778.709,375.345C778.515,379.194 777.208,382.93 777.105,386.783C776.945,392.841 779.747,398.537 782.481,403.945C784.403,399.185 789.047,396.053 794.18,396.053C796.526,396.053 798.825,396.707 800.82,397.941C801.446,397.173 801.743,396.187 801.647,395.2C801.849,388.171 802.044,381.142 802.231,374.113C802.527,363.242 802.809,352.226 800.309,341.643C799.18,336.864 797.423,332.104 794.202,328.398C792.506,326.446 786.749,321.306 783.965,323.492C782.714,324.475 783.006,327.152 782.808,328.507C782.508,330.649 781.884,332.733 780.956,334.687Z" style="fill:white;fill-rule:nonzero;"/>
    </g>
    <g transform="matrix(1,0,0,1,-158.035,-93.1272)">
        <path d="M900.228,323.172C901.003,326.053 901.334,329.036 901.212,332.017C901.249,338.093 901.168,344.168 900.97,350.243C901,353.358 900.602,356.463 899.786,359.47C899.164,361.426 898.205,363.259 897.562,365.208C895.638,371.049 896.689,377.384 896.854,383.531C896.971,385.52 896.801,387.516 896.35,389.458C895.334,393.269 892.605,396.348 890.7,399.801C888.89,403.081 887.799,406.757 885.638,409.816C883.477,412.876 879.736,415.3 876.11,414.361C873.362,413.649 871.41,411.217 870.06,408.721C867.114,403.234 866.106,396.909 867.2,390.778C868.556,383.317 872.938,376.698 874.519,369.281C876.689,359.097 873.391,348.587 873.489,338.174C873.444,336.541 873.665,334.913 874.144,333.352C874.973,330.973 876.754,329.074 878.399,327.166C880.454,324.782 882.364,322.276 884.117,319.662C885.294,317.906 886.894,313.389 888.982,313.013C893.643,312.174 899.072,319.571 900.228,323.172Z" style="fill:white;fill-rule:nonzero;"/>
    </g>
    <g transform="matrix(1,0,0,1,-158.035,-93.1272)">
        <path d="M756.77,424.689C754.192,424.042 751.536,423.759 748.88,423.851C738.503,424.424 730.275,433.119 730.275,443.512C730.275,444.703 730.383,445.892 730.598,447.064C731.242,450.042 732.294,452.917 733.724,455.607C735.817,459.853 738.326,464.09 742.2,466.811C744.534,468.307 747.047,469.503 749.68,470.371L770.081,478.057C773.082,479.187 776.084,480.318 779.115,481.367C794.342,486.63 810.217,489.786 826.299,490.747C831.193,491.205 836.127,490.955 840.95,490.005C842.115,489.853 843.184,489.275 843.95,488.384C844.339,487.706 844.568,486.949 844.621,486.169L845.876,477.381C846.157,476.157 846.12,474.882 845.769,473.676C845.194,472.199 843.753,471.27 842.378,470.481C828.966,462.777 813.306,458.527 802.016,447.955C799.359,445.466 797.135,441.52 793.905,439.83C790.244,437.912 785.931,436.818 782.147,435.051C773.872,431.189 765.737,426.751 756.77,424.689Z" style="fill:rgb(47,46,65);fill-rule:nonzero;"/>
    </g>
    <g transform="matrix(1,0,0,1,-158.035,-93.1272)">
        <path d="M777.137,436.538C784.348,438.797 814.792,454.451 820.011,459.917C819.311,460.169 795.579,446.869 794.867,446.655C788.34,444.862 781.947,442.61 775.738,439.914C774.501,439.342 767.704,436.654 768.012,435.093C768.359,433.333 775.857,436.136 777.137,436.538Z" style="fill-opacity:0.1;fill-rule:nonzero;"/>
    </g>
    <g transform="matrix(1,0,0,1,-158.035,-93.1272)">
        <path d="M867.098,495.305C867.507,495.335 867.913,495.215 868.241,494.968C868.531,494.596 868.66,494.121 868.598,493.653L868.565,481.68C865.122,480.04 861.27,479.514 857.49,479.009L839.853,476.651C840.258,476.705 837.095,484.248 837.58,485.255C838.435,487.029 844.967,488.602 846.811,489.44C853.22,492.353 859.88,495.556 867.098,495.305Z" style="fill:rgb(160,97,106);fill-rule:nonzero;"/>
    </g>
    <g transform="matrix(1,0,0,1,-158.035,-93.1272)">
        <path d="M811.76,481.639C808.43,482.169 804.713,482.638 802.556,485.23C799.822,488.518 800.986,493.418 802.29,497.491C802.583,499.426 804.264,500.871 806.221,500.871C806.458,500.871 806.695,500.85 806.928,500.808C809.965,501 813.197,501.151 815.85,499.661C817.052,498.867 818.21,498.007 819.317,497.085C821.273,495.783 823.424,494.799 825.689,494.171C829.853,492.861 834.139,491.978 838.481,491.535C840.192,491.457 841.886,491.158 843.521,490.647C845.174,490.114 846.488,488.838 847.069,487.201C847.684,485.025 846.419,482.807 845.207,480.899C843.809,478.399 841.995,476.157 839.843,474.269C836.556,471.716 834.93,473.676 831.62,475.309C825.354,478.402 818.66,480.535 811.76,481.639Z" style="fill:rgb(160,97,106);fill-rule:nonzero;"/>
    </g>
    <g transform="matrix(1,0,0,1,-158.035,-93.1272)">
        <path d="M803.057,484.638L781.912,478.388C779.376,477.505 776.726,476.992 774.044,476.864C771.328,476.752 768.692,477.818 766.817,479.786C765.177,481.71 764.708,484.341 764.299,486.836L763.425,492.173C762.842,494.863 762.677,497.627 762.935,500.368C763.22,503.144 764.772,505.638 767.136,507.12C770.062,508.717 773.648,507.937 776.914,507.269C783.51,505.921 790.22,505.201 796.952,505.12C799.483,505.09 802.138,505.122 804.374,503.936C807.007,502.375 808.703,499.607 808.897,496.552C809.313,491.993 807.793,486.038 803.057,484.638Z" style="fill:rgb(47,46,65);fill-rule:nonzero;"/>
    </g>
    <g transform="matrix(1,0,0,1,-158.035,-93.1272)">
        <path d="M875.41,479.192C878.151,478.712 880.57,477.154 883.197,476.234C886.894,474.94 890.9,474.94 894.817,474.954C896.257,474.823 897.705,475.112 898.984,475.788C900.709,476.937 901.151,479.236 901.445,481.288L903.215,493.668C903.688,495.978 903.737,498.355 903.359,500.682C902.84,502.976 901.276,505.188 898.999,505.78C896.234,506.499 893.524,504.732 890.913,503.572C884.388,500.672 876.803,501.413 869.999,499.246C868.684,498.982 867.544,498.167 866.869,497.007C866.636,496.32 866.553,495.59 866.625,494.868C866.742,490.889 865.903,485.455 867.101,481.652C868.178,478.231 872.35,479.192 875.41,479.192Z" style="fill:rgb(47,46,65);fill-rule:nonzero;"/>
    </g>
    <g transform="matrix(1,0,0,1,-158.035,-93.1272)">
        <path d="M920.157,419.706C924.382,418.647 928.762,418.348 933.092,418.823C936.55,419.204 940.113,420.166 942.638,422.559C945.711,425.473 946.698,429.978 946.781,434.211C946.916,442.642 944.118,450.863 938.868,457.461C937.586,459.13 936.061,460.598 934.344,461.815C932.493,462.974 930.519,463.925 928.459,464.652L882.771,482.672C870.752,487.413 858.69,492.167 846.154,495.293C845.767,495.479 845.343,495.577 844.913,495.577C843.795,495.577 842.775,494.919 842.313,493.9C838.311,488.183 834.952,482.04 832.3,475.583C832.12,475.363 832.021,475.087 832.021,474.802C832.021,474.279 832.353,473.811 832.846,473.637L865.161,455.07C867.53,453.834 869.739,452.312 871.738,450.538C873.134,449.185 874.278,447.593 875.115,445.837C875.785,444.438 875.847,441.136 876.703,440.102C877.54,439.09 880.406,439.009 881.729,438.611C883.596,438.039 885.424,437.348 887.202,436.542C894.431,433.308 900.868,428.609 907.797,424.823C911.684,422.601 915.837,420.881 920.157,419.706Z" style="fill:rgb(47,46,65);fill-rule:nonzero;"/>
    </g>
    <g transform="matrix(1,0,0,1,-158.035,-93.1272)">
        <path d="M901.838,433.572C896.286,437.742 889.097,441.575 883.595,445.855C881.717,447.315 850.411,464.916 849.969,467.253C855.102,468.118 887.803,445.242 892.481,442.959C897.16,440.676 901.308,437.457 905.417,434.262C906.465,433.447 910.903,430.999 907.897,430.09C906.203,429.577 903.088,432.739 901.838,433.572Z" style="fill-opacity:0.1;fill-rule:nonzero;"/>
    </g>
    <g transform="matrix(1,0,0,1,-158.035,-93.1272)">
        <path d="M863.637,297.693L814.902,297.693C810.807,297.693 807.437,301.063 807.437,305.158L807.437,307.892L806.907,307.892L806.907,314.006L807.437,314.006L807.437,318.285L806.907,318.285L806.907,321.954L807.437,321.954L807.437,367.065C807.437,371.16 810.807,374.53 814.902,374.53L863.637,374.53C867.732,374.53 871.102,371.16 871.102,367.065L871.102,305.158C871.102,301.063 867.732,297.693 863.637,297.693Z" style="fill:rgb(208,205,225);fill-rule:nonzero;"/>
    </g>
    <path d="M713.347,146.901L688.629,133.953L654.494,139.25L647.432,170.442L665.012,169.765L669.923,158.306L669.923,169.577L678.035,169.265L682.743,151.02L685.686,170.442L714.524,169.853L713.347,146.901Z" style="fill:rgb(47,46,65);fill-rule:nonzero;"/>
    <g transform="matrix(1,0,0,1,-158.035,-93.1272)">
        <path d="M787.423,415.666C788.541,417.567 790.131,419.148 792.037,420.256C794.57,421.413 797.501,421.335 799.968,420.044C802.402,418.739 804.394,416.742 805.692,414.305C808.379,409.561 808.935,403.885 808.6,398.444C808.265,393.002 807.103,387.645 806.589,382.217C806.215,378.272 806.184,374.303 806.154,370.341C806.061,369.507 806.236,368.666 806.653,367.939C807.371,367.224 808.301,366.76 809.303,366.615C814.725,365.004 818.324,359.923 820.904,354.89C822.626,351.529 824.125,347.855 823.792,344.093C823.46,340.331 820.756,336.541 816.999,336.157C813.901,335.841 811.041,337.808 808.807,339.977C803.172,345.48 799.548,352.722 798.522,360.532C798.032,364.357 798.172,368.286 797.132,371.999C794.91,379.928 787.96,384.789 784.496,391.924C780.679,399.785 782.786,408.71 787.423,415.666Z" style="fill:rgb(160,97,106);fill-rule:nonzero;"/>
    </g>
    <g transform="matrix(1,0,0,1,-158.035,-93.1272)">
        <path d="M889.704,385.375C888.107,389.088 885.075,392.002 881.3,393.449C878.978,394.382 876.415,394.539 873.995,393.896C871.565,393.222 869.584,391.45 868.644,389.11C868.274,387.946 868.071,386.736 868.041,385.515C867.694,380.168 867.828,374.658 869.77,369.664C870.519,367.738 871.529,365.911 872.12,363.931C872.701,361.644 872.999,359.294 873.005,356.934L873.644,342.345C873.75,341.286 873.676,340.217 873.427,339.182C872.79,337.071 870.817,335.699 869.007,334.44C864.635,331.4 860.315,327.852 858.197,322.967C857.469,321.496 857.208,319.837 857.45,318.214C858.047,315.317 860.971,313.442 863.86,312.81C864.867,312.59 865.893,312.479 866.923,312.479C873.868,312.479 879.863,317.523 881.051,324.365C881.337,326.012 881.333,327.693 881.501,329.356C881.856,332.883 882.975,336.283 883.676,339.757C885.401,348.316 884.507,357.164 886.213,365.722C887.64,372.877 893.019,377.546 889.704,385.375Z" style="fill:rgb(160,97,106);fill-rule:nonzero;"/>
    </g>
    <circle cx="681.886" cy="231.272" r="6.114" style="fill:rgb(0,124,166);"/>
    <circle cx="18.037" cy="432.969" r="18.035" style="fill:rgb(47,46,65);"/>
    <path d="M83.411,486.51L74.327,477.68L56.086,483.346L57.838,504.467L95.344,502.725L83.822,487.069L83.411,486.51Z" style="fill:rgb(251,190,190);fill-rule:nonzero;"/>
    <circle cx="63.543" cy="457.171" r="29.158" style="fill:rgb(251,190,190);"/>
    <g transform="matrix(1,0,0,1,-158.035,-93.1272)">
        <path d="M402.592,617.061C402.592,617.061 438.412,678.62 446.937,687.862C450.992,692.41 455.311,696.715 459.873,700.753C464.434,704.792 455.864,714.047 449.481,713.572C445.843,713.353 442.275,712.474 438.952,710.978C435.629,709.481 436.103,703.593 431.134,700.354C426.165,697.115 385.566,657.174 386.514,644.408C387.463,631.643 402.592,617.061 402.592,617.061Z" style="fill:rgb(47,46,65);fill-rule:nonzero;"/>
    </g>
    <g transform="matrix(1,0,0,1,-158.035,-93.1272)">
        <path d="M275.023,704.908C275.023,704.908 313.216,734.553 365.122,706.698L369.595,703.406C369.595,703.406 362.046,720.388 361.345,724.992C360.533,730.33 340.88,761.602 337.673,763.1C334.465,764.598 333.759,765.981 333.759,765.981L347.369,780.961L352.401,777.258C352.401,777.258 372.023,749.457 377.762,744.372C383.502,739.286 410.845,686.84 410.845,686.84C410.845,686.84 421.299,667.079 395.209,665.593C369.118,664.106 357.112,671.218 357.112,671.218L310.808,678.573L275.023,704.908Z" style="fill:rgb(47,46,65);fill-rule:nonzero;"/>
    </g>
    <g transform="matrix(1,0,0,1,-158.035,-93.1272)">
        <path d="M460.316,697.842L479.634,711.208C479.634,711.208 504.279,718.929 489.098,724.068C473.916,729.207 433.91,731.065 433.002,723.976C432.095,716.886 434.58,705.727 436.576,706.337C438.572,706.947 452.425,710.544 460.316,697.842Z" style="fill:rgb(47,46,65);fill-rule:nonzero;"/>
    </g>
    <g transform="matrix(1,0,0,1,-158.035,-93.1272)">
        <path d="M354.111,772.666L357.686,792.301C357.686,792.301 367.853,811.745 355.646,805.712C343.439,799.679 318.289,776.762 322.003,771.957C325.717,767.153 333.913,761.943 334.746,763.508C335.578,765.074 341.739,775.556 354.111,772.666Z" style="fill:rgb(47,46,65);fill-rule:nonzero;"/>
    </g>
    <g transform="matrix(1,0,0,1,-158.035,-93.1272)">
        <path d="M317.275,685.019C317.275,685.019 291.313,715.331 275.551,707.968C259.788,700.605 195.301,615.32 202.665,599.557C210.028,583.795 212.497,587.15 212.497,587.15L245.793,590.229L236.213,574.868C236.213,574.868 240.686,571.577 244.949,576.197C249.211,580.818 266.324,592.359 272.286,608.659C278.248,624.959 295.75,624.146 295.75,624.146L317.275,685.019Z" style="fill:white;fill-rule:nonzero;"/>
    </g>
    <path d="M264.085,529.388L219.08,577.161L178.764,505.981L217.091,459.674L264.085,529.388Z" style="fill:rgb(63,61,86);fill-rule:nonzero;"/>
    <path d="M260.688,528.871L220.04,570.852L183.206,506.16L216.986,463.631L260.688,528.871Z" style="fill:white;fill-rule:nonzero;"/>
    <path d="M216.875,575.336L219.08,577.161L217.666,579.925L154.735,598.655L154.14,596.499L157.003,593.538L216.875,575.336Z" style="fill:rgb(179,179,179);fill-rule:nonzero;"/>
    <path d="M219.639,576.75L154.472,597.125L114.747,522.062L178.764,505.981L219.639,576.75Z" style="fill:rgb(208,205,225);fill-rule:nonzero;"/>
    <path d="M214.733,566.569L211.937,568.626L180.907,514.748L184.114,513.25L214.733,566.569Z" style="fill:rgb(63,61,86);fill-rule:nonzero;"/>
    <path d="M208.318,569.565L180.751,577.785L149.457,522.377L176.729,516.099L208.318,569.565Z" style="fill:rgb(63,61,86);fill-rule:nonzero;"/>
    <g transform="matrix(1,0,0,1,-158.035,-93.1272)">
        <path d="M288.692,621.582L294.4,619.968C294.4,619.968 326.229,616.369 326.694,626.37C327.159,636.372 290.127,631.731 290.127,631.731L285.189,625.022L288.692,621.582Z" style="fill:rgb(251,190,190);fill-rule:nonzero;"/>
    </g>
    <g transform="matrix(1,0,0,1,-158.035,-93.1272)">
        <path d="M316.61,666.546L324.554,663.285C324.554,663.285 348.534,652.534 341.655,645.529C334.776,638.524 313.56,650.689 313.56,650.689L309.499,654.54L316.61,666.546Z" style="fill:rgb(251,190,190);fill-rule:nonzero;"/>
    </g>
    <g transform="matrix(1,0,0,1,-158.035,-93.1272)">
        <path d="M309.53,651.069C309.53,651.069 322.465,663.961 319.522,666.989C316.578,670.017 268.313,709.846 256.349,697.102C244.384,684.358 186.091,620.374 208.774,614.887C231.457,609.399 237.45,622.228 237.45,622.228L267.394,673.458L309.53,651.069Z" style="fill:white;fill-rule:nonzero;"/>
    </g>
    <path d="M112.763,518.781L134.011,525.986L133.664,541.326L111.192,538.901L112.763,518.781Z" style="fill:white;fill-rule:nonzero;"/>
    <path d="M131.914,565.887L109.021,579.287L82.865,539.06L108.113,572.197L131.914,565.887Z" style="fill-opacity:0.2;fill-rule:nonzero;"/>
    <circle cx="50.745" cy="448.718" r="34.712" style="fill:rgb(47,46,65);"/>
    <path d="M238.3,532.417L213.995,496.862L224.298,484.108L249.553,520.688L238.3,532.417Z" style="fill:rgb(0,124,166);fill-rule:nonzero;"/>
    <path d="M237.615,546.712L200.613,492.919L202.438,490.714L239.267,544.634L237.615,546.712Z" style="fill:rgb(230,230,230);fill-rule:nonzero;"/>
    <path d="M232.847,551.945L195.845,498.152L197.67,495.947L234.499,549.868L232.847,551.945Z" style="fill:rgb(230,230,230);fill-rule:nonzero;"/>
    <path d="M228.785,555.796L191.783,502.003L193.608,499.798L230.437,553.719L228.785,555.796Z" style="fill:rgb(230,230,230);fill-rule:nonzero;"/>
    <path d="M66.117,425.544L76.855,425.544C88.101,425.544 97.355,434.798 97.355,446.044L66.117,446.044L66.117,425.544Z" style="fill:rgb(47,46,65);fill-rule:nonzero;"/>
    <g transform="matrix(1,0,0,1,-158.035,-93.1272)">
        <path d="M372.067,505.626L370.12,505.481C370.045,506.493 369.991,507.511 369.926,508.527L361.189,508.234L370.354,525.41L380.648,508.886L371.878,508.592C371.941,507.604 371.993,506.612 372.067,505.626Z" style="fill:rgb(63,61,86);fill-rule:nonzero;"/>
    </g>
    <g transform="matrix(1,0,0,1,-158.035,-93.1272)">
        <path d="M423.317,365.625L424.869,366.81C427.197,363.761 429.628,360.717 432.096,357.763L430.597,356.511C428.111,359.488 425.662,362.554 423.317,365.625Z" style="fill:rgb(63,61,86);fill-rule:nonzero;"/>
    </g>
    <g transform="matrix(1,0,0,1,-158.035,-93.1272)">
        <path d="M438.272,347.728L439.713,349.044C442.303,346.208 444.993,343.391 447.705,340.67L446.323,339.292C443.59,342.032 440.881,344.87 438.272,347.728Z" style="fill:rgb(63,61,86);fill-rule:nonzero;"/>
    </g>
    <g transform="matrix(1,0,0,1,-158.035,-93.1272)">
        <path d="M454.736,331.219L456.056,332.658C458.889,330.056 461.814,327.487 464.749,325.021L463.493,323.526C460.536,326.011 457.59,328.599 454.736,331.219Z" style="fill:rgb(63,61,86);fill-rule:nonzero;"/>
    </g>
    <g transform="matrix(1,0,0,1,-158.035,-93.1272)">
        <path d="M409.991,384.779L411.641,385.822C413.693,382.575 415.848,379.328 418.045,376.169L416.443,375.054C414.229,378.236 412.058,381.508 409.991,384.779Z" style="fill:rgb(63,61,86);fill-rule:nonzero;"/>
    </g>
    <g transform="matrix(1,0,0,1,-158.035,-93.1272)">
        <path d="M472.579,316.227L473.768,317.775C476.818,315.433 479.956,313.132 483.095,310.935L481.976,309.336C478.813,311.549 475.652,313.867 472.579,316.227Z" style="fill:rgb(63,61,86);fill-rule:nonzero;"/>
    </g>
    <g transform="matrix(1,0,0,1,-158.035,-93.1272)">
        <path d="M398.406,405.043L400.142,405.935C401.901,402.515 403.761,399.088 405.67,395.75L403.975,394.78C402.051,398.143 400.178,401.596 398.406,405.043Z" style="fill:rgb(63,61,86);fill-rule:nonzero;"/>
    </g>
    <g transform="matrix(1,0,0,1,-158.035,-93.1272)">
        <path d="M379.574,459.997L377.684,459.511C376.719,463.257 375.826,467.076 375.029,470.865L376.94,471.267C377.731,467.507 378.617,463.715 379.574,459.997Z" style="fill:rgb(63,61,86);fill-rule:nonzero;"/>
    </g>
    <g transform="matrix(1,0,0,1,-158.035,-93.1272)">
        <path d="M491.665,302.867L492.712,304.515C495.948,302.456 499.275,300.441 502.601,298.526L501.627,296.834C498.276,298.763 494.925,300.793 491.665,302.867Z" style="fill:rgb(63,61,86);fill-rule:nonzero;"/>
    </g>
    <g transform="matrix(1,0,0,1,-158.035,-93.1272)">
        <path d="M374.808,482.643L372.882,482.326C372.255,486.138 371.704,490.021 371.245,493.87L373.184,494.101C373.64,490.282 374.186,486.426 374.808,482.643Z" style="fill:rgb(63,61,86);fill-rule:nonzero;"/>
    </g>
    <g transform="matrix(1,0,0,1,-158.035,-93.1272)">
        <path d="M388.661,426.266L390.469,427.001C391.917,423.438 393.465,419.858 395.072,416.36L393.298,415.544C391.679,419.069 390.119,422.677 388.661,426.266Z" style="fill:rgb(63,61,86);fill-rule:nonzero;"/>
    </g>
    <g transform="matrix(1,0,0,1,-158.035,-93.1272)">
        <path d="M380.841,448.286L382.708,448.857C383.834,445.173 385.058,441.466 386.345,437.84L384.505,437.187C383.208,440.84 381.975,444.574 380.841,448.286Z" style="fill:rgb(63,61,86);fill-rule:nonzero;"/>
    </g>
    <g transform="matrix(1,0,0,1,-158.035,-93.1272)">
        <path d="M623.732,263.954C627.56,263.821 631.457,263.768 635.312,263.805L635.329,261.852C631.447,261.816 627.52,261.869 623.666,262.002L623.732,263.954Z" style="fill:rgb(63,61,86);fill-rule:nonzero;"/>
    </g>
    <g transform="matrix(1,0,0,1,-158.035,-93.1272)">
        <path d="M511.845,291.25L512.743,292.983C516.152,291.216 519.642,289.505 523.117,287.895L522.296,286.124C518.796,287.745 515.279,289.47 511.845,291.25Z" style="fill:rgb(63,61,86);fill-rule:nonzero;"/>
    </g>
    <g transform="matrix(1,0,0,1,-158.035,-93.1272)">
        <path d="M669.93,266.388C673.739,266.927 677.582,267.558 681.355,268.264L681.713,266.345C677.913,265.634 674.041,264.998 670.203,264.455L669.93,266.388Z" style="fill:rgb(63,61,86);fill-rule:nonzero;"/>
    </g>
    <g transform="matrix(1,0,0,1,-158.035,-93.1272)">
        <path d="M692.685,270.645C696.424,271.519 700.197,272.489 703.898,273.53L704.426,271.65C700.698,270.602 696.897,269.624 693.13,268.745L692.685,270.645Z" style="fill:rgb(63,61,86);fill-rule:nonzero;"/>
    </g>
    <g transform="matrix(1,0,0,1,-158.035,-93.1272)">
        <path d="M714.969,276.91C718.614,278.113 722.285,279.415 725.879,280.781L726.573,278.957C722.952,277.58 719.254,276.268 715.581,275.056L714.969,276.91Z" style="fill:rgb(63,61,86);fill-rule:nonzero;"/>
    </g>
    <g transform="matrix(1,0,0,1,-158.035,-93.1272)">
        <path d="M646.886,264.159C650.731,264.361 654.615,264.651 658.433,265.02L658.622,263.077C654.776,262.704 650.861,262.413 646.989,262.21L646.886,264.159Z" style="fill:rgb(63,61,86);fill-rule:nonzero;"/>
    </g>
    <g transform="matrix(1,0,0,1,-158.035,-93.1272)">
        <path d="M600.423,263.829L600.662,265.767C604.466,265.299 608.34,264.908 612.176,264.607L612.023,262.661C608.158,262.964 604.256,263.357 600.423,263.829Z" style="fill:rgb(63,61,86);fill-rule:nonzero;"/>
    </g>
    <g transform="matrix(1,0,0,1,-158.035,-93.1272)">
        <path d="M554.878,273.596L555.455,275.461C559.124,274.325 562.868,273.256 566.584,272.285L566.09,270.396C562.347,271.375 558.574,272.451 554.878,273.596Z" style="fill:rgb(63,61,86);fill-rule:nonzero;"/>
    </g>
    <g transform="matrix(1,0,0,1,-158.035,-93.1272)">
        <path d="M532.961,281.468L533.702,283.275C537.251,281.818 540.877,280.424 544.479,279.13L543.819,277.293C540.19,278.596 536.537,280.001 532.961,281.468Z" style="fill:rgb(63,61,86);fill-rule:nonzero;"/>
    </g>
    <g transform="matrix(1,0,0,1,-158.035,-93.1272)">
        <path d="M577.434,267.698L577.843,269.608C581.594,268.804 585.418,268.072 589.21,267.434L588.886,265.508C585.066,266.152 581.212,266.888 577.434,267.698Z" style="fill:rgb(63,61,86);fill-rule:nonzero;"/>
    </g>
    <g transform="matrix(1,0,0,1,-158.035,-93.1272)">
        <path d="M755.01,292.853L744.1,276.729L740.263,284.626C739.335,284.211 738.411,283.787 737.484,283.386L736.708,285.178C737.614,285.57 738.509,285.981 739.41,286.383L735.592,294.242L755.01,292.853Z" style="fill:rgb(63,61,86);fill-rule:nonzero;"/>
    </g>
</svg>
