<?xml version="1.0" encoding="UTF-8" standalone="no"?><!DOCTYPE svg PUBLIC "-//W3C//DTD SVG 1.1//EN" "http://www.w3.org/Graphics/SVG/1.1/DTD/svg11.dtd"><svg width="100%" height="100%" viewBox="0 0 884 714" version="1.1" xmlns="http://www.w3.org/2000/svg" xmlns:xlink="http://www.w3.org/1999/xlink" xml:space="preserve" xmlns:serif="http://www.serif.com/" style="fill-rule:evenodd;clip-rule:evenodd;stroke-linejoin:round;stroke-miterlimit:2;"><g><path d="M581.625,399.614c-18.647,11.183 -51.869,25.195 -85.819,10.795l-21.946,-9.309l43.978,-49.299c-35.034,-38.628 -54.456,-88.953 -54.456,-141.102c0,-115.221 94.813,-210.033 210.034,-210.033c115.221,-0 210.039,94.812 210.039,210.033c0,115.221 -94.818,210.034 -210.039,210.034c-31.8,-0 -63.188,-7.222 -91.791,-21.119Zm-84.262,-189.247c-0.196,48.66 19.966,95.25 55.572,128.418l12.13,11.399l-27.673,31.021c14.414,-2.924 26.969,-10.722 33.336,-15.251l8.735,-6.216l9.394,5.162c25.968,14.218 55.102,21.67 84.706,21.667c97.157,-0 176.202,-79.043 176.202,-176.2c0,-97.157 -79.045,-176.201 -176.202,-176.201c-97.157,-0 -176.2,79.044 -176.2,176.201Z" style="fill:#5a5775;fill-rule:nonzero;"/></g><g><path d="M480.28,210.367c0,-106.748 86.536,-193.284 193.283,-193.284c106.748,-0 193.282,86.536 193.282,193.284c0,106.747 -86.534,193.283 -193.282,193.283c-32.486,0.047 -64.461,-8.133 -92.932,-23.777c-13.361,9.507 -45.955,28.468 -78.154,14.809l38.759,-43.448c-38.928,-36.474 -61.017,-87.521 -60.956,-140.867Z" style="fill:#007ca6;fill-rule:nonzero;"/></g><g><path d="M833.92,210.785c0,-100.989 -77.457,-183.873 -176.2,-192.523c5.63,-0.493 11.325,-0.76 17.083,-0.76c106.747,-0 193.282,86.536 193.282,193.283c-0,106.748 -86.535,193.284 -193.282,193.284c-5.75,-0 -11.435,-0.271 -17.056,-0.763c98.73,-8.662 176.173,-91.541 176.173,-192.521Z" style="fill-opacity:0.1;fill-rule:nonzero;"/></g><g><path d="M228.163,668.125l-0.099,-0c-115.527,-0 -210.59,-95.064 -210.59,-210.59c-0,-115.527 95.063,-210.59 210.59,-210.59c115.526,-0 210.59,95.063 210.59,210.59c0,52.372 -19.537,102.906 -54.766,141.658l43.978,49.299l-21.946,9.309c-33.95,14.4 -67.172,0.388 -85.819,-10.795c-28.657,13.892 -60.092,21.113 -91.938,21.119Zm0,-386.566c-97.157,-0 -176.2,79.043 -176.2,176.2c0,97.157 79.043,176.2 176.2,176.2c29.605,0.003 58.739,-7.449 84.706,-21.667l9.395,-5.162l8.735,6.216c6.366,4.529 18.921,12.327 33.336,15.251l-27.674,-31.021l12.131,-11.399c35.605,-33.168 55.767,-79.758 55.571,-128.418c0,-97.157 -79.043,-176.2 -176.2,-176.2Z" style="fill:#5a5775;fill-rule:nonzero;"/></g><g><path d="M421.446,457.759c0,-106.748 -86.536,-193.284 -193.283,-193.284c-106.748,-0 -193.283,86.536 -193.283,193.284c0,106.747 86.535,193.283 193.283,193.283c32.486,0.047 64.461,-8.133 92.932,-23.777c13.361,9.507 45.955,28.468 78.154,14.809l-38.759,-43.448c38.928,-36.474 61.017,-87.522 60.956,-140.867Z" style="fill:#007ca6;fill-rule:nonzero;"/></g><g><path d="M69.046,456.782c-0,-100.989 77.456,-183.873 176.2,-192.523c-5.63,-0.493 -11.325,-0.76 -17.083,-0.76c-106.748,-0 -193.283,86.536 -193.283,193.283c-0,106.748 86.535,193.284 193.283,193.284c5.749,-0 11.434,-0.271 17.056,-0.763c-98.731,-8.662 -176.173,-91.541 -176.173,-192.521Z" style="fill-opacity:0.1;fill-rule:nonzero;"/></g><g><path d="M718.938,148.961c-12.646,-21.369 -37.665,-22.364 -37.665,-22.364c0,-0 -24.381,-3.118 -40.02,29.426c-14.578,30.334 -34.696,59.621 -3.239,66.722l5.682,-17.685l3.519,19.002c4.479,0.322 8.972,0.399 13.459,0.23c33.688,-1.088 65.771,0.318 64.738,-11.771c-1.373,-16.07 5.694,-43 -6.474,-63.56Z" style="fill:#2f2e41;fill-rule:nonzero;"/></g><g><path d="M636.218,336.092c-0.372,2.35 -0.911,4.671 -1.614,6.944c-0.791,2.226 -2.013,4.284 -2.736,6.532c-2.307,7.166 0.891,15.156 5.997,20.688c4.428,4.777 10.146,8.172 16.46,9.773c4.649,0.995 9.39,1.493 14.144,1.487c13.147,0.445 26.631,0.844 39.088,-3.381c3.936,-1.367 7.737,-3.094 11.356,-5.159c1.143,-0.544 2.15,-1.337 2.947,-2.32c0.835,-1.44 1.206,-3.102 1.063,-4.76c-0.028,-5.573 -1.157,-11.118 -0.889,-16.684c0.149,-3.084 0.726,-6.165 0.442,-9.239c-0.804,-7.136 -6.036,-13.032 -13.025,-14.68c-3.534,-0.759 -7.199,-0.346 -10.797,-0c-9.339,0.898 -18.717,1.317 -28.099,1.257c-9.586,-0.061 -19.112,-1.525 -28.65,-1.677c-2.82,-0.046 -2.763,0.824 -3.661,3.554c-0.828,2.512 -1.504,5.072 -2.026,7.665Z" style="fill:#2f2e41;fill-rule:nonzero;"/></g><g><path d="M663.421,198.478c-0.461,2.412 -0.959,4.913 -2.408,6.895c-1.668,2.28 -4.387,3.583 -6.181,5.766c-2.7,3.285 -2.855,7.907 -2.866,12.16c-0.011,3.917 0.069,8.096 2.253,11.348c1.555,2.02 3.485,3.721 5.684,5.011c8.193,5.521 17.046,11.141 26.924,11.323c4.092,0.076 8.481,-0.981 11.174,-4.064c1.162,-1.448 2.077,-3.079 2.705,-4.827c2.526,-6.226 4.057,-12.81 4.537,-19.512c0.364,-3.15 0.07,-6.342 -0.864,-9.373c-1.2,-3.346 -3.626,-6.099 -5.23,-9.271c-1.895,-3.771 -2.588,-8.035 -1.986,-12.212c0.08,-0.295 0.055,-0.607 -0.07,-0.885c-0.267,-0.302 -0.66,-0.461 -1.062,-0.431l-19.586,-1.41c-1.824,-0.091 -3.641,-0.298 -5.438,-0.622c-1.056,-0.215 -3.845,-1.714 -4.851,-1.316c-1.864,0.739 -2.353,9.42 -2.735,11.42Z" style="fill:#a0616a;fill-rule:nonzero;"/></g><g><path d="M663.421,199.09c-0.461,2.412 -0.959,4.912 -2.408,6.894c-1.668,2.281 -4.387,3.584 -6.181,5.766c-2.7,3.285 -2.855,7.908 -2.866,12.16c-0.011,3.918 0.069,8.096 2.253,11.348c1.555,2.02 3.485,3.722 5.684,5.011c8.193,5.521 17.046,11.141 26.924,11.324c4.092,0.075 8.481,-0.982 11.174,-4.065c1.162,-1.448 2.077,-3.079 2.705,-4.827c2.526,-6.225 4.057,-12.81 4.537,-19.512c0.364,-3.15 0.07,-6.342 -0.864,-9.373c-1.2,-3.345 -3.626,-6.098 -5.23,-9.27c-1.895,-3.772 -2.588,-8.035 -1.986,-12.213c0.08,-0.294 0.055,-0.607 -0.07,-0.885c-0.267,-0.302 -0.66,-0.461 -1.062,-0.431l-19.586,-1.41c-1.824,-0.09 -3.641,-0.298 -5.438,-0.622c-1.056,-0.214 -3.845,-1.714 -4.851,-1.315c-1.864,0.738 -2.353,9.42 -2.735,11.42Z" style="fill-opacity:0.1;fill-rule:nonzero;"/></g><circle cx="682.151" cy="172.37" r="28.735" style="fill:#a0616a;"/><g><path d="M667.451,236.729c1.419,1.644 3.131,3.011 5.047,4.033c1.998,0.826 4.144,1.235 6.306,1.201c5.179,0.146 10.795,-0.804 14.398,-4.527c4.645,-4.801 4.492,-12.543 8.132,-18.143c0.294,-0.508 0.694,-0.946 1.174,-1.283c0.61,-0.333 1.3,-0.492 1.995,-0.459c4.598,-0.043 8.604,2.939 12.218,5.781c1.702,1.171 3.162,2.658 4.301,4.381c0.715,1.395 1.204,2.894 1.45,4.441c1.794,8.757 2.375,17.711 2.952,26.631c0.318,4.927 0.637,9.859 0.613,14.796c-0.078,16.266 -3.858,32.26 -7.618,48.086c-0.485,2.039 -1.148,4.319 -3.002,5.295c-0.827,0.372 -1.714,0.589 -2.619,0.64c-10.769,1.264 -21.56,2.531 -32.401,2.698c-4.231,0.065 -8.46,-0.038 -12.687,-0.308c-0.727,-0.009 -1.449,-0.135 -2.137,-0.372c-0.934,-0.449 -1.736,-1.13 -2.33,-1.979c-5.864,-7.389 -6.21,-17.606 -6.173,-27.039c0.092,-23.065 0.916,-46.111 2.472,-69.139c0.129,-1.9 0.157,-4.209 -1.213,-5.704c2.667,3.952 5.723,7.627 9.122,10.97Z" style="fill:#fff;fill-rule:nonzero;"/></g><g><path d="M661.364,203.55c-0.97,1.757 -8.125,6.12 -9.507,7.576c-7.718,8.135 -21.804,7.83 -28.863,16.543c-2.483,3.066 -3.773,6.918 -4.722,10.747c-1.342,5.416 -2.059,11.323 0.189,16.43c2.164,4.914 6.718,8.312 9.81,12.701c3.395,4.82 4.921,10.672 6.384,16.383c1.08,4.217 2.169,8.538 1.749,12.87c-0.479,4.926 -2.862,9.437 -4.27,14.182c-1.407,4.745 -1.65,10.396 1.604,14.125c2.391,2.739 6.141,3.825 9.725,4.436c4.591,0.69 9.22,1.093 13.861,1.207c4.097,0.181 8.614,0.216 11.764,-2.411c2.485,-2.072 3.565,-5.436 3.705,-8.669c0.14,-3.233 -0.533,-6.437 -0.954,-9.646c-0.437,-3.326 -0.605,-6.681 -0.745,-10.033c-0.63,-15.039 -0.716,-30.088 -0.258,-45.147c0.231,-3.129 0.077,-6.276 -0.457,-9.368c-0.879,-4.028 -3.056,-7.628 -4.873,-11.329c-3.63,-6.971 -5.274,-14.807 -4.753,-22.649c0.55,-8.059 4.065,-14.199 0.611,-7.948Z" style="fill:#fff;fill-rule:nonzero;"/></g><g><path d="M701.716,204.162c1.478,1.519 6.501,2.02 8.381,2.998c1.769,0.817 3.615,1.456 5.51,1.908c6.86,1.979 13.384,4.973 19.357,8.884c1.241,0.726 2.338,1.674 3.237,2.796c0.946,1.54 1.557,3.263 1.79,5.056c0.921,4.561 1.846,9.177 1.639,13.826c-0.219,4.934 -1.706,9.713 -3.18,14.426l-5.509,17.614c-4.113,13.147 -8.251,26.424 -9.408,40.151c-0.641,7.607 -0.356,15.265 0.847,22.804c0.229,0.741 0.128,1.547 -0.278,2.208c-0.363,0.359 -0.84,0.579 -1.349,0.621c-2.659,0.416 -5.232,-0.94 -7.641,-2.139c-7.364,-3.665 -15.222,-6.236 -23.328,-7.633c3.167,-4.578 5.611,-9.615 7.246,-14.936c0.928,-3.379 1.659,-6.809 2.189,-10.272l2.563,-14.823c1.042,-5.418 1.776,-10.891 2.198,-16.392c0.194,-2.065 0.074,-4.147 -0.357,-6.175c-0.59,-1.93 -1.375,-3.796 -2.34,-5.569c-4.224,-8.786 -6.206,-18.812 -4.544,-28.418c0.727,-4.204 2.141,-8.413 1.551,-12.638c-0.566,-4.063 0.022,-7.22 -1.02,-11.24c-4.28,-16.508 -0.335,-5.916 2.446,-3.057Z" style="fill:#fff;fill-rule:nonzero;"/></g><g><path d="M622.921,241.56c-1.925,3.996 -5.145,7.4 -6.24,11.698c-0.427,2.009 -0.609,4.062 -0.544,6.114c-0.19,3.094 0.116,6.197 0.907,9.194c0.611,1.895 1.606,3.643 2.323,5.502c0.999,2.595 1.444,5.372 1.307,8.15c-0.194,3.849 -1.501,7.585 -1.604,11.438c-0.16,6.058 2.642,11.754 5.376,17.162c1.922,-4.76 6.566,-7.892 11.699,-7.892c2.346,-0 4.645,0.654 6.64,1.888c0.626,-0.768 0.923,-1.754 0.827,-2.741c0.202,-7.029 0.397,-14.058 0.584,-21.087c0.296,-10.871 0.578,-21.887 -1.922,-32.47c-1.129,-4.779 -2.886,-9.539 -6.107,-13.245c-1.696,-1.952 -7.453,-7.092 -10.237,-4.906c-1.251,0.983 -0.959,3.66 -1.157,5.015c-0.3,2.142 -0.924,4.226 -1.852,6.18Z" style="fill:#fff;fill-rule:nonzero;"/></g><g><path d="M742.193,230.045c0.775,2.881 1.106,5.864 0.984,8.845c0.037,6.076 -0.044,12.151 -0.242,18.226c0.03,3.115 -0.368,6.22 -1.184,9.227c-0.622,1.956 -1.581,3.789 -2.224,5.738c-1.924,5.841 -0.873,12.176 -0.708,18.323c0.117,1.989 -0.053,3.985 -0.504,5.927c-1.016,3.811 -3.745,6.89 -5.65,10.343c-1.81,3.28 -2.901,6.956 -5.062,10.015c-2.161,3.06 -5.902,5.484 -9.528,4.545c-2.748,-0.712 -4.7,-3.144 -6.05,-5.64c-2.946,-5.487 -3.954,-11.812 -2.86,-17.943c1.356,-7.461 5.738,-14.08 7.319,-21.497c2.17,-10.184 -1.128,-20.694 -1.03,-31.107c-0.045,-1.633 0.176,-3.261 0.655,-4.822c0.829,-2.379 2.61,-4.278 4.255,-6.186c2.055,-2.384 3.965,-4.89 5.718,-7.504c1.177,-1.756 2.777,-6.273 4.865,-6.649c4.661,-0.839 10.09,6.558 11.246,10.159Z" style="fill:#fff;fill-rule:nonzero;"/></g><g><path d="M598.735,331.562c-2.578,-0.647 -5.234,-0.93 -7.89,-0.838c-10.377,0.573 -18.605,9.268 -18.605,19.661c0,1.191 0.108,2.38 0.323,3.552c0.644,2.978 1.696,5.853 3.126,8.543c2.093,4.246 4.602,8.483 8.476,11.204c2.334,1.496 4.847,2.692 7.48,3.56l20.401,7.686c3.001,1.13 6.003,2.261 9.034,3.31c15.227,5.263 31.102,8.419 47.184,9.38c4.894,0.458 9.828,0.208 14.651,-0.742c1.165,-0.152 2.234,-0.73 3,-1.621c0.389,-0.678 0.618,-1.435 0.671,-2.215l1.255,-8.788c0.281,-1.224 0.244,-2.499 -0.107,-3.705c-0.575,-1.477 -2.016,-2.406 -3.391,-3.195c-13.412,-7.704 -29.072,-11.954 -40.362,-22.526c-2.657,-2.489 -4.881,-6.435 -8.111,-8.125c-3.661,-1.918 -7.974,-3.012 -11.758,-4.779c-8.275,-3.862 -16.41,-8.3 -25.377,-10.362Z" style="fill:#2f2e41;fill-rule:nonzero;"/></g><g><path d="M619.102,343.411c7.211,2.259 37.655,17.913 42.874,23.379c-0.7,0.252 -24.432,-13.048 -25.144,-13.262c-6.527,-1.793 -12.92,-4.045 -19.129,-6.741c-1.237,-0.572 -8.034,-3.26 -7.726,-4.821c0.347,-1.76 7.845,1.043 9.125,1.445Z" style="fill-opacity:0.1;fill-rule:nonzero;"/></g><g><path d="M709.063,402.178c0.409,0.03 0.815,-0.09 1.143,-0.337c0.29,-0.372 0.419,-0.847 0.357,-1.315l-0.033,-11.973c-3.443,-1.64 -7.295,-2.166 -11.075,-2.671l-17.637,-2.358c0.405,0.054 -2.758,7.597 -2.273,8.604c0.855,1.774 7.387,3.347 9.231,4.185c6.409,2.913 13.069,6.116 20.287,5.865Z" style="fill:#a0616a;fill-rule:nonzero;"/></g><g><path d="M653.725,388.512c-3.33,0.53 -7.047,0.999 -9.204,3.591c-2.734,3.288 -1.57,8.188 -0.266,12.261c0.293,1.935 1.974,3.38 3.931,3.38c0.237,-0 0.474,-0.021 0.707,-0.063c3.037,0.192 6.269,0.343 8.922,-1.147c1.202,-0.794 2.36,-1.654 3.467,-2.576c1.956,-1.302 4.107,-2.286 6.372,-2.914c4.164,-1.31 8.45,-2.193 12.792,-2.636c1.711,-0.078 3.405,-0.377 5.04,-0.888c1.653,-0.533 2.967,-1.809 3.548,-3.446c0.615,-2.176 -0.65,-4.394 -1.862,-6.302c-1.398,-2.5 -3.212,-4.742 -5.364,-6.63c-3.287,-2.553 -4.913,-0.593 -8.223,1.04c-6.266,3.093 -12.96,5.226 -19.86,6.33Z" style="fill:#a0616a;fill-rule:nonzero;"/></g><g><path d="M645.022,391.511l-21.145,-6.25c-2.536,-0.883 -5.186,-1.396 -7.868,-1.524c-2.716,-0.112 -5.352,0.954 -7.227,2.922c-1.64,1.924 -2.109,4.555 -2.518,7.05l-0.874,5.337c-0.583,2.69 -0.748,5.454 -0.49,8.195c0.285,2.776 1.837,5.27 4.201,6.752c2.926,1.597 6.512,0.817 9.778,0.149c6.596,-1.348 13.306,-2.068 20.038,-2.149c2.531,-0.03 5.186,0.002 7.422,-1.184c2.633,-1.561 4.329,-4.329 4.523,-7.384c0.416,-4.559 -1.104,-10.514 -5.84,-11.914Z" style="fill:#2f2e41;fill-rule:nonzero;"/></g><g><path d="M717.375,386.065c2.741,-0.48 5.16,-2.038 7.787,-2.958c3.697,-1.294 7.703,-1.294 11.62,-1.28c1.44,-0.131 2.888,0.158 4.167,0.834c1.725,1.149 2.167,3.448 2.461,5.5l1.77,12.38c0.473,2.31 0.522,4.687 0.144,7.014c-0.519,2.294 -2.083,4.506 -4.36,5.098c-2.765,0.719 -5.475,-1.048 -8.086,-2.208c-6.525,-2.9 -14.11,-2.159 -20.914,-4.326c-1.315,-0.264 -2.455,-1.079 -3.13,-2.239c-0.233,-0.687 -0.316,-1.417 -0.244,-2.139c0.117,-3.979 -0.722,-9.413 0.476,-13.216c1.077,-3.421 5.249,-2.46 8.309,-2.46Z" style="fill:#2f2e41;fill-rule:nonzero;"/></g><g><path d="M762.122,326.579c4.225,-1.059 8.605,-1.358 12.935,-0.883c3.458,0.381 7.021,1.343 9.546,3.736c3.073,2.914 4.06,7.419 4.143,11.652c0.135,8.431 -2.663,16.652 -7.913,23.25c-1.282,1.669 -2.807,3.137 -4.524,4.354c-1.851,1.159 -3.825,2.11 -5.885,2.837l-45.688,18.02c-12.019,4.741 -24.081,9.495 -36.617,12.621c-0.387,0.186 -0.811,0.284 -1.241,0.284c-1.118,-0 -2.138,-0.658 -2.6,-1.677c-4.002,-5.717 -7.361,-11.86 -10.013,-18.317c-0.18,-0.22 -0.279,-0.496 -0.279,-0.781c-0,-0.523 0.332,-0.991 0.825,-1.165l32.315,-18.567c2.369,-1.236 4.578,-2.758 6.577,-4.532c1.396,-1.353 2.54,-2.945 3.377,-4.701c0.67,-1.399 0.732,-4.701 1.588,-5.735c0.837,-1.012 3.703,-1.093 5.026,-1.491c1.867,-0.572 3.695,-1.263 5.473,-2.069c7.229,-3.234 13.666,-7.933 20.595,-11.719c3.887,-2.222 8.04,-3.942 12.36,-5.117Z" style="fill:#2f2e41;fill-rule:nonzero;"/></g><g><path d="M743.803,340.445c-5.552,4.17 -12.741,8.003 -18.243,12.283c-1.878,1.46 -33.184,19.061 -33.626,21.398c5.133,0.865 37.834,-22.011 42.512,-24.294c4.679,-2.283 8.827,-5.502 12.936,-8.697c1.048,-0.815 5.486,-3.263 2.48,-4.172c-1.694,-0.513 -4.809,2.649 -6.059,3.482Z" style="fill-opacity:0.1;fill-rule:nonzero;"/></g><g><path d="M705.602,204.566l-48.735,-0c-4.095,-0 -7.465,3.37 -7.465,7.465l0,2.734l-0.53,-0l0,6.114l0.53,-0l0,4.279l-0.53,-0l0,3.669l0.53,-0l0,45.111c0,4.095 3.37,7.465 7.465,7.465l48.735,-0c4.095,-0 7.465,-3.37 7.465,-7.465l0,-61.907c0,-4.095 -3.37,-7.465 -7.465,-7.465Z" style="fill:#d0cde1;fill-rule:nonzero;"/></g><path d="M713.347,146.901l-24.718,-12.948l-34.135,5.297l-7.062,31.192l17.58,-0.677l4.911,-11.459l0,11.271l8.112,-0.312l4.708,-18.245l2.943,19.422l28.838,-0.589l-1.177,-22.952Z" style="fill:#2f2e41;fill-rule:nonzero;"/><g><path d="M629.388,322.539c1.118,1.901 2.708,3.482 4.614,4.59c2.533,1.157 5.464,1.079 7.931,-0.212c2.434,-1.305 4.426,-3.302 5.724,-5.739c2.687,-4.744 3.243,-10.42 2.908,-15.861c-0.335,-5.442 -1.497,-10.799 -2.011,-16.227c-0.374,-3.945 -0.405,-7.914 -0.435,-11.876c-0.093,-0.834 0.082,-1.675 0.499,-2.402c0.718,-0.715 1.648,-1.179 2.65,-1.324c5.422,-1.611 9.021,-6.692 11.601,-11.725c1.722,-3.361 3.221,-7.035 2.888,-10.797c-0.332,-3.762 -3.036,-7.552 -6.793,-7.936c-3.098,-0.316 -5.958,1.651 -8.192,3.82c-5.635,5.503 -9.259,12.745 -10.285,20.555c-0.49,3.825 -0.35,7.754 -1.39,11.467c-2.222,7.929 -9.172,12.79 -12.636,19.925c-3.817,7.861 -1.71,16.786 2.927,23.742Z" style="fill:#a0616a;fill-rule:nonzero;"/></g><g><path d="M731.669,292.248c-1.597,3.713 -4.629,6.627 -8.404,8.074c-2.322,0.933 -4.885,1.09 -7.305,0.447c-2.43,-0.674 -4.411,-2.446 -5.351,-4.786c-0.37,-1.164 -0.573,-2.374 -0.603,-3.595c-0.347,-5.347 -0.213,-10.857 1.729,-15.851c0.749,-1.926 1.759,-3.753 2.35,-5.733c0.581,-2.287 0.879,-4.637 0.885,-6.997l0.639,-14.589c0.106,-1.059 0.032,-2.128 -0.217,-3.163c-0.637,-2.111 -2.61,-3.483 -4.42,-4.742c-4.372,-3.04 -8.692,-6.588 -10.81,-11.473c-0.728,-1.471 -0.989,-3.13 -0.747,-4.753c0.597,-2.897 3.521,-4.772 6.41,-5.404c1.007,-0.22 2.033,-0.331 3.063,-0.331c6.945,-0 12.94,5.044 14.128,11.886c0.286,1.647 0.282,3.328 0.45,4.991c0.355,3.527 1.474,6.927 2.175,10.401c1.725,8.559 0.831,17.407 2.537,25.965c1.427,7.155 6.806,11.824 3.491,19.653Z" style="fill:#a0616a;fill-rule:nonzero;"/></g><circle cx="681.886" cy="231.272" r="6.114" style="fill:#007ca6;"/><circle cx="18.037" cy="432.969" r="18.035" style="fill:#2f2e41;"/><path d="M83.411,486.51l-9.084,-8.83l-18.241,5.666l1.752,21.121l37.506,-1.742l-11.522,-15.656l-0.411,-0.559Z" style="fill:#fbbebe;fill-rule:nonzero;"/><circle cx="63.543" cy="457.171" r="29.158" style="fill:#fbbebe;"/><g><path d="M244.557,523.934c-0,-0 35.82,61.559 44.345,70.801c4.055,4.548 8.374,8.853 12.936,12.891c4.561,4.039 -4.009,13.294 -10.392,12.819c-3.638,-0.219 -7.206,-1.098 -10.529,-2.594c-3.323,-1.497 -2.849,-7.385 -7.818,-10.624c-4.969,-3.239 -45.568,-43.18 -44.62,-55.946c0.949,-12.765 16.078,-27.347 16.078,-27.347Z" style="fill:#2f2e41;fill-rule:nonzero;"/></g><g><path d="M116.988,611.781c0,-0 38.193,29.645 90.099,1.79l4.473,-3.292c0,-0 -7.549,16.982 -8.25,21.586c-0.812,5.338 -20.465,36.61 -23.672,38.108c-3.208,1.498 -3.914,2.881 -3.914,2.881l13.61,14.98l5.032,-3.703c0,-0 19.622,-27.801 25.361,-32.886c5.74,-5.086 33.083,-57.532 33.083,-57.532c0,-0 10.454,-19.761 -15.636,-21.247c-26.091,-1.487 -38.097,5.625 -38.097,5.625l-46.304,7.355l-35.785,26.335Z" style="fill:#2f2e41;fill-rule:nonzero;"/></g><g><path d="M302.281,604.715l19.318,13.366c0,-0 24.645,7.721 9.464,12.86c-15.182,5.139 -55.188,6.997 -56.096,-0.092c-0.907,-7.09 1.578,-18.249 3.574,-17.639c1.996,0.61 15.849,4.207 23.74,-8.495Z" style="fill:#2f2e41;fill-rule:nonzero;"/></g><g><path d="M196.076,679.539l3.575,19.635c0,-0 10.167,19.444 -2.04,13.411c-12.207,-6.033 -37.357,-28.95 -33.643,-33.755c3.714,-4.804 11.91,-10.014 12.743,-8.449c0.832,1.566 6.993,12.048 19.365,9.158Z" style="fill:#2f2e41;fill-rule:nonzero;"/></g><g><path d="M159.24,591.892c-0,-0 -25.962,30.312 -41.724,22.949c-15.763,-7.363 -80.25,-92.648 -72.886,-108.411c7.363,-15.762 9.832,-12.407 9.832,-12.407l33.296,3.079l-9.58,-15.361c-0,-0 4.473,-3.291 8.736,1.329c4.262,4.621 21.375,16.162 27.337,32.462c5.962,16.3 23.464,15.487 23.464,15.487l21.525,60.873Z" style="fill:#fff;fill-rule:nonzero;"/></g><path d="M264.085,529.388l-45.005,47.773l-40.316,-71.18l38.327,-46.307l46.994,69.714Z" style="fill:#3f3d56;fill-rule:nonzero;"/><path d="M260.688,528.871l-40.648,41.981l-36.834,-64.692l33.78,-42.529l43.702,65.24Z" style="fill:#fff;fill-rule:nonzero;"/><path d="M216.875,575.336l2.205,1.825l-1.414,2.764l-62.931,18.73l-0.595,-2.156l2.863,-2.961l59.872,-18.202Z" style="fill:#b3b3b3;fill-rule:nonzero;"/><path d="M219.639,576.75l-65.167,20.375l-39.725,-75.063l64.017,-16.081l40.875,70.769Z" style="fill:#d0cde1;fill-rule:nonzero;"/><path d="M214.733,566.569l-2.796,2.057l-31.03,-53.878l3.207,-1.498l30.619,53.319Z" style="fill:#3f3d56;fill-rule:nonzero;"/><path d="M208.318,569.565l-27.567,8.22l-31.294,-55.408l27.272,-6.278l31.589,53.466Z" style="fill:#3f3d56;fill-rule:nonzero;"/><g><path d="M130.657,528.455l5.708,-1.614c-0,-0 31.829,-3.599 32.294,6.402c0.465,10.002 -36.567,5.361 -36.567,5.361l-4.938,-6.709l3.503,-3.44Z" style="fill:#fbbebe;fill-rule:nonzero;"/></g><g><path d="M158.575,573.419l7.944,-3.261c-0,-0 23.98,-10.751 17.101,-17.756c-6.879,-7.005 -28.095,5.16 -28.095,5.16l-4.061,3.851l7.111,12.006Z" style="fill:#fbbebe;fill-rule:nonzero;"/></g><g><path d="M151.495,557.942c-0,-0 12.935,12.892 9.992,15.92c-2.944,3.028 -51.209,42.857 -63.173,30.113c-11.965,-12.744 -70.258,-76.728 -47.575,-82.215c22.683,-5.488 28.676,7.341 28.676,7.341l29.944,51.23l42.136,-22.389Z" style="fill:#fff;fill-rule:nonzero;"/></g><path d="M112.763,518.781l21.248,7.205l-0.347,15.34l-22.472,-2.425l1.571,-20.12Z" style="fill:#fff;fill-rule:nonzero;"/><path d="M131.914,565.887l-22.893,13.4l-26.156,-40.227l25.248,33.137l23.801,-6.31Z" style="fill-opacity:0.2;fill-rule:nonzero;"/><circle cx="50.745" cy="448.718" r="34.712" style="fill:#2f2e41;"/><path d="M238.3,532.417l-24.305,-35.555l10.303,-12.754l25.255,36.58l-11.253,11.729Z" style="fill:#007ca6;fill-rule:nonzero;"/><path d="M237.615,546.712l-37.002,-53.793l1.825,-2.205l36.829,53.92l-1.652,2.078Z" style="fill:#e6e6e6;fill-rule:nonzero;"/><path d="M232.847,551.945l-37.002,-53.793l1.825,-2.205l36.829,53.921l-1.652,2.077Z" style="fill:#e6e6e6;fill-rule:nonzero;"/><path d="M228.785,555.796l-37.002,-53.793l1.825,-2.205l36.829,53.921l-1.652,2.077Z" style="fill:#e6e6e6;fill-rule:nonzero;"/><path d="M66.117,425.544l10.738,0c11.246,0 20.5,9.254 20.5,20.5l-31.238,0l0,-20.5Z" style="fill:#2f2e41;fill-rule:nonzero;"/><g><path d="M214.032,412.499l-1.947,-0.145c-0.075,1.012 -0.129,2.03 -0.194,3.046l-8.737,-0.293l9.165,17.176l10.294,-16.524l-8.77,-0.294c0.063,-0.988 0.115,-1.98 0.189,-2.966Z" style="fill:#3f3d56;fill-rule:nonzero;"/></g><g><path d="M265.282,272.498l1.552,1.185c2.328,-3.049 4.759,-6.093 7.227,-9.047l-1.499,-1.252c-2.486,2.977 -4.935,6.043 -7.28,9.114Z" style="fill:#3f3d56;fill-rule:nonzero;"/></g><g><path d="M280.237,254.601l1.441,1.316c2.59,-2.836 5.28,-5.653 7.992,-8.374l-1.382,-1.378c-2.733,2.74 -5.442,5.578 -8.051,8.436Z" style="fill:#3f3d56;fill-rule:nonzero;"/></g><g><path d="M296.701,238.092l1.32,1.439c2.833,-2.602 5.758,-5.171 8.693,-7.637l-1.256,-1.495c-2.957,2.485 -5.903,5.073 -8.757,7.693Z" style="fill:#3f3d56;fill-rule:nonzero;"/></g><g><path d="M251.956,291.652l1.65,1.043c2.052,-3.247 4.207,-6.494 6.404,-9.653l-1.602,-1.115c-2.214,3.182 -4.385,6.454 -6.452,9.725Z" style="fill:#3f3d56;fill-rule:nonzero;"/></g><g><path d="M314.544,223.1l1.189,1.548c3.05,-2.342 6.188,-4.643 9.327,-6.84l-1.119,-1.599c-3.163,2.213 -6.324,4.531 -9.397,6.891Z" style="fill:#3f3d56;fill-rule:nonzero;"/></g><g><path d="M240.371,311.916l1.736,0.892c1.759,-3.42 3.619,-6.847 5.528,-10.185l-1.695,-0.97c-1.924,3.363 -3.797,6.816 -5.569,10.263Z" style="fill:#3f3d56;fill-rule:nonzero;"/></g><g><path d="M221.539,366.87l-1.89,-0.486c-0.965,3.746 -1.858,7.565 -2.655,11.354l1.911,0.402c0.791,-3.76 1.677,-7.552 2.634,-11.27Z" style="fill:#3f3d56;fill-rule:nonzero;"/></g><g><path d="M333.63,209.74l1.047,1.648c3.236,-2.059 6.563,-4.074 9.889,-5.989l-0.974,-1.692c-3.351,1.929 -6.702,3.959 -9.962,6.033Z" style="fill:#3f3d56;fill-rule:nonzero;"/></g><g><path d="M216.773,389.516l-1.926,-0.317c-0.627,3.812 -1.178,7.695 -1.637,11.544l1.939,0.231c0.456,-3.819 1.002,-7.675 1.624,-11.458Z" style="fill:#3f3d56;fill-rule:nonzero;"/></g><g><path d="M230.626,333.139l1.808,0.735c1.448,-3.563 2.996,-7.143 4.603,-10.641l-1.774,-0.816c-1.619,3.525 -3.179,7.133 -4.637,10.722Z" style="fill:#3f3d56;fill-rule:nonzero;"/></g><g><path d="M222.806,355.159l1.867,0.571c1.126,-3.684 2.35,-7.391 3.637,-11.017l-1.84,-0.653c-1.297,3.653 -2.53,7.387 -3.664,11.099Z" style="fill:#3f3d56;fill-rule:nonzero;"/></g><g><path d="M465.697,170.827c3.828,-0.133 7.725,-0.186 11.58,-0.149l0.017,-1.953c-3.882,-0.036 -7.809,0.017 -11.663,0.15l0.066,1.952Z" style="fill:#3f3d56;fill-rule:nonzero;"/></g><g><path d="M353.81,198.123l0.898,1.733c3.409,-1.767 6.899,-3.478 10.374,-5.088l-0.821,-1.771c-3.5,1.621 -7.017,3.346 -10.451,5.126Z" style="fill:#3f3d56;fill-rule:nonzero;"/></g><g><path d="M511.895,173.261c3.809,0.539 7.652,1.17 11.425,1.876l0.358,-1.919c-3.8,-0.711 -7.672,-1.347 -11.51,-1.89l-0.273,1.933Z" style="fill:#3f3d56;fill-rule:nonzero;"/></g><g><path d="M534.65,177.518c3.739,0.874 7.512,1.844 11.213,2.885l0.528,-1.88c-3.728,-1.048 -7.529,-2.026 -11.296,-2.905l-0.445,1.9Z" style="fill:#3f3d56;fill-rule:nonzero;"/></g><g><path d="M556.934,183.783c3.645,1.203 7.316,2.505 10.91,3.871l0.694,-1.824c-3.621,-1.377 -7.319,-2.689 -10.992,-3.901l-0.612,1.854Z" style="fill:#3f3d56;fill-rule:nonzero;"/></g><g><path d="M488.851,171.032c3.845,0.202 7.729,0.492 11.547,0.861l0.189,-1.943c-3.846,-0.373 -7.761,-0.664 -11.633,-0.867l-0.103,1.949Z" style="fill:#3f3d56;fill-rule:nonzero;"/></g><g><path d="M442.388,170.702l0.239,1.938c3.804,-0.468 7.678,-0.859 11.514,-1.16l-0.153,-1.946c-3.865,0.303 -7.767,0.696 -11.6,1.168Z" style="fill:#3f3d56;fill-rule:nonzero;"/></g><g><path d="M396.843,180.469l0.577,1.865c3.669,-1.136 7.413,-2.205 11.129,-3.176l-0.494,-1.889c-3.743,0.979 -7.516,2.055 -11.212,3.2Z" style="fill:#3f3d56;fill-rule:nonzero;"/></g><g><path d="M374.926,188.341l0.741,1.807c3.549,-1.457 7.175,-2.851 10.777,-4.145l-0.66,-1.837c-3.629,1.303 -7.282,2.708 -10.858,4.175Z" style="fill:#3f3d56;fill-rule:nonzero;"/></g><g><path d="M419.399,174.571l0.409,1.91c3.751,-0.804 7.575,-1.536 11.367,-2.174l-0.324,-1.926c-3.82,0.644 -7.674,1.38 -11.452,2.19Z" style="fill:#3f3d56;fill-rule:nonzero;"/></g><g><path d="M596.975,199.726l-10.91,-16.124l-3.837,7.897c-0.928,-0.415 -1.852,-0.839 -2.779,-1.24l-0.776,1.792c0.906,0.392 1.801,0.803 2.702,1.205l-3.818,7.859l19.418,-1.389Z" style="fill:#3f3d56;fill-rule:nonzero;"/></g></svg>