<svg version="1.1" xmlns="http://www.w3.org/2000/svg" xmlns:xlink="http://www.w3.org/1999/xlink" xml:space="preserve" width="719.76946" height="687.25" viewBox="0 0 719.76946 687.25" style="fill-rule:evenodd;clip-rule:evenodd;stroke-linejoin:round;stroke-miterlimit:2;"><g><path d="M668.77,182.587l0,-38.587l-6,0l0,38.587c-3.016,1.22 -5,4.163 -5,7.416c0,4.389 3.611,8 8,8c4.388,0 8,-3.611 8,-8c0,-3.253 -1.985,-6.196 -5,-7.416Z" style="fill:#3e4e71;fill-rule:nonzero;"/></g><g><path d="M682.77,572l-41,0l0,-498l-16,0l0,498l-41,0c-20.298,0 -37,16.702 -37,37l172,0c0,-20.298 -16.703,-37 -37,-37Z" style="fill:#293246;fill-rule:nonzero;"/></g><g><path d="M547.853,148l171.834,0l-10.508,-131.34c-0.792,-9.338 -8.675,-16.615 -18.046,-16.66l-114.727,0c-9.371,0.045 -17.253,7.322 -18.045,16.66l-10.508,131.34Z" style="fill:#007ca6;fill-rule:nonzero;"/></g><g><path d="M61.098,457.536l524.479,-0l0,-53.547c0,-144.598 -117.641,-262.239 -262.24,-262.239c-144.598,0 -262.239,117.641 -262.239,262.239l0,53.547Z" style="fill:#35394d;fill-rule:nonzero;"/></g><g><path d="M129.073,476.071l403.632,0c-0.793,-43.895 -37.092,-79.584 -80.994,-79.633l-241.645,-0c-43.901,0.049 -80.201,35.738 -80.993,79.633Z" style="fill:#007ca6;fill-rule:nonzero;"/></g><circle cx="81.006" cy="386.827" r="81.006" style="fill:#484f64;"/><circle cx="572.533" cy="386.827" r="81.006" style="fill:#484f64;"/><g><path d="M511.436,428.017l0,30.205l-374.138,0l0,-30.205l-83.751,0l-0,147.222c-0,18.658 15.353,34.011 34.011,34.011l473.619,0c18.657,0 34.011,-15.353 34.011,-34.011l0,-147.222l-83.752,0Z" style="fill:#484f64;fill-rule:nonzero;"/></g><circle cx="81.006" cy="386.827" r="16.476" style="fill:#35394d;"/><circle cx="572.533" cy="386.827" r="16.476" style="fill:#35394d;"/><g><path d="M353.178,132.496c0,0 1.62,30.775 12.958,37.254c11.338,6.479 -0,50.211 -0,50.211l-53.451,1.62l-3.239,-51.831c0,0 6.479,-21.056 3.239,-30.775c-3.239,-9.718 40.493,-6.479 40.493,-6.479Z" style="fill:#ffb8b8;fill-rule:nonzero;"/></g><path d="M413.107,560.102l-19.436,22.676l30.775,29.155l16.197,-32.394l-27.536,-19.437Z" style="fill:#ffb8b8;fill-rule:nonzero;"/><path d="M275.431,560.102l19.437,22.676l-30.775,29.155l-16.197,-32.394l27.535,-19.437Z" style="fill:#ffb8b8;fill-rule:nonzero;"/><g><path d="M402.58,345.489c0,-0 116.619,38.874 110.14,76.127c-6.478,37.254 -56.69,168.451 -56.69,168.451c-0,0 -27.535,0 -48.591,-29.155l14.577,-32.394c-0,0 -6.479,-17.817 4.859,-21.057c11.338,-3.239 17.817,-59.929 17.817,-59.929c0,0 -82.605,-6.479 -100.422,-37.254l-32.395,-77.746l90.705,12.957Z" style="fill:#232238;fill-rule:nonzero;"/></g><g><path d="M285.96,345.489c0,-0 -116.62,38.874 -110.141,76.127c6.479,37.254 56.69,168.451 56.69,168.451c0,0 27.535,0 48.592,-29.155l-14.578,-32.394c0,0 6.479,-17.817 -4.859,-21.057c-11.338,-3.239 -17.817,-59.929 -17.817,-59.929c0,0 82.606,-6.479 100.423,-37.254l32.394,-77.746l-90.704,12.957Z" style="fill:#232238;fill-rule:nonzero;"/></g><g><path d="M418.777,599.785c0,0 16.197,-14.577 17.817,-3.239c1.619,11.338 -1.62,56.69 -1.62,56.69c0,0 16.197,34.014 -8.099,34.014c-24.295,0 -35.633,-25.915 -32.394,-51.831c3.239,-25.916 -11.338,-35.634 -11.338,-35.634c0,0 -17.817,-35.634 0,-38.873c17.817,-3.239 24.296,4.859 24.296,4.859c0,0 -6.479,29.155 11.338,34.014Z" style="fill:#36354c;fill-rule:nonzero;"/></g><g><path d="M269.763,599.785c-0,0 -16.197,-14.577 -17.817,-3.239c-1.62,11.338 1.619,56.69 1.619,56.69c-0,0 -16.197,34.014 8.099,34.014c24.296,0 35.634,-25.915 32.394,-51.831c-3.239,-25.916 11.338,-35.634 11.338,-35.634c-0,0 17.817,-35.634 -0,-38.873c-17.816,-3.239 -24.295,4.859 -24.295,4.859c-0,0 6.479,29.155 -11.338,34.014Z" style="fill:#36354c;fill-rule:nonzero;"/></g><circle cx="328.072" cy="113.87" r="37.254" style="fill:#ffb8b8;"/><g><path d="M333.742,177.849l-22.677,-17.817l-55.07,25.915l-1.62,147.395c0,0 -34.014,16.197 -24.295,37.253c0,0 29.155,6.479 42.112,19.437c12.958,12.957 85.845,-4.859 116.62,-14.578c30.775,-9.718 38.873,-21.056 38.873,-21.056l-30.774,-43.733l17.816,-111.76l-55.064,-37.021l-25.921,15.965Z" style="fill:#000b25;fill-rule:nonzero;"/></g><g><path d="M373.363,88.514c-0.811,-1.101 -1.553,-2.253 -2.221,-3.447c-1.155,-2.813 0.67,-6.128 -1.035,-8.756c-1.74,-2.681 -6.159,-3.247 -9.165,-5.069c-4.631,-2.806 -5.472,-8.313 -9.811,-11.406c-3.126,-2.229 -7.584,-2.829 -11.762,-2.702c-4.177,0.127 -8.299,0.882 -12.478,0.965c-5.641,0.126 -11.239,-1.019 -16.377,-3.349l3.083,6.031c-3.426,-0.747 -6.699,-2.074 -9.678,-3.923c-1.364,1.691 1.131,4.259 -0.416,5.845c-0.634,0.512 -1.384,0.86 -2.184,1.013c-5.947,1.69 -11.546,4.422 -16.538,8.068c-1.156,0.735 -2.112,1.744 -2.783,2.938c-0.804,1.781 -0.091,3.748 -0.152,5.641c-0.111,3.441 -2.737,6.441 -4.601,9.541c-1.864,3.099 -2.871,7.118 -0.106,9.749c0.672,0.534 1.317,1.103 1.932,1.703c2.769,3.267 -2.134,8.052 0.23,11.519c1.026,1.505 3.129,2.267 4.957,3.157c3.5,1.636 6.447,4.262 8.474,7.552l-1.421,-10.428c-0.151,-0.522 -0.046,-1.086 0.283,-1.519c0.688,-0.701 2.129,-0.422 3.079,-0.886c1.045,-0.511 1.124,-1.684 1.083,-2.666l-0.32,-7.571c-0.144,-3.404 -0.184,-3.856 2.324,-6.605c1.751,-1.919 4.507,-3.078 7.275,-3.93c6.325,-1.947 13.128,-2.62 19.853,-3.278c7.809,-0.764 16.602,-4.553 22.666,-0.53c4.965,3.293 6.615,8.706 9.007,13.507c2.15,4.315 7.668,17.02 12.262,10.142c2.885,-4.319 7.297,-16.497 4.54,-21.306Z" style="fill:#4f3d58;fill-rule:nonzero;"/></g><g><path d="M334.468,103.063c-0.317,-0 -0.579,0.261 -0.579,0.579l0,15.597c0,0.317 0.262,0.578 0.579,0.578l26.85,0c0.317,0 0.578,-0.261 0.579,-0.578l-0,-15.597c-0.001,-0.318 -0.262,-0.579 -0.579,-0.579l-26.85,-0Z" style="fill:#3f3d56;fill-rule:nonzero;"/></g><g><path d="M337.468,104.438c-0.591,0.001 -1.077,0.488 -1.078,1.079l-0,11.846c0.001,0.592 0.487,1.078 1.078,1.079l20.849,0c0.592,-0.001 1.078,-0.487 1.079,-1.079l-0,-11.846c-0.001,-0.591 -0.487,-1.078 -1.079,-1.079l-20.849,-0Z" style="fill:#ff6584;fill-rule:nonzero;"/></g><rect x="320.784" y="108.201" width="13.986" height="3.239" style="fill:#3f3d56;"/><g><path d="M296.447,103.063c-0.317,-0 -0.578,0.261 -0.579,0.579l-0,15.597c0.001,0.317 0.262,0.578 0.579,0.578l26.85,0c0.317,0 0.578,-0.261 0.579,-0.578l-0,-15.597c-0.001,-0.318 -0.262,-0.579 -0.579,-0.579l-26.85,-0Z" style="fill:#3f3d56;fill-rule:nonzero;"/></g><g><path d="M299.448,104.438c-0.592,0.001 -1.078,0.487 -1.079,1.079l0,11.846c0.001,0.592 0.487,1.078 1.079,1.079l20.848,0c0.592,-0.001 1.078,-0.487 1.079,-1.079l0,-11.846c-0.001,-0.592 -0.487,-1.078 -1.079,-1.079l-20.848,-0Z" style="fill:#007ca6;fill-rule:nonzero;"/></g><path d="M281.769,297.75l93,0c7.681,0 14,6.32 14,14l-121,0c0,-7.68 6.32,-14 14,-14Z" style="fill:#3f3d56;fill-rule:nonzero;"/><g><path d="M381.27,296.75c-0.545,0.002 -1.085,0.094 -1.599,0.272c-0.331,-1.33 -1.536,-2.272 -2.907,-2.272c-1.642,0 -2.994,1.352 -2.994,2.995l0,0.005c0,0.015 0.003,0.029 0.004,0.044c-0.375,0.035 -0.745,0.112 -1.103,0.228c-0.206,-0.816 -0.744,-1.509 -1.483,-1.911c0.961,-0.531 1.721,-1.363 2.164,-2.368c0.132,0.013 0.264,0.019 0.397,0.019c2.206,0 4.021,-1.815 4.021,-4.02c0,-2.206 -1.815,-4.021 -4.021,-4.021c-0.16,0 -0.32,0.01 -0.479,0.029c-0.545,0.002 -1.085,0.094 -1.599,0.272c-0.317,-1.346 -1.528,-2.306 -2.911,-2.306c-1.641,0 -2.99,1.35 -2.99,2.99c0,0.32 0.051,0.638 0.152,0.941c-0.12,0.084 -0.232,0.177 -0.343,0.27c-0.566,-0.487 -1.301,-0.731 -2.045,-0.681c-0.695,-1.996 -2.59,-3.342 -4.704,-3.342c-2.699,0 -4.932,2.194 -4.979,4.893c-0.402,0.032 -0.798,0.111 -1.18,0.235c-0.043,-0.169 -0.101,-0.334 -0.173,-0.493c0.798,-0.704 1.261,-1.715 1.272,-2.779c-0.145,-2.328 -2.171,-4.129 -4.5,-4c-0.545,0.002 -1.085,0.094 -1.599,0.272c-0.317,-1.346 -1.528,-2.306 -2.911,-2.306c-1.641,0 -2.991,1.35 -2.991,2.99c0,0.32 0.052,0.638 0.153,0.941c-1.276,0.886 -2.067,2.318 -2.138,3.87c-0.042,0.037 -0.09,0.068 -0.131,0.107c0.075,-0.285 0.114,-0.579 0.117,-0.874c-0.145,-2.328 -2.171,-4.129 -4.5,-4c-0.545,0.002 -1.085,0.094 -1.6,0.272c-0.316,-1.346 -1.527,-2.306 -2.91,-2.306c-1.641,0 -2.991,1.35 -2.991,2.99c0,0.32 0.052,0.638 0.152,0.941c-1.346,0.931 -2.151,2.467 -2.151,4.103c0,1.637 0.805,3.172 2.151,4.103c-0.202,0.581 -0.202,1.213 -0,1.794c-0.501,0.35 -0.934,0.788 -1.279,1.292c-0.355,-1.289 -1.537,-2.189 -2.874,-2.189c-1.527,0 -2.82,1.174 -2.967,2.694c-0.401,-0.235 -0.835,-0.41 -1.286,-0.519c0.81,-0.535 1.448,-1.293 1.836,-2.182c0.133,0.013 0.265,0.019 0.398,0.019c2.206,0 4.021,-1.815 4.021,-4.02c-0,-2.206 -1.815,-4.021 -4.021,-4.021c-0.16,0 -0.32,0.01 -0.479,0.029c-0.545,0.002 -1.085,0.094 -1.6,0.272c-0.316,-1.346 -1.527,-2.306 -2.91,-2.306c-1.641,0 -2.991,1.35 -2.991,2.99c0,0.32 0.052,0.638 0.152,0.941c-0.064,0.045 -0.121,0.097 -0.183,0.145c-0.156,-0.015 -0.308,-0.042 -0.468,-0.042c-0.545,0.002 -1.085,0.094 -1.6,0.272c-0.018,-0.075 -0.05,-0.145 -0.074,-0.218c0.045,-0.206 0.067,-0.416 0.067,-0.626c0,-1.617 -1.33,-2.947 -2.947,-2.947c-0.061,0 -0.121,0.002 -0.182,0.005c-0.711,-1.979 -2.599,-3.307 -4.702,-3.307c-2.74,0 -4.995,2.255 -4.995,4.995c0,1.504 0.679,2.93 1.846,3.878c-0.344,0.039 -0.683,0.113 -1.013,0.22c-0.322,-1.329 -1.521,-2.272 -2.889,-2.272c-0.682,0 -1.343,0.234 -1.872,0.664c-0.902,-1.071 -2.239,-1.683 -3.639,-1.664c-0.545,0.002 -1.085,0.094 -1.6,0.272c-0.316,-1.346 -1.527,-2.306 -2.91,-2.306c-1.641,0 -2.991,1.35 -2.991,2.99c0,0.32 0.052,0.638 0.152,0.941c-1.346,0.931 -2.151,2.467 -2.151,4.103c0,0.016 0.004,0.03 0.004,0.045c-0.709,-0.107 -1.434,-0.029 -2.104,0.227c-0.316,-1.346 -1.527,-2.306 -2.911,-2.306c-1.64,0 -2.99,1.35 -2.99,2.99c0,0.32 0.052,0.638 0.152,0.941c-1.367,0.926 -2.188,2.473 -2.188,4.124c0,2.731 2.248,4.979 4.98,4.979c0.385,0 0.769,-0.044 1.144,-0.133c0.411,2.379 2.495,4.133 4.909,4.133c1.924,0 3.683,-1.114 4.505,-2.854c3.602,0.468 7.258,0.304 10.802,-0.487c0.697,1.996 2.591,3.341 4.704,3.341c1.985,0 3.788,-1.185 4.574,-3.007c0.729,-0.015 1.446,-0.192 2.098,-0.519c0.882,1.559 2.54,2.526 4.332,2.526c1.983,0 3.785,-1.186 4.57,-3.007c2.286,-0.434 4.577,0.838 5.419,3.007c1.353,-1.852 3.456,-3.016 5.743,-3.179c2.058,0.574 4.264,-0.269 5.415,-2.067c-0.105,0.407 -0.159,0.827 -0.159,1.248c0,2.742 2.256,4.998 4.998,4.998c1.987,0 3.793,-1.185 4.584,-3.007c0.729,-0.015 1.446,-0.192 2.098,-0.519c0.882,1.559 2.54,2.526 4.332,2.526c1.983,0 3.785,-1.186 4.57,-3.007c0.729,-0.015 1.446,-0.192 2.098,-0.519c0.874,1.558 2.528,2.526 4.315,2.526c1.126,0 2.219,-0.385 3.097,-1.09c0.428,2.359 2.502,4.09 4.899,4.09c1.58,0 3.07,-0.752 4.007,-2.024c0.867,0.664 1.929,1.024 3.021,1.024c1.982,0 3.782,-1.186 4.563,-3.007c0.133,0.013 0.265,0.019 0.398,0.019c2.206,0 4.021,-1.815 4.021,-4.02c0,-2.206 -1.815,-4.021 -4.021,-4.021c-0.16,0 -0.32,0.01 -0.479,0.029Zm-89.378,-2.064c-0.006,0.024 -0.009,0.049 -0.014,0.073c-0.037,-0.001 -0.071,-0.009 -0.108,-0.009c-0.15,0.004 -0.299,0.019 -0.446,0.045c0.008,-0.018 0.02,-0.034 0.028,-0.052c0.18,-0.009 0.361,-0.028 0.54,-0.057Zm41.779,-1.664c-0.015,-0.058 -0.04,-0.111 -0.058,-0.168c0.764,-0.53 1.365,-1.261 1.739,-2.111c1.329,-0.007 2.594,-0.58 3.476,-1.575c-0.038,0.192 -0.058,0.387 -0.058,0.582c0.004,0.305 0.055,0.608 0.152,0.897c-0.859,0.599 -1.509,1.451 -1.859,2.437c-1.087,-0.423 -2.291,-0.445 -3.392,-0.062Zm29.95,0.373c-0.002,-0.061 0.006,-0.124 0.002,-0.185c0.127,-0.001 0.254,-0.009 0.381,-0.026c0.194,0.647 0.518,1.248 0.952,1.765c-0.094,0.026 -0.194,0.042 -0.285,0.073c-0.162,-0.643 -0.531,-1.215 -1.05,-1.627Z" style="fill:#f9a825;fill-rule:nonzero;"/></g><g><path d="M378.697,302.75l-100.855,0c-5.728,0 -10.441,4.713 -10.441,10.441c0,0.187 0.005,0.374 0.015,0.561l6.772,93.115c0.295,5.51 4.909,9.884 10.426,9.883l87.311,0c5.518,0.001 10.132,-4.373 10.427,-9.883l6.771,-93.115c0.01,-0.187 0.015,-0.374 0.015,-0.561c0,-5.728 -4.713,-10.441 -10.441,-10.441Z" style="fill:#3f3d56;fill-rule:nonzero;"/></g><rect x="282.769" y="302.75" width="6" height="114" style="fill:#007ca6;"/><rect x="299.769" y="302.75" width="6" height="114" style="fill:#007ca6;"/><rect x="316.769" y="302.75" width="6" height="114" style="fill:#007ca6;"/><rect x="333.769" y="302.75" width="6" height="114" style="fill:#007ca6;"/><rect x="350.769" y="302.75" width="6" height="114" style="fill:#007ca6;"/><rect x="367.769" y="302.75" width="6" height="114" style="fill:#007ca6;"/><g><path d="M367.756,359.257l-19.437,11.338c-0,0 -46.972,38.873 -14.577,45.352c32.394,6.479 40.493,-27.535 40.493,-27.535l11.338,-12.958l-17.817,-16.197Z" style="fill:#ffb8b8;fill-rule:nonzero;"/></g><g><path d="M275.432,351.158l19.436,11.338c-0,-0 46.972,38.874 14.578,45.353c-32.395,6.478 -40.493,-27.536 -40.493,-27.536l-11.338,-12.957l17.817,-16.198Z" style="fill:#ffb8b8;fill-rule:nonzero;"/></g><g><path d="M393.671,197.285l21.056,1.62c0,-0 16.198,14.577 14.578,34.014c0,-0 14.577,42.113 11.338,59.93c0,0 3.239,29.155 -1.62,40.493c-4.859,11.338 -45.352,55.07 -45.352,55.07c0,0 -37.253,-29.155 -35.634,-30.775l48.592,-48.591l-24.296,-32.395l11.338,-79.366Z" style="fill:#000b25;fill-rule:nonzero;"/></g><g><path d="M255.995,185.947l-0.81,0.81c0,0 -36.443,15.387 -34.824,34.824c0,0 -14.577,42.113 -11.338,59.93c-0,0 -3.239,29.154 1.62,40.493c4.859,11.338 45.352,55.07 45.352,55.07c0,0 37.254,-29.155 35.634,-30.775l-48.592,-48.591l24.296,-32.395l-11.338,-79.366Z" style="fill:#000b25;fill-rule:nonzero;"/></g></svg>