<?xml version="1.0" encoding="UTF-8" standalone="no"?><!DOCTYPE svg PUBLIC "-//W3C//DTD SVG 1.1//EN" "http://www.w3.org/Graphics/SVG/1.1/DTD/svg11.dtd"><svg width="100%" height="100%" viewBox="0 0 766 664" version="1.1" xmlns="http://www.w3.org/2000/svg" xmlns:xlink="http://www.w3.org/1999/xlink" xml:space="preserve" xmlns:serif="http://www.serif.com/" style="fill-rule:evenodd;clip-rule:evenodd;stroke-linejoin:round;stroke-miterlimit:2;"><g><path d="M75.871,614.538c-6.979,23.314 3.852,47.149 3.852,47.149c0,0 22.147,-13.963 29.126,-37.276c6.979,-23.313 -3.852,-47.149 -3.852,-47.149c0,-0 -22.147,13.963 -29.126,37.276Z" style="fill:#007ca6;fill-opacity:0.2;fill-rule:nonzero;"/></g><g><path d="M86.467,615.169c5.874,23.616 -6.067,46.915 -6.067,46.915c-0,0 -21.465,-14.99 -27.339,-38.606c-5.874,-23.616 6.068,-46.915 6.068,-46.915c0,0 21.465,14.99 27.338,38.606Z" style="fill:#007ca6;fill-opacity:0.2;fill-rule:nonzero;"/></g><path d="M435.535,638.619l4.442,-11.427l-41.96,-22.573l-6.556,16.865l44.074,17.135Z" style="fill:#ffb8b8;fill-rule:nonzero;"/><g><path d="M459.337,608.81c-1.779,-0.693 -3.671,-1.048 -5.579,-1.048c-6.332,-0 -12.045,3.911 -14.337,9.814l-2.997,7.703l-4.62,11.89l-1.129,2.915l14.806,5.76l14.321,-36.85l-0.465,-0.184Z" style="fill:#2b294d;fill-rule:nonzero;"/></g><g><path d="M431.806,616.628l-1.932,5.123l-4.822,12.789l-0.116,0.319c-12.285,1.579 -25.752,-1.516 -38.209,-6.323c-4.983,-1.922 -9.865,-4.1 -14.624,-6.526c-7.044,-3.559 -13.351,-7.315 -18.383,-10.528c-7.576,-4.863 -12.261,-8.514 -12.261,-8.514c0,-0 -1.237,1.119 -3.477,3.037c-3.001,2.568 -7.797,6.578 -13.872,11.299c-2.318,1.813 -4.806,3.71 -7.465,5.69c-19.601,14.539 -44.756,-24.256 -44.756,-24.256c0,-0 7.075,-4.504 8.923,-5.379c5.951,-2.815 19.932,-9.459 31.994,-15.363c6.215,-3.046 11.912,-5.903 15.737,-7.933c13.546,-7.212 30.385,6.435 30.385,6.435l72.878,40.13Z" style="fill:#2f2e41;fill-rule:nonzero;"/></g><g><path d="M431.806,616.628l-1.932,5.123l-4.822,12.789l-0.116,0.319c-12.285,1.579 -25.752,-1.516 -38.209,-6.323c-4.983,-1.922 -9.865,-4.1 -14.624,-6.526c-7.044,-3.559 -13.351,-7.315 -18.383,-10.528c-7.576,-4.863 -12.261,-8.514 -12.261,-8.514c0,-0 -1.237,1.119 -3.477,3.037c-3.001,2.568 -7.797,6.578 -13.872,11.299c-2.318,1.813 -4.806,3.71 -7.465,5.69c-19.601,14.539 -44.756,-24.256 -44.756,-24.256c0,-0 7.075,-4.504 8.923,-5.379c5.951,-2.815 19.932,-9.459 31.994,-15.363c6.215,-3.046 11.912,-5.903 15.737,-7.933c13.546,-7.212 30.385,6.435 30.385,6.435l72.878,40.13Z" style="fill:#2e3b62;fill-opacity:0.14;fill-rule:nonzero;"/></g><circle cx="183.579" cy="172.312" r="172.312" style="fill:#007ca6;"/><g><path d="M56.349,57.221c-9.152,21.41 -13.872,44.455 -13.872,67.739c-0,94.535 77.791,172.325 172.326,172.325c49.13,-0 95.987,-21.011 128.669,-57.694c-27.066,63.319 -89.597,104.595 -158.458,104.595c-94.536,-0 -172.327,-77.791 -172.327,-172.327c0,-42.263 15.548,-83.083 43.662,-114.638Z" style="fill-opacity:0.2;fill-rule:nonzero;"/></g><path d="M184.052,172.311l0.474,0l8.521,488.532l-17.989,0l8.994,-488.532Z" style="fill:#3f3d56;fill-rule:nonzero;"/><g><path d="M157.526,393.872l28.484,14.996l-3.97,7.54l-28.483,-14.996l3.969,-7.54Z" style="fill:#3f3d56;"/></g><g><path d="M765,662.788l-764,0c-0.549,0 -1,-0.452 -1,-1c0,-0.549 0.451,-1 1,-1l764,0c0.549,0 1,0.451 1,1c0,0.548 -0.451,1 -1,1Z" style="fill:#3f3d56;fill-rule:nonzero;"/></g><g><path d="M235.746,509.077l-58,0c-2.468,-0.003 -4.497,-2.033 -4.5,-4.5l-0,-25c-0,-18.378 15.122,-33.5 33.5,-33.5c18.378,0 33.5,15.122 33.5,33.5l-0,25c-0.003,2.467 -2.032,4.497 -4.5,4.5Z" style="fill:#716576;fill-rule:nonzero;"/></g><g><path d="M290.904,540.478c-4.467,0.785 -7.756,4.702 -7.756,9.236c0,1.098 0.193,2.187 0.57,3.219l-15.771,14.505l6.477,11.735l21.985,-20.798c3.406,-1.507 5.613,-4.897 5.613,-8.622c0,-5.172 -4.256,-9.427 -9.428,-9.427c-0.567,-0 -1.133,0.051 -1.69,0.152Z" style="fill:#ffb8b8;fill-rule:nonzero;"/></g><g><path d="M243.448,606.43c-0.712,-0 -1.426,-0.031 -2.14,-0.092c-8.64,-0.721 -16.322,-5.852 -20.298,-13.556l-25.267,-48.632c-1.033,-1.988 -1.572,-4.194 -1.572,-6.434c-0,-7.655 6.299,-13.954 13.954,-13.954c4.75,-0 9.184,2.425 11.748,6.423l23.31,52.304l31.72,-25.772l18.365,7.149l-31.016,34.242c-4.818,5.289 -11.649,8.312 -18.804,8.322Z" style="fill:#ccc;fill-rule:nonzero;"/></g><g><path d="M336.913,531.285l-28.101,-28.102c-2.034,-2.033 -5.38,-2.033 -7.413,0l-25.28,25.28c-2.034,2.034 -2.034,5.38 0,7.413l26.256,26.257c1.932,1.932 5.066,2.046 7.134,0.26l27.125,-23.435c1.152,-0.995 1.815,-2.444 1.815,-3.966c-0,-1.258 -0.453,-2.475 -1.276,-3.427c-0.083,-0.096 -0.169,-0.19 -0.26,-0.28Z" style="fill:#3f3d56;fill-rule:nonzero;"/></g><path d="M332.935,536.213l-28.926,-28.925l-23.871,23.871l27.803,27.802l24.994,-22.748Z" style="fill:#f2f2f2;fill-rule:nonzero;"/><circle cx="306.06" cy="532.886" r="11.746" style="fill:#007ca6;"/><g><path d="M311.288,542.897c2.362,-2.219 3.703,-5.319 3.703,-8.56c0,-6.444 -5.303,-11.746 -11.746,-11.746c-1.337,-0 -2.663,0.228 -3.923,0.674c1.975,-1.382 4.328,-2.124 6.738,-2.124c6.443,-0 11.745,5.302 11.745,11.745c-0,4.963 -3.145,9.414 -7.823,11.072c0.46,-0.322 0.896,-0.677 1.306,-1.061Z" style="fill-opacity:0.1;fill-rule:nonzero;"/></g><g><path d="M300.285,530.552c-1.401,1.316 -1.475,6.054 0.664,8.33c2.139,2.276 5.68,1.229 7.081,-0.087c1.401,-1.316 0.13,-2.403 -2.009,-4.679c-2.138,-2.277 -4.335,-4.881 -5.736,-3.564Z" style="fill:#f2f2f2;fill-rule:nonzero;"/></g><circle cx="312.209" cy="533.077" r="3.48" style="fill:#2f2e41;"/><circle cx="305.953" cy="526.419" r="3.48" style="fill:#2f2e41;"/><circle cx="312.209" cy="533.077" r="0.87" style="fill:#f2f2f2;"/><circle cx="312.584" cy="530.935" r="0.435" style="fill:#f2f2f2;"/><circle cx="306.328" cy="524.277" r="0.435" style="fill:#f2f2f2;"/><circle cx="305.953" cy="526.419" r="0.87" style="fill:#f2f2f2;"/><path d="M431.99,654.69l5.307,-11.051l-40.101,-25.73l-7.833,16.311l42.627,20.47Z" style="fill:#ffb8b8;fill-rule:nonzero;"/><g><path d="M458.012,626.798c-2.079,-1 -4.356,-1.519 -6.663,-1.519c-5.907,0 -11.313,3.403 -13.867,8.729l-3.58,7.45l-5.52,11.5l-1.35,2.82l14.32,6.88l17.11,-35.64l-0.45,-0.22Z" style="fill:#2b294d;fill-rule:nonzero;"/></g><g><path d="M429.962,632.478l-2.32,4.96l-5.79,12.38l-0.14,0.31c-12.37,0.63 -25.56,-3.49 -37.61,-9.24c-4.821,-2.3 -9.521,-4.846 -14.08,-7.63c-6.75,-4.09 -12.75,-8.32 -17.52,-11.91c-7.18,-5.43 -11.57,-9.43 -11.57,-9.43c0,-0 -1.32,1.02 -3.7,2.76c-3.19,2.33 -8.28,5.96 -14.7,10.2c-2.45,1.63 -5.076,3.33 -7.88,5.1c-20.66,12.99 -50.04,28.81 -75.03,32.15c-43.89,5.87 -33.56,-52.7 -33.56,-52.7l34.93,-18.14l14.83,3.01l16.51,3.34l5.85,1.19c-0,-0 1.11,-0.42 3.02,-1.15c6.15,-2.35 20.6,-7.9 33.08,-12.86c6.43,-2.56 12.33,-4.97 16.3,-6.7c14.06,-6.15 29.8,8.75 29.8,8.75l69.58,45.61Z" style="fill:#2e3b62;fill-rule:nonzero;"/></g><g><path d="M142.145,663.526c4.245,-0.974 7.28,-4.784 7.28,-9.139c0,-1.261 -0.255,-2.509 -0.748,-3.67l15,-15.302l-7.075,-11.383l-20.88,21.906c-3.168,1.602 -5.173,4.863 -5.173,8.413c-0,5.172 4.256,9.428 9.428,9.428c0.73,0 1.457,-0.085 2.168,-0.253Z" style="fill:#ffb8b8;fill-rule:nonzero;"/></g><circle cx="214.958" cy="486.807" r="23.386" style="fill:#ffb8b8;"/><g><path d="M184.533,551.724l20.372,57.756l-0.122,0.202c-2.834,4.684 -3.76,8.462 -2.678,10.926c0.576,1.267 1.681,2.22 3.018,2.604l48.209,-33.697l-1.688,-13.505l0.094,-0.151c4.66,-7.455 6.169,-14.207 4.485,-20.067c-2.184,-7.604 -9.125,-11.056 -9.195,-11.091l-0.168,-0.132l-24.045,-29.265l-32.142,5.71l-6.14,30.71Z" style="fill:#ccc;fill-rule:nonzero;"/></g><g><path d="M153.553,653.099l-13.647,-16.796l32.899,-54.31l15.339,-47.413l0.476,0.154l-0.476,-0.154c2.536,-7.838 9.883,-13.184 18.122,-13.184c10.448,0 19.046,8.598 19.046,19.047c0,3.763 -1.115,7.444 -3.205,10.574l-28.159,42.189l-40.395,59.893Z" style="fill:#ccc;fill-rule:nonzero;"/></g><g><path d="M248.171,482.077l-35.465,0l-0.364,-5.092l-1.818,5.092l-5.461,0l-0.721,-10.092l-3.604,10.092l-10.567,0l0,-0.5c0.017,-14.532 11.969,-26.484 26.5,-26.5l5,0c14.532,0.016 26.484,11.968 26.5,26.5l0,0.5Z" style="fill:#716576;fill-rule:nonzero;"/></g><g><path d="M212.415,513.743c-0.267,-0 -0.533,-0.024 -0.796,-0.07l-25.969,-4.582l-0,-42.92l28.587,-0l-0.708,0.825c-9.847,11.485 -2.428,30.107 2.87,40.185c0.796,1.504 0.659,3.338 -0.352,4.707c-0.842,1.164 -2.195,1.855 -3.632,1.855Z" style="fill:#716576;fill-rule:nonzero;"/></g><circle cx="588.139" cy="324.689" r="114" style="fill:#4c4a68;"/><g><path d="M558.992,280.378l0,96.991c-0.002,0.046 -0.004,0.092 -0.004,0.138c0,1.37 1.128,2.498 2.498,2.498c0.437,0 0.867,-0.115 1.246,-0.334l76.884,-48.496c0.763,-0.509 1.222,-1.368 1.222,-2.285c0,-0.918 -0.459,-1.777 -1.222,-2.286l-76.884,-48.496c-0.384,-0.229 -0.823,-0.351 -1.27,-0.351c-1.357,0 -2.474,1.117 -2.474,2.474c0,0.049 0.001,0.098 0.004,0.147Z" style="fill:#f2f2f2;fill-rule:nonzero;"/></g></svg>