<?xml version="1.0" encoding="UTF-8" standalone="no"?>
<!DOCTYPE svg PUBLIC "-//W3C//DTD SVG 1.1//EN" "http://www.w3.org/Graphics/SVG/1.1/DTD/svg11.dtd">
<svg width="100%" height="100%" viewBox="0 0 1023 814" version="1.1" xmlns="http://www.w3.org/2000/svg" xmlns:xlink="http://www.w3.org/1999/xlink" xml:space="preserve" xmlns:serif="http://www.serif.com/" style="fill-rule:evenodd;clip-rule:evenodd;stroke-miterlimit:10;">
    <g transform="matrix(1,0,0,1,-88.58,-43.42)">
        <path d="M688.44,180.84C623.72,178.59 562.07,157.7 503.21,134.84C444.35,111.98 386.05,86.65 322.88,74.54C282.25,66.75 235.78,65.65 203.05,87.43C171.54,108.43 161.36,144.58 155.89,178.16C151.77,203.42 149.35,230 160.64,253.65C168.47,270.07 182.38,283.87 191.99,299.65C225.46,354.37 201.81,421.85 165.54,475.28C148.54,500.35 128.79,524.28 115.67,550.94C102.55,577.6 96.47,608.19 107.95,635.41C119.34,662.41 146.47,682.65 175.85,696.9C235.54,725.85 305.85,734.13 374.46,738.82C526.29,749.21 678.92,744.71 831.15,740.21C887.49,738.54 944.07,736.85 999.49,728.14C1030.27,723.3 1062.04,715.63 1084.39,697.09C1112.75,673.56 1119.78,633.71 1100.78,604.21C1068.89,554.72 980.78,542.43 958.46,489.31C946.2,460.08 958.8,427.52 976.62,400.4C1014.86,342.24 1078.95,291.21 1082.33,224.73C1084.65,179.06 1053.83,133.34 1006.19,111.73C956.26,89 887,91.88 850.18,129.37C812.24,168 745.58,182.82 688.44,180.84Z" style="fill:rgb(0,124,166);fill-opacity:0.15;fill-rule:nonzero;"/>
    </g>
    <path d="M435.45,690.5L93.17,688.83L59.16,609.06L179.42,600.33L158.46,512.87L396.32,482.04L168.55,402.86L188.67,398.08L554.92,457.83L534.75,594.32L505.92,669.33L435.45,690.5Z" style="fill:rgb(0,124,166);fill-rule:nonzero;"/>
    <g transform="matrix(1,0,0,1,-88.58,-43.42)">
        <path d="M187,698.84C187,698.84 208,695.48 220.6,710.32C220.6,710.32 211.36,717.6 191.48,707.52L187,698.84Z" style="fill:rgb(0,124,166);fill-rule:nonzero;"/>
    </g>
    <g transform="matrix(1,0,0,1,-88.58,-43.42)">
        <path d="M184.8,698.51C184.8,698.51 171.4,715 178,733.36C178,733.36 188.92,728.99 190.11,706.73L184.8,698.51Z" style="fill:rgb(0,124,166);fill-rule:nonzero;"/>
    </g>
    <g transform="matrix(1,0,0,1,-88.58,-43.42)">
        <path d="M172.76,671.4C172.76,671.4 181.16,655.99 214.76,677.56C214.76,677.56 210.28,687.92 195.44,687.08C180.6,686.24 176.68,679.52 172.76,671.4Z" style="fill:rgb(0,124,166);fill-rule:nonzero;"/>
    </g>
    <g transform="matrix(1,0,0,1,-88.58,-43.42)">
        <path d="M170.59,670.29C170.59,670.29 153.16,668.29 151.47,708.19C151.47,708.19 162.52,710.48 170.37,697.86C178.22,685.24 175,678.16 170.59,670.29Z" style="fill:rgb(0,124,166);fill-rule:nonzero;"/>
    </g>
    <g transform="matrix(1,0,0,1,-88.58,-43.42)">
        <path d="M160.44,638.46C160.44,638.46 170.24,611.3 205.8,630.62C205.8,630.62 197.68,655.54 164.08,647.7L160.44,638.46Z" style="fill:rgb(0,124,166);fill-rule:nonzero;"/>
    </g>
    <g transform="matrix(1,0,0,1,-88.58,-43.42)">
        <path d="M149.52,597.86C149.52,597.86 168,570.42 200.76,595.86C200.76,595.86 189.28,621.62 152.32,607.62L149.52,597.86Z" style="fill:rgb(0,124,166);fill-rule:nonzero;"/>
    </g>
    <g transform="matrix(1,0,0,1,-88.58,-43.42)">
        <path d="M145.6,559.22C145.6,559.22 167.16,534.01 199.6,559.22C199.6,559.22 179.16,581.34 145.6,565.66L145.6,559.22Z" style="fill:rgb(0,124,166);fill-rule:nonzero;"/>
    </g>
    <g transform="matrix(1,0,0,1,-88.58,-43.42)">
        <path d="M142.24,521.69C142.24,521.69 164.08,495.37 195.16,520.29C195.16,520.29 170.52,543.53 142.24,527.85L142.24,521.69Z" style="fill:rgb(0,124,166);fill-rule:nonzero;"/>
    </g>
    <g transform="matrix(1,0,0,1,-88.58,-43.42)">
        <path d="M144.2,488.37C144.2,488.37 167.2,454.49 196.28,477.45C196.28,477.45 171.64,506.57 144.2,494.81L144.2,488.37Z" style="fill:rgb(0,124,166);fill-rule:nonzero;"/>
    </g>
    <g transform="matrix(1,0,0,1,-88.58,-43.42)">
        <path d="M149.52,449.45C149.52,449.45 173.88,415.85 202.16,441.61C202.16,441.61 173.32,470.73 149.52,455.61L149.52,449.45Z" style="fill:rgb(0,124,166);fill-rule:nonzero;"/>
    </g>
    <g transform="matrix(1,0,0,1,-88.58,-43.42)">
        <path d="M157.64,414.66C157.64,414.66 186.48,383.08 211.64,395.66C211.64,395.66 181.59,429.2 156.38,423.04L157.64,414.66Z" style="fill:rgb(0,124,166);fill-rule:nonzero;"/>
    </g>
    <g transform="matrix(1,0,0,1,-88.58,-43.42)">
        <path d="M167.72,381.68C167.72,381.68 201,343 220.36,355.92C220.36,355.92 195.84,385.92 165.36,388.92L167.72,381.68Z" style="fill:rgb(0,124,166);fill-rule:nonzero;"/>
    </g>
    <g transform="matrix(1,0,0,1,-88.58,-43.42)">
        <path d="M182.27,343.43C182.27,343.43 211.4,311.85 232.68,319.69C232.68,319.69 207.76,352.45 178.36,353.29L182.27,343.43Z" style="fill:rgb(0,124,166);fill-rule:nonzero;"/>
    </g>
    <g transform="matrix(1,0,0,1,-88.58,-43.42)">
        <path d="M195.44,307.65C195.44,307.65 227.64,277.41 241.64,282.73C241.64,282.73 218.4,316.33 194.04,314.37L195.44,307.65Z" style="fill:rgb(0,124,166);fill-rule:nonzero;"/>
    </g>
    <g transform="matrix(1,0,0,1,-88.58,-43.42)">
        <path d="M208.32,274.61C208.32,274.61 236.04,238.48 251.17,241.28C251.17,241.28 234.36,273.49 208.32,278.28L208.32,274.61Z" style="fill:rgb(0,124,166);fill-rule:nonzero;"/>
    </g>
    <g transform="matrix(1,0,0,1,-88.58,-43.42)">
        <path d="M222.3,230.06C222.3,230.06 246.8,202.37 260.04,202.43C260.04,202.43 240.7,239.43 221.29,239.09L222.3,230.06Z" style="fill:rgb(0,124,166);fill-rule:nonzero;"/>
    </g>
    <g transform="matrix(1,0,0,1,-88.58,-43.42)">
        <path d="M230.58,200.4L254.25,142.72C254.25,142.72 255.43,194.86 227.57,211.1L230.58,200.4Z" style="fill:rgb(0,124,166);fill-rule:nonzero;"/>
    </g>
    <g transform="matrix(1,0,0,1,-88.58,-43.42)">
        <path d="M240.19,136.79C240.19,136.79 244.11,88.62 241.59,84.7C241.59,84.7 258.51,124.75 240.03,158.07L240.19,136.79Z" style="fill:rgb(0,124,166);fill-rule:nonzero;"/>
    </g>
    <g transform="matrix(1,0,0,1,-88.58,-43.42)">
        <path d="M159.52,637.82C159.52,637.82 134.98,622.61 119.09,659.82C119.09,659.82 140.93,674.32 162.41,647.31L159.52,637.82Z" style="fill:rgb(0,124,166);fill-rule:nonzero;"/>
    </g>
    <g transform="matrix(1,0,0,1,-88.58,-43.42)">
        <path d="M148.73,596.31C148.73,596.31 118.63,582.58 104.03,621.43C104.03,621.43 127.28,637.43 151.47,606.13L148.73,596.31Z" style="fill:rgb(0,124,166);fill-rule:nonzero;"/>
    </g>
    <g transform="matrix(1,0,0,1,-88.58,-43.42)">
        <path d="M144.2,561.53C144.2,561.53 122.64,536.32 90.2,561.53C90.2,561.53 110.64,583.65 144.2,567.97L144.2,561.53Z" style="fill:rgb(0,124,166);fill-rule:nonzero;"/>
    </g>
    <g transform="matrix(1,0,0,1,-88.58,-43.42)">
        <path d="M141.5,521.69C141.5,521.69 119.66,495.37 88.58,520.29C88.58,520.29 113.22,543.53 141.5,527.85L141.5,521.69Z" style="fill:rgb(0,124,166);fill-rule:nonzero;"/>
    </g>
    <g transform="matrix(1,0,0,1,-88.58,-43.42)">
        <path d="M144.2,489.33C144.2,489.33 128.88,451.38 95.58,467.7C95.58,467.7 113.58,501.35 142.84,495.63L144.2,489.33Z" style="fill:rgb(0,124,166);fill-rule:nonzero;"/>
    </g>
    <g transform="matrix(1,0,0,1,-88.58,-43.42)">
        <path d="M151.45,449.26C151.45,449.26 136.22,410.65 102.45,428.55C102.45,428.55 123.13,463.94 149.95,455.22L151.45,449.26Z" style="fill:rgb(0,124,166);fill-rule:nonzero;"/>
    </g>
    <g transform="matrix(1,0,0,1,-88.58,-43.42)">
        <path d="M160.89,414.85C160.89,414.85 154.89,372.52 126.89,368.73C126.89,368.73 132.83,413.37 157.12,422.48L160.89,414.85Z" style="fill:rgb(0,124,166);fill-rule:nonzero;"/>
    </g>
    <g transform="matrix(1,0,0,1,-88.58,-43.42)">
        <path d="M168.43,381.76C168.43,381.76 166.09,330.76 142.94,328.98C142.94,328.98 143.72,367.69 165.82,388.98L168.43,381.76Z" style="fill:rgb(0,124,166);fill-rule:nonzero;"/>
    </g>
    <g transform="matrix(1,0,0,1,-88.58,-43.42)">
        <path d="M184.67,342C184.67,342 177.77,299.59 155.67,294.41C155.67,294.41 158.41,335.48 182.48,352.41L184.67,342Z" style="fill:rgb(0,124,166);fill-rule:nonzero;"/>
    </g>
    <g transform="matrix(1,0,0,1,-88.58,-43.42)">
        <path d="M198.06,308C198.06,308 197.83,263.82 184.33,257.33C184.33,257.33 175.96,297.33 194.15,313.64L198.06,308Z" style="fill:rgb(0,124,166);fill-rule:nonzero;"/>
    </g>
    <g transform="matrix(1,0,0,1,-88.58,-43.42)">
        <path d="M209.35,274.11C209.35,274.11 207.46,228.62 193.48,222.21C193.48,222.21 188.7,258.21 207.26,277.09L209.35,274.11Z" style="fill:rgb(0,124,166);fill-rule:nonzero;"/>
    </g>
    <g transform="matrix(1,0,0,1,-88.58,-43.42)">
        <path d="M224.25,233.69C224.25,233.69 224.17,196.69 214.19,188.01C214.19,188.01 204.27,228.54 219.04,241.13L224.25,233.69Z" style="fill:rgb(0,124,166);fill-rule:nonzero;"/>
    </g>
    <g transform="matrix(1,0,0,1,-88.58,-43.42)">
        <path d="M229.41,198.58L219.7,137C219.7,137 206.51,187.46 229.87,209.7L229.41,198.58Z" style="fill:rgb(0,124,166);fill-rule:nonzero;"/>
    </g>
    <g transform="matrix(1,0,0,1,-88.58,-43.42)">
        <path d="M231.3,137.37C231.3,137.37 206.38,95.97 206.89,91.37C206.89,91.37 209.54,134.76 240.89,156.37L231.3,137.37Z" style="fill:rgb(0,124,166);fill-rule:nonzero;"/>
    </g>
    <g transform="matrix(1,0,0,1,-88.58,-43.42)">
        <path d="M234.22,125.14C234.22,125.14 210.7,66.34 200.06,61.58C200.06,61.58 233.66,78.66 236.18,123.46L234.22,125.14Z" style="fill:rgb(0,124,166);fill-rule:nonzero;"/>
    </g>
    <g transform="matrix(1,0,0,1,-88.58,-43.42)">
        <path d="M221.17,239.44L219.56,238.95C239.41,174.22 244.36,132.95 233.51,122.6L234.66,121.38C246.17,132.3 241.5,173.12 221.17,239.44Z" style="fill:rgb(68,64,83);fill-rule:nonzero;"/>
    </g>
    <g transform="matrix(1,0,0,1,-88.58,-43.42)">
        <path d="M166.51,391L164.13,390.15C166.24,384.22 168.51,378.2 170.89,372.27C191.61,320.63 209.25,272.59 220.56,235.71L222.63,234.71C211.3,271.66 193.97,321.54 173.23,373.25C170.86,379.07 168.6,385.06 166.51,391Z" style="fill:rgb(68,64,83);fill-rule:nonzero;"/>
    </g>
    <g transform="matrix(1,0,0,1,-88.58,-43.42)">
        <path d="M216.59,747.28C216.27,746.93 184.1,710.7 161.67,648.85C148.527,612.64 141.213,574.572 140,536.07C138.46,487.94 148.56,434.2 165.86,385.38L167.74,387.58C128.9,497.15 144.33,591.04 164.8,647.58C186.99,708.87 218.8,744.7 219.11,745.06L216.59,747.28Z" style="fill:rgb(68,64,83);fill-rule:nonzero;"/>
    </g>
    <g transform="matrix(1,0,0,1,-88.58,-43.42)">
        <path d="M719.31,670.36C719.31,670.36 696.64,698.03 714.64,739.86L533.64,818.36L516.27,822L508.27,787L513.62,742.83L513.62,718.69L719.31,670.36Z" style="fill:rgb(213,214,219);fill-rule:nonzero;"/>
    </g>
    <path d="M59.16,609.06L309.68,563.39L641.63,616.27L435.45,690.5L59.16,609.06Z" style="fill:rgb(0,124,166);fill-rule:nonzero;"/>
    <path d="M59.16,609.06L309.68,563.39L641.63,616.27L435.45,690.5L59.16,609.06Z" style="fill:rgb(0,124,166);fill-rule:nonzero;"/>
    <g transform="matrix(1,0,0,1,-88.58,-43.42)">
        <path d="M147.74,652.47C147.74,652.47 124.31,696.86 151.31,737.86L522.81,818.36C522.81,818.36 499.75,783 524,733.92L147.74,652.47Z" style="fill:rgb(0,124,166);fill-rule:nonzero;"/>
    </g>
    <g transform="matrix(1,0,0,1,-88.58,-43.42)">
        <path d="M147.74,652.47C147.74,652.47 124.31,696.86 151.31,737.86L522.81,818.36C522.81,818.36 499.75,783 524,733.92L147.74,652.47Z" style="fill-opacity:0.1;fill-rule:nonzero;"/>
    </g>
    <g transform="matrix(1,0,0,1,-88.58,-43.42)">
        <path d="M158.81,667.86C158.81,667.86 145.42,700.34 158.81,721.36" style="fill-opacity:0.1;fill-rule:nonzero;"/>
    </g>
    <g transform="matrix(1,0,0,1,-88.58,-43.42)">
        <path d="M522.81,818.36L730.21,729.86C730.21,729.86 741.81,732.36 734.31,740.86C726.81,749.36 526.81,826.86 526.81,826.86L151.31,737.86L522.81,818.36Z" style="fill:rgb(0,124,166);fill-rule:nonzero;"/>
    </g>
    <g transform="matrix(1,0,0,1,-88.58,-43.42)">
        <path d="M522.81,818.36L730.21,729.86C730.21,729.86 741.81,732.36 734.31,740.86C726.81,749.36 526.81,826.86 526.81,826.86L151.31,737.86L522.81,818.36Z" style="fill-opacity:0.1;fill-rule:nonzero;"/>
    </g>
    <g transform="matrix(1,0,0,1,-88.58,-43.42)">
        <path d="M505.81,742.86C505.81,742.86 485.81,766.86 505.81,802.86" style="fill-opacity:0.1;fill-rule:nonzero;"/>
    </g>
    <g transform="matrix(0.9486,-0.316477,0.316477,0.9486,-299.77,172.15)">
        <rect x="510.68" y="757.36" width="94.57" height="1" style="fill-opacity:0.1;"/>
    </g>
    <g transform="matrix(0.934702,-0.355433,0.355433,0.934702,-321.85,207.81)">
        <rect x="509.35" y="759.86" width="115.23" height="1" style="fill-opacity:0.1;"/>
    </g>
    <g transform="matrix(0.925474,-0.37881,0.37881,0.925474,-335.51,231.58)">
        <rect x="508.7" y="764.61" width="133.56" height="1" style="fill-opacity:0.1;"/>
    </g>
    <g transform="matrix(0.911331,-0.411673,0.411673,0.911331,-352.49,265.59)">
        <rect x="508.37" y="766.53" width="153.74" height="1" style="fill-opacity:0.1;"/>
    </g>
    <g transform="matrix(0.916293,-0.400509,0.400509,0.916293,-346.96,258.59)">
        <rect x="509.21" y="768.64" width="168.15" height="1" style="fill-opacity:0.1;"/>
    </g>
    <g transform="matrix(0.918032,-0.396507,0.396507,0.918032,-343.72,261.93)">
        <rect x="510.33" y="769.26" width="201.22" height="1" style="fill-opacity:0.1;"/>
    </g>
    <path d="M152.23,613.94L328.23,576.94L435.45,597.44L291.23,643.94L152.23,613.94Z" style="fill:white;fill-opacity:0.3;fill-rule:nonzero;"/>
    <g transform="matrix(1,0,0,1,-88.58,-43.42)">
        <path d="M730.21,659.69C730.21,659.69 739.31,663.36 733.97,669.03C728.63,674.7 524,733.92 524,733.92L730.21,659.69Z" style="fill:rgb(0,124,166);fill-rule:nonzero;"/>
    </g>
    <g transform="matrix(1,0,0,1,-88.58,-43.42)">
        <path d="M818.6,574.18C818.6,574.18 795.94,601.84 813.94,643.68L632.94,722.18L615.57,725.84L607.57,690.84L613,646.68L613,622.51L818.6,574.18Z" style="fill:rgb(213,214,219);fill-rule:nonzero;"/>
    </g>
    <path d="M158.46,512.87L408.97,467.21L740.93,520.09L534.75,594.32L158.46,512.87Z" style="fill:rgb(58,55,104);fill-rule:nonzero;"/>
    <g transform="matrix(1,0,0,1,-88.58,-43.42)">
        <path d="M247,556.29C247,556.29 223.56,600.68 250.56,641.68L622.06,722.18C622.06,722.18 599.01,686.79 623.29,637.73L247,556.29Z" style="fill:rgb(58,55,104);fill-rule:nonzero;"/>
    </g>
    <g transform="matrix(1,0,0,1,-88.58,-43.42)">
        <path d="M247,556.29C247,556.29 223.56,600.68 250.56,641.68L622.06,722.18C622.06,722.18 599.01,686.79 623.29,637.73L505.81,612.3L247,556.29Z" style="fill-opacity:0.1;fill-rule:nonzero;"/>
    </g>
    <g transform="matrix(1,0,0,1,-88.58,-43.42)">
        <path d="M258.1,571.68C258.1,571.68 244.72,604.15 258.1,625.18" style="fill-opacity:0.1;fill-rule:nonzero;"/>
    </g>
    <g transform="matrix(1,0,0,1,-88.58,-43.42)">
        <path d="M622.1,722.18L829.51,633.68C829.51,633.68 841.1,636.18 833.6,644.68C826.1,653.18 626.1,730.68 626.1,730.68L250.6,641.68L622.1,722.18Z" style="fill:rgb(58,55,104);fill-rule:nonzero;"/>
    </g>
    <g transform="matrix(1,0,0,1,-88.58,-43.42)">
        <path d="M622.1,722.18L829.51,633.68C829.51,633.68 841.1,636.18 833.6,644.68C826.1,653.18 626.1,730.68 626.1,730.68L250.6,641.68L622.1,722.18Z" style="fill-opacity:0.1;fill-rule:nonzero;"/>
    </g>
    <g transform="matrix(1,0,0,1,-88.58,-43.42)">
        <path d="M605.1,646.68C605.1,646.68 585.1,670.68 605.1,706.68" style="fill-opacity:0.1;fill-rule:nonzero;"/>
    </g>
    <g transform="matrix(0.9486,-0.316477,0.316477,0.9486,-264.22,198.64)">
        <rect x="609.97" y="661.18" width="94.57" height="1" style="fill-opacity:0.1;"/>
    </g>
    <g transform="matrix(0.934702,-0.355433,0.355433,0.934702,-281.17,236.83)">
        <rect x="608.65" y="663.68" width="115.23" height="1" style="fill-opacity:0.1;"/>
    </g>
    <g transform="matrix(0.925474,-0.37881,0.37881,0.925474,-291.68,262.02)">
        <rect x="608" y="668.43" width="133.56" height="1" style="fill-opacity:0.1;"/>
    </g>
    <g transform="matrix(0.911331,-0.411673,0.411673,0.911331,-304.07,297.94)">
        <rect x="607.66" y="670.34" width="153.74" height="1" style="fill-opacity:0.1;"/>
    </g>
    <g transform="matrix(0.916293,-0.400509,0.400509,0.916293,-300.13,290.3)">
        <rect x="608.51" y="672.45" width="168.15" height="1" style="fill-opacity:0.1;"/>
    </g>
    <g transform="matrix(0.918032,-0.396507,0.396507,0.918032,-297.44,293.41)">
        <rect x="609.63" y="673.07" width="201.22" height="1" style="fill-opacity:0.1;"/>
    </g>
    <path d="M251.53,517.76L427.53,480.76L534.75,501.26L390.53,547.76L251.53,517.76Z" style="fill:white;fill-opacity:0.45;fill-rule:nonzero;"/>
    <g transform="matrix(1,0,0,1,-88.58,-43.42)">
        <path d="M829.51,563.51C829.51,563.51 838.6,567.18 833.27,572.84C827.94,578.5 623.33,637.73 623.33,637.73L829.51,563.51Z" style="fill:rgb(58,55,104);fill-rule:nonzero;"/>
    </g>
    <g transform="matrix(1,0,0,1,-88.58,-43.42)">
        <path d="M828,464.15C828,464.15 805.33,513.82 823.33,555.65L642.33,612.15L625,615.82L617,580.82L622.35,536.65L622.35,512.48L828,464.15Z" style="fill:rgb(213,214,219);fill-rule:nonzero;"/>
    </g>
    <path d="M167.89,402.85L418.41,357.18L750.37,410.06L544.18,484.29L167.89,402.85Z" style="fill:rgb(0,124,166);fill-rule:nonzero;"/>
    <g transform="matrix(1,0,0,1,-88.58,-43.42)">
        <path d="M256.47,446.26C256.47,446.26 233,490.65 260,531.65L631.5,612.15C631.5,612.15 608.44,576.76 632.72,527.71L256.47,446.26Z" style="fill:rgb(0,124,166);fill-rule:nonzero;"/>
    </g>
    <g transform="matrix(1,0,0,1,-88.58,-43.42)">
        <path d="M256.47,446.26C256.47,446.26 233,490.65 260,531.65L631.5,612.15C631.5,612.15 608.44,576.76 632.72,527.71L256.47,446.26Z" style="fill-opacity:0.1;fill-rule:nonzero;"/>
    </g>
    <g transform="matrix(1,0,0,1,-88.58,-43.42)">
        <path d="M267.54,461.65C267.54,461.65 254.15,494.13 267.54,515.15" style="fill-opacity:0.1;fill-rule:nonzero;"/>
    </g>
    <g transform="matrix(1,0,0,1,-88.58,-43.42)">
        <path d="M631.54,612.15L838.94,545.65C838.94,545.65 850.54,548.15 843.04,556.65C835.54,565.15 635.54,620.65 635.54,620.65L260.04,531.65L631.54,612.15Z" style="fill:rgb(0,124,166);fill-rule:nonzero;"/>
    </g>
    <g transform="matrix(1,0,0,1,-88.58,-43.42)">
        <path d="M631.54,612.15L838.94,545.65C838.94,545.65 850.54,548.15 843.04,556.65C835.54,565.15 635.54,620.65 635.54,620.65L260.04,531.65L631.54,612.15Z" style="fill-opacity:0.1;fill-rule:nonzero;"/>
    </g>
    <g transform="matrix(1,0,0,1,-88.58,-43.42)">
        <path d="M614.54,536.65C614.54,536.65 594.54,560.65 614.54,596.65" style="fill-opacity:0.1;fill-rule:nonzero;"/>
    </g>
    <g transform="matrix(0.9486,-0.316477,0.316477,0.9486,-228.91,195.97)">
        <rect x="619.41" y="551.15" width="94.57" height="1" style="fill-opacity:0.1;"/>
    </g>
    <g transform="matrix(0.934702,-0.355433,0.355433,0.934702,-241.44,233)">
        <rect x="618.08" y="553.65" width="115.23" height="1" style="fill-opacity:0.1;"/>
    </g>
    <g transform="matrix(0.925474,-0.37881,0.37881,0.925474,-249.3,257.4)">
        <rect x="617.43" y="558.4" width="133.56" height="1" style="fill-opacity:0.1;"/>
    </g>
    <g transform="matrix(0.911331,-0.411673,0.411673,0.911331,-257.94,292.06)">
        <rect x="617.1" y="560.32" width="153.74" height="1" style="fill-opacity:0.1;"/>
    </g>
    <g transform="matrix(0.916293,-0.400509,0.400509,0.916293,-255.27,284.87)">
        <rect x="617.95" y="562.43" width="168.15" height="1" style="fill-opacity:0.1;"/>
    </g>
    <g transform="matrix(0.918032,-0.396507,0.396507,0.918032,-253.04,288.14)">
        <rect x="619.07" y="563.05" width="201.22" height="1" style="fill-opacity:0.1;"/>
    </g>
    <path d="M260.96,407.73L436.96,370.73L544.18,391.23L399.96,437.73L260.96,407.73Z" style="fill:white;fill-opacity:0.3;fill-rule:nonzero;"/>
    <g transform="matrix(1,0,0,1,-88.58,-43.42)">
        <path d="M838.94,453.48C838.94,453.48 848.04,457.15 842.7,462.82C837.36,468.49 632.76,527.71 632.76,527.71L838.94,453.48Z" style="fill:rgb(0,124,166);fill-rule:nonzero;"/>
    </g>
    <g transform="matrix(1,0,0,1,-88.58,-43.42)">
        <path d="M399,149.92C399,149.92 361,147.63 365.44,174.29C365.44,174.29 364.55,179 368.82,181.14C368.82,181.14 368.89,179.14 372.72,179.83C374.087,180.065 375.477,180.132 376.86,180.03C378.724,179.902 380.497,179.172 381.91,177.95C383.323,176.728 392.6,173.53 396.76,156.05C396.76,156.05 399.84,152.24 399.76,151.26L393.32,154C393.32,154 395.51,158.63 393.79,162.48C393.79,162.48 393.58,154.17 392.34,154.36C392.09,154.36 389.01,155.97 389.01,155.97C389.01,155.97 392.78,164.04 389.93,169.9C389.93,169.9 391.01,159.96 387.83,156.55L383.31,159.19C383.31,159.19 387.72,167.52 384.73,174.32C384.73,174.32 385.5,163.89 382.36,159.83L378.26,163.03C378.26,163.03 382.41,171.24 379.88,176.88C379.88,176.88 379.55,164.74 377.38,163.82C377.38,163.82 373.79,166.98 373.25,168.28C373.25,168.28 376.09,174.28 374.32,177.39C374.32,177.39 373.25,169.3 372.32,169.26C372.32,169.26 368.75,174.62 368.38,178.26C368.553,174.867 369.611,171.577 371.45,168.72C369.393,169.109 367.494,170.093 365.99,171.55C364.486,173.007 366.54,167.76 372.34,167.43C372.34,167.43 375.29,163.36 376.08,163.12C376.08,163.12 370.31,162.63 366.82,164.18C366.82,164.18 369.9,160.61 377.13,162.18L381.13,158.88C381.13,158.88 373.55,157.88 370.33,158.99C370.33,158.99 374.04,155.83 382.22,158.13L386.63,155.5C386.63,155.5 380.16,154.11 376.31,154.61C376.31,154.61 380.37,152.42 387.92,154.79L391.06,153.38C391.06,153.38 386.33,152.45 384.94,152.3C383.55,152.15 383.48,151.77 383.48,151.77C386.482,151.277 389.562,151.623 392.38,152.77C395.198,153.917 399.13,150.34 399,149.92Z" style="fill:rgb(0,124,166);fill-rule:nonzero;"/>
    </g>
    <g transform="matrix(1,0,0,1,-88.58,-43.42)">
        <path d="M933.6,259.5C933.6,259.5 895.6,257.21 900.04,283.87C900.04,283.87 899.15,288.58 903.42,290.72C903.42,290.72 903.49,288.72 907.32,289.41C908.687,289.639 910.077,289.706 911.46,289.61C913.307,289.474 915.061,288.744 916.46,287.53C917.859,286.316 927.16,283.11 931.31,265.63C931.31,265.63 934.39,261.82 934.31,260.84L927.89,263.58C927.89,263.58 930.08,268.21 928.36,272.06C928.36,272.06 928.15,263.75 926.92,263.94C926.67,263.94 923.58,265.55 923.58,265.55C923.58,265.55 927.35,273.62 924.51,279.48C924.51,279.48 925.59,269.54 922.4,266.13L917.88,268.77C917.88,268.77 922.29,277.1 919.3,283.9C919.3,283.9 920.07,273.47 916.93,269.41L912.84,272.61C912.84,272.61 916.98,280.82 914.45,286.46C914.45,286.46 914.12,274.32 911.95,273.4C911.95,273.4 908.37,276.56 907.82,277.86C907.82,277.86 910.66,283.86 908.9,286.97C908.9,286.97 907.82,278.88 906.9,278.84C906.9,278.84 903.33,284.2 902.96,287.84C903.133,284.445 904.195,281.155 906.04,278.3C903.98,278.69 902.078,279.674 900.57,281.13C899.062,282.586 901.13,277.34 906.92,277.01C906.92,277.01 909.87,272.94 910.66,272.69C910.66,272.69 904.9,272.21 901.4,273.76C901.4,273.76 904.48,270.19 911.71,271.76L915.71,268.46C915.71,268.46 908.12,267.46 904.91,268.57C904.91,268.57 908.61,265.41 916.8,267.71L921.2,265.08C921.2,265.08 914.73,263.69 910.88,264.19C910.88,264.19 914.94,262 922.49,264.37L925.64,262.96C925.64,262.96 920.9,262.03 919.51,261.88C918.12,261.73 918.05,261.35 918.05,261.35C921.052,260.851 924.134,261.197 926.95,262.35C929.766,263.503 933.72,259.92 933.6,259.5Z" style="fill:rgb(0,124,166);fill-opacity:0.1;fill-rule:nonzero;"/>
    </g>
    <g transform="matrix(1,0,0,1,-88.58,-43.42)">
        <path d="M463,314.62C463,314.62 446.44,280.29 425.36,297.21C425.36,297.21 420.81,298.73 421.03,303.5C421.03,303.5 422.78,302.59 424.03,306.27C424.497,307.571 425.114,308.813 425.87,309.97C426.893,311.539 428.399,312.732 430.16,313.37C431.921,314.008 439.23,320.55 456.52,315.65C456.52,315.65 461.35,316.48 462.14,315.9L456.62,311.63C456.62,311.63 453.62,315.8 449.44,316.17C449.44,316.17 456.6,311.94 455.83,310.96C455.67,310.76 452.83,308.83 452.83,308.83C452.83,308.83 447.62,316.06 441.12,316.43C441.12,316.43 450.32,312.53 451.74,308.08L447.24,305.42C447.24,305.42 442.11,313.34 434.72,314.04C434.72,314.04 444.2,309.63 446.21,304.91L441.43,302.91C441.43,302.91 436.28,310.53 430.12,311.08C430.12,311.08 440.56,304.87 440.3,302.52C440.3,302.52 435.79,300.94 434.39,301.09C434.39,301.09 430.57,306.48 426.97,306.48C426.97,306.48 433.5,301.59 433.1,300.8C433.1,300.8 426.68,300.3 423.3,301.8C426.346,300.286 429.735,299.597 433.13,299.8C431.783,298.194 429.996,297.016 427.99,296.41C425.984,295.804 431.57,295.05 434.68,299.94C434.68,299.94 439.68,300.53 440.27,301.1C440.27,301.1 437.88,295.84 434.83,293.55C434.83,293.55 439.45,294.48 441.56,301.55L446.41,303.47C446.41,303.47 443.62,296.35 441.05,294.1C441.05,294.1 445.61,295.79 447.6,304.1L452.04,306.66C452.04,306.66 450.11,300.33 447.79,297.22C447.79,297.22 451.68,299.7 453.29,307.44L456.06,309.5C456.06,309.5 454.56,304.91 454.06,303.63C453.56,302.35 453.81,302.09 453.81,302.09C455.712,304.464 456.917,307.321 457.29,310.34C457.663,313.359 462.64,314.92 463,314.62Z" style="fill:rgb(0,124,166);fill-opacity:0.1;fill-rule:nonzero;"/>
    </g>
    <g transform="matrix(1,0,0,1,-88.58,-43.42)">
        <path d="M846.78,211C846.78,211 830.23,176.67 809.14,193.59C809.14,193.59 804.6,195.11 804.81,199.88C804.81,199.88 806.57,198.98 807.81,202.65C808.276,203.956 808.897,205.202 809.66,206.36C810.679,207.926 812.183,209.116 813.94,209.75C815.697,210.384 823.02,216.93 840.3,212.04C840.3,212.04 845.13,212.86 845.93,212.28L840.44,208C840.44,208 837.44,212.18 833.27,212.55C833.27,212.55 840.42,208.31 839.65,207.33C839.49,207.13 836.65,205.2 836.65,205.2C836.65,205.2 831.45,212.43 824.94,212.8C824.94,212.8 834.15,208.9 835.57,204.46L831,201.82C831,201.82 825.88,209.73 818.48,210.44C818.48,210.44 827.96,206.02 829.98,201.3L825.19,199.3C825.19,199.3 820.04,206.93 813.89,207.47C813.89,207.47 824.32,201.26 824.06,198.92C824.06,198.92 819.56,197.33 818.16,197.49C818.16,197.49 814.34,202.87 810.73,202.87C810.73,202.87 817.27,197.98 816.87,197.19C816.87,197.19 810.45,196.69 807.06,198.19C810.105,196.676 813.495,195.986 816.89,196.19C815.548,194.583 813.764,193.404 811.76,192.8C809.756,192.196 815.34,191.44 818.45,196.33C818.45,196.33 823.45,196.93 824.04,197.5C824.04,197.5 821.65,192.23 818.59,189.94C818.59,189.94 823.21,190.88 825.32,197.99L830.18,199.91C830.18,199.91 827.39,192.78 824.82,190.53C824.82,190.53 829.38,192.22 831.36,200.53L835.81,203.09C835.81,203.09 833.87,196.77 831.55,193.65C831.55,193.65 835.45,196.13 837.05,203.87L839.82,205.93C839.82,205.93 838.33,201.34 837.82,200.06C837.31,198.78 837.57,198.53 837.57,198.53C839.467,200.906 840.668,203.762 841.04,206.78C841.412,209.798 846.47,211.32 846.78,211Z" style="fill:rgb(0,124,166);fill-opacity:0.1;fill-rule:nonzero;"/>
    </g>
    <g transform="matrix(1,0,0,1,-88.58,-43.42)">
        <path d="M899.67,380.81C899.67,380.81 883.12,346.47 862,363.39C862,363.39 857.46,364.91 857.67,369.68C857.67,369.68 859.43,368.78 860.67,372.45C861.133,373.756 861.751,375.001 862.51,376.16C863.529,377.726 865.033,378.916 866.79,379.55C868.547,380.184 875.87,386.74 893.16,381.84C893.16,381.84 897.98,382.67 898.78,382.08L893.26,377.81C893.26,377.81 890.26,381.99 886.08,382.36C886.08,382.36 893.23,378.12 892.46,377.14C892.3,376.94 889.46,375.01 889.46,375.01C889.46,375.01 884.26,382.24 877.75,382.62C877.75,382.62 886.96,378.71 888.38,374.27L883.87,371.61C883.87,371.61 878.75,379.53 871.35,380.23C871.35,380.23 880.83,375.81 882.85,371.09L878.06,369.09C878.06,369.09 872.91,376.71 866.76,377.26C866.76,377.26 877.2,371.05 876.94,368.7C876.94,368.7 872.43,367.11 871.03,367.27C871.03,367.27 867.21,372.65 863.6,372.65C863.6,372.65 870.14,367.76 869.74,366.97C869.74,366.97 863.32,366.47 859.93,367.97C862.979,366.457 866.372,365.767 869.77,365.97C868.426,364.361 866.638,363.181 864.63,362.58C862.622,361.979 868.21,361.21 871.32,366.11C871.32,366.11 876.32,366.7 876.91,367.27C876.91,367.27 874.52,362.01 871.47,359.71C871.47,359.71 876.09,360.65 878.2,367.76L883.05,369.68C883.05,369.68 880.26,362.55 877.69,360.31C877.69,360.31 882.25,361.99 884.23,370.31L888.68,372.86C888.68,372.86 886.74,366.54 884.42,363.42C884.42,363.42 888.32,365.9 889.93,373.65L892.7,375.65C892.7,375.65 891.2,371.06 890.7,369.78C890.2,368.5 890.45,368.25 890.45,368.25C892.351,370.624 893.553,373.481 893.92,376.5C894.287,379.519 899.36,381.11 899.67,380.81Z" style="fill:rgb(0,124,166);fill-opacity:0.1;fill-rule:nonzero;"/>
    </g>
    <ellipse cx="201.95" cy="781.59" rx="22.99" ry="2.57" style="fill:rgb(0,124,166);fill-opacity:0.1;"/>
    <ellipse cx="51.24" cy="737.91" rx="22.99" ry="2.57" style="fill:rgb(0,124,166);fill-opacity:0.1;"/>
    <ellipse cx="316.83" cy="810.6" rx="22.99" ry="2.57" style="fill:rgb(0,124,166);fill-opacity:0.1;"/>
    <ellipse cx="905.53" cy="747.41" rx="22.99" ry="2.57" style="fill:rgb(0,124,166);fill-opacity:0.1;"/>
    <ellipse cx="714.22" cy="734.94" rx="22.99" ry="2.57" style="fill:rgb(0,124,166);fill-opacity:0.1;"/>
    <ellipse cx="590.46" cy="793.66" rx="27.19" ry="4.67" style="fill:rgb(0,124,166);fill-opacity:0.1;"/>
    <g transform="matrix(1,0,0,1,-88.58,-43.42)">
        <path d="M691.17,790.14C691.17,790.14 653.31,809.7 672.87,832.74C672.87,832.74 674.71,837.74 680.03,837.39C680.03,837.39 678.97,835.45 683.03,833.9C684.475,833.342 685.848,832.613 687.12,831.73C688.839,830.542 690.124,828.824 690.78,826.84C691.436,824.856 698.52,816.48 692.52,797.31C692.52,797.31 693.3,791.89 692.62,791.01L688.02,797.32C688.02,797.32 692.77,800.51 693.32,805.2C693.32,805.2 688.32,797.33 687.32,798.2C687.1,798.38 685.04,801.65 685.04,801.65C685.04,801.65 693.28,807.24 693.89,814.5C693.89,814.5 689.25,804.33 684.24,802.88L681.37,808C681.37,808 690.37,813.48 691.37,821.72C691.37,821.72 686.14,811.27 680.8,809.16L678.69,814.57C678.69,814.57 687.37,820.09 688.17,826.95C688.17,826.95 680.91,815.48 678.3,815.84C678.3,815.84 676.66,820.92 676.88,822.49C676.88,822.49 683.01,826.59 683.12,830.62C683.12,830.62 677.46,823.47 676.59,823.94C676.59,823.94 676.23,831.13 677.97,834.87C677.97,834.87 674.97,829.53 675.46,823.94C673.706,825.491 672.444,827.521 671.83,829.78C671.216,832.039 670.2,825.83 675.57,822.19C675.57,822.19 676.08,816.6 676.7,815.91C676.7,815.91 670.89,818.75 668.42,822.23C668.42,822.23 669.33,817.04 677.21,814.46L679.21,808.98C679.21,808.98 671.33,812.32 668.9,815.26C668.9,815.26 670.65,810.11 679.83,807.64L682.55,802.64C682.55,802.64 675.55,805 672.13,807.64C672.13,807.64 674.78,803.21 683.39,801.17L685.6,798.02C685.6,798.02 680.52,799.83 679.1,800.48C677.68,801.13 677.4,800.81 677.4,800.81C679.995,798.615 683.149,797.181 686.51,796.67C689.871,796.159 691.52,790.48 691.17,790.14Z" style="fill:rgb(0,124,166);fill-rule:nonzero;"/>
    </g>
    <g transform="matrix(1,0,0,1,-88.58,-43.42)">
        <path d="M803.54,420.71C797,402.94 761,401.27 745.38,405.8C734.28,409.03 710.88,412.67 698.38,414.5L697.57,413.73C699.19,413.25 699.23,412.07 699.03,410.32C698.914,408.014 698.947,405.702 699.13,403.4C706.79,405.78 713.61,400.15 713.61,400.15C722.61,396.15 720.19,379.03 721.91,374.35C723.2,370.85 724.59,350.23 725.21,339.95L725.34,339.95L725.41,336.5C725.5,335.01 725.54,334.14 725.54,334.14C725.54,334.14 726.42,309 728.14,303.91C729.74,299.23 731.04,275.65 731.24,271.91L731.24,271.42L731.11,269.24C731.2,267.65 731.24,265.88 731.23,264.02C731.23,255.47 730.34,244.7 730.23,242.96L730.23,242.05C730.3,238.4 729.84,220.12 714.29,213.21C708.56,210.65 701.67,207.6 695,204.63C693.28,189.78 689.35,175.01 689.69,160.05C689.69,157.8 689.89,155.55 690.11,153.31C690.11,153.96 690.04,154.62 690.03,155.31L690.03,159.67C690.62,140.96 697.69,122.15 697.03,103.84C696.97,105.63 696.84,107.43 696.67,109.23C697.015,103.037 696.367,96.828 694.75,90.84C694.15,88.73 693.34,86.55 691.61,85.14C689.975,84.004 688.099,83.262 686.13,82.97C681.398,81.759 676.591,80.863 671.74,80.29C671.003,78.034 669.909,75.91 668.5,74C658.36,60.08 643.34,47 625.58,44C616.67,42.5 606.42,43.75 600.36,50.12C599.727,50.68 599.132,51.281 598.58,51.92C595.32,55.81 593.92,60.92 590.58,64.8C590.36,65.06 590.11,65.3 589.87,65.55C583.33,71.4 573.14,72.62 565.87,77.87C564.589,78.812 563.388,79.859 562.28,81C559.351,83.903 556.724,87.096 554.44,90.53C551.17,95.13 547.81,99.92 546.77,105.41C544.68,116.41 552.17,126.84 553.56,137.91C556.66,162.68 529.25,184.66 534.44,209.1C535.825,215.104 538.883,220.593 543.26,224.93C532.57,234.61 523.47,244 523.47,244L523.47,244.56L521.78,244.56L521.95,246.56L521.78,246.56L522.71,257.41L521.78,273.21L521.78,274.7L521.84,274.7C522.15,280.49 523.38,301.31 524.84,305.7C526.56,310.79 527.43,335.93 527.43,335.93C527.43,335.93 529.33,371.46 531.07,376.16C532.81,380.86 530.34,397.93 539.37,401.96C542.011,403.986 545.14,405.283 548.44,405.72C547.98,409.46 548.27,412.17 549.76,413.02C550.398,413.395 551.12,413.601 551.86,413.62C551.247,414.529 550.703,415.481 550.23,416.47C546.646,416.096 543.124,415.266 539.75,414C530.05,410 497.86,401 488.51,407.33C479.16,413.66 456.66,419.4 467.05,444.88C477.44,470.36 482.28,471 482.28,471C485.478,473.322 488.284,476.141 490.59,479.35C493.71,484.04 522.78,494.77 530.05,494.77C533.14,494.722 536.23,494.876 539.3,495.23C542.37,495.584 531.41,502.15 532.46,506.17C533.51,510.19 530.06,542.37 530.06,542.37C530.06,542.37 538.06,550.43 541.48,539.86L541.6,540.02C542.24,540.89 545.7,544.82 552.21,539.86C554.874,537.839 557.704,536.046 560.67,534.5L592.19,530.04C595.476,529.835 598.771,529.811 602.06,529.97C607.06,530.38 611.97,527.42 615.06,525.13C621.59,527.61 628.93,530.32 632.42,531.31C639.5,533.31 672.04,542.04 679.65,539.31C681.232,538.681 682.638,537.679 683.75,536.39L691.01,536.62L687.61,537.3C687.61,537.3 694.23,537.41 703.23,537.53L702.85,537.75L714.14,537.65C730.66,537.8 749.22,537.85 751.66,537.3C755.48,536.45 775.33,537.05 781.18,537.3L782.81,537.3C782.81,537.3 804.62,532.95 795.62,510.82C788.7,493.82 767.43,488.88 757.99,487.52C760.65,486.99 762.94,486.58 764.46,486.34C771.05,485.34 783.85,479.34 784.89,477.29C785.93,475.24 796.66,469.29 799.43,465.9C802.2,462.51 810.11,438.48 803.54,420.71ZM622.89,470.44L621.82,470.79L621.1,471.03L619.72,472.39C618.62,471.65 617.44,470.87 616.21,470.07C618.38,470.2 620.61,470.33 622.89,470.44Z" style="fill:url(#_Linear1);fill-rule:nonzero;"/>
    </g>
    <g transform="matrix(1,0,0,1,-88.58,-43.42)">
        <path d="M686.65,365C686.65,365 701.95,405 710.65,401C719.35,397 716.99,380 718.65,375.34C720.31,370.68 722.15,335.34 722.15,335.34C722.15,335.34 722.99,310.34 724.65,305.28C726.19,300.63 727.44,277.18 727.65,273.49L727.65,273L726,244L716.66,241.67L695,249.67L692,266.8L690.83,273.49L690.33,276.34L686.65,365Z" style="fill:rgb(190,111,114);fill-rule:nonzero;"/>
    </g>
    <g transform="matrix(1,0,0,1,-88.58,-43.42)">
        <path d="M691.69,358.3C691.69,358.3 706.29,370.25 710.69,371.3C715.09,372.35 717.79,381.67 717.79,381.67" style="fill-opacity:0.1;fill-rule:nonzero;"/>
    </g>
    <g transform="matrix(1,0,0,1,-88.58,-43.42)">
        <path d="M567,366.75C567,366.75 551.7,406.75 543,402.75C534.3,398.75 536.66,381.75 535,377.09C533.34,372.43 531.5,337.09 531.5,337.09C531.5,337.09 530.66,312.09 529,307.03C527.46,302.38 526.21,278.93 526,275.24L526,274.75L527.66,245.75L537,243.42L558.66,251.42L561.66,268.55L562.83,275.24L563.33,278.09L567,366.75Z" style="fill:rgb(190,111,114);fill-rule:nonzero;"/>
    </g>
    <rect x="543.9" y="109.27" width="34.15" height="53.23" style="fill:rgb(62,55,58);"/>
    <rect x="543.9" y="109.27" width="34.15" height="53.23" style="fill-opacity:0.1;"/>
    <g transform="matrix(1,0,0,1,-88.58,-43.42)">
        <path d="M561,406.59C561,406.59 549.33,419.42 553.66,421.75C557.99,424.08 586,467.75 586,467.75C586,467.75 678,479.08 695.35,462.08C712.7,445.08 712.35,414.71 712.35,414.71C712.35,414.71 698.41,417.71 696.89,416.08C695.37,414.45 687.02,406.59 687.02,406.59C687.02,406.59 569,399.43 561,406.59Z" style="fill:rgb(75,75,91);fill-rule:nonzero;"/>
    </g>
    <g transform="matrix(1,0,0,1,-88.58,-43.42)">
        <path d="M561,406.59C561,406.59 549.33,419.42 553.66,421.75C557.99,424.08 586,467.75 586,467.75C586,467.75 678,479.08 695.35,462.08C712.7,445.08 712.35,414.71 712.35,414.71C712.35,414.71 698.41,417.71 696.89,416.08C695.37,414.45 687.02,406.59 687.02,406.59C687.02,406.59 569,399.43 561,406.59Z" style="fill-opacity:0.02;fill-rule:nonzero;"/>
    </g>
    <g transform="matrix(1,0,0,1,-88.58,-43.42)">
        <path d="M726.62,244.42L696.62,268.42L687.55,269.08L684.22,269.32L628.29,273.42L570.29,269.18L561.66,268.55L550.66,267.75L527.66,245.75C527.66,245.75 543.94,228.31 558.2,216.54C563.82,211.89 569.13,208.13 573,206.65L573.66,206.42C576.094,205.471 578.268,203.956 580,202C591.26,190.39 601.67,161.74 601.67,161.74C601.67,161.74 651.34,136.08 645.34,169.74C639.34,203.4 667.67,195.08 667.67,195.08L677.01,199.34L680.7,201.03L690.11,205.34L711.34,215.08C728,222.75 726.62,244.42 726.62,244.42Z" style="fill:rgb(190,111,114);fill-rule:nonzero;"/>
    </g>
    <circle cx="537.38" cy="101.06" r="44.67" style="fill-opacity:0.1;"/>
    <g transform="matrix(1,0,0,1,-88.58,-43.42)">
        <path d="M726.69,276.24L526,276.24L526,275.75L527.66,246.75C527.66,246.75 543.94,229.31 558.2,217.54L684.2,212.54L690.06,206.36L711.29,216.1C727.96,223.76 726.62,245.43 726.62,245.43C726.62,245.43 728.9,270.54 726.69,276.24Z" style="fill-opacity:0.1;fill-rule:nonzero;"/>
    </g>
    <g transform="matrix(1,0,0,1,-88.58,-43.42)">
        <path d="M726.69,275.24L526,275.24L526,274.75L527.66,245.75C527.66,245.75 543.94,228.31 558.2,216.54L684.2,211.54L690.06,205.36L711.29,215.1C727.96,222.76 726.62,244.43 726.62,244.43C726.62,244.43 728.9,269.54 726.69,275.24Z" style="fill:rgb(231,199,202);fill-rule:nonzero;"/>
    </g>
    <g transform="matrix(1,0,0,1,-88.58,-43.42)">
        <path d="M593.79,193.92C593.79,193.92 625.45,234.26 667.62,193.09C709.79,151.92 672.29,284.92 672.29,284.92L581.29,295.72L593.79,193.92Z" style="fill-opacity:0.1;fill-rule:nonzero;"/>
    </g>
    <g transform="matrix(1,0,0,1,-88.58,-43.42)">
        <path d="M593.79,195.92C593.79,195.92 625.45,236.26 667.62,195.09C709.79,153.92 672.29,286.92 672.29,286.92L581.29,297.72L593.79,195.92Z" style="fill:rgb(231,199,202);fill-rule:nonzero;"/>
    </g>
    <g transform="matrix(1,0,0,1,-88.58,-43.42)">
        <path d="M680.65,203L684,254.09L687.59,271.09L690.33,284.09C690.33,284.09 697.33,384.09 695.33,389.09C693.33,394.09 696.33,398.09 696.75,400.75C697.17,403.41 696.33,410.09 696.66,413.09C696.99,416.09 696.66,417.42 689,416.35C681.34,415.28 670.66,413.42 670.66,413.42C670.66,413.42 643.66,415.42 634.33,412.09C625,408.76 607.33,408.75 607.33,408.75C607.33,408.75 580.66,409.42 572,408.42C563.34,407.42 558.66,419.09 553,415.75C547.34,412.41 559.66,380.09 563.66,370.75C567.66,361.41 558.33,337.75 558.33,337.75L570.33,271.18L573,256.09L573,208.65L573.66,208.42C576.094,207.471 578.268,205.956 580,204L583,251.74L677,255.08L677,201.35" style="fill-opacity:0.1;fill-rule:nonzero;"/>
    </g>
    <g transform="matrix(1,0,0,1,-88.58,-43.42)">
        <path d="M680.65,201L684,252.09L687.59,269.09L690.33,282.09C690.33,282.09 697.33,382.09 695.33,387.09C693.33,392.09 696.33,396.09 696.75,398.75C697.17,401.41 696.33,408.09 696.66,411.09C696.99,414.09 696.66,415.42 689,414.35C681.34,413.28 670.66,411.42 670.66,411.42C670.66,411.42 643.66,413.42 634.33,410.09C625,406.76 607.33,406.75 607.33,406.75C607.33,406.75 580.66,407.42 572,406.42C563.34,405.42 558.66,417.09 553,413.75C547.34,410.41 559.66,378.09 563.66,368.75C567.66,359.41 558.33,335.75 558.33,335.75L570.33,269.18L573,254.09L573,206.65L573.66,206.42C576.094,205.471 578.268,203.956 580,202L583,249.74L677,253.08L677,199.35" style="fill:rgb(231,199,202);fill-rule:nonzero;"/>
    </g>
    <g transform="matrix(1,0,0,1,-88.58,-43.42)">
        <path d="M691.46,94.38C690.89,92.29 690.1,90.12 688.46,88.72C686.894,87.596 685.085,86.856 683.18,86.56C678.619,85.361 673.981,84.472 669.3,83.9C668.631,81.68 667.619,79.577 666.3,77.67C656.5,63.83 642,50.78 624.94,47.83C616.01,46.28 605.66,47.67 599.94,54.71C596.8,58.58 595.45,63.71 592.28,67.51C586.17,74.89 575.14,75.8 567.44,81.51C563.33,84.51 560.35,88.86 557.44,93.08C554.29,97.65 551.05,102.41 550.05,107.87C548.05,118.78 555.26,129.18 556.59,140.19C559.59,164.82 533.19,186.67 538.18,210.97C541.09,225.14 554.18,235.12 567.72,240.18C572.49,241.97 577.94,243.75 580.17,248.33C581.17,250.33 581.34,252.64 582.28,254.66C585.44,261.4 595.83,261.66 601.41,256.75C606.99,251.84 608.75,243.9 609.41,236.49C612.09,204.13 599.13,172.16 600.64,139.72C601.09,129.91 603.85,118.78 612.64,114.34C624.47,108.34 638.7,118.34 651.72,116.43C657.88,131.419 659.189,147.969 655.46,163.74C653.39,172.37 649.81,180.74 649.55,189.64C649.16,203.19 656.47,215.57 662.79,227.55C664.146,229.79 665.053,232.273 665.46,234.86C665.559,237.485 665.071,240.099 664.03,242.51C660.46,252.12 654.3,261.04 653.6,271.27C653.395,272.464 653.664,273.692 654.35,274.69C655.054,275.356 655.964,275.765 656.93,275.85C667.73,277.7 677.07,268.13 682.34,258.52C688.215,247.906 691.639,236.11 692.36,224C693.45,203.64 686.15,183.61 686.6,163.23C687.12,140.06 697.59,116.73 691.46,94.38Z" style="fill-opacity:0.1;fill-rule:nonzero;"/>
    </g>
    <g transform="matrix(1,0,0,1,-88.58,-43.42)">
        <path d="M692.46,93.38C691.89,91.29 691.1,89.12 689.46,87.72C687.894,86.596 686.085,85.856 684.18,85.56C679.619,84.361 674.981,83.472 670.3,82.9C669.631,80.68 668.619,78.577 667.3,76.67C657.5,62.83 643,49.78 625.94,46.83C617.01,45.28 606.66,46.67 600.94,53.71C597.8,57.58 596.45,62.71 593.28,66.51C587.17,73.89 576.14,74.8 568.44,80.51C564.33,83.51 561.35,87.86 558.44,92.08C555.29,96.65 552.05,101.41 551.05,106.87C549.05,117.78 556.26,128.18 557.59,139.19C560.59,163.82 534.19,185.67 539.18,209.97C542.09,224.14 555.18,234.12 568.72,239.18C573.49,240.97 578.94,242.75 581.17,247.33C582.17,249.33 582.34,251.64 583.28,253.66C586.44,260.4 596.83,260.66 602.41,255.75C607.99,250.84 609.75,242.9 610.41,235.49C613.09,203.13 600.13,171.16 601.64,138.72C602.09,128.91 604.85,117.78 613.64,113.34C625.47,107.34 639.7,117.34 652.72,115.43C658.88,130.419 660.189,146.969 656.46,162.74C654.39,171.37 650.81,179.74 650.55,188.64C650.16,202.19 657.47,214.57 663.79,226.55C665.146,228.79 666.053,231.273 666.46,233.86C666.559,236.485 666.071,239.099 665.03,241.51C661.46,251.12 655.3,260.04 654.6,270.27C654.395,271.464 654.664,272.692 655.35,273.69C656.054,274.356 656.964,274.765 657.93,274.85C668.73,276.7 678.07,267.13 683.34,257.52C689.215,246.906 692.639,235.11 693.36,223C694.45,202.64 687.15,182.61 687.6,162.23C688.12,139.06 698.59,115.73 692.46,93.38Z" style="fill:rgb(62,55,58);fill-rule:nonzero;"/>
    </g>
    <path d="M581.79,492.73L621.46,494L615.77,464.58L585.38,467.47L581.79,492.73Z" style="fill:rgb(195,199,217);fill-rule:nonzero;"/>
    <g transform="matrix(1,0,0,1,-88.58,-43.42)">
        <path d="M793.29,466.42C790.62,469.75 780.29,475.75 779.29,477.75C778.29,479.75 765.96,485.75 759.62,486.75C753.28,487.75 733.29,492.09 729.62,494.42C726.99,496.1 705.88,501.42 692.01,504.37C688.253,505.259 684.451,505.943 680.62,506.42C674.62,506.75 608.96,484.42 608.96,484.42L621.62,471.42L622.32,471.18C625.9,469.97 642.44,464.38 651.62,461.72C661.96,458.72 673.96,446.39 673.96,446.39C673.96,446.39 691.62,440.39 693.96,439.72C696.3,439.05 687.96,416.39 687.96,416.39C687.96,416.39 726.29,411.07 741.29,406.56C756.29,402.05 790.96,403.72 797.29,421.39C803.62,439.06 796,463.09 793.29,466.42Z" style="fill:rgb(75,75,91);fill-rule:nonzero;"/>
    </g>
    <g transform="matrix(1,0,0,1,-88.58,-43.42)">
        <path d="M618.62,522.75C618.62,522.75 610.96,530.75 603.29,530.09C595.62,529.43 568.8,532.09 568.8,532.09C563.94,534.029 559.388,536.667 555.29,539.92C549.02,544.86 545.69,540.92 545.07,540.08L544.96,539.92C541.62,550.43 533.96,542.42 533.96,542.42C533.96,542.42 537.29,510.42 536.27,506.42C535.25,502.42 542.86,495.55 542.86,495.55L551.86,493.26L574.66,487.42L607.33,498.75L618.62,522.75Z" style="fill:rgb(231,199,202);fill-rule:nonzero;"/>
    </g>
    <g transform="matrix(1,0,0,1,-88.58,-43.42)">
        <path d="M551.82,493.26L545.07,540.08L544.96,539.92C541.62,550.43 533.96,542.42 533.96,542.42C533.96,542.42 537.29,510.42 536.27,506.42C535.25,502.42 542.86,495.55 542.86,495.55L551.82,493.26Z" style="fill-opacity:0.1;fill-rule:nonzero;"/>
    </g>
    <g transform="matrix(1,0,0,1,-88.58,-43.42)">
        <path d="M599,360.08C599,360.08 616.66,366.08 632,360.08" style="fill-opacity:0.1;fill-rule:nonzero;"/>
    </g>
    <g transform="matrix(1,0,0,1,-88.58,-43.42)">
        <path d="M659.29,371.42C659.29,371.42 666.62,375.08 672.29,371.42" style="fill-opacity:0.1;fill-rule:nonzero;"/>
    </g>
    <g transform="matrix(1,0,0,1,-88.58,-43.42)">
        <path d="M659.29,380.1C659.29,380.1 671.62,381.75 673.96,378.42" style="fill-opacity:0.1;fill-rule:nonzero;"/>
    </g>
    <g transform="matrix(1,0,0,1,-88.58,-43.42)">
        <path d="M655.29,398.75C655.29,398.75 678.45,395.75 684.2,391.75" style="fill-opacity:0.1;fill-rule:nonzero;"/>
    </g>
    <g transform="matrix(1,0,0,1,-88.58,-43.42)">
        <path d="M584.62,391.75C584.62,391.75 597.62,399.08 607.29,398.75" style="fill-opacity:0.1;fill-rule:nonzero;"/>
    </g>
    <g transform="matrix(1,0,0,1,-88.58,-43.42)">
        <path d="M692,504.37C688.243,505.259 684.441,505.943 680.61,506.42C674.61,506.75 608.95,484.42 608.95,484.42L621.61,471.42L622.31,471.18C624.31,472.59 625.95,473.8 627.12,474.72C632.63,479.06 637.95,473.39 639.95,473.39C641.95,473.39 659.28,487.72 659.28,487.72C659.28,487.72 675.28,491.39 677.95,494.72C680.62,498.05 689.95,497.39 691.61,499.72C692.11,500.44 692.17,502.21 692,504.37Z" style="fill-opacity:0.1;fill-rule:nonzero;"/>
    </g>
    <g transform="matrix(1,0,0,1,-88.58,-43.42)">
        <path d="M568.8,417.75C568.8,417.75 552.62,418.68 543.29,414.75C533.96,410.82 502.96,401.75 493.96,408.12C484.96,414.49 463.29,420.12 473.29,445.46C483.29,470.8 487.96,471.46 487.96,471.46C491.054,473.78 493.755,476.583 495.96,479.76C498.96,484.43 526.96,495.09 533.96,495.09C540.96,495.09 553.29,495.09 570.62,507.09C587.95,519.09 603.62,520.43 603.62,520.43C603.62,520.43 625.62,529.43 632.47,531.43C639.32,533.43 670.62,542.09 677.96,539.43C685.3,536.77 689.96,520.09 689.96,520.09C689.96,520.09 693.29,505.09 691.62,502.76C689.95,500.43 680.62,501.09 677.96,497.76C675.3,494.43 659.29,490.76 659.29,490.76C659.29,490.76 642,476.42 640,476.42C638,476.42 632.68,482.08 627.17,477.75C616.194,469.62 604.663,462.269 592.66,455.75C580,449.08 568.8,417.75 568.8,417.75Z" style="fill:rgb(75,75,91);fill-rule:nonzero;"/>
    </g>
    <g transform="matrix(1,0,0,1,-88.58,-43.42)">
        <path d="M536.27,427.42C542.105,426.228 548.175,427.831 552.66,431.75C560.66,438.42 587.58,451.81 587.58,451.81" style="fill-opacity:0.1;fill-rule:nonzero;"/>
    </g>
    <g transform="matrix(1,0,0,1,-88.58,-43.42)">
        <path d="M736.29,427C736.29,427 700.62,432.4 693.96,439.73" style="fill-opacity:0.1;fill-rule:nonzero;"/>
    </g>
    <g transform="matrix(1,0,0,1,-88.58,-43.42)">
        <path d="M777.29,537.42L775.72,537.42C770.08,537.22 750.97,536.62 747.29,537.42C742.96,538.42 685.62,537.42 685.62,537.42L696.83,535.09C696.83,535.09 692.67,520.51 695.31,519.3C695.31,519.3 680.31,509.42 691.62,502.75C702.93,496.08 715.12,498.89 715.12,498.89L743.51,489.27L748.96,487.42C748.96,487.42 780.96,489.09 789.62,511.09C798.28,533.09 777.29,537.42 777.29,537.42Z" style="fill:rgb(231,199,202);fill-rule:nonzero;"/>
    </g>
    <g transform="matrix(1,0,0,1,-88.58,-43.42)">
        <path d="M777.29,537.42L775.72,537.42C785.03,529.74 806.09,506.36 743.51,489.32L748.96,487.47C748.96,487.47 780.96,489.14 789.62,511.14C798.28,533.14 777.29,537.42 777.29,537.42Z" style="fill-opacity:0.1;fill-rule:nonzero;"/>
    </g>
    <circle cx="629.88" cy="466.33" r="1.75" style="fill:rgb(75,75,91);"/>
    <circle cx="619.71" cy="469.22" r="1.75" style="fill:rgb(75,75,91);"/>
    <g opacity="0.1">
        <g transform="matrix(1,0,0,1,-88.58,-43.42)">
            <path d="M658.74,142.83C659.128,131.831 657.171,120.875 653,110.69C640,112.63 625.76,102.6 613.92,108.6C605.16,113.04 602.41,124.17 601.92,133.98C601.8,136.57 601.78,139.16 601.83,141.75C601.83,140.83 601.83,139.9 601.92,138.98C602.38,129.17 605.13,118.04 613.92,113.6C625.76,107.6 639.98,117.6 653,115.69C656.532,124.317 658.477,133.512 658.74,142.83Z" style="fill-rule:nonzero;"/>
        </g>
        <g transform="matrix(1,0,0,1,-88.58,-43.42)">
            <path d="M558,141C558.171,138.821 558.128,136.63 557.87,134.46C556.81,125.66 552,117.25 551.13,108.67C550.01,119.02 556.6,128.96 557.87,139.46C558,140 558,140.48 558,141Z" style="fill-rule:nonzero;"/>
        </g>
        <g transform="matrix(1,0,0,1,-88.58,-43.42)">
            <path d="M610.69,230.74C610.07,238.16 608.32,246.09 602.69,251.01C597.06,255.93 586.69,255.66 583.56,248.92C582.56,246.92 582.41,244.59 581.44,242.59C579.22,238.01 573.76,236.23 568.99,234.44C555.44,229.37 542.37,219.44 539.46,205.23C539.2,203.943 539.023,202.64 538.93,201.33C538.684,204.307 538.863,207.303 539.46,210.23C542.37,224.4 555.46,234.37 568.99,239.44C573.76,241.23 579.22,243.01 581.44,247.59C582.44,249.59 582.61,251.9 583.56,253.92C586.71,260.66 597.1,260.92 602.69,256.01C608.28,251.1 610.02,243.16 610.69,235.74C610.994,231.835 611.098,227.916 611,224C611,226.27 610.87,228.51 610.69,230.74Z" style="fill-rule:nonzero;"/>
        </g>
        <g transform="matrix(1,0,0,1,-88.58,-43.42)">
            <path d="M687.93,157.49L687.93,161.82C688.49,143.22 695.31,124.52 694.64,106.31C694.12,123.15 688.31,140.37 687.93,157.49Z" style="fill-rule:nonzero;"/>
        </g>
        <g transform="matrix(1,0,0,1,-88.58,-43.42)">
            <path d="M666.47,232.73C666.716,231.543 666.793,230.328 666.7,229.12C666.297,226.532 665.39,224.048 664.03,221.81C658.25,210.81 651.66,199.55 650.88,187.34C650.88,187.86 650.81,188.34 650.8,188.9C650.4,202.44 657.71,214.83 664.03,226.81C665.104,228.665 665.925,230.657 666.47,232.73Z" style="fill-rule:nonzero;"/>
        </g>
        <g transform="matrix(1,0,0,1,-88.58,-43.42)">
            <path d="M693.68,218.26C692.934,230.375 689.486,242.17 683.59,252.78C678.31,262.39 668.98,271.96 658.17,270.11C657.202,270.027 656.291,269.613 655.59,268.94C655.387,268.711 655.228,268.447 655.12,268.16C655,268.94 654.9,269.73 654.84,270.53C654.633,271.721 654.903,272.946 655.59,273.94C656.291,274.613 657.202,275.027 658.17,275.11C668.98,276.96 678.31,267.39 683.59,257.78C689.486,247.17 692.934,235.375 693.68,223.26C693.8,220.92 693.81,218.59 693.74,216.26C693.72,216.93 693.72,217.59 693.68,218.26Z" style="fill-rule:nonzero;"/>
        </g>
    </g>
    <g transform="matrix(1,0,0,1,-88.58,-43.42)">
        <path d="M695.31,519.3C695.31,519.3 720.62,529.92 737.31,506.42" style="fill:none;fill-rule:nonzero;stroke:black;stroke-opacity:0.1;stroke-width:1px;"/>
    </g>
    <g transform="matrix(1,0,0,1,-88.58,-43.42)">
        <path d="M700.29,537.86C700.29,537.86 720.96,524.42 747.29,537.42" style="fill:none;fill-rule:nonzero;stroke:black;stroke-opacity:0.1;stroke-width:1px;"/>
    </g>
    <g transform="matrix(1,0,0,1,-88.58,-43.42)">
        <path d="M561.93,534.81C561.93,534.81 570.61,515.23 593.79,530.16" style="fill:none;fill-rule:nonzero;stroke:black;stroke-opacity:0.1;stroke-width:1px;"/>
    </g>
    <g transform="matrix(1,0,0,1,-88.58,-43.42)">
        <path d="M533.79,245.25L551.49,229.25C551.49,229.25 620.12,224.75 622.96,248.08C622.96,248.08 647.29,220.42 698.46,226.58L720.11,243.82L660.27,270.08L602.12,290.25L559.29,271.08L533.79,245.25Z" style="fill-opacity:0.1;fill-rule:nonzero;"/>
    </g>
    <g transform="matrix(1,0,0,1,-88.58,-43.42)">
        <path d="M533.79,246.25L551.49,230.25C551.49,230.25 620.12,225.75 622.96,249.08C622.96,249.08 647.29,221.42 698.46,227.58L720.11,244.82L660.27,271.08L602.12,291.25L559.29,272.08L533.79,246.25Z" style="fill:rgb(213,214,219);fill-rule:nonzero;"/>
    </g>
    <path d="M437.38,204.83L445.21,298.5L528.21,302.67L524.61,209.4L524.54,207.83L437.38,204.83Z" style="fill-opacity:0.1;fill-rule:nonzero;"/>
    <path d="M437.38,202.83L445.21,296.5L528.21,300.67L524.61,207.4L524.54,205.83L437.38,202.83Z" style="fill:rgb(0,124,166);fill-rule:nonzero;"/>
    <path d="M635.33,202.83L549.71,215.67L549.71,309.76L633.38,297.67L635.33,202.83Z" style="fill-opacity:0.1;fill-rule:nonzero;"/>
    <path d="M635.33,200.83L549.71,213.67L549.71,307.76L633.38,295.67L635.33,200.83Z" style="fill:rgb(0,124,166);fill-rule:nonzero;"/>
    <path d="M615.14,223.79L568.89,228.93L569.9,244.69L615.11,239.75L615.14,223.79Z" style="fill:white;fill-opacity:0.3;fill-rule:nonzero;"/>
    <g transform="matrix(1,0,0,1,-88.58,-43.42)">
        <path d="M538.29,390.08L543,402.75C543,402.75 550,408.75 557.66,405.75C565.32,402.75 572,401.26 575.33,398.34C578.66,395.42 583.33,380.75 583.33,380.75C583.33,380.75 588,364.75 592.66,360.75C597.32,356.75 609.66,301.64 592.66,307.03C575.66,312.42 562.66,362.42 562.66,362.42C562.66,362.42 559.66,366.08 555.33,366.42C551,366.76 542.33,365.75 540.66,369.42C538.99,373.09 533.29,382.75 538.29,390.08Z" style="fill:rgb(190,111,114);fill-rule:nonzero;"/>
    </g>
    <g transform="matrix(1,0,0,1,-88.58,-43.42)">
        <path d="M638.29,259.08C629.408,261.081 620.083,258.757 613.18,252.82L616.79,346.08C616.79,346.08 625.29,355.28 638.29,353.18L638.29,259.08Z" style="fill-opacity:0.1;fill-rule:nonzero;"/>
    </g>
    <g transform="matrix(1,0,0,1,-88.58,-43.42)">
        <path d="M638.29,257.08C629.408,259.081 620.083,256.757 613.18,250.82L616.79,344.08C616.79,344.08 625.29,353.28 638.29,351.18L638.29,257.08Z" style="fill:rgb(0,124,166);fill-rule:nonzero;"/>
    </g>
    <g transform="matrix(1,0,0,1,-88.58,-43.42)">
        <path d="M638.29,257.08C629.408,259.081 620.083,256.757 613.18,250.82L616.79,344.08C616.79,344.08 625.29,353.28 638.29,351.18L638.29,257.08Z" style="fill-opacity:0.1;fill-rule:nonzero;"/>
    </g>
    <g transform="matrix(1,0,0,1,-88.58,-43.42)">
        <path d="M640.29,246.57C640.29,246.57 675.12,235.92 684.2,237.42" style="fill-opacity:0.1;fill-rule:nonzero;"/>
    </g>
    <g transform="matrix(1,0,0,1,-88.58,-43.42)">
        <path d="M601.33,241.92C601.33,241.92 567.57,233.92 561.93,236.19" style="fill-opacity:0.1;fill-rule:nonzero;"/>
    </g>
    <g transform="matrix(1,0,0,1,-88.58,-43.42)">
        <path d="M662.25,247.9C662.25,247.9 685.54,239.36 693.96,243.42" style="fill-opacity:0.1;fill-rule:nonzero;"/>
    </g>
    <g transform="matrix(1,0,0,1,-88.58,-43.42)">
        <path d="M650.52,462.13C654.129,459.42 657.971,457.034 662,455C668,452.11 679,444.61 679,444.61" style="fill-opacity:0.1;fill-rule:nonzero;"/>
    </g>
    <g transform="matrix(1,0,0,1,-88.58,-43.42)">
        <path d="M561.93,360.08C561.93,360.08 547.32,372.03 542.93,373.08C538.54,374.13 535.83,383.45 535.83,383.45" style="fill-opacity:0.1;fill-rule:nonzero;"/>
    </g>
    <g transform="matrix(1,0,0,1,-88.58,-43.42)">
        <path d="M715.32,388.3L710.66,401C710.66,401 703.66,407 695.99,404C688.32,401 681.66,399.51 678.32,396.59C674.98,393.67 670.32,379 670.32,379C670.32,379 665.66,363 660.99,359C656.32,355 643.99,299.89 660.99,305.28C677.99,310.67 690.99,360.67 690.99,360.67C690.99,360.67 693.99,364.33 698.32,364.67C702.65,365.01 711.32,364 712.99,367.67C714.66,371.34 720.32,381 715.32,388.3Z" style="fill:rgb(190,111,114);fill-rule:nonzero;"/>
    </g>
    <g transform="matrix(1,0,0,1,-88.58,-43.42)">
        <path d="M707.15,364.94C707.15,364.94 716.7,371.08 716.66,378.42" style="fill-opacity:0.1;fill-rule:nonzero;"/>
    </g>
    <circle cx="537.54" cy="98.87" r="44.67" style="fill:rgb(190,111,114);"/>
    <g transform="matrix(1,0,0,1,-88.58,-43.42)">
        <path d="M598.07,130.3C603.49,129.45 608.24,126.3 613.42,124.49C625.01,120.42 637.83,123.21 649.56,126.88C654.06,128.29 658.63,129.88 663.35,129.88C668.07,129.88 673.08,127.95 675.49,123.88C677.71,120.14 677.28,115.28 675.41,111.35C673.54,107.42 670.41,104.26 667.25,101.28C656.85,91.46 643.95,82.28 629.68,83.28C623.94,83.69 618.45,85.74 613.17,88.01C606.522,90.875 600.05,94.134 593.79,97.77C588.98,100.56 580.07,104.29 577.3,109.39C571,120.88 588.27,131.84 598.07,130.3Z" style="fill:rgb(62,55,58);fill-rule:nonzero;"/>
    </g>
    <g transform="matrix(1,0,0,1,-88.58,-43.42)">
        <path d="M675.49,119.68C673.08,123.75 668.07,125.68 663.35,125.68C658.63,125.68 654.06,124.15 649.55,122.74C637.82,119.07 625.01,116.27 613.41,120.35C608.24,122.16 603.48,125.35 598.06,126.15C590.16,127.39 577.44,120.51 576.06,111.76C574.51,121.87 589.26,130.53 598.06,129.15C603.48,128.3 608.24,125.15 613.41,123.35C625.01,119.27 637.82,122.07 649.55,125.74C654.06,127.15 658.62,128.74 663.35,128.68C668.08,128.62 673.08,126.76 675.49,122.68C676.739,120.461 677.231,117.894 676.89,115.37C676.734,116.89 676.257,118.359 675.49,119.68Z" style="fill-opacity:0.1;fill-rule:nonzero;"/>
    </g>
    <g transform="matrix(1,0,0,1,-88.58,-43.42)">
        <path d="M1038,661.63C1038,661.63 1043.93,669.38 1035.26,681.09C1026.59,692.8 1019.45,702.68 1022.33,709.98C1022.33,709.98 1035.41,688.24 1046.05,687.93C1056.69,687.62 1049.69,674.7 1038,661.63Z" style="fill:rgb(0,124,166);fill-rule:nonzero;"/>
    </g>
    <g transform="matrix(1,0,0,1,-88.58,-43.42)">
        <path d="M1038,661.63C1038.52,662.379 1038.92,663.197 1039.21,664.06C1049.59,676.26 1055.13,687.65 1045.14,687.93C1035.84,688.2 1024.69,704.83 1022.02,709.02C1022.11,709.359 1022.21,709.692 1022.33,710.02C1022.45,710.348 1035.41,688.28 1046.05,687.97C1056.69,687.66 1049.69,674.7 1038,661.63Z" style="fill-opacity:0.1;fill-rule:nonzero;"/>
    </g>
    <g transform="matrix(1,0,0,1,-88.58,-43.42)">
        <path d="M1049,671.51C1049,674.24 1048.69,676.45 1048.32,676.45C1047.95,676.45 1047.63,674.24 1047.63,671.51C1047.63,668.78 1048.01,670.07 1048.39,670.07C1048.77,670.07 1049,668.78 1049,671.51Z" style="fill:rgb(255,208,55);fill-rule:nonzero;"/>
    </g>
    <g transform="matrix(1,0,0,1,-88.58,-43.42)">
        <path d="M1052.79,674.77C1050.4,676.07 1048.31,676.86 1048.13,676.53C1047.95,676.2 1049.74,674.87 1052.13,673.53C1054.52,672.19 1053.58,673.17 1053.76,673.53C1053.94,673.89 1055.19,673.46 1052.79,674.77Z" style="fill:rgb(255,208,55);fill-rule:nonzero;"/>
    </g>
    <g transform="matrix(1,0,0,1,-88.58,-43.42)">
        <path d="M1006.66,661.63C1006.66,661.63 1000.73,669.38 1009.4,681.09C1018.07,692.8 1025.21,702.68 1022.32,709.98C1022.32,709.98 1009.25,688.24 998.6,687.93C987.95,687.62 995,674.7 1006.66,661.63Z" style="fill:rgb(0,124,166);fill-rule:nonzero;"/>
    </g>
    <g transform="matrix(1,0,0,1,-88.58,-43.42)">
        <path d="M1006.66,661.63C1006.14,662.379 1005.74,663.197 1005.45,664.06C995.07,676.26 989.53,687.65 999.52,687.93C1008.81,688.2 1019.97,704.83 1022.64,709.02C1022.56,709.36 1022.45,709.694 1022.32,710.02C1022.19,710.346 1009.25,688.28 998.6,687.97C987.95,687.66 995,674.7 1006.66,661.63Z" style="fill-opacity:0.1;fill-rule:nonzero;"/>
    </g>
    <g transform="matrix(1,0,0,1,-88.58,-43.42)">
        <path d="M995.64,671.51C995.64,674.24 995.94,676.45 996.32,676.45C996.7,676.45 997.01,674.24 997.01,671.51C997.01,668.78 996.62,670.07 996.25,670.07C995.88,670.07 995.64,668.78 995.64,671.51Z" style="fill:rgb(255,208,55);fill-rule:nonzero;"/>
    </g>
    <g transform="matrix(1,0,0,1,-88.58,-43.42)">
        <path d="M991.86,674.77C994.25,676.07 996.34,676.86 996.52,676.53C996.7,676.2 994.91,674.87 992.52,673.53C990.13,672.19 991.07,673.17 990.89,673.53C990.71,673.89 989.46,673.46 991.86,674.77Z" style="fill:rgb(255,208,55);fill-rule:nonzero;"/>
    </g>
    <ellipse cx="933.75" cy="716.37" rx="62" ry="9.51" style="fill:rgb(0,124,166);fill-opacity:0.1;"/>
    <g transform="matrix(1,0,0,1,-88.58,-43.42)">
        <path d="M1054.24,699.53L1053.94,701.95L1053.52,705.37L1053.35,706.8L1052.93,710.22L1052.75,711.65L1052.34,715.06L1047.59,753.96C1047.17,757.43 1041.5,760.14 1034.65,760.14L1010,760.14C1003.15,760.14 997.49,757.43 997.06,753.96L992.31,715.06L991.89,711.65L991.72,710.22L991.3,706.8L991.12,705.37L990.71,701.95L990.41,699.53C990.18,697.53 993.24,695.91 997.12,695.91L1047.54,695.91C1051.41,695.91 1054.48,697.56 1054.24,699.53Z" style="fill:rgb(101,97,125);fill-rule:nonzero;"/>
    </g>
    <path d="M965.36,658.53L964.95,661.95L902.55,661.95L902.13,658.53L965.36,658.53Z" style="fill:rgb(157,156,181);fill-rule:nonzero;"/>
    <path d="M964.77,663.38L964.36,666.8L903.14,666.8L902.72,663.38L964.77,663.38Z" style="fill:rgb(157,156,181);fill-rule:nonzero;"/>
    <path d="M964.18,668.23L963.76,671.65L903.73,671.65L903.32,668.23L964.18,668.23Z" style="fill:rgb(157,156,181);fill-rule:nonzero;"/>
    <defs>
        <linearGradient id="_Linear1" x1="0" y1="0" x2="1" y2="0" gradientUnits="userSpaceOnUse" gradientTransform="matrix(3.07337e-14,-501.92,501.92,3.07337e-14,635.22,545.34)"><stop offset="0" style="stop-color:rgb(128,128,128);stop-opacity:0.25"/><stop offset="0.54" style="stop-color:rgb(128,128,128);stop-opacity:0.12"/><stop offset="1" style="stop-color:rgb(128,128,128);stop-opacity:0.1"/></linearGradient>
    </defs>
</svg>
