<?xml version="1.0" encoding="UTF-8" standalone="no"?>
<!DOCTYPE svg PUBLIC "-//W3C//DTD SVG 1.1//EN" "http://www.w3.org/Graphics/SVG/1.1/DTD/svg11.dtd">
<svg width="100%" height="100%" viewBox="0 0 720 688" version="1.1" xmlns="http://www.w3.org/2000/svg" xmlns:xlink="http://www.w3.org/1999/xlink" xml:space="preserve" xmlns:serif="http://www.serif.com/" style="fill-rule:evenodd;clip-rule:evenodd;stroke-linejoin:round;stroke-miterlimit:2;">
    <g transform="matrix(1,0,0,1,-240.115,-106.375)">
        <path d="M908.885,288.962L908.885,250.375L902.885,250.375L902.885,288.962C899.869,290.182 897.885,293.125 897.885,296.378C897.885,300.767 901.496,304.378 905.885,304.378C910.273,304.378 913.885,300.767 913.885,296.378C913.885,293.125 911.9,290.182 908.885,288.962Z" style="fill:rgb(62,78,113);fill-rule:nonzero;"/>
    </g>
    <g transform="matrix(1,0,0,1,-240.115,-106.375)">
        <path d="M922.885,678.375C922.885,678.375 881.885,678.375 881.885,678.375L881.885,180.375L865.885,180.375L865.885,678.375C865.885,678.375 824.885,678.375 824.885,678.375C804.587,678.375 787.885,695.077 787.885,715.375C787.885,715.375 787.885,715.375 787.885,715.375L959.885,715.375L959.885,715.375C959.885,695.077 943.182,678.375 922.885,678.375Z" style="fill:rgb(41,50,70);fill-rule:nonzero;"/>
    </g>
    <g transform="matrix(1,0,0,1,-240.115,-106.375)">
        <path d="M787.968,254.375L959.802,254.375L949.294,123.035C948.502,113.697 940.619,106.42 931.248,106.375L816.521,106.375C807.15,106.42 799.268,113.697 798.476,123.035L787.968,254.375Z" style="fill:rgb(0,124,166);fill-rule:nonzero;"/>
    </g>
    <g transform="matrix(1,0,0,1,-240.115,-106.375)">
        <path d="M301.213,563.911L825.692,563.911L825.692,510.364C825.692,365.766 708.051,248.125 563.452,248.125C418.854,248.125 301.213,365.766 301.213,510.364L301.213,563.911Z" style="fill:rgb(53,57,77);fill-rule:nonzero;"/>
    </g>
    <g transform="matrix(1,0,0,1,-240.115,-106.375)">
        <path d="M369.188,582.446L772.82,582.446C772.027,538.551 735.728,502.862 691.826,502.813L450.181,502.813C406.28,502.862 369.98,538.551 369.188,582.446Z" style="fill:rgb(0,124,166);fill-rule:nonzero;"/>
    </g>
    <circle cx="81.006" cy="386.827" r="81.006" style="fill:rgb(72,79,100);"/>
    <circle cx="572.533" cy="386.827" r="81.006" style="fill:rgb(72,79,100);"/>
    <g transform="matrix(1,0,0,1,-240.115,-106.375)">
        <path d="M751.551,534.392L751.551,564.597L377.413,564.597L377.413,534.392L293.662,534.392L293.662,681.614C293.662,700.272 309.015,715.625 327.673,715.625C327.673,715.625 801.291,715.625 801.292,715.625C819.949,715.625 835.303,700.272 835.303,681.614L835.303,534.392L751.551,534.392Z" style="fill:rgb(72,79,100);fill-rule:nonzero;"/>
    </g>
    <circle cx="81.006" cy="386.827" r="16.476" style="fill:rgb(53,57,77);"/>
    <circle cx="572.533" cy="386.827" r="16.476" style="fill:rgb(53,57,77);"/>
    <g transform="matrix(1,0,0,1,-240.115,-106.375)">
        <path d="M593.293,238.871C593.293,238.871 594.913,269.646 606.251,276.125C617.589,282.604 606.251,326.336 606.251,326.336L552.8,327.956L549.561,276.125C549.561,276.125 556.04,255.069 552.8,245.35C549.561,235.632 593.293,238.871 593.293,238.871Z" style="fill:rgb(255,184,184);fill-rule:nonzero;"/>
    </g>
    <path d="M413.107,560.102L393.671,582.778L424.446,611.933L440.643,579.539L413.107,560.102Z" style="fill:rgb(255,184,184);fill-rule:nonzero;"/>
    <path d="M275.431,560.102L294.868,582.778L264.093,611.933L247.896,579.539L275.431,560.102Z" style="fill:rgb(255,184,184);fill-rule:nonzero;"/>
    <g transform="matrix(1,0,0,1,-240.115,-106.375)">
        <path d="M642.695,451.864C642.695,451.864 759.314,490.738 752.835,527.991C746.357,565.245 696.145,696.442 696.145,696.442C696.145,696.442 668.61,696.442 647.554,667.287L662.131,634.893C662.131,634.893 655.652,617.076 666.99,613.836C678.328,610.597 684.807,553.907 684.807,553.907C684.807,553.907 602.202,547.428 584.385,516.653L551.99,438.907L642.695,451.864Z" style="fill:rgb(35,34,56);fill-rule:nonzero;"/>
    </g>
    <g transform="matrix(1,0,0,1,-240.115,-106.375)">
        <path d="M526.075,451.864C526.075,451.864 409.455,490.738 415.934,527.991C422.413,565.245 472.624,696.442 472.624,696.442C472.624,696.442 500.159,696.442 521.216,667.287L506.638,634.893C506.638,634.893 513.117,617.076 501.779,613.836C490.441,610.597 483.962,553.907 483.962,553.907C483.962,553.907 566.568,547.428 584.385,516.653L616.779,438.907L526.075,451.864Z" style="fill:rgb(35,34,56);fill-rule:nonzero;"/>
    </g>
    <g transform="matrix(1,0,0,1,-240.115,-106.375)">
        <path d="M658.892,706.16C658.892,706.16 675.089,691.583 676.709,702.921C678.328,714.259 675.089,759.611 675.089,759.611C675.089,759.611 691.286,793.625 666.99,793.625C642.695,793.625 631.357,767.71 634.596,741.794C637.835,715.878 623.258,706.16 623.258,706.16C623.258,706.16 605.441,670.526 623.258,667.287C641.075,664.048 647.554,672.146 647.554,672.146C647.554,672.146 641.075,701.301 658.892,706.16Z" style="fill:rgb(54,53,76);fill-rule:nonzero;"/>
    </g>
    <g transform="matrix(1,0,0,1,-240.115,-106.375)">
        <path d="M509.878,706.16C509.878,706.16 493.681,691.583 492.061,702.921C490.441,714.259 493.68,759.611 493.68,759.611C493.68,759.611 477.483,793.625 501.779,793.625C526.075,793.625 537.413,767.71 534.173,741.794C530.934,715.878 545.511,706.16 545.511,706.16C545.511,706.16 563.328,670.526 545.511,667.287C527.695,664.048 521.216,672.146 521.216,672.146C521.216,672.146 527.695,701.301 509.878,706.16Z" style="fill:rgb(54,53,76);fill-rule:nonzero;"/>
    </g>
    <circle cx="328.072" cy="113.87" r="37.254" style="fill:rgb(255,184,184);"/>
    <g transform="matrix(1,0,0,1,-240.115,-106.375)">
        <path d="M573.857,284.224L551.18,266.407L496.11,292.322L494.49,439.717C494.49,439.717 460.476,455.914 470.195,476.97C470.195,476.97 499.35,483.449 512.307,496.407C525.265,509.364 598.152,491.548 628.927,481.829C659.702,472.111 667.8,460.773 667.8,460.773L637.026,417.04L654.842,305.28L599.778,268.259L573.857,284.224Z" style="fill:rgb(0,11,37);fill-rule:nonzero;"/>
    </g>
    <g transform="matrix(1,0,0,1,-240.115,-106.375)">
        <path d="M613.478,194.889C612.667,193.788 611.925,192.636 611.257,191.442C610.102,188.629 611.927,185.314 610.222,182.686C608.482,180.005 604.063,179.439 601.057,177.617C596.426,174.811 595.585,169.304 591.246,166.211C588.12,163.982 583.662,163.382 579.484,163.509C575.307,163.636 571.185,164.391 567.006,164.474C561.365,164.6 555.767,163.455 550.629,161.125L553.712,167.156C550.286,166.409 547.013,165.082 544.034,163.233C542.67,164.924 545.165,167.492 543.618,169.078C542.984,169.59 542.234,169.938 541.434,170.091C535.487,171.781 529.888,174.513 524.896,178.159C523.74,178.894 522.784,179.903 522.113,181.097C521.309,182.878 522.022,184.845 521.961,186.738C521.85,190.179 519.224,193.179 517.36,196.279C515.496,199.378 514.489,203.397 517.254,206.028C517.926,206.562 518.571,207.131 519.186,207.731C521.955,210.998 517.052,215.783 519.416,219.25C520.442,220.755 522.545,221.517 524.373,222.407C527.873,224.043 530.82,226.669 532.847,229.959L531.426,219.531C531.275,219.009 531.38,218.445 531.709,218.012C532.397,217.311 533.838,217.59 534.788,217.126C535.833,216.615 535.912,215.442 535.871,214.46L535.551,206.889C535.407,203.485 535.367,203.033 537.875,200.284C539.626,198.365 542.382,197.206 545.15,196.354C551.475,194.407 558.278,193.734 565.003,193.076C572.812,192.312 581.605,188.523 587.669,192.546C592.634,195.839 594.284,201.252 596.676,206.053C598.826,210.368 604.344,223.073 608.938,216.195C611.823,211.876 616.235,199.698 613.478,194.889Z" style="fill:rgb(79,61,88);fill-rule:nonzero;"/>
    </g>
    <g transform="matrix(1,0,0,1,-240.115,-106.375)">
        <path d="M574.583,209.438C574.266,209.438 574.004,209.699 574.004,210.017L574.004,225.614C574.004,225.931 574.266,226.192 574.583,226.192L601.433,226.192C601.75,226.192 602.011,225.931 602.012,225.614L602.012,210.017C602.011,209.699 601.75,209.438 601.433,209.438L574.583,209.438Z" style="fill:rgb(63,61,86);fill-rule:nonzero;"/>
    </g>
    <g transform="matrix(1,0,0,1,-240.115,-106.375)">
        <path d="M577.583,210.813C576.992,210.814 576.506,211.301 576.505,211.892L576.505,223.738C576.506,224.33 576.992,224.816 577.583,224.817L598.432,224.817C599.024,224.816 599.51,224.33 599.511,223.738L599.511,211.892C599.51,211.301 599.024,210.814 598.432,210.813L577.583,210.813Z" style="fill:rgb(255,101,132);fill-rule:nonzero;"/>
    </g>
    <rect x="320.784" y="108.201" width="13.986" height="3.239" style="fill:rgb(63,61,86);"/>
    <g transform="matrix(1,0,0,1,-240.115,-106.375)">
        <path d="M536.562,209.438C536.245,209.438 535.984,209.699 535.983,210.017L535.983,225.614C535.984,225.931 536.245,226.192 536.562,226.192L563.412,226.192C563.729,226.192 563.99,225.931 563.991,225.614L563.991,210.017C563.99,209.699 563.729,209.438 563.412,209.438L536.562,209.438Z" style="fill:rgb(63,61,86);fill-rule:nonzero;"/>
    </g>
    <g transform="matrix(1,0,0,1,-240.115,-106.375)">
        <path d="M539.563,210.813C538.971,210.814 538.485,211.3 538.484,211.892L538.484,223.738C538.485,224.33 538.971,224.816 539.563,224.817L560.411,224.817C561.003,224.816 561.489,224.33 561.49,223.738L561.49,211.892C561.489,211.3 561.003,210.814 560.411,210.813L539.563,210.813Z" style="fill:rgb(0,124,166);fill-rule:nonzero;"/>
    </g>
    <path d="M281.769,297.75L374.769,297.75C382.45,297.75 388.769,304.07 388.769,311.75L267.769,311.75C267.769,304.07 274.089,297.75 281.769,297.75Z" style="fill:rgb(63,61,86);fill-rule:nonzero;"/>
    <g transform="matrix(1,0,0,1,-240.115,-106.375)">
        <path d="M621.385,403.125C620.84,403.127 620.3,403.219 619.786,403.397C619.455,402.067 618.25,401.125 616.879,401.125C615.237,401.125 613.885,402.477 613.885,404.12C613.885,404.121 613.885,404.123 613.885,404.125C613.885,404.14 613.888,404.154 613.889,404.169C613.514,404.204 613.144,404.281 612.786,404.397C612.58,403.581 612.042,402.888 611.303,402.486C612.264,401.955 613.024,401.123 613.467,400.118C613.599,400.131 613.731,400.137 613.864,400.137C616.07,400.137 617.885,398.322 617.885,396.117C617.885,393.911 616.07,392.096 613.864,392.096C613.704,392.096 613.544,392.106 613.385,392.125C612.84,392.127 612.3,392.219 611.786,392.397C611.469,391.051 610.258,390.091 608.875,390.091C607.234,390.091 605.885,391.441 605.885,393.081C605.885,393.401 605.936,393.719 606.037,394.022C605.917,394.106 605.805,394.199 605.694,394.292C605.128,393.805 604.393,393.561 603.649,393.611C602.954,391.615 601.059,390.269 598.945,390.269C596.246,390.269 594.013,392.463 593.966,395.162C593.564,395.194 593.168,395.273 592.786,395.397C592.743,395.228 592.685,395.063 592.613,394.904C593.411,394.2 593.874,393.189 593.885,392.125C593.74,389.797 591.714,387.996 589.385,388.125C588.84,388.127 588.3,388.219 587.786,388.397C587.469,387.051 586.258,386.091 584.875,386.091C583.234,386.091 581.884,387.441 581.884,389.081C581.884,389.401 581.936,389.719 582.037,390.022C580.761,390.908 579.97,392.34 579.899,393.892C579.857,393.929 579.809,393.96 579.768,393.999C579.843,393.714 579.882,393.42 579.885,393.125C579.74,390.797 577.714,388.996 575.385,389.125C574.84,389.127 574.3,389.219 573.785,389.397C573.469,388.051 572.258,387.091 570.875,387.091C569.234,387.091 567.884,388.441 567.884,390.081C567.884,390.401 567.936,390.719 568.036,391.022C566.69,391.953 565.885,393.489 565.885,395.125C565.885,396.762 566.69,398.297 568.036,399.228C567.834,399.809 567.834,400.441 568.036,401.022C567.535,401.372 567.102,401.81 566.757,402.314C566.402,401.025 565.22,400.125 563.883,400.125C562.356,400.125 561.063,401.299 560.916,402.819C560.515,402.584 560.081,402.409 559.63,402.3C560.44,401.765 561.078,401.007 561.466,400.118C561.599,400.131 561.731,400.137 561.864,400.137C564.07,400.137 565.885,398.322 565.885,396.117C565.885,393.911 564.07,392.096 561.864,392.096C561.704,392.096 561.544,392.106 561.385,392.125C560.84,392.127 560.3,392.219 559.785,392.397C559.469,391.051 558.258,390.091 556.875,390.091C555.234,390.091 553.884,391.441 553.884,393.081C553.884,393.401 553.936,393.719 554.036,394.022C553.972,394.067 553.915,394.119 553.853,394.167C553.697,394.152 553.545,394.125 553.385,394.125C552.84,394.127 552.3,394.219 551.785,394.397C551.767,394.322 551.735,394.252 551.711,394.179C551.756,393.973 551.778,393.763 551.778,393.553C551.778,391.936 550.448,390.606 548.831,390.606C548.77,390.606 548.71,390.608 548.649,390.611C547.938,388.632 546.05,387.304 543.947,387.304C541.207,387.304 538.952,389.559 538.952,392.299C538.952,393.803 539.631,395.229 540.798,396.177C540.454,396.216 540.115,396.29 539.785,396.397C539.463,395.068 538.264,394.125 536.896,394.125C536.214,394.125 535.553,394.359 535.024,394.789C534.122,393.718 532.785,393.106 531.385,393.125C530.84,393.127 530.3,393.219 529.785,393.397C529.469,392.051 528.258,391.091 526.875,391.091C525.234,391.091 523.884,392.441 523.884,394.081C523.884,394.401 523.936,394.719 524.036,395.022C522.69,395.953 521.885,397.489 521.885,399.125C521.885,399.141 521.889,399.155 521.889,399.17C521.18,399.063 520.455,399.141 519.785,399.397C519.469,398.051 518.258,397.091 516.874,397.091C515.234,397.091 513.884,398.441 513.884,400.081C513.884,400.401 513.936,400.719 514.036,401.022C512.669,401.948 511.848,403.495 511.848,405.146C511.848,407.877 514.096,410.125 516.828,410.125C517.213,410.125 517.597,410.081 517.972,409.992C518.383,412.371 520.467,414.125 522.881,414.125C524.805,414.125 526.564,413.011 527.386,411.271C530.988,411.739 534.644,411.575 538.188,410.784C538.885,412.78 540.779,414.125 542.892,414.125C544.877,414.125 546.68,412.94 547.466,411.118C548.195,411.103 548.912,410.926 549.564,410.599C550.446,412.158 552.104,413.125 553.896,413.125C555.879,413.125 557.681,411.939 558.466,410.118C560.752,409.684 563.043,410.956 563.885,413.125C565.238,411.273 567.341,410.109 569.628,409.946C571.686,410.52 573.892,409.677 575.043,407.879C574.938,408.286 574.884,408.706 574.884,409.127C574.884,411.869 577.14,414.125 579.882,414.125C581.869,414.125 583.675,412.94 584.466,411.118C585.195,411.103 585.912,410.926 586.564,410.599C587.446,412.158 589.104,413.125 590.896,413.125C592.879,413.125 594.681,411.939 595.466,410.118C596.195,410.103 596.912,409.926 597.564,409.599C598.438,411.157 600.092,412.125 601.879,412.125C603.005,412.125 604.098,411.74 604.976,411.035C605.404,413.394 607.478,415.125 609.875,415.125C611.455,415.125 612.945,414.373 613.882,413.101C614.749,413.765 615.811,414.125 616.903,414.125C618.885,414.125 620.685,412.939 621.466,411.118C621.599,411.131 621.731,411.137 621.864,411.137C624.07,411.137 625.885,409.322 625.885,407.117C625.885,404.911 624.07,403.096 621.864,403.096C621.704,403.096 621.544,403.106 621.385,403.125L621.385,403.125ZM532.007,401.061C532.001,401.085 531.998,401.11 531.993,401.134C531.956,401.133 531.922,401.125 531.885,401.125C531.735,401.129 531.586,401.144 531.439,401.17C531.447,401.152 531.459,401.136 531.467,401.118C531.647,401.109 531.828,401.09 532.007,401.061ZM573.786,399.397C573.771,399.339 573.746,399.286 573.728,399.229C574.492,398.699 575.093,397.968 575.467,397.118C576.796,397.111 578.061,396.538 578.943,395.543C578.905,395.735 578.885,395.93 578.885,396.125C578.889,396.43 578.94,396.733 579.037,397.022C578.178,397.621 577.528,398.473 577.178,399.459C576.091,399.036 574.887,399.014 573.786,399.397L573.786,399.397ZM603.736,399.77C603.734,399.709 603.742,399.646 603.738,399.585C603.865,399.584 603.992,399.576 604.119,399.559C604.313,400.206 604.637,400.807 605.071,401.324C604.977,401.35 604.877,401.366 604.786,401.397C604.624,400.754 604.255,400.182 603.736,399.77Z" style="fill:rgb(249,168,37);fill-rule:nonzero;"/>
    </g>
    <g transform="matrix(1,0,0,1,-240.115,-106.375)">
        <path d="M517.958,409.125C517.958,409.125 517.957,409.125 517.957,409.125C512.229,409.125 507.516,413.838 507.516,419.566C507.516,419.753 507.521,419.94 507.531,420.127L514.303,513.242C514.598,518.752 519.212,523.126 524.729,523.125L612.04,523.125C617.558,523.126 622.172,518.752 622.467,513.242L629.238,420.127C629.248,419.94 629.253,419.753 629.253,419.566C629.253,413.838 624.54,409.125 618.812,409.125C618.812,409.125 618.812,409.125 618.811,409.125L517.958,409.125Z" style="fill:rgb(63,61,86);fill-rule:nonzero;"/>
    </g>
    <rect x="282.769" y="302.75" width="6" height="114" style="fill:rgb(0,124,166);"/>
    <rect x="299.769" y="302.75" width="6" height="114" style="fill:rgb(0,124,166);"/>
    <rect x="316.769" y="302.75" width="6" height="114" style="fill:rgb(0,124,166);"/>
    <rect x="333.769" y="302.75" width="6" height="114" style="fill:rgb(0,124,166);"/>
    <rect x="350.769" y="302.75" width="6" height="114" style="fill:rgb(0,124,166);"/>
    <rect x="367.769" y="302.75" width="6" height="114" style="fill:rgb(0,124,166);"/>
    <g transform="matrix(1,0,0,1,-240.115,-106.375)">
        <path d="M607.871,465.632L588.434,476.97C588.434,476.97 541.462,515.843 573.857,522.322C606.251,528.801 614.35,494.787 614.35,494.787L625.688,481.829L607.871,465.632Z" style="fill:rgb(255,184,184);fill-rule:nonzero;"/>
    </g>
    <g transform="matrix(1,0,0,1,-240.115,-106.375)">
        <path d="M515.547,457.533L534.983,468.871C534.983,468.871 581.955,507.745 549.561,514.224C517.166,520.702 509.068,486.688 509.068,486.688L497.73,473.731L515.547,457.533Z" style="fill:rgb(255,184,184);fill-rule:nonzero;"/>
    </g>
    <g transform="matrix(1,0,0,1,-240.115,-106.375)">
        <path d="M633.786,303.66L654.842,305.28C654.842,305.28 671.04,319.857 669.42,339.294C669.42,339.294 683.997,381.407 680.758,399.224C680.758,399.224 683.997,428.379 679.138,439.717C674.279,451.055 633.786,494.787 633.786,494.787C633.786,494.787 596.533,465.632 598.152,464.012L646.744,415.421L622.448,383.026L633.786,303.66Z" style="fill:rgb(0,11,37);fill-rule:nonzero;"/>
    </g>
    <g transform="matrix(1,0,0,1,-240.115,-106.375)">
        <path d="M496.11,292.322L495.3,293.132C495.3,293.132 458.857,308.519 460.476,327.956C460.476,327.956 445.899,370.069 449.138,387.886C449.138,387.886 445.899,417.04 450.758,428.379C455.617,439.717 496.11,483.449 496.11,483.449C496.11,483.449 533.364,454.294 531.744,452.674L483.152,404.083L507.448,371.688L496.11,292.322Z" style="fill:rgb(0,11,37);fill-rule:nonzero;"/>
    </g>
</svg>
