<?xml version="1.0" encoding="UTF-8" standalone="no"?><!DOCTYPE svg PUBLIC "-//W3C//DTD SVG 1.1//EN" "http://www.w3.org/Graphics/SVG/1.1/DTD/svg11.dtd"><svg width="100%" height="100%" viewBox="0 0 1055 841" version="1.1" xmlns="http://www.w3.org/2000/svg" xmlns:xlink="http://www.w3.org/1999/xlink" xml:space="preserve" xmlns:serif="http://www.serif.com/" style="fill-rule:evenodd;clip-rule:evenodd;stroke-miterlimit:10;"><g><path d="M1034.49,215.94c-10.33,-23.995 -24.29,-46.257 -41.4,-66l-574.36,-5.63l472.89,-66.41c-30.545,-12.158 -63.067,-18.598 -95.94,-19c-92.625,-74.06 -223.814,-78.515 -321.25,-10.91c-38.025,-19.547 -80.185,-29.704 -122.94,-29.62c-127.61,-0 -233.95,88.38 -257.8,205.59l940.8,-8.02Z" style="fill:#007ca6;fill-opacity:0.15;fill-rule:nonzero;"/></g><g><path d="M1054.68,314.24c0.03,-31.787 -6.05,-63.285 -17.9,-92.78l-995.44,104.49c-10.24,18.565 -18.077,38.357 -23.32,58.9l308.32,45.95l-315.34,33.5c9.49,132.69 123.24,237.47 262.19,237.47c69.95,0 133.51,-26.56 180.6,-69.85c47.24,44.11 111.41,71.24 182.1,71.24c104.91,0 195.44,-59.72 237.6,-146.08c84.59,-26.85 150.3,-94.26 172.79,-178.58l-389.83,-60.47l398.19,0c0.02,-1.26 0.04,-2.52 0.04,-3.79Z" style="fill:#007ca6;fill-opacity:0.15;fill-rule:nonzero;"/></g><g><path d="M678.87,790.86c0,0 31.51,-55.81 79,-71.9c19.94,-6.621 37.205,-19.533 49.19,-36.79c5.604,-8.23 10.447,-16.952 14.47,-26.06" style="fill:none;fill-rule:nonzero;stroke:#535461;stroke-width:2px;"/></g><g><path d="M851.34,645.75c-5.41,5.24 -30.59,10.67 -30.59,10.67c0,0 6.18,-25 11.59,-30.25c2.545,-2.469 5.954,-3.852 9.5,-3.852c7.484,0 13.642,6.158 13.642,13.642c0,3.688 -1.496,7.222 -4.142,9.79Z" style="fill:#007ca6;fill-rule:nonzero;"/></g><g><path d="M837.13,691c-7.39,1.47 -31.48,-7.67 -31.48,-7.67c0,0 18.78,-17.63 26.17,-19.1c0.767,-0.132 1.544,-0.199 2.322,-0.199c7.488,0 13.65,6.162 13.65,13.65c0,6.365 -4.452,11.926 -10.662,13.319Z" style="fill:#007ca6;fill-rule:nonzero;"/></g><g><path d="M785.26,739.97c-7.12,-2.47 -23.31,-22.51 -23.31,-22.51c0,0 25.12,-5.74 32.24,-3.28c5.327,1.987 8.878,7.104 8.878,12.789c-0,7.488 -6.161,13.65 -13.65,13.65c-1.411,0 -2.814,-0.219 -4.158,-0.649Z" style="fill:#007ca6;fill-rule:nonzero;"/></g><g><path d="M737.67,768.18c-7.43,-1.23 -26.77,-18.25 -26.77,-18.25c0,0 23.78,-9.9 31.21,-8.67c6.561,1.082 11.422,6.811 11.422,13.46c0,7.484 -6.158,13.642 -13.642,13.642c-0.744,-0 -1.486,-0.061 -2.22,-0.182Z" style="fill:#007ca6;fill-rule:nonzero;"/></g><g><path d="M784.65,663.79c0,7.54 13.63,29.4 13.63,29.4c0,0 13.65,-21.85 13.66,-29.38c-0.199,-7.346 -6.296,-13.281 -13.645,-13.281c-7.349,0 -13.446,5.935 -13.645,13.281l0,-0.02Z" style="fill:#007ca6;fill-rule:nonzero;"/></g><g><path d="M729.41,697.49c2.25,7.2 21.8,24 21.8,24c0,0 6.49,-24.93 4.24,-32.12c-1.97,-5.352 -7.098,-8.929 -12.801,-8.929c-7.482,0 -13.64,6.157 -13.64,13.64c0,1.16 0.148,2.316 0.441,3.439l-0.04,-0.03Z" style="fill:#007ca6;fill-rule:nonzero;"/></g><g><path d="M680.22,737.62c1,7.46 17.44,27.3 17.44,27.3c0,0 10.61,-23.47 9.61,-30.94c-1.274,-6.353 -6.904,-10.966 -13.384,-10.966c-7.488,0 -13.65,6.162 -13.65,13.65c-0,0.319 0.012,0.638 0.034,0.956l-0.05,0Z" style="fill:#007ca6;fill-rule:nonzero;"/></g><g><path d="M851.34,645.75c-5.41,5.24 -30.59,10.67 -30.59,10.67c0,0 6.18,-25 11.59,-30.25c2.545,-2.469 5.954,-3.852 9.5,-3.852c7.484,0 13.642,6.158 13.642,13.642c0,3.688 -1.496,7.222 -4.142,9.79Z" style="fill-opacity:0.25;fill-rule:nonzero;"/></g><g><path d="M837.13,691c-7.39,1.47 -31.48,-7.67 -31.48,-7.67c0,0 18.78,-17.63 26.17,-19.1c0.767,-0.132 1.544,-0.199 2.322,-0.199c7.488,0 13.65,6.162 13.65,13.65c0,6.365 -4.452,11.926 -10.662,13.319Z" style="fill-opacity:0.25;fill-rule:nonzero;"/></g><g><path d="M785.26,739.97c-7.12,-2.47 -23.31,-22.51 -23.31,-22.51c0,0 25.12,-5.74 32.24,-3.28c5.327,1.987 8.878,7.104 8.878,12.789c-0,7.488 -6.161,13.65 -13.65,13.65c-1.411,0 -2.814,-0.219 -4.158,-0.649Z" style="fill-opacity:0.25;fill-rule:nonzero;"/></g><g><path d="M737.67,768.18c-7.43,-1.23 -26.77,-18.25 -26.77,-18.25c0,0 23.78,-9.9 31.21,-8.67c6.561,1.082 11.422,6.811 11.422,13.46c0,7.484 -6.158,13.642 -13.642,13.642c-0.744,-0 -1.486,-0.061 -2.22,-0.182Z" style="fill-opacity:0.25;fill-rule:nonzero;"/></g><g><path d="M784.65,663.79c0,7.54 13.63,29.4 13.63,29.4c0,0 13.65,-21.85 13.66,-29.38c-0.199,-7.346 -6.296,-13.281 -13.645,-13.281c-7.349,0 -13.446,5.935 -13.645,13.281l0,-0.02Z" style="fill-opacity:0.25;fill-rule:nonzero;"/></g><g><path d="M729.41,697.49c2.25,7.2 21.8,24 21.8,24c0,0 6.49,-24.93 4.24,-32.12c-1.97,-5.352 -7.098,-8.929 -12.801,-8.929c-7.482,0 -13.64,6.157 -13.64,13.64c0,1.16 0.148,2.316 0.441,3.439l-0.04,-0.03Z" style="fill-opacity:0.25;fill-rule:nonzero;"/></g><g><path d="M680.22,737.62c1,7.46 17.44,27.3 17.44,27.3c0,0 10.61,-23.47 9.61,-30.94c-1.274,-6.353 -6.904,-10.966 -13.384,-10.966c-7.488,0 -13.65,6.162 -13.65,13.65c-0,0.319 0.012,0.638 0.034,0.956l-0.05,0Z" style="fill-opacity:0.25;fill-rule:nonzero;"/></g><g><path d="M680.68,789.75c0,0 6.19,-63.79 43,-97.73c15.55,-14.131 26.101,-32.935 30.06,-53.57c1.802,-9.81 2.703,-19.765 2.69,-29.74" style="fill:none;fill-rule:nonzero;stroke:#535461;stroke-width:2px;"/></g><g><path d="M779.58,587.18c-2.82,7 -23.64,22.16 -23.64,22.16c0,0 -4.48,-25.37 -1.67,-32.36c2.076,-5.152 7.1,-8.544 12.655,-8.544c7.485,0 13.644,6.159 13.644,13.644c0,1.748 -0.336,3.479 -0.989,5.1Z" style="fill:#007ca6;fill-rule:nonzero;"/></g><g><path d="M784.9,634.33c-6.17,4.33 -31.89,5.75 -31.89,5.75c0,0 10,-23.73 16.19,-28.07c2.298,-1.616 5.04,-2.484 7.85,-2.484c7.485,0 13.644,6.159 13.644,13.644c0,4.438 -2.164,8.607 -5.794,11.16Z" style="fill:#007ca6;fill-rule:nonzero;"/></g><g><path d="M757.34,700.11c-7.51,0.63 -30.43,-11.13 -30.43,-11.13c0,0 20.63,-15.43 28.14,-16.06c0.381,-0.032 0.763,-0.048 1.145,-0.048c7.484,-0 13.643,6.159 13.643,13.643c0,7.053 -5.47,13.003 -12.498,13.595Z" style="fill:#007ca6;fill-rule:nonzero;"/></g><g><path d="M725.25,745.19c-7.3,1.89 -31.87,-5.83 -31.87,-5.83c0,0 17.72,-18.69 25,-20.59c1.028,-0.243 2.082,-0.366 3.138,-0.366c7.488,0 13.65,6.162 13.65,13.65c0,6.091 -4.077,11.48 -9.938,13.136l0.02,0Z" style="fill:#007ca6;fill-rule:nonzero;"/></g><g><path d="M725.9,630.72c3.05,6.89 24.37,21.35 24.37,21.35c0,0 3.63,-25.5 0.58,-32.39c-2.177,-4.947 -7.095,-8.157 -12.5,-8.157c-7.492,0 -13.657,6.165 -13.657,13.657c0,1.894 0.394,3.767 1.157,5.5l0.05,0.04Z" style="fill:#007ca6;fill-rule:nonzero;"/></g><g><path d="M689.05,683.91c5,5.67 29.65,13.08 29.65,13.08c0,0 -4.17,-25.42 -9.14,-31.08c-2.589,-2.95 -6.33,-4.644 -10.255,-4.644c-7.485,0 -13.644,6.159 -13.644,13.644c0,3.311 1.205,6.511 3.389,9Z" style="fill:#007ca6;fill-rule:nonzero;"/></g><g><path d="M660.34,740.53c4,6.42 27,17.9 27,17.9c0,0 0.19,-25.76 -3.76,-32.18c-2.454,-4.137 -6.922,-6.682 -11.732,-6.682c-7.482,0 -13.64,6.157 -13.64,13.64c0,2.593 0.74,5.134 2.132,7.322Z" style="fill:#007ca6;fill-rule:nonzero;"/></g><ellipse cx="33.36" cy="778.77" rx="33.36" ry="4.58" style="fill:#007ca6;fill-opacity:0.1;"/><ellipse cx="80.25" cy="829.12" rx="33.36" ry="4.58" style="fill:#007ca6;fill-opacity:0.1;"/><g><path d="M98.61,818.7c2,-1.84 3.82,-4 4.39,-6.63c0.57,-2.63 -0.56,-5.78 -3.07,-6.74c-2.81,-1.08 -5.82,0.88 -8.1,2.85c-2.28,1.97 -4.9,4.22 -7.88,3.8c3.12,-2.828 4.531,-7.1 3.71,-11.23c-0.124,-0.836 -0.469,-1.623 -1,-2.28c-1.56,-1.67 -4.39,-1 -6.26,0.36c-6,4.19 -7.61,12.27 -7.65,19.55c-0.6,-2.62 -0.09,-5.36 -0.11,-8c-0.02,-2.64 -0.75,-5.68 -3,-7.12c-1.413,-0.764 -3.004,-1.14 -4.61,-1.09c-2.68,-0.1 -5.66,0.17 -7.48,2.13c-2.27,2.43 -1.68,6.51 0.29,9.18c1.97,2.67 5,4.36 7.74,6.21c2.218,1.32 4.111,3.121 5.54,5.27c0.165,0.321 0.302,0.656 0.41,1l16.71,0c3.768,-1.941 7.257,-4.383 10.37,-7.26Z" style="fill:#007ca6;fill-rule:nonzero;"/></g><g><path d="M52.34,768.62c2,-1.83 3.82,-4 4.39,-6.62c0.57,-2.62 -0.56,-5.78 -3.07,-6.74c-2.81,-1.08 -5.82,0.87 -8.1,2.84c-2.28,1.97 -4.9,4.22 -7.88,3.81c3.12,-2.828 4.531,-7.1 3.71,-11.23c-0.121,-0.836 -0.467,-1.624 -1,-2.28c-1.56,-1.67 -4.39,-1 -6.26,0.36c-6,4.19 -7.62,12.27 -7.65,19.55c-0.6,-2.63 -0.09,-5.36 -0.11,-8.06c-0.02,-2.7 -0.75,-5.67 -3,-7.12c-1.415,-0.76 -3.005,-1.132 -4.61,-1.08c-2.68,-0.1 -5.66,0.17 -7.48,2.12c-2.27,2.44 -1.69,6.51 0.29,9.19c1.98,2.68 5,4.35 7.74,6.2c2.218,1.323 4.112,3.128 5.54,5.28c0.164,0.301 0.301,0.615 0.41,0.94l16.77,-0c3.746,-1.908 7.214,-4.316 10.31,-7.16Z" style="fill:#007ca6;fill-rule:nonzero;"/></g><ellipse cx="883.1" cy="830.11" rx="46.92" ry="6.44" style="fill:#007ca6;fill-opacity:0.1;"/><g><path d="M897.07,758.3c0,0 6.29,8.22 -2.9,20.63c-9.19,12.41 -16.77,22.9 -13.71,30.63c0,0 13.87,-23.05 25.15,-23.37c11.28,-0.32 3.87,-14.03 -8.54,-27.89Z" style="fill:#007ca6;fill-rule:nonzero;"/></g><g><path d="M897.07,758.3c0.546,0.796 0.976,1.664 1.28,2.58c11,12.93 16.88,25 6.3,25.31c-9.86,0.28 -21.69,17.91 -24.52,22.36c0.091,0.339 0.201,0.673 0.33,1c0.129,0.327 13.88,-23.04 25.15,-23.36c11.27,-0.32 3.87,-14.03 -8.54,-27.89Z" style="fill-opacity:0.1;fill-rule:nonzero;"/></g><g><path d="M908.76,768.78c0,2.89 -0.33,5.24 -0.73,5.24c-0.4,0 -0.72,-2.35 -0.72,-5.24c0,-2.89 0.4,-1.53 0.8,-1.53c0.4,0 0.65,-1.37 0.65,1.53Z" style="fill:#ffd037;fill-rule:nonzero;"/></g><g><path d="M912.77,772.23c-2.54,1.39 -4.76,2.22 -4.95,1.87c-0.19,-0.35 1.71,-1.76 4.25,-3.14c2.54,-1.38 1.54,-0.38 1.73,0c0.19,0.38 1.54,-0.11 -1.03,1.27Z" style="fill:#ffd037;fill-rule:nonzero;"/></g><g><path d="M863.86,758.3c0,0 -6.29,8.22 2.9,20.63c9.19,12.41 16.77,22.9 13.7,30.63c0,0 -13.86,-23.05 -25.15,-23.37c-11.29,-0.32 -3.86,-14.03 8.55,-27.89Z" style="fill:#007ca6;fill-rule:nonzero;"/></g><g><path d="M863.86,758.3c-0.551,0.794 -0.986,1.663 -1.29,2.58c-11,12.93 -16.87,25 -6.29,25.31c9.86,0.28 21.69,17.91 24.52,22.36c-0.09,0.341 -0.203,0.675 -0.34,1c-0.137,0.325 -13.86,-23.04 -25.12,-23.36c-11.26,-0.32 -3.89,-14.03 8.52,-27.89Z" style="fill-opacity:0.1;fill-rule:nonzero;"/></g><g><path d="M852.17,768.78c0,2.89 0.33,5.24 0.73,5.24c0.4,0 0.72,-2.35 0.72,-5.24c-0,-2.89 -0.4,-1.53 -0.8,-1.53c-0.4,0 -0.65,-1.37 -0.65,1.53Z" style="fill:#ffd037;fill-rule:nonzero;"/></g><g><path d="M848.16,772.23c2.54,1.39 4.76,2.22 4.95,1.87c0.19,-0.35 -1.71,-1.76 -4.26,-3.14c-2.55,-1.38 -1.53,-0.38 -1.73,0c-0.2,0.38 -1.5,-0.11 1.04,1.27Z" style="fill:#ffd037;fill-rule:nonzero;"/></g><g><path d="M854.17,808.49c0,0 17.58,-0.54 22.88,-4.32c5.3,-3.78 27,-8.27 28.35,-2.22c1.35,6.05 26.42,30.09 6.57,30.25c-19.85,0.16 -46.11,-3.09 -51.4,-6.31c-5.29,-3.22 -6.4,-17.4 -6.4,-17.4Z" style="fill:#a8a8a8;fill-rule:nonzero;"/></g><g><path d="M912.34,830.11c-19.85,0.16 -46.11,-3.09 -51.4,-6.31c-4,-2.45 -5.63,-11.25 -6.17,-15.31l-0.59,-0c0,-0 1.12,14.18 6.4,17.4c5.28,3.22 31.56,6.47 51.4,6.31c5.73,-0.05 7.71,-2.09 7.6,-5.11c-0.8,1.83 -2.99,3.02 -7.24,3.02Z" style="fill-opacity:0.2;fill-rule:nonzero;"/></g><ellipse cx="484.31" cy="795.42" rx="351.87" ry="44.81" style="fill:#007ca6;fill-opacity:0.1;"/><g><path d="M744.34,374.11c-1.58,-2.982 -2.597,-6.23 -3,-9.58c-0.403,-3.35 -5.08,-2.68 -3.05,-11.09c2.03,-8.41 -5.76,-13 -5.76,-13c0,-0.05 -2,-9.39 -2,-14.08c0,-4.69 -5.75,-11.74 -5.75,-11.74c0,-0 1,-9.85 -2.38,-15.65c-3.38,-5.8 -10.16,-17.17 -18.63,-20.89c-0,-0 -18,-27.56 -23.37,-29.71c-0,-0 -5.7,-4.19 -6.76,-9c-0.031,-0.55 -0.031,-1.1 -0,-1.65c-0.006,-0.073 -0.006,-0.147 -0,-0.22l-0,-0.85c2.77,-2.55 5.68,-6.22 5.77,-7.42c0.295,-5.618 1.396,-11.165 3.27,-16.47c0.21,-0.55 0.42,-1.09 0.65,-1.62c0.23,-0.53 0.54,-1.25 0.85,-1.87c1.74,-3.48 4.09,-6.71 5.18,-10.45c0.08,-0.28 0.15,-0.56 0.22,-0.83c1.32,-5.58 -0.26,-11.61 -3.34,-16.48c-3.24,-5.12 -8,-9.13 -13,-12.64c-5.002,-3.737 -10.573,-6.645 -16.5,-8.61c-6,-1.81 -12.52,-2.16 -18.41,-0.13c-5.89,2.03 -11,6.42 -17.07,8c-2.56,0.66 -5.26,0.81 -7.71,1.79c-4.94,2 -8.07,7 -9.14,12.2c-0.261,1.209 -0.388,2.443 -0.38,3.68c0.012,1.228 0.246,2.445 0.69,3.59c0.52,1.685 1.875,2.988 3.58,3.44l0.55,0.14l0.68,0.14c-0.18,0.36 -0.38,0.71 -0.55,1.08c-2.184,4.698 -3.311,9.819 -3.3,15c0.046,15.742 10.435,29.704 25.5,34.27c0.16,0.38 0.32,0.77 0.47,1.15c0.55,1.38 1.05,2.81 1.46,4.24c-4.38,2.43 -24.16,13.57 -28.94,19.13c0.162,-7.273 -1.148,-14.505 -3.85,-21.26c-3.58,-8.39 -10.41,-15.75 -19.21,-18.42c-5,-1.5 -10.26,-1.48 -15.34,-2.52c-4,-0.81 -7.8,-2.27 -11.78,-3.09c-1.58,-0.328 -3.187,-0.512 -4.8,-0.55c-2.592,-2.782 -5.549,-5.201 -8.79,-7.19c-3.13,-2.08 -6.4,-4.11 -10.06,-5c-6.17,-1.54 -12.62,0.25 -19,0.93c-6.69,0.72 -13.15,-1 -19.75,-0.63c-5.779,0.239 -11.499,1.265 -17,3.05c-1.361,0.486 -2.676,1.092 -3.93,1.81c0.08,-0.13 0.18,-0.24 0.26,-0.37c0.08,-0.13 0.18,-0.35 0.27,-0.53c0.09,-0.18 0.13,-0.24 0.18,-0.37c0.05,-0.13 0.16,-0.44 0.23,-0.67c0.036,-0.091 0.066,-0.185 0.09,-0.28c0.075,-0.263 0.135,-0.53 0.18,-0.8l-0,-0.17c0.05,-0.308 0.08,-0.618 0.09,-0.93c0.006,-0.023 0.006,-0.047 -0,-0.07c0.044,-0.844 -0.013,-1.69 -0.17,-2.52c-0.56,-2.81 -2,-5.35 -3.3,-7.92c-1.3,-2.57 -2.39,-5.36 -2.15,-8.22c-0,-0.23 -0,-0.47 0.09,-0.7c0.041,-0.276 0.098,-0.55 0.17,-0.82l-0,-0.06c0.063,-0.274 0.139,-0.544 0.23,-0.81c0.09,-0.27 0.18,-0.54 0.28,-0.81c0.1,-0.27 0.21,-0.53 0.32,-0.8l0.36,-0.8c0.12,-0.28 0.25,-0.55 0.38,-0.82c0.27,-0.54 0.53,-1.08 0.79,-1.62c0.26,-0.54 0.44,-1 0.65,-1.43l0.12,-0.27c0.41,-1 0.78,-2 1.1,-3c-0,-0.1 0.07,-0.2 0.1,-0.3c0.309,-0.985 0.563,-1.987 0.76,-3l-0,-0.32c0.174,-1.015 0.274,-2.041 0.3,-3.07l-0,-0.32c0.025,-2.013 -0.359,-4.01 -1.13,-5.87c-1.67,-3.93 -5.1,-6.85 -8.63,-9.3c-2.38,-1.65 -5.05,-3.23 -8,-3.17c-3.43,0.07 -6.44,2.4 -9.84,2.88c-2.197,0.216 -4.414,-0.061 -6.49,-0.81c-4.74,-1.49 -9.11,-4 -13.86,-5.44c-4.558,-1.412 -9.358,-1.868 -14.1,-1.34c-2,0.22 -4.07,0.68 -5.48,2.07c-1.41,1.39 -1.92,3.56 -2.7,5.45c-1.186,2.883 -3.197,5.354 -5.78,7.1c-2.83,1.91 -6.21,2.87 -9.18,4.58c-2.48,1.42 -4.76,3.66 -5.4,6.33c-0.06,0.229 -0.1,0.464 -0.12,0.7c-0.005,0.05 -0.005,0.1 -0,0.15c-0.02,0.243 -0.02,0.487 -0,0.73c0.149,1.304 0.383,2.597 0.7,3.87l-0,0.22c0.43,3 -0.74,6.13 -2.44,8.72c-1.29,2 -3,4 -3.58,6.23c-0.71,0.16 -1.43,0.34 -2.16,0.53l-7.46,-0c-1.097,-0 -2,0.903 -2,2l-0,1.17c-7.393,2.851 -14.627,6.099 -21.67,9.73c-7.043,3.631 -16.77,22.13 -18.55,25.15c-0.258,0.576 -0.437,1.185 -0.53,1.81c-3.3,1 -7.09,28.62 -7.09,28.62c-0,-0 4.79,7.14 10.11,13.8c2.1,6.14 8.29,11 8.51,19.15c0.32,12.32 -0,32.19 -0,32.19c-0,-0 4.75,30.44 1.34,44.27c-3.41,13.83 0.62,33.7 1.63,41.5c1.01,7.8 1.78,25.65 -0,34.45c-1.78,8.8 -2.54,22.39 -0,17.61l-0,2c0.05,4.16 0.12,13.74 -0,18.14c-0.17,5.7 1.86,16.43 -0,20.45c-1.86,4.02 -2.2,21.13 -2.2,23.48c0.403,5.941 -0.52,11.899 -2.7,17.44c-3.4,8.38 -0,39.91 -0,39.91c-0,0 -10.47,22.46 -7.27,26.82c3.2,4.36 -5.94,3 -5.94,3c-0,-0 -2,21.47 -11.86,31.86c-9.86,10.39 -26.42,83.5 -24.05,101.94c-0,0 -7.11,7 -7.79,8.72c-0.47,1.18 -0.28,11.44 -0.12,17.45c-1.097,0.907 -1.884,2.135 -2.25,3.51c-2.37,9.22 -5.25,26.33 -5.25,26.33c-0,-0 -3.22,9.55 17.61,10.39c20.83,0.84 20.49,-2.68 20.49,-2.68c-0,-0 -0.33,-16.46 0.68,-19.38c1.01,-2.92 1,-14 1,-14.16c0.482,0.059 0.955,0.173 1.41,0.34c3.72,1.67 9.14,-5 6.43,-11.41c-2.71,-6.41 7.45,-40.57 7.45,-40.57c-0,-0 28.45,-54.2 28.45,-77.13c-0,-1.67 11.17,-15.09 12.54,-23.8c1.057,-5.983 2.761,-11.834 5.08,-17.45c2.319,-5.616 4.73,23.14 -0,32.19c-4.73,9.05 -10.51,79.82 -6.1,86.86c4.41,7.04 -2.71,17.77 -3.73,19.78c-1.02,2.01 -2.37,25.15 -2.37,25.15l2.24,-0l-0.89,18.64c-0,-0 36.75,-0.5 43,2.68c6.25,3.18 44.37,3 44.37,3c-0,-0 17.61,-6.54 7.79,-13.25c-9.82,-6.71 -27.43,-7.37 -27.43,-7.37c-0,-0 -14.6,-20.01 -17.34,-20.85c-1.83,-0.56 -4.67,-2.89 -7.25,-2.37c0.406,-3.928 1.248,-7.798 2.51,-11.54c5.76,-18.78 3.38,-91.22 3.38,-91.22c-0,-0 4.41,-7.71 4.41,-15.09c-0,-7.38 6.77,-13.75 6.77,-13.75c-0,0 19.65,-80.48 24,-98.92c3.88,-16.28 9.09,-37.78 6.76,-51.83c-0,-0.11 -0,-0.21 -0.07,-0.32c0.39,-10.57 0.62,-24.29 -0.59,-27.58c-2,-5.54 -5.56,-34.21 -5.56,-34.21c-0,-0 -0.67,-2.77 -1.34,-6.54l17.23,5.75c1.25,4.78 2.54,9.62 1.12,12.88l-0.21,0.5c-1.53,3.53 -3,7.18 -1.39,13.58c0.831,3.73 1.31,7.53 1.43,11.35c0.23,5 0.2,10.16 0.25,13.81l-0,71.09c-0,-0 -0.26,32.19 2.11,49.79c0.941,7.817 0.914,15.72 -0.08,23.53c-0.39,3.22 -0.85,5.95 -1.23,8c-0.45,2.34 -0.79,3.7 -0.79,3.7c-4.535,16.443 -5.856,33.607 -3.89,50.55c3.3,27.92 -0.88,22.63 -0.88,22.63c-0,0 0.37,12.08 1.64,14.09c1.27,2.01 -1.64,10.56 -1.64,10.56c-0,0 1.11,1 2.85,2.28c-0.12,0.55 -0.24,1.13 -0.35,1.76c-0.676,3.726 -0.881,7.523 -0.61,11.3c0.06,0.83 0.08,1.7 0.06,2.62l-0,1.15c-2.185,7.301 -4.858,14.447 -8,21.39c-3.88,8.25 6.6,17.9 11.78,22c1.647,1.303 3.69,2.009 5.79,2l6.63,0c2.906,0.004 5.652,-1.356 7.41,-3.67c2.83,-3.72 6.56,-9.59 6.24,-14.32c-0.43,-6.41 -5.1,-18.54 -6.5,-22c0.032,-0.292 0.049,-0.586 0.05,-0.88c-0.136,-2.216 -0.573,-4.402 -1.3,-6.5l-2.07,-10.68l-0.3,-1.54c0.333,-0.509 0.618,-1.048 0.85,-1.61c0.232,-0.562 -2.29,-12.07 -0,-15.34c2.29,-3.27 15.49,-49.55 15.49,-68.41c-0,0 9.66,-19.11 10.42,-34.71c-0,0 -0,-23.89 3.81,-33.45c3.81,-9.56 8.38,-37.47 8.38,-37.47l2.07,26.15l1.74,45.27c-0,0 -3.81,15.85 -0,21.13c3.81,5.28 2.54,20.37 2.54,20.37l-2.79,52.82c-0,0 -0.25,8.8 -1.27,10.81c-1.02,2.01 -1.61,27.63 -5.61,29.89c-0,0 0.62,0.47 1.65,1.17c-0.3,0.4 -0.62,0.84 -1,1.36c-2.358,3.753 -3.775,8.021 -4.13,12.44c-0,0.39 -0.08,0.76 -0.12,1.14c-0.943,1.071 -1.606,2.36 -1.93,3.75c-0.249,1.286 -0.021,2.619 0.64,3.75c-1.74,3.71 -8.3,18.67 -3.42,23.18c4.09,3.77 18.2,2.69 25.46,1.84c2.463,-0.276 4.299,-2.467 4.14,-4.94c-0.298,-5.032 -0.902,-10.041 -1.81,-15l53,1.35c-5.85,4.6 -13.17,11.51 -13.17,11.51c-0,0 -9.91,8.55 -14.86,10.43c-4.95,1.88 -8.22,9.44 -1.44,10.06c6.78,0.62 33.06,1 33.06,1l0.93,-0.15c0.08,1.58 1,2.93 3.57,3.38c6.35,1.13 64.27,-7.29 64.27,-7.29c-0,0 -0.08,-2.13 -0.24,-5c9.65,1 23.35,0.85 30.38,-1.3c9.32,-2.86 22.35,-10.73 22.35,-10.73l-0,-2.57c-0,-1.57 -0,-3.53 -0.08,-5.71c-0.09,-3.28 -0.3,-6.61 -0.78,-7.49c-1.945,-4.15 -3.53,-8.459 -4.74,-12.88c3.265,-0.393 6.234,-2.098 8.22,-4.72c1.986,-2.622 -8.56,-7.38 -6.1,-9c2.46,-1.62 3.3,-9.06 3.3,-9.06c-0,0 -6.78,-16.1 -0.08,-37.56c6.7,-21.46 0.08,-76.46 -3.31,-80.77c-3.39,-4.31 -1.35,-12.79 -1.35,-12.79c4.74,-7.71 -4.66,-30.51 -4.66,-30.51c-0,0 3.64,-39.58 0.93,-43.12c-2.71,-3.54 1.32,-16.65 1.32,-16.65c2.128,-2.603 3.863,-5.504 5.15,-8.61c0.946,1.866 2.177,3.574 3.65,5.06c1.473,1.486 0.46,-1.51 1.07,-4c0.316,0.351 0.649,0.684 1,1c0.351,0.316 4.07,-13.22 3.73,-26.63c-0.34,-13.41 -1.35,-40 -1.35,-40l-0.06,-3.24l14.28,-18.26c-0,0 13.22,-13.27 13.29,-25.44c0.472,-0.298 0.892,-0.673 1.24,-1.11c3.75,-2.83 1.54,-8.24 -1,-13Zm-191.36,33l0.23,4.14c-0.411,-1.826 -0.728,-3.672 -0.95,-5.53c0.45,0.8 0.74,1.31 0.74,1.31l-0.02,0.08Zm117.36,-168.18c0.477,-0.235 0.932,-0.513 1.36,-0.83l-1.29,1.19c0.01,-0.12 -0.01,-0.24 -0.07,-0.36Zm-202.9,-21.63c-0.517,0.448 -1.008,0.926 -1.47,1.43c-4.81,5.29 -6.35,13.4 -12.42,17.2c-1.72,1.07 -3.68,1.71 -5.37,2.82c-4.1,2.69 -5.83,7.55 -6.93,12.42c-0,-0.36 0.06,-0.71 0.11,-1.06c-0.33,1.34 -0.6,2.7 -0.85,4c-0.362,1.764 -0.419,3.577 -0.17,5.36c0.17,2.48 1.06,4.7 3.36,5.28c1.16,0.29 2.4,0 3.58,0.23c2.3,0.42 3.76,2.57 4.2,4.91c0.005,0.083 0.005,0.167 -0,0.25l-0,-0.06c-0,0.27 0.08,0.55 0.1,0.82c-0.005,0.06 -0.005,0.12 -0,0.18c-0.366,2.328 -1.038,4.598 -2,6.75l-0.06,-0.24c-0.26,0.71 -0.51,1.42 -0.71,2.14c-0.359,1.024 -0.438,2.125 -0.23,3.19c-0.024,0.618 0.114,1.232 0.4,1.78c0.73,1.113 1.918,1.846 3.24,2c1.536,0.259 3.112,0.121 4.58,-0.4c-0.551,1.111 -0.89,2.315 -1,3.55c-4.466,0.944 -8.044,4.317 -9.25,8.72c-0.24,0.82 -0.49,1.63 -0.75,2.44c-0.68,2.14 -1.42,4.25 -2.19,6.29c-0.12,-4.07 -0.42,-7 -1,-8.15c-3,-6 -6.09,-18.87 -6.09,-18.87l-0,-11.81c-0,-7.26 -13.39,-12.28 -13.51,-12.33c0.526,-4.179 1.413,-8.304 2.65,-12.33c0.1,-0.34 0.22,-0.67 0.33,-1c15.686,-0.427 29.62,-10.373 35.12,-25.07c0.11,-0.3 0.2,-0.6 0.31,-0.9c1.261,0.547 2.626,0.813 4,0.78c0.685,-0.012 1.365,-0.119 2.02,-0.32Zm-25.36,163.41c-0,-7.84 -0.87,-16.41 -0.87,-16.41c-0,0 0.13,-1.74 0.34,-4.66c4.93,-4.38 9.78,-8.86 11.85,-10.79c0.67,-0.61 1,-1 1,-1c1.373,1.141 2.298,2.733 2.61,4.49c0.478,2.164 0.516,4.402 0.11,6.58c-0.68,4.19 1.1,9.8 2.28,16.22c0.783,3.821 1.082,7.725 0.89,11.62l-18.21,-6.05Zm92,364.8c0.867,-9.153 3.546,-18.042 7.88,-26.15c7.11,-13.08 16,-59.36 16,-59.36c-0,0 2.29,-20.12 1.52,-32.95c-0.47,-8 1.21,-30.59 3.09,-47.79c0.51,3.32 0.87,5.6 0.88,5.79c-0,0.64 6.68,28.65 8.8,41l-0,57.06c-0.001,3.263 -0.7,6.489 -2.05,9.46l-6.55,14.54c-2.354,5.226 -2.415,11.206 -0.17,16.48c1.06,2.54 1.68,4.8 0.69,5.08c-0.836,0.265 -1.649,0.6 -2.43,1c-0.326,-0.322 -0.688,-0.604 -1.08,-0.84l-21.56,17.61l-6.34,0.86l-0,-0.8c0.519,-0.234 0.985,-0.571 1.37,-0.99l-0.05,0Zm85.26,28.51l-0.84,-3.74l-0.23,-1l2,0.15c-0,0 -5.59,-25.65 -1.78,-36.47c0.795,-2.624 1.328,-5.321 1.59,-8.05c0.19,-1.56 0.36,-3.24 0.51,-5c1.65,5 3.1,10.16 2.21,11.29c-1.78,2.26 -0.22,15.09 0.27,15.84c0.49,0.75 3.8,5 1.51,8.64c-2.29,3.64 -2,14.82 -2,14.82c-0,0 0.58,0.07 1.55,0.15c-1.689,0.986 -3.291,2.114 -4.79,3.37Zm28.48,-5.56c-0.16,-0.28 -0.31,-0.57 -0.46,-0.85c3.25,-1.15 8.17,-0.76 8.17,-0.76c-0,0 -7.62,-27.87 -5.33,-33.91c2.29,-6.04 -9.66,-64.39 -15.5,-77.72c-5.84,-13.33 2,-50.55 2,-50.55l12.76,-33.69l10.57,34.93c-1.69,9.7 1.7,30.54 6.78,35.57c5.08,5.03 4.06,11.73 2,14.42c-2.06,2.69 1,27.49 1,27.49c-0,0 0.68,25.49 -1,34.54c-1.68,9.05 1,12.75 4.4,16.77c3.4,4.02 -3.72,3.69 -7.79,7.52c-4.07,3.83 -0,8.58 -0,8.58l1.5,-0.11c0.708,1.865 1.166,3.815 1.36,5.8c0.021,0.94 -0.34,1.85 -1,2.52c-2.72,2.35 -7.12,13.92 -11,16.77c-0.44,0.33 -1,0.75 -1.53,1.24c-0.23,0 -0.49,0.1 -0.78,0.17c-2.294,-2.739 -4.364,-5.658 -6.19,-8.73l0.04,0Zm-285.1,-540.23c6.368,-1.105 12.329,-3.883 17.27,-8.05l9.7,0c1.017,2.253 2.253,4.4 3.69,6.41c-0.09,0.22 -0.16,0.43 -0.25,0.66c-0.538,1.322 -1.187,2.597 -1.94,3.81c-0.753,1.213 -11,0.15 -17.25,3.7c-0.649,0.365 -1.261,0.79 -1.83,1.27c-4.22,3.61 -12.64,3.63 -16.51,3.42l-2.26,-1.41l-0.41,1.83l-0.24,0.2l0.14,-16.87l9.89,5.03Zm118.2,516.88l-0,1.36c-0.029,-0.453 -0.029,-0.907 -0,-1.36Zm-0,1.56l0.11,1.09c-0,-0.41 -0.04,-0.77 -0.07,-1.11l-0.04,0.02Z" style="fill:url(#_Linear1);fill-rule:nonzero;"/></g><g><path d="M471.007,394.06l-7.891,23.395l-39.466,-13.312l7.892,-23.395l39.465,13.312Z" style="fill:#d38884;"/></g><g><path d="M701.81,484.88c0,0 6,11 -5.33,25.33c0,0 -4,12.95 -1.33,16.48c2.67,3.53 -0.92,42.85 -0.92,42.85c0,0 9.25,22.67 4.59,30.34c0,0 -2,8.42 1.33,12.71c3.33,4.29 9.84,58.95 3.25,80.29c-6.59,21.34 0.08,37.33 0.08,37.33c-0,0 -0.83,7.33 -3.25,9c-2.42,1.67 6,9 6,9c-3.072,4.171 -8.577,5.811 -13.43,4c-8.66,-3 -33.66,-1 -33.66,-1c-0,0 -4,-4.71 -0,-8.52c4,-3.81 11,-3.48 7.66,-7.48c-3.34,-4 -6,-7.67 -4.33,-16.67c1.67,-9 1,-34.33 1,-34.33c-0,0 -3,-24.67 -1,-27.33c2,-2.66 3,-9.34 -2,-14.34c-5,-5 -8.33,-25.71 -6.67,-35.35l-18.66,-62.31l-36.67,-60l53.87,-7.77l49.47,7.77Z" style="fill:#4c4981;fill-rule:nonzero;"/></g><g><path d="M667.14,252.21l0,38l-51,0l-1.33,-3.73c0,0 5,-13.92 11.67,-21.58c3.31,-3.81 1.77,-10.83 -0.63,-16.93c-1.583,-3.955 -3.493,-7.772 -5.71,-11.41c-2.217,-3.638 46,-29 43.67,-11.33c-0.517,3.773 -0.674,7.587 -0.47,11.39c0.56,10.24 3.8,15.59 3.8,15.59Z" style="fill:#febfba;fill-rule:nonzero;"/></g><g><path d="M663.81,225.21c-0.517,3.773 -0.674,7.587 -0.47,11.39c-9.11,10.881 -23.874,15.351 -37.49,11.35c-1.583,-3.955 -3.493,-7.772 -5.71,-11.41c-2.217,-3.638 46,-29 43.67,-11.33Z" style="fill-opacity:0.1;fill-rule:nonzero;"/></g><g><path d="M671.62,212.72l0,0.06c0,19.568 -16.102,35.67 -35.67,35.67c-19.568,0 -35.67,-16.102 -35.67,-35.67c0,-19.568 16.102,-35.67 35.67,-35.67l0.06,0c19.535,0 35.61,16.075 35.61,35.61Z" style="fill:#febfba;fill-rule:nonzero;"/></g><g><path d="M622.48,260.45l-15.67,25l-9,67.27l0,55.15l2,19.66l37.15,2.67l16.52,-55.51l12.67,-56.82l13.66,-11.67l-32.33,-36.67c0,0 -6.24,8.75 -13.29,13.84c-1.025,0.745 -2.26,1.146 -3.527,1.146c-3.291,0 -6,-2.708 -6,-6c0,-0.734 0.135,-1.461 0.397,-2.146c2,-5.24 3.81,-11.06 2.42,-12.45c-1.882,-1.711 -4.184,-2.894 -6.67,-3.43" style="fill-opacity:0.1;fill-rule:nonzero;"/></g><g><path d="M621.48,261.45l-15.67,25l-9,67.27l0,55.15l2,19.66l37.15,2.67l16.52,-55.51l12.67,-56.82l13.66,-11.67l-32.33,-36.67c0,0 -6.24,8.75 -13.29,13.84c-1.025,0.745 -2.26,1.146 -3.527,1.146c-3.291,0 -6,-2.708 -6,-6c0,-0.734 0.135,-1.461 0.397,-2.146c2,-5.24 3.81,-11.06 2.42,-12.45c-1.882,-1.711 -4.184,-2.894 -6.67,-3.43" style="fill:#e6e8ec;fill-rule:nonzero;"/></g><path d="M675.15,494.21l32.33,-0l-4.33,-21l-0.67,-9.16l-15.66,9.83l-11.67,20.33Z" style="fill-opacity:0.1;fill-rule:nonzero;"/><path d="M675.15,492.21l32.33,-0l-4.33,-21l-0.67,-9.16l-15.66,9.83l-11.67,20.33Z" style="fill:#e6e8ec;fill-rule:nonzero;"/><g><path d="M629.15,252.68c0,0 -29.34,16.2 -30.34,21.2c-1,5 -8,39.33 -8,39.33l0,31l29,-10.63l-1.66,-42.39l10.33,-25.31c0,0 2.43,-8.33 0.67,-13.2Z" style="fill-opacity:0.1;fill-rule:nonzero;"/></g><g><path d="M628.15,251.68c0,0 -29.34,16.2 -30.34,21.2c-1,5 -8,39.33 -8,39.33l0,31l29,-10.63l-1.66,-42.39l10.33,-25.31c0,0 2.43,-8.33 0.67,-13.2Z" style="fill:#ff718d;fill-rule:nonzero;"/></g><g><path d="M708.81,480.21c0.33,13.33 -3.67,26.47 -3.67,26.47c-5,-4.73 -9.22,-18.75 -10.73,-25.68c-2.52,8.54 -22.6,23.88 -22.6,23.88l0,4.66c-1,13 -43,4 -43,4l2.67,-167.33c0,0 3.33,-31.67 -1,-41.23c-4.33,-9.56 -3,-26.77 -3,-26.77c0,0 4,-7 8.33,-9.33c4.33,-2.33 28.55,-25.27 29.31,-26c-0.065,0.952 -0.065,1.908 -0,2.86c0.62,8.39 6.66,8.93 6.66,8.93c5.33,2.14 23,29.54 23,29.54c8.33,3.69 15,15 18.33,20.76c3.33,5.76 2.34,15.56 2.34,15.56c-0,-0 5.66,7 5.66,11.67c-0,4.67 2,14 2,14l-16.66,38.61l1,55.68c-0,-0 1.03,26.39 1.36,39.72Z" style="fill-opacity:0.1;fill-rule:nonzero;"/></g><g><path d="M710.81,477.21c0.33,13.33 -3.67,26.47 -3.67,26.47c-5,-4.73 -9.22,-18.75 -10.73,-25.68c-2.52,8.54 -22.6,23.88 -22.6,23.88l0,4.66c-1,13 -43,4 -43,4l0.22,-13.65l0,-1.29l2.43,-152.35c0,-0 3.33,-31.67 -1,-41.23c-4.33,-9.56 -3,-26.77 -3,-26.77c0,-0 4,-7 8.33,-9.33c4.33,-2.33 28.55,-25.27 29.31,-26c-0.065,0.952 -0.065,1.908 -0,2.86c0.62,8.39 6.66,8.93 6.66,8.93c5.33,2.14 23,29.54 23,29.54c8.33,3.69 15,15 18.33,20.76c3.33,5.76 2.34,15.56 2.34,15.56c-0,-0 5.66,7 5.66,11.67c-0,4.67 2,14 2,14l-14.75,34.26l-1.87,4.32l1,55.68c-0,-0 1.01,26.38 1.34,39.71Z" style="fill:#ff718d;fill-rule:nonzero;"/></g><g><path d="M703.64,780.38c0,0 -12.83,7.83 -22,10.67c-9.17,2.84 -29.83,2.16 -37.5,0c-5.13,-1.45 -2.42,-6.41 1.09,-10.38c1.482,-1.697 3.126,-3.244 4.91,-4.62c3.84,-2.84 8.17,-14.34 10.84,-16.67c2.67,-2.33 -0.84,-10.5 -0.84,-10.5c0,0 6.17,-7.33 9.17,-8.33c3,-1 17.83,7.5 17.83,7.5l10.84,1.83c-1.17,1.5 3.83,14 4.83,15.83c0.47,0.87 0.68,4.18 0.77,7.44c0.11,3.65 0.06,7.23 0.06,7.23Z" style="fill-opacity:0.1;fill-rule:nonzero;"/></g><g><path d="M703.64,781.38c0,0 -12.83,7.83 -22,10.67c-9.17,2.84 -29.83,2.16 -37.5,0c-5.13,-1.45 -2.42,-6.41 1.09,-10.38c1.482,-1.697 3.126,-3.244 4.91,-4.62c3.84,-2.84 8.17,-14.34 10.84,-16.67c2.67,-2.33 -0.84,-10.5 -0.84,-10.5c0,0 6.17,-7.33 9.17,-8.33c3,-1 17.83,7.5 17.83,7.5l10.84,1.83c-1.17,1.5 3.83,14 4.83,15.83c0.47,0.87 0.68,4.18 0.77,7.44c0.11,3.65 0.06,7.23 0.06,7.23Z" style="fill:#626696;fill-rule:nonzero;"/></g><g><path d="M703.64,781.38c0,0 -12.83,7.83 -22,10.67c-9.17,2.84 -29.83,2.16 -37.5,0c-5.13,-1.45 -2.42,-6.41 1.09,-10.38c9.05,1.65 40.58,0.21 40.58,0.21l17.77,-7.77c0.11,3.69 0.06,7.27 0.06,7.27Z" style="fill-opacity:0.1;fill-rule:nonzero;"/></g><g><path d="M679.48,775.21c0,0 -14.83,-8 -22.17,-4.5c-7.34,3.5 22.17,4.5 22.17,4.5Z" style="fill-opacity:0.1;fill-rule:nonzero;"/></g><g><path d="M567.48,595.21l0,88.75c0.006,3.239 -0.676,6.444 -2,9.4l-6.49,14.43c-2.313,5.197 -2.375,11.126 -0.17,16.37c1,2.53 1.65,4.77 0.68,5.05c-2.33,0.67 -8,4.1 -8,4.1c0,0 32.33,38.9 44.33,29.23c12,-9.67 6.34,-74 6.34,-74c0,0 0.67,-56.66 1.33,-57.66c0.66,-1 1.67,-32 1.67,-32l-37.69,-3.67Z" style="fill:#4c4981;fill-rule:nonzero;"/></g><g><path d="M673.81,252.68l-31,23.53l-13.33,0c0,0 4,-7 8.33,-9.33c4.33,-2.33 28.55,-25.27 29.31,-26c-0.21,0.942 -0.21,1.918 -0,2.86c1.08,4.78 6.69,8.94 6.69,8.94Z" style="fill-opacity:0.1;fill-rule:nonzero;"/></g><g><path d="M673.81,251.68l-31,23.53l-13.33,0c0,0 4,-7 8.33,-9.33c4.33,-2.33 28.55,-25.27 29.31,-26c-0.21,0.942 -0.21,1.918 -0,2.86c1.08,4.78 6.69,8.94 6.69,8.94Z" style="fill:#ff718d;fill-rule:nonzero;"/></g><g><path d="M671.62,212.74c0.01,9.783 -4.011,19.15 -11.11,25.88l0,-0.48c0.33,-5.62 -0.69,0.07 1,-5.83c0.49,-1.65 -0.7,-3.47 -1.86,-4.75c-1.16,-1.28 -3.32,-1.81 -4.63,-0.68c-1.31,1.13 -1.21,3.32 -2.47,4.52c-1.58,1.5 -4.41,0.43 -5.48,-1.47c-1.07,-1.9 -0.93,-4.22 -0.87,-6.4c0.06,-2.18 0,-4.55 -1.45,-6.21c-1.45,-1.66 -3.48,-2.17 -4.53,-3.88c-1.56,-2.53 0.18,-6 -0.88,-8.77c-1,-2.54 -4,-3.71 -6.75,-3.58c-6.37,0.31 -12.65,4.62 -19.1,2.05c-2.54,-1 -4.36,-3.61 -6.83,-4.54c-1.025,-0.356 -2.084,-0.604 -3.16,-0.74c5.809,-12.637 18.501,-20.772 32.41,-20.772c19.561,0 35.66,16.091 35.67,35.652l0.04,0Z" style="fill-opacity:0.1;fill-rule:nonzero;"/></g><g><path d="M599.34,193.11c-0.803,-2.325 -0.91,-4.835 -0.31,-7.22c1.06,-5.14 4.13,-10.18 9,-12.13c2.42,-1 5.07,-1.13 7.59,-1.78c6,-1.56 10.93,-5.9 16.79,-7.94c5.86,-2.04 12.25,-1.68 18.13,0.13c5.835,1.957 11.316,4.844 16.23,8.55c4.89,3.49 9.56,7.48 12.75,12.56c3.19,5.08 4.75,11.45 3.08,17.21c-1.08,3.72 -3.38,6.93 -5.1,10.39c-3,6.13 -4.2,13 -4.7,19.83c-0.15,2.08 -8.71,11.59 -10.3,9.73c-1.2,-1.39 -1.09,-3.44 -1,-5.27c0.33,-5.63 -0.69,0.06 1,-5.83c0.48,-1.66 -0.71,-3.48 -1.87,-4.76c-1.16,-1.28 -3.32,-1.8 -4.62,-0.68c-1.3,1.12 -1.22,3.33 -2.48,4.52c-1.58,1.5 -4.41,0.43 -5.48,-1.47c-1.07,-1.9 -0.93,-4.21 -0.86,-6.39c0.07,-2.18 0,-4.56 -1.46,-6.22c-1.46,-1.66 -3.48,-2.17 -4.52,-3.87c-1.56,-2.54 0.17,-6 -0.89,-8.78c-1,-2.54 -4,-3.71 -6.75,-3.58c-6.36,0.32 -12.65,4.62 -19.1,2.05c-2.54,-1 -4.35,-3.61 -6.83,-4.53c-3.45,-1.33 -6.51,-0.13 -8.3,-4.52Z" style="fill:#36123a;fill-rule:nonzero;"/></g><g><path d="M593.64,768.83l-82.83,-2.13c-5,-2.76 -6.28,-5.65 -5.79,-8.25c0.91,-4.8 7.79,-8.57 7.79,-8.57l22,-3l21.21,-17.5c3.39,2 4.29,8 4.29,8c0,0 27.17,18.33 30.83,19c1.84,0.33 2.46,3.45 2.62,6.48c0.095,1.99 0.055,3.985 -0.12,5.97Z" style="fill-opacity:0.1;fill-rule:nonzero;"/></g><g><path d="M592.64,769.83l-82.83,-2.13c-5,-2.76 -6.28,-5.65 -5.79,-8.25c0.91,-4.8 7.79,-8.57 7.79,-8.57l22,-3l21.21,-17.5c3.39,2 4.29,8 4.29,8c0,0 27.17,18.33 30.83,19c1.84,0.33 2.46,3.45 2.62,6.48c0.095,1.99 0.055,3.985 -0.12,5.97Z" style="fill:#626696;fill-rule:nonzero;"/></g><g><path d="M592.64,769.83l-82.83,-2.13c-5,-2.76 -6.28,-5.65 -5.79,-8.25l88.74,4.41c0.095,1.99 0.055,3.985 -0.12,5.97Z" style="fill-opacity:0.1;fill-rule:nonzero;"/></g><g opacity="0.1"><g><path d="M662.56,231.27c0.42,-0.969 0.754,-1.973 1,-3c0.48,-1.66 -0.71,-3.48 -1.87,-4.76c-1.16,-1.28 -3.32,-1.8 -4.62,-0.68c-1.3,1.12 -1.22,3.33 -2.48,4.52c-1.58,1.5 -4.41,0.43 -5.48,-1.47c-1.07,-1.9 -0.93,-4.21 -0.86,-6.39c0.07,-2.18 0,-4.56 -1.46,-6.22c-1.46,-1.66 -3.48,-2.17 -4.52,-3.87c-1.56,-2.54 0.17,-6 -0.89,-8.78c-1,-2.54 -4,-3.71 -6.75,-3.58c-6.36,0.32 -12.65,4.62 -19.1,2.05c-2.54,-1 -4.35,-3.61 -6.83,-4.53c-3.51,-1.31 -6.57,-0.11 -8.35,-4.52c-0.803,-2.325 -0.91,-4.835 -0.31,-7.22c0.06,-0.29 0.13,-0.58 0.2,-0.86c-0.527,1.244 -0.929,2.537 -1.2,3.86c-0.617,2.407 -0.513,4.942 0.3,7.29c1.78,4.41 4.84,3.21 8.35,4.52c2.48,0.92 4.29,3.52 6.83,4.53c6.45,2.57 12.74,-1.73 19.1,-2.05c2.72,-0.13 5.78,1 6.75,3.58c1.06,2.79 -0.67,6.24 0.89,8.78c1,1.7 3.23,2.35 4.52,3.87c1.29,1.52 1.52,4 1.46,6.22c-0.06,2.22 -0.21,4.49 0.86,6.39c1.07,1.9 3.9,3 5.48,1.47c1.26,-1.19 1.16,-3.38 2.48,-4.52c1.32,-1.14 3.46,-0.59 4.62,0.68c1.16,1.27 2.33,3.05 1.88,4.69Z" style="fill-rule:nonzero;"/></g><g><path d="M663.51,239.42c-1.2,-1.39 -1.09,-3.44 -1,-5.27c0.121,-0.926 0.121,-1.864 0,-2.79c-1.69,5.81 -0.68,0.18 -1,5.79c-0.11,1.83 -0.22,3.88 1,5.27c1.59,1.86 10.15,-7.65 10.3,-9.73c0,-0.37 0.07,-0.75 0.1,-1.12c-2.27,3.42 -8.11,9.35 -9.4,7.85Z" style="fill-rule:nonzero;"/></g><g><path d="M678.51,209.86c-1.015,2.078 -1.842,4.244 -2.47,6.47c0.43,-1.181 0.92,-2.339 1.47,-3.47c1.72,-3.46 4,-6.67 5.1,-10.39c0.08,-0.27 0.15,-0.55 0.21,-0.83c-1.19,2.84 -2.94,5.47 -4.31,8.22Z" style="fill-rule:nonzero;"/></g></g><g><path d="M570.01,695.88c0,0 2.11,6.66 8.3,7.5c6.19,0.84 -8.3,-7.5 -8.3,-7.5Z" style="fill-opacity:0.1;fill-rule:nonzero;"/></g><g><path d="M563.01,729.38c0,0 6,0.17 11.92,0c5.92,-0.17 -11.92,0 -11.92,0Z" style="fill-opacity:0.1;fill-rule:nonzero;"/></g><g><path d="M667.17,656.04c0,0 7.5,0.34 12,-2.83c4.5,-3.17 -12,2.83 -12,2.83Z" style="fill-opacity:0.1;fill-rule:nonzero;"/></g><g><path d="M696.01,615.04c0,0 -11.84,6 -9.5,8.5c2.34,2.5 9.5,-8.5 9.5,-8.5Z" style="fill-opacity:0.1;fill-rule:nonzero;"/></g><g><path d="M689.01,633.54c0.83,-0.5 7,-3.83 8.5,-7.16c1.5,-3.33 -8.5,7.16 -8.5,7.16Z" style="fill-opacity:0.1;fill-rule:nonzero;"/></g><g><path d="M481.67,767.21l-7.5,3l-11.25,2.5l-9.86,-3.5l-2.64,-8c0,0 4.4,-14.05 4.56,-23.9c0,-0.91 0,-1.78 -0.06,-2.6c-0.269,-3.757 -0.067,-7.533 0.6,-11.24c0.369,-2.212 0.921,-4.389 1.65,-6.51l15.75,0l1.71,8.88l2,10.62c0.716,2.086 1.147,4.259 1.28,6.46c0.018,0.651 -0.076,1.301 -0.28,1.92c-0.054,0.148 -0.088,0.303 -0.1,0.46c-0.036,1.756 0.125,3.51 0.48,5.23l0,0.07c1.16,6.72 3.66,16.61 3.66,16.61Z" style="fill:#b15885;fill-rule:nonzero;"/></g><g><path d="M528.42,778.21l-26,-3.25c0,0 1.39,-5.09 2.53,-12c0.43,-2.59 0.82,-5.44 1.09,-8.37c0.353,-4.388 1.748,-8.63 4.07,-12.37c0.778,-1.289 1.723,-2.469 2.81,-3.51l15.5,3.5c0,0 0.12,3 0.17,6.72c0.07,5.57 0,12.84 -0.92,14.41l-0.06,0.12c-1.38,2.84 0.81,14.75 0.81,14.75Z" style="fill:#b15885;fill-rule:nonzero;"/></g><g><path d="M477.57,745.3l-0.06,-3.49l0.44,1.11c0.018,0.651 -0.076,1.301 -0.28,1.92c-0.054,0.148 -0.088,0.303 -0.1,0.46Z" style="fill-opacity:0.1;fill-rule:nonzero;"/></g><g><path d="M481.67,767.21l-7.5,3l-11.25,2.5l-9.86,-3.5l-2.64,-8c0,0 4.4,-14.05 4.56,-23.9c0.35,-1.16 0.54,-1.83 0.54,-1.83l-2,24c-0.012,0.147 -0.018,0.293 -0.018,0.44c0,2.985 2.456,5.44 5.44,5.44l0.068,-0l14.57,-0.21c2.952,-0.038 5.36,-2.477 5.36,-5.43c0,-0.19 -0.01,-0.381 -0.03,-0.57l-0.88,-8.57c1.14,6.74 3.64,16.63 3.64,16.63Z" style="fill-opacity:0.1;fill-rule:nonzero;"/></g><g><path d="M455.52,736.48c-2.279,7.933 -5.112,15.695 -8.48,23.23c-3.82,8.2 6.5,17.8 11.59,21.87c1.617,1.296 3.628,2.002 5.7,2l6.53,0c2.868,0.003 5.576,-1.347 7.3,-3.64c2.78,-3.7 6.44,-9.53 6.13,-14.23c-0.5,-7.5 -6.78,-22.9 -6.78,-22.9l0.07,4.12l1.35,13.25c0.019,0.186 0.029,0.373 0.029,0.561c0,2.95 -2.399,5.39 -5.349,5.439l-14.57,0.2c-0.026,-0 -0.052,0.001 -0.078,0.001c-2.979,-0 -5.43,-2.452 -5.43,-5.43c0,-0.147 0.006,-0.294 0.018,-0.441l1.97,-24.03Z" style="fill:#626696;fill-rule:nonzero;"/></g><g><path d="M472.92,716.96l1.71,8.88c-4.22,7.65 -14.4,1.21 -19.11,-2.37c0.369,-2.212 0.921,-4.389 1.65,-6.51l15.75,0Z" style="fill-opacity:0.1;fill-rule:nonzero;"/></g><g><path d="M528.59,748.93c-5.14,2.41 -15.68,-4.71 -18.48,-6.71c0.778,-1.289 1.723,-2.469 2.81,-3.51l15.5,3.5c0,0 0.12,2.98 0.17,6.72Z" style="fill-opacity:0.1;fill-rule:nonzero;"/></g><g><path d="M561.17,559.96c-2.25,4.75 -7,55.5 -6.25,68.25c0.75,12.75 -1.5,32.75 -1.5,32.75c0,0 -8.75,46 -15.75,59c-4.263,8.074 -6.897,16.909 -7.75,26c-5,5.5 -20.5,-6.25 -20.5,-6.25c4,-2.25 4.5,-27.75 5.5,-29.75c1,-2 1.25,-10.75 1.25,-10.75l2.75,-52.5c0,0 1.25,-15 -2.5,-20.25c-3.75,-5.25 0,-21 0,-21l-1.72,-45l-2,-26c0,0 -4.5,27.75 -8.25,37.25c-3.75,9.5 -3.75,33.25 -3.75,33.25c-0.75,15.5 -10.25,34.5 -10.25,34.5c0,18.75 -13,64.75 -15.25,68c-2.25,3.25 0,15.25 0,15.25c-5,12.25 -22.11,-3.25 -22.11,-3.25c0,0 2.86,-8.5 1.61,-10.5c-1.25,-2 -1.61,-14 -1.61,-14c0,0 4.11,5.25 0.86,-22.5c-1.93,-16.841 -0.63,-33.896 3.83,-50.25c4.46,-16.354 4.42,-17.5 2.08,-35c-2.34,-17.5 -2.08,-49.5 -2.08,-49.5l0,-39.33l4.17,-7.67c0,0 94.25,-14.75 101.25,-5.75c1.075,1.724 1.757,3.663 2,5.68c3.34,17.86 -2.06,65.17 -4.03,69.32Z" style="fill:#c6cbd6;fill-rule:nonzero;"/></g><g><path d="M551.91,616.33c0,0 -8.75,2.63 -9.12,4.38c0,0 8.25,-2.6 9.12,-4.38Z" style="fill-opacity:0.1;fill-rule:nonzero;"/></g><g><path d="M550.79,627.33c0,0 -21.13,9.63 -30.38,-1.25c9.659,3.989 20.426,4.432 30.38,1.25Z" style="fill-opacity:0.1;fill-rule:nonzero;"/></g><g><path d="M523.34,634.71c0,0 21.75,4.75 25.62,0l-25.62,0Z" style="fill-opacity:0.1;fill-rule:nonzero;"/></g><g><path d="M467.91,609.33c0,0 -6.09,3.15 -8.17,1.26l8.17,-1.26Z" style="fill-opacity:0.1;fill-rule:nonzero;"/></g><g><path d="M468.54,616.33c0,0 -9.77,1 -10,2.19c-0.23,1.19 10,-2.19 10,-2.19Z" style="fill-opacity:0.1;fill-rule:nonzero;"/></g><g><path d="M461.34,503.33c0,0 43.87,-0.38 51.37,2.5c7.5,2.88 12.88,-3.37 12.88,-3.37l-12,26.37c0,0 -5.13,-30.37 -50.13,-19l-2.12,-6.5Z" style="fill-opacity:0.1;fill-rule:nonzero;"/></g><g><path d="M457.68,260.11c-1,1.6 -2,3.68 -1,5.26c0.421,0.506 0.872,0.987 1.35,1.44c0.592,0.806 0.992,1.736 1.17,2.72c1.19,4.8 1.44,10.21 -1.24,14.36c-1.25,1.93 -3.06,3.47 -4.08,5.53c-1.44,2.88 -1.1,6.31 -0.58,9.49c0.486,3.963 1.632,7.816 3.39,11.4c1.792,3.606 4.916,6.379 8.71,7.73c2.22,0.68 4.9,0.88 6.2,2.8c1.44,2.1 0.61,5.56 2.77,6.91c1.48,0.93 3.4,0.18 5,-0.58c2.22,-1.06 4.65,-2.37 5.4,-4.71c0.47,-1.48 0.2,-3.22 1.09,-4.49c0.72,-1 2,-1.52 2.73,-2.58c0.383,-0.703 0.605,-1.481 0.65,-2.28l1.34,-10.16c0.165,-0.924 0.205,-1.865 0.12,-2.8c-0.3,-2.33 -2.06,-4.16 -3.67,-5.87c-2.56,-2.72 -5.06,-5.73 -6,-9.35c-1.43,-5.63 1.17,-11.42 1.6,-17.21c0.13,-1.147 0.038,-2.308 -0.27,-3.42c-0.603,-1.458 -1.506,-2.773 -2.65,-3.86c-1.165,-1.377 -2.511,-2.592 -4,-3.61c-3.4,-2.1 -7.06,-1.65 -10.84,-1.62c-3.78,0.03 -5.18,1.72 -7.19,4.9Z" style="fill:#1e1637;fill-rule:nonzero;"/></g><g><path d="M455.47,343.21l-4,7.5l-1,1c-4.5,4.22 -22.39,20.89 -24.79,21.33c-2.75,0.5 -16.76,-21.8 -16.76,-21.8l21.08,-17.79l0.84,-0.71l24.63,10.47Z" style="fill:#b15885;fill-rule:nonzero;"/></g><g><path d="M534.67,322.71l-34,13.5c0,0 -33.5,4 -23,-14.5c1.449,-2.551 2.568,-5.277 3.33,-8.11c4.35,-16 -3.33,-31.39 -3.33,-31.39c0,0 39.5,-35 34.5,-9c-2.49,13 3.1,25.32 9.33,34.44c3.777,5.525 8.198,10.58 13.17,15.06Z" style="fill:#b15885;fill-rule:nonzero;"/></g><circle cx="490.75" cy="259.71" r="33" style="fill-opacity:0.1;"/><circle cx="490.75" cy="258.71" r="33" style="fill:#b15885;"/><g><path d="M534.67,322.71l-34,13.5c0,0 -33.5,4 -23,-14.5c1.449,-2.551 2.568,-5.277 3.33,-8.11c7.6,9.74 19.17,11.11 19.17,11.11c13.51,1.41 16.09,-8.83 21.33,-17.06c3.777,5.525 8.198,10.58 13.17,15.06Z" style="fill-opacity:0.1;fill-rule:nonzero;"/></g><g><path d="M455.47,343.21l-4,7.5l-1,1l-5.51,-4.8l-15.12,-13.2l0.16,-0.29l0.84,-0.71l24.63,10.5Z" style="fill-opacity:0.1;fill-rule:nonzero;"/></g><g><path d="M565.2,490.64c-9.37,4 -24.67,5.17 -30.53,5.4c-8.5,0.34 -17.83,0.67 -35.5,9c-17.67,8.33 -41.42,-4.66 -41.42,-4.66l-0,-2l4.17,-7.67c0,0 94.25,-14.75 101.25,-5.75c1.085,1.721 1.778,3.661 2.03,5.68Z" style="fill-opacity:0.1;fill-rule:nonzero;"/></g><g><path d="M572.83,481.38c-1.34,10 -29.67,12.33 -38.17,12.66c-8.5,0.33 -17.83,0.67 -35.5,9c-17.67,8.33 -41.42,-4.66 -41.42,-4.66l-0,-1.36c-0,-3.9 0.05,-15.38 -0,-23.37l-0,-6.61c-0,-3.63 -0,-8.74 -0.25,-13.73c-0.094,-3.79 -0.539,-7.563 -1.33,-11.27c-1.59,-6.36 -0.14,-10 1.37,-13.5l0.21,-0.5c1.58,-3.66 -0.25,-9.33 -1.58,-14.66c-0.633,-3.027 -0.968,-6.108 -1,-9.2c-0.09,-3.07 0,-5.47 0,-5.47c3,-7.33 2.42,-14.49 1.25,-20.86c-1.16,-6.38 -2.92,-12 -2.25,-16.13c0.403,-2.165 0.369,-4.389 -0.1,-6.54c-0.306,-1.742 -1.216,-3.322 -2.57,-4.46l-5.54,-4.83l-15.12,-13.18c0,0 3.05,-5.49 6.49,-13.38c2.19,-4.961 4.116,-10.035 5.77,-15.2c0.26,-0.8 0.5,-1.61 0.74,-2.42c4.66,-16 29.66,-6.67 29.66,-6.67c0.34,28.67 25.67,31.67 25.67,31.67c16,1.67 16.67,-13 24.58,-21.33c7.91,-8.33 36.42,13 36.42,13c0,0 0.22,7.73 -0.15,18.07c-0.27,9.232 -1.125,18.437 -2.56,27.56c-1.19,7 -2.89,13.48 -5.29,18c-0.767,1.474 -1.436,2.997 -2,4.56c-1.844,5.016 -2.759,10.326 -2.7,15.67c-0,1 -0,2 0.1,2.93c0.209,3.376 0.738,6.724 1.58,10c0.293,1.174 0.647,2.332 1.06,3.47c0.413,1.138 0.89,1.95 2.32,5.18c2,4.51 5,11.5 8.18,19.13c1.76,4.29 3.56,8.79 5.21,13.16c2.42,6.38 4.52,12.48 5.78,17.24c0.89,3.59 1.36,6.39 1.14,8.03Z" style="fill:#ffcde5;fill-rule:nonzero;"/></g><g><path d="M560.01,336.45c-0.27,9.232 -1.125,18.437 -2.56,27.56c-2.718,0.659 -5.495,1.047 -8.29,1.16c-4.23,0.11 -8.42,-0.75 -12.65,-0.86c-4.54,-0.12 -9.06,0.62 -13.6,0.89c-9.06,0.55 -18.12,-0.74 -27.11,-2l-8.46,-1.23c-2.331,-0.294 -4.645,-0.715 -6.93,-1.26c-1.91,-0.48 -3.76,-1.15 -5.64,-1.73c-6.749,-1.97 -13.682,-3.246 -20.69,-3.81c-0.306,-1.742 -1.216,-3.322 -2.57,-4.46l-5.54,-4.83c-2.553,-7.76 -5.097,-15.52 -7.63,-23.28c-0.36,-1.08 -0.71,-2.17 -1,-3.27c2.19,-4.961 4.116,-10.035 5.77,-15.2c1.227,3.973 2.762,7.845 4.59,11.58c1.082,2.347 2.445,4.553 4.06,6.57c3.94,4.69 9.78,7.31 15.58,9.26c15,5 30.86,6.62 46.58,8.16c5.111,0.601 10.254,0.898 15.4,0.89c4,-0.1 8,-0.57 12,-1c6.296,-0.607 12.541,-1.656 18.69,-3.14Z" style="fill:#ff90c9;fill-rule:nonzero;"/></g><g><path d="M550.12,386.6c-1.844,5.016 -2.759,10.326 -2.7,15.67l-0.11,0c-3.39,1.41 -6.62,3.25 -10.15,4.27c-3.783,0.922 -7.667,1.362 -11.56,1.31c-5.807,0.167 -11.62,0.32 -17.44,0.46c-17.79,0.43 -35.94,0.71 -53,-4.17c-0.09,-3.07 0,-5.47 0,-5.47c3,-7.33 2.42,-14.49 1.25,-20.86c1.73,0.85 3.59,2.17 4.38,2.54c3.178,1.492 6.46,2.752 9.82,3.77c8.8,2.65 18,3.57 27.22,4c14.97,0.71 29.969,0.48 44.91,-0.69c2.476,-0.11 4.941,-0.388 7.38,-0.83Z" style="fill:#ff90c9;fill-rule:nonzero;"/></g><g><path d="M560.66,443.02c-1.53,0.28 -3.05,0.59 -4.57,0.9c-4.193,0.778 -8.336,1.8 -12.41,3.06c-3.7,1.23 -7.25,2.85 -11,4.1c-8.81,3 -18.21,3.77 -27.52,4.12c-15.932,0.596 -31.885,-0.036 -47.72,-1.89c-0.094,-3.79 -0.539,-7.563 -1.33,-11.27c-1.59,-6.36 -0.14,-10 1.37,-13.5c4.22,0.3 8.88,1.61 11.29,2c7.66,1.22 15.33,2.67 23.12,2.78c4.701,-0.022 9.397,-0.289 14.07,-0.8l11.54,-1.06c3.574,-0.26 7.13,-0.728 10.65,-1.4c3.41,-0.72 6.73,-1.82 10.1,-2.74c4.65,-1.26 9.49,-2.19 14.18,-3.42c2.04,4.5 5.09,11.49 8.23,19.12Z" style="fill:#ff90c9;fill-rule:nonzero;"/></g><g><path d="M571.65,473.42c-5.639,1.753 -11.09,4.064 -16.27,6.9c-4,2.28 -7.84,5 -12.07,6.92c-4.648,1.916 -9.499,3.295 -14.46,4.11c-9.453,1.84 -18.957,3.47 -28.51,4.89c-14.13,2 -28.71,3.52 -42.62,0.78c0,-3.9 0.05,-15.38 0,-23.37c5.08,-1.13 12,-0.27 16.3,-0.09c10,0.4 19.87,2.42 29.81,1.8c5.066,-0.434 10.098,-1.209 15.06,-2.32l28.25,-5.66c1.543,-0.219 3.038,-0.699 4.42,-1.42c1.246,-0.865 2.387,-1.871 3.4,-3c3.08,-3 7,-4.93 10.86,-6.75c2.52,6.35 4.57,12.45 5.83,17.21Z" style="fill:#ff90c9;fill-rule:nonzero;"/></g><g><path d="M546.09,444.79c3.28,-0.4 6.56,1.29 9.84,0.84c-1.14,1.75 -3.53,2 -5.59,2.3c-2.221,0.373 -4.418,0.877 -6.58,1.51c-0.87,0.23 -5.86,2.1 -6.48,1.48c-1.47,-1.49 7.47,-5.97 8.81,-6.13Z" style="fill-opacity:0.1;fill-rule:nonzero;"/></g><g><path d="M548.07,455.67c-1.487,0.967 -2.873,2.079 -4.14,3.32c-2.291,1.907 -4.97,3.293 -7.85,4.06c3.021,1.752 6.83,1.461 9.55,-0.73c0.733,-0.78 1.592,-1.433 2.54,-1.93c0.77,-0.3 1.64,-0.27 2.41,-0.59c1,-0.43 3.12,-2.93 2.56,-4.15c-0.72,-1.54 -4.07,-0.54 -5.07,0.02Z" style="fill-opacity:0.1;fill-rule:nonzero;"/></g><g><path d="M531.43,416.77c0.9,1 2.44,1 3.71,1.49c0.832,0.363 1.635,0.791 2.4,1.28c3.13,1.723 6.853,2.026 10.22,0.83c-1.27,-1.91 -2.74,-3.9 -4.92,-4.6c-1.81,-0.59 -3.77,-0.15 -5.65,0.18c-1.443,0.351 -2.945,0.379 -4.4,0.08c-1.21,-0.34 -3.15,-1.24 -1.36,0.74Z" style="fill-opacity:0.1;fill-rule:nonzero;"/></g><g><path d="M462.84,223.33c-4.73,5.26 -6.25,13.32 -12.23,17.1c-1.68,1.06 -3.62,1.7 -5.28,2.8c-4.88,3.23 -6.35,9.6 -7.43,15.35c-0.68,3.63 -0.56,8.62 3,9.53c1.15,0.29 2.37,0 3.53,0.23c3,0.54 4.51,4 4.25,7.06c-0.26,3.06 -1.73,5.75 -2.56,8.65c-0.489,1.253 -0.471,2.65 0.05,3.89c0.712,1.103 1.878,1.835 3.18,2c4,0.72 8.07,-1.64 10.47,-4.92c2.4,-3.28 3.45,-7.34 4.29,-11.31c1.403,-6.576 2.405,-13.232 3,-19.93c0.5,-5.75 0.75,-11.75 3.52,-16.82c2.77,-5.07 9,-8.81 14.35,-6.67c3.8,1.51 6.55,5.64 10.64,5.81c1.21,0.05 2.52,-0.26 3.58,0.34c0.755,0.533 1.336,1.278 1.67,2.14c4.34,8.68 8.21,18.14 7.17,27.79c-0.65,6 -3.21,11.9 -2.68,17.95c0.38,4.36 2.36,8.51 2.33,12.89c-0.03,4.38 -1.94,8.26 -3.17,12.35c-1.725,5.771 -2.095,11.863 -1.08,17.8c0.222,1.989 0.948,3.89 2.11,5.52c1.213,1.648 3.321,2.391 5.3,1.87l1.54,10.56c0.048,0.772 0.292,1.519 0.71,2.17c1.85,2.38 5.56,-0.67 8.56,-0.33c1.11,4 5.32,6.39 9.39,7.2c4.07,0.81 8.32,0.51 12.38,1.37c3.83,0.81 7.41,2.63 11.3,3.09c9.34,1.1 18.61,-7.47 18.25,-16.88c-0.25,-6.54 -4.31,-12.24 -6.45,-18.44c-6,-17.46 3.56,-37.55 -2.82,-54.9c-2,-5.54 -5.59,-10.4 -8,-15.8c-3.82,-8.6 -4.77,-18.7 -10.82,-25.92c-2.584,-2.866 -5.564,-5.347 -8.85,-7.37c-3.09,-2.07 -6.3,-4.09 -9.9,-5c-6.07,-1.54 -12.42,0.24 -18.65,0.92c-6.59,0.71 -12.94,-1 -19.44,-0.63c-5.671,0.232 -11.284,1.241 -16.68,3c-3.256,1.116 -6.187,3.019 -8.53,5.54Z" style="fill-opacity:0.1;fill-rule:nonzero;"/></g><g><path d="M462.84,222.33c-4.73,5.26 -6.25,13.32 -12.23,17.1c-1.68,1.06 -3.62,1.7 -5.28,2.8c-4.88,3.23 -6.35,9.6 -7.43,15.35c-0.68,3.63 -0.56,8.62 3,9.53c1.15,0.29 2.37,0 3.53,0.23c3,0.54 4.51,4 4.25,7.06c-0.26,3.06 -1.73,5.75 -2.56,8.65c-0.489,1.253 -0.471,2.65 0.05,3.89c0.712,1.103 1.878,1.835 3.18,2c4,0.72 8.07,-1.64 10.47,-4.92c2.4,-3.28 3.45,-7.34 4.29,-11.31c1.403,-6.576 2.405,-13.232 3,-19.93c0.5,-5.75 0.75,-11.75 3.52,-16.82c2.77,-5.07 9,-8.81 14.35,-6.67c3.8,1.51 6.55,5.64 10.64,5.81c1.21,0.05 2.52,-0.26 3.58,0.34c0.755,0.533 1.336,1.278 1.67,2.14c4.34,8.68 8.21,18.14 7.17,27.79c-0.65,6 -3.21,11.9 -2.68,17.95c0.38,4.36 2.36,8.51 2.33,12.89c-0.03,4.38 -1.94,8.26 -3.17,12.35c-1.725,5.771 -2.095,11.863 -1.08,17.8c0.222,1.989 0.948,3.89 2.11,5.52c1.213,1.648 3.321,2.391 5.3,1.87l1.54,10.56c0.048,0.772 0.292,1.519 0.71,2.17c1.85,2.38 5.56,-0.67 8.56,-0.33c1.11,4 5.32,6.39 9.39,7.2c4.07,0.81 8.32,0.51 12.38,1.37c3.83,0.81 7.41,2.63 11.3,3.09c9.34,1.1 18.61,-7.47 18.25,-16.88c-0.25,-6.54 -4.31,-12.24 -6.45,-18.44c-6,-17.46 3.56,-37.55 -2.82,-54.9c-2,-5.54 -5.59,-10.4 -8,-15.8c-3.82,-8.6 -4.77,-18.7 -10.82,-25.92c-2.584,-2.866 -5.564,-5.347 -8.85,-7.37c-3.09,-2.07 -6.3,-4.09 -9.9,-5c-6.07,-1.54 -12.42,0.24 -18.65,0.92c-6.59,0.71 -12.94,-1 -19.44,-0.63c-5.671,0.232 -11.284,1.241 -16.68,3c-3.256,1.116 -6.187,3.019 -8.53,5.54Z" style="fill:#1e1637;fill-rule:nonzero;"/></g><g><path d="M455.23,298.11c0.82,2.72 3.34,4.54 5,6.86c1.884,2.684 2.606,6.018 2,9.24c-1,5.19 -5.34,10 -3.91,15.08c0.641,1.793 1.642,3.437 2.94,4.83c4.08,5 8.82,10.25 15.19,11.35c0.994,0.215 2.026,0.174 3,-0.12c1.041,-0.451 1.938,-1.182 2.59,-2.11c2.663,-3.437 3.73,-7.856 2.93,-12.13c-0.555,-1.92 -1.003,-3.87 -1.34,-5.84c-0.36,-4.27 2.1,-8.19 4.13,-12c2.03,-3.81 3.74,-8.36 1.9,-12.23c-1.3,-2.75 -4.1,-4.44 -6.83,-5.79c-6.002,-2.937 -12.404,-4.976 -19,-6.05c-3,-0.5 -4.42,-0.93 -6.57,1.53c-1.72,2.04 -2.83,4.78 -2.03,7.38Z" style="fill-opacity:0.1;fill-rule:nonzero;"/></g><g><path d="M455.23,297.11c0.82,2.72 3.34,4.54 5,6.86c1.884,2.684 2.606,6.018 2,9.24c-1,5.19 -5.34,10 -3.91,15.08c0.641,1.793 1.642,3.437 2.94,4.83c4.08,5 8.82,10.25 15.19,11.35c0.994,0.215 2.026,0.174 3,-0.12c1.041,-0.451 1.938,-1.182 2.59,-2.11c2.663,-3.437 3.73,-7.856 2.93,-12.13c-0.555,-1.92 -1.003,-3.87 -1.34,-5.84c-0.36,-4.27 2.1,-8.19 4.13,-12c2.03,-3.81 3.74,-8.36 1.9,-12.23c-1.3,-2.75 -4.1,-4.44 -6.83,-5.79c-6.002,-2.937 -12.404,-4.976 -19,-6.05c-3,-0.5 -4.42,-0.93 -6.57,1.53c-1.72,2.04 -2.83,4.78 -2.03,7.38Z" style="fill:#1e1637;fill-rule:nonzero;"/></g><g><path d="M549.1,415.24c-0.882,-0.205 -1.728,-0.542 -2.51,-1c-1.546,-0.964 -2.958,-2.127 -4.2,-3.46c-2.26,-2.152 -4.331,-4.494 -6.19,-7c-2,-2.8 -5.14,-7.81 -4.85,-11.38c1,-0.15 3,1.08 3.9,1.6c1.384,0.981 2.58,2.204 3.53,3.61c1.452,1.792 3.133,3.386 5,4.74c1.253,0.815 2.452,1.711 3.59,2.68l0.11,0.11c0.216,3.411 0.758,6.793 1.62,10.1Z" style="fill-opacity:0.1;fill-rule:nonzero;"/></g><g opacity="0.1"><g><path d="M460.71,278.94c-2.4,3.28 -6.46,5.64 -10.46,4.91c-1.307,-0.159 -2.477,-0.893 -3.19,-2c-0.165,-0.314 -0.279,-0.651 -0.34,-1c-0.25,0.7 -0.5,1.41 -0.71,2.13c-0.48,1.255 -0.462,2.648 0.05,3.89c0.713,1.107 1.883,1.841 3.19,2c4,0.73 8.06,-1.63 10.46,-4.91c2.4,-3.28 3.45,-7.34 4.3,-11.31c0.3,-1.43 0.58,-2.87 0.84,-4.31c-0.82,3.77 -1.87,7.51 -4.14,10.6Z" style="fill-rule:nonzero;"/></g><g><path d="M448.6,273.46c0.501,-1.324 0.837,-2.704 1,-4.11c0.25,-3 -1.29,-6.52 -4.26,-7.06c-1.16,-0.21 -2.38,0.06 -3.52,-0.23c-3.26,-0.83 -3.65,-5.05 -3.18,-8.53c-0.32,1.33 -0.59,2.68 -0.84,4c-0.68,3.63 -0.56,8.62 3,9.53c1.14,0.29 2.36,0 3.52,0.23c2.68,0.49 4.2,3.4 4.28,6.17Z" style="fill-rule:nonzero;"/></g><g><path d="M507.91,265.29c0,0.43 -0.1,0.85 -0.16,1.28c0.514,-2.068 0.901,-4.165 1.16,-6.28c1,-9.65 -2.83,-19.11 -7.16,-27.79c-0.334,-0.862 -0.915,-1.607 -1.67,-2.14c-1.06,-0.6 -2.37,-0.29 -3.59,-0.34c-4.09,-0.17 -6.83,-4.3 -10.64,-5.82c-5.36,-2.13 -11.58,1.62 -14.34,6.68c-1.519,2.991 -2.478,6.234 -2.83,9.57c0.437,-1.587 1.05,-3.12 1.83,-4.57c2.76,-5.06 9,-8.81 14.34,-6.68c3.81,1.52 6.55,5.65 10.64,5.82c1.22,0 2.53,-0.26 3.59,0.34c0.755,0.533 1.336,1.278 1.67,2.14c4.33,8.68 8.2,18.14 7.16,27.79Z" style="fill-rule:nonzero;"/></g><g><path d="M555.6,352.73c-3.88,-0.46 -7.47,-2.28 -11.29,-3.09c-4.07,-0.86 -8.31,-0.55 -12.38,-1.37c-4.07,-0.82 -8.28,-3.19 -9.39,-7.2c-3,-0.34 -6.71,2.71 -8.56,0.33c-0.418,-0.651 -0.662,-1.398 -0.71,-2.17c-0.52,-3.52 -1.033,-7.04 -1.54,-10.56c-1.979,0.521 -4.087,-0.222 -5.3,-1.87c-1.164,-1.63 -1.894,-3.53 -2.12,-5.52c-0.654,-3.871 -0.725,-7.818 -0.21,-11.71c-1.46,5.448 -1.73,11.148 -0.79,16.71c0.226,1.99 0.956,3.89 2.12,5.52c1.213,1.648 3.321,2.391 5.3,1.87c0.507,3.52 1.02,7.04 1.54,10.56c0.048,0.772 0.292,1.519 0.71,2.17c1.85,2.38 5.56,-0.67 8.56,-0.33c1.11,4 5.32,6.39 9.39,7.2c4.07,0.81 8.31,0.51 12.38,1.37c3.82,0.81 7.41,2.63 11.29,3.09c9.07,1.06 18,-7 18.24,-16.05c-2.61,6.8 -9.89,11.91 -17.24,11.05Z" style="fill-rule:nonzero;"/></g><g><path d="M508.57,291.11c0,-4.38 -2,-8.53 -2.34,-12.89c-0.135,-1.823 -0.055,-3.656 0.24,-5.46c-0.956,3.401 -1.375,6.93 -1.24,10.46c0.38,4.36 2.36,8.51 2.34,12.89c0,0.33 0,0.65 -0.06,1c0.637,-1.939 0.994,-3.96 1.06,-6Z" style="fill-rule:nonzero;"/></g></g><g><path d="M528.42,778.21l-26,-3.25c0,0 1.39,-5.09 2.53,-12l-0.37,6c-0.097,1.495 1.046,2.809 2.54,2.92l16.8,1.33c0.079,0.007 0.159,0.01 0.239,0.01c1.437,0 2.647,-1.118 2.761,-2.55l0,-4.73l0.49,-3c0.07,0.14 0.13,0.3 0.2,0.46c-1.38,2.9 0.81,14.81 0.81,14.81Z" style="fill-opacity:0.1;fill-rule:nonzero;"/></g><g><path d="M505.05,762.33c0,0 -9.26,18.78 -3.71,23.88c4,3.75 17.91,2.68 25.06,1.83c2.435,-0.286 4.241,-2.464 4.07,-4.91c-0.39,-5.7 -1.29,-15.43 -3,-19.14l-0.49,3l-0,4.73c-0.113,1.427 -1.32,2.541 -2.751,2.541c-0.083,-0 -0.166,-0.004 -0.249,-0.011l-16.8,-1.32c-1.49,-0.122 -2.626,-1.428 -2.54,-2.92l0.41,-7.68Z" style="fill:#626696;fill-rule:nonzero;"/></g><g><path d="M506.82,253.65c-0.46,4.24 1.66,8.27 2.87,12.36c2.108,7.207 1.429,14.95 -1.9,21.68c-1.31,2.62 -3,5.07 -3.93,7.86c-2.47,7.57 2.39,16.71 10.05,18.9c2.11,0.61 4.39,0.75 6.31,1.83c3.92,2.19 5,7.35 4.9,11.84c-0.1,4.49 -0.69,9.27 1.39,13.25c1.75,3.35 5.18,5.53 8.72,6.86c6.334,2.35 13.286,2.46 19.69,0.31c2.174,-0.662 4.178,-1.792 5.87,-3.31c2.75,-2.64 3.88,-6.56 4.26,-10.36c0.679,-7.03 -0.8,-14.102 -4.24,-20.27c-2.86,-5.11 -7,-9.4 -10.18,-14.29c-4.616,-7.048 -7.296,-15.188 -7.77,-23.6c-0.24,-4.28 0.1,-8.62 -0.76,-12.82c-1.253,-6.011 -4.855,-11.28 -10,-14.63c-2.49,-1.6 -5.28,-2.69 -7.71,-4.37c-2.43,-1.68 -3.62,-4.47 -6.36,-4c-4.98,0.73 -10.69,8.12 -11.21,12.76Z" style="fill:#985c7e;fill-rule:nonzero;"/></g><g opacity="0.1"><g><path d="M509.82,282.11c2.423,-6.178 2.729,-12.989 0.87,-19.36c-1.21,-4.09 -3.33,-8.12 -2.87,-12.36c0,-0.14 0.06,-0.3 0.08,-0.45c-0.539,1.086 -0.904,2.25 -1.08,3.45c-0.46,4.24 1.66,8.27 2.87,12.36c1.562,5.335 1.607,11.001 0.13,16.36Z" style="fill-rule:nonzero;"/></g><g><path d="M561.79,341.99c-1.692,1.518 -3.696,2.648 -5.87,3.31c-6.404,2.15 -13.356,2.04 -19.69,-0.31c-3.54,-1.33 -7,-3.51 -8.72,-6.86c-2.08,-4 -1.44,-8.75 -1.39,-13.25c0.05,-4.5 -1,-9.65 -4.9,-11.85c-1.92,-1.07 -4.2,-1.22 -6.31,-1.82c-7.21,-2.06 -11.93,-10.27 -10.41,-17.54c-0.23,0.53 -0.45,1.08 -0.64,1.63c-2.47,7.58 2.39,16.72 10.05,18.91c2.11,0.6 4.39,0.75 6.31,1.82c3.92,2.2 5,7.36 4.9,11.85c-0.1,4.49 -0.69,9.27 1.39,13.25c1.75,3.35 5.18,5.53 8.72,6.86c6.334,2.35 13.286,2.46 19.69,0.31c2.174,-0.662 4.178,-1.792 5.87,-3.31c1.868,-1.915 3.146,-4.328 3.68,-6.95c-0.625,1.48 -1.536,2.822 -2.68,3.95Z" style="fill-rule:nonzero;"/></g></g><path d="M615.03,780.09l-8.8,3.25l-21.87,-6.81l3.54,-8.32l3.08,-7.24l20.13,1.56l1.8,8.06l2.12,9.5Z" style="fill:#ffd2c6;fill-rule:nonzero;"/><g><path d="M649.34,779.21l-11.25,5.62l-12.88,-3l-2.87,-9.59l-1.83,-6c0,0 23.63,-10.63 19.75,-6.13c-1.55,1.8 -0.39,5.23 1.54,8.69c2.197,3.689 4.72,7.173 7.54,10.41Z" style="fill:#ffd2c6;fill-rule:nonzero;"/></g><g><path d="M612.91,770.58l-25,-1.86c0,0 0,-0.19 -0.06,-0.52l3.08,-7.24l20.13,1.57l1.85,8.05Z" style="fill-opacity:0.1;fill-rule:nonzero;"/></g><g><path d="M648.86,557.96l-2.52,1.43l-33,18.57l2.5,103c0,0 0.51,28.54 -1.43,44.5c-0.263,2.711 -0.788,5.391 -1.57,8c-3.75,10.75 1.75,36.25 1.75,36.25l-26.65,-2c0,0 -1.1,-8.76 -0.1,-14.54c1,-5.78 -5.75,-42.47 -5.75,-42.47c0,0 -5.5,-52.25 -8,-53.75c-2.5,-1.5 -6,-19 -6,-24.76c0,-5.76 -9.25,-45 -9.29,-45.74c-0.04,-0.74 -5,-31.5 -5,-36.5c0,-5 -3.19,-37.24 -1.46,-45.24c0.68,-3.13 1.64,-7.31 2.55,-11.22c1.42,-6.07 2.73,-11.53 2.73,-11.53c0,0 87.25,5.75 94.5,17.49c0.805,1.403 1.369,2.931 1.67,4.52c3.55,16.14 -4.93,53.99 -4.93,53.99Z" style="fill:#85abd5;fill-rule:nonzero;"/></g><g><path d="M645.79,537.33l1.07,20.63l-0.54,1.43l-33,18.57l2.5,103c0,0 0.51,28.54 -1.43,44.5c-1.67,-6.18 -5,-14.66 -4.82,-15.5c0.25,-1.25 -14.75,-37 -21,-43.75c-6.25,-6.75 -9.91,-23 -9.91,-23c0,0 0.91,-33.5 4.41,-38c3.5,-4.5 9.61,-60.48 9.61,-60.48l53.11,-7.4Z" style="fill-opacity:0.1;fill-rule:nonzero;"/></g><g><path d="M641.77,768.77c-1.183,0.248 -2.226,0.943 -2.91,1.94c-1.16,2.15 -10.42,1.92 -16.55,1.53l-1.83,-6c0,0 23.63,-10.63 19.75,-6.13c-1.55,1.77 -0.39,5.2 1.54,8.66Z" style="fill-opacity:0.1;fill-rule:nonzero;"/></g><g><path d="M592.85,542.96c0,0 -4.25,57.75 -7.75,62.25c-3.5,4.5 -4.4,38 -4.4,38c0,0 3.65,16.25 9.9,23c6.25,6.75 21.25,42.5 21,43.75c-0.25,1.25 7.25,19.5 5.5,21.75c-1.75,2.25 -0.22,15 0.27,15.75c0.49,0.75 3.73,4.91 1.48,8.58c-2.25,3.67 -2,14.74 -2,14.74c0,-0 20.25,2.18 22,-1.07c1.75,-3.25 10.5,-2.54 10.5,-2.54c0,-0 -7.5,-27.71 -5.25,-33.71c2.25,-6 -9.5,-64 -15.25,-77.25c-5.75,-13.25 2,-50.25 2,-50.25l18,-48l0.5,-22l-56.5,7Z" style="fill:#85abd5;fill-rule:nonzero;"/></g><path d="M549.94,390.63l20.33,14.15l3,32.18l-0,28.17l-2.66,13.16l-18.03,-1.33l0.65,-52.13l-3.29,-34.2Z" style="fill:#4c4981;fill-rule:nonzero;"/><path d="M549.94,390.63l20.33,14.15l3,32.18l-0,28.17l-2.66,13.16l-18.03,-1.33l0.65,-52.13l-3.29,-34.2Z" style="fill-opacity:0.1;fill-rule:nonzero;"/><g><path d="M537.22,300.53c0,0 28.6,24.1 27,53.76c-1.6,29.66 28.39,-13.66 28.39,-13.66l8,-21.34c0,0 -35.52,-17.29 -31.69,-39.66c3.83,-22.37 -31.7,20.9 -31.7,20.9Z" style="fill:#ffd2c6;fill-rule:nonzero;"/></g><circle cx="548.49" cy="278.05" r="30.69" style="fill-opacity:0.1;"/><circle cx="548.49" cy="276.05" r="30.69" style="fill:#ffd2c6;"/><g><path d="M561.4,333.69c0,0 -9,9.59 -11.91,9.59c-2.91,0 2.49,38.3 -2.7,45.68c-5.19,7.38 2.7,21.54 2.7,21.54l2.11,37.79c0,0 -5.58,41.85 -4.81,43.67c0.77,1.82 8,0 8,0l3.16,-42.14c0,-0 -1,-28.86 0.33,-35.53c1.33,-6.67 -0.9,-29.81 1.55,-35.24c2.45,-5.43 2.12,-16.42 2.12,-16.42l-0.55,-28.94Z" style="fill-opacity:0.1;fill-rule:nonzero;"/></g><g><path d="M560.4,332.69c0,0 -9,9.59 -11.91,9.59c-2.91,0 2.49,38.3 -2.7,45.68c-5.19,7.38 2.7,21.54 2.7,21.54l2.11,37.79c0,0 -5.58,41.85 -4.81,43.67c0.77,1.82 8,0 8,0l3.16,-42.14c0,-0 -1,-28.86 0.33,-35.53c1.33,-6.67 -0.9,-29.81 1.55,-35.24c2.45,-5.43 2.12,-16.42 2.12,-16.42l-0.55,-28.94Z" style="fill:#4c4981;fill-rule:nonzero;"/></g><g><path d="M653.78,503.97c-12.32,1 -50.59,3.84 -57.84,-0.34c-8.13,-4.69 -34.27,-7.49 -41.06,-10.14c1.42,-6.07 2.73,-11.53 2.73,-11.53c0,-0 87.25,5.75 94.5,17.49c0.805,1.403 1.369,2.931 1.67,4.52Z" style="fill-opacity:0.1;fill-rule:nonzero;"/></g><g><path d="M657.61,501.63c0,0 -53,5 -61.67,0c-8.67,-5 -37.84,-7.85 -42.15,-10.67c-4.31,-2.82 2.12,-28.39 4.65,-33.85c2.53,-5.46 5.5,-9.15 5.11,-11.45c-0.39,-2.3 1.06,-6.7 2,-9c0.94,-2.3 3.36,-8.34 3.36,-8.34c0,0 -2.64,-2.33 0,-9.07c2.64,-6.74 0.36,-1.59 -7.3,-11.59c-7.66,-10 -2.79,-37 -2.79,-37l1.59,-37.95l7.1,7.65l8.43,9.08l13,13.88l17.67,5l17.33,19.67l17.67,36.86c-0,0 1.71,8.92 4.49,19.36c1.29,4.85 2.82,10 4.51,14.78c5.33,14.97 7,42.64 7,42.64Z" style="fill:#f86280;fill-rule:nonzero;"/></g><g><path d="M646.1,444.18c-12,4.62 -27.87,17.38 -33.83,22.95c-7.66,7.17 -21.66,6.83 -20.66,0c1,-6.83 -19.34,-55.63 -19.34,-55.63c-2.413,-10.721 -5.663,-21.237 -9.72,-31.45c-6,-15.05 2.93,-35.42 5,-39.72l8.43,9.08l13,13.88l17.67,5l17.33,19.67l17.67,36.86c0,-0 1.69,8.92 4.45,19.36Z" style="fill-opacity:0.1;fill-rule:nonzero;"/></g><g><path d="M576.27,318.94l-7.36,18.57c0,0 -12.09,23.63 -5.36,40.54c4.057,10.213 7.307,20.729 9.72,31.45c2.413,10.721 20.33,48.8 19.33,55.63c-1,6.83 13,7.17 20.67,0c7.67,-7.17 31.76,-26.25 42.88,-24.54c11.12,1.71 17.68,-3.3 17.68,-3.3c0,0 -20.23,-26.18 -19.23,-37.27c1,-11.09 -8,-37.73 -8,-37.73c0,0 -4,-29.13 -6.85,-36.23c-2.85,-7.1 -12.41,-20.87 -19.28,-19.32c-6.87,1.55 -27.87,-0.12 -27.87,-0.12l-16.33,12.32Z" style="fill:#4c4981;fill-rule:nonzero;"/></g><g><path d="M621.1,644.33c0,0 -10,4.5 -13.62,5.5c-3.62,1 12.37,0.5 13.62,-5.5Z" style="fill-opacity:0.1;fill-rule:nonzero;"/></g><g><path d="M624.98,646.46c0,0 -25.88,9.25 -24.88,11.5c1,2.25 24.88,-11.5 24.88,-11.5Z" style="fill-opacity:0.1;fill-rule:nonzero;"/></g><g><path d="M621.1,651.46c0,0 -10.5,12.75 -7.62,13.5c2.88,0.75 7.62,-13.5 7.62,-13.5Z" style="fill-opacity:0.1;fill-rule:nonzero;"/></g><g><path d="M576.23,479.71c0,0 -14.63,0.87 2.5,5.37c17.13,4.5 27.37,-1.5 27.37,-1.5l-29.87,-3.87Z" style="fill-opacity:0.1;fill-rule:nonzero;"/></g><circle cx="568.91" cy="373.3" r="2.35" style="fill:#fff;"/><circle cx="591.44" cy="363.92" r="2.35" style="fill:#fff;"/><circle cx="578.36" cy="404.78" r="2.35" style="fill:#fff;"/><circle cx="590.26" cy="435.95" r="2.35" style="fill:#fff;"/><path d="M575.11,372.46l17.5,0l16.83,-10l0.83,3.81l-16.48,9.37l-17.78,0l-0.9,-3.18Z" style="fill:#fff;fill-rule:nonzero;"/><path d="M568.91,339.13l18.03,3.16l0.11,-31.47l-10.78,8.12l-7.36,20.19Z" style="fill:#4c4981;fill-rule:nonzero;"/><g><path d="M538.51,254.34c1.876,-0.433 3.824,-0.457 5.71,-0.07c2.173,0.705 4.177,1.849 5.89,3.36c4.4,3.38 9.11,7.26 10.12,12.71c1.01,5.45 -2.12,11.72 0.31,16.86c1.73,3.69 6.13,6.23 6.19,10.3c0,1.68 -0.73,3.26 -1.25,4.85c-2.8,8.51 1,17.63 4.68,25.79c1.014,3.479 4.022,6.029 7.62,6.46l5.07,1.39c0.895,0.327 1.855,0.437 2.8,0.32c2.32,-0.49 3.17,-3.31 3.48,-5.66c0.25,-3.23 0.795,-6.43 1.63,-9.56c1,-3.08 2.89,-6 5.79,-7.48c5.8,-2.87 12.56,1.2 19,1.33c1.469,0.107 2.936,-0.243 4.2,-1c3,-2 2.47,-6.9 0,-9.6c-2.47,-2.7 -6,-3.93 -9.27,-5.55c-3.191,-1.552 -6.106,-3.616 -8.63,-6.11c-1.615,-1.532 -2.88,-3.395 -3.71,-5.46c-1.08,-3 -0.76,-6.3 -0.57,-9.48c0.55,-9.05 -0.09,-18.35 -3.62,-26.7c-3.53,-8.35 -10.25,-15.65 -18.91,-18.31c-4.88,-1.5 -10.09,-1.48 -15.09,-2.51c-3.92,-0.81 -7.68,-2.26 -11.6,-3.06c-3.92,-0.8 -8.16,-0.93 -11.75,0.84c-5.06,2.5 -7.81,8.17 -12.57,11.21c-2.74,1.75 -6.36,2.86 -7.49,5.91c-1.35,3.63 1.75,7.79 0.45,11.43c-0.43,1.19 -1.29,2.18 -1.81,3.33c-0.52,1.15 -0.63,2.67 0.3,3.52c0.464,0.381 1.025,0.623 1.62,0.7c4.25,0.8 7.2,-1.59 9.64,-4.65c2.65,-3.24 7.86,-4.4 11.77,-5.11Z" style="fill-opacity:0.1;fill-rule:nonzero;"/></g><g><path d="M620.02,313.03c-3.379,0.417 -6.225,2.762 -7.28,6c-1.75,5.06 -4.42,14.66 -2.87,22.7c2.23,11.51 4.22,22.51 4.22,22.51l0,19.5c0,0 0.51,18.75 3.51,23.5c3,4.75 -11.75,45.77 -11.75,45.77l-13.51,38.2c0,0 -20.5,46.75 -1.75,48.25c18.75,1.5 16.37,-43.17 16.37,-43.17l21.89,-38.18l11.75,-24.9c2.229,-11.95 3.234,-24.096 3,-36.25c-0.26,-21.25 -1.26,-39.15 -1.26,-39.15c0,-0 -5.25,-33.1 -11.25,-39.1c-3.99,-4 -7.37,-6.05 -11.07,-5.68Z" style="fill-opacity:0.1;fill-rule:nonzero;"/></g><g><path d="M618.02,312.03c-3.379,0.417 -6.225,2.762 -7.28,6c-1.75,5.06 -4.42,14.66 -2.87,22.7c2.23,11.51 4.22,22.51 4.22,22.51l0,19.5c0,0 0.51,18.75 3.51,23.5c3,4.75 -11.75,45.77 -11.75,45.77l-13.51,38.2c0,0 -20.5,46.75 -1.75,48.25c18.75,1.5 16.37,-43.17 16.37,-43.17l21.89,-38.18l11.75,-24.9c2.229,-11.95 3.234,-24.096 3,-36.25c-0.26,-21.25 -1.26,-39.15 -1.26,-39.15c0,-0 -5.25,-33.1 -11.25,-39.1c-3.99,-4 -7.37,-6.05 -11.07,-5.68Z" style="fill:#ffd2c6;fill-rule:nonzero;"/></g><g><path d="M539.51,253.34c1.876,-0.433 3.824,-0.457 5.71,-0.07c2.173,0.705 4.177,1.849 5.89,3.36c4.4,3.38 9.11,7.26 10.12,12.71c1.01,5.45 -2.12,11.72 0.31,16.86c1.73,3.69 6.13,6.23 6.19,10.3c0,1.68 -0.73,3.26 -1.25,4.85c-2.8,8.51 1,17.63 4.68,25.79c1.014,3.479 4.022,6.029 7.62,6.46l5.07,1.39c0.895,0.327 1.855,0.437 2.8,0.32c2.32,-0.49 3.17,-3.31 3.48,-5.66c0.25,-3.23 0.795,-6.43 1.63,-9.56c1,-3.08 2.89,-6 5.79,-7.48c5.8,-2.87 12.56,1.2 19,1.33c1.469,0.107 2.936,-0.243 4.2,-1c3,-2 2.47,-6.9 0,-9.6c-2.47,-2.7 -6,-3.93 -9.27,-5.55c-3.191,-1.552 -6.106,-3.616 -8.63,-6.11c-1.615,-1.532 -2.88,-3.395 -3.71,-5.46c-1.08,-3 -0.76,-6.3 -0.57,-9.48c0.55,-9.05 -0.09,-18.35 -3.62,-26.7c-3.53,-8.35 -10.25,-15.65 -18.91,-18.31c-4.88,-1.5 -10.09,-1.48 -15.09,-2.51c-3.92,-0.81 -7.68,-2.26 -11.6,-3.06c-3.92,-0.8 -8.16,-0.93 -11.75,0.84c-5.06,2.5 -7.81,8.17 -12.57,11.21c-2.74,1.75 -6.36,2.86 -7.49,5.91c-1.35,3.63 1.75,7.79 0.45,11.43c-0.43,1.19 -1.29,2.18 -1.81,3.33c-0.52,1.15 -0.63,2.67 0.3,3.52c0.464,0.381 1.025,0.623 1.62,0.7c4.25,0.8 7.2,-1.59 9.64,-4.65c2.65,-3.24 7.86,-4.4 11.77,-5.11Z" style="fill:#985c7e;fill-rule:nonzero;"/></g><g opacity="0.1"><g><path d="M618.66,311.24c-6.47,-0.13 -13.23,-4.21 -19,-1.33c-2.166,1.146 -3.895,2.974 -4.92,5.2c0.81,-0.925 1.792,-1.686 2.89,-2.24c5.8,-2.88 12.56,1.2 19,1.33c1.47,0.11 2.938,-0.239 4.2,-1c0.994,-0.693 1.677,-1.749 1.9,-2.94c-1.231,0.72 -2.647,1.061 -4.07,0.98Z" style="fill-rule:nonzero;"/></g><g><path d="M588.73,332.6c-0.945,0.12 -1.905,0.014 -2.8,-0.31l-5.08,-1.4c-1.767,-0.353 -3.434,-1.095 -4.88,-2.17c-1.21,-1.218 -2.144,-2.681 -2.74,-4.29c-3.7,-8.15 -7.47,-17.28 -4.68,-25.79c0.686,-1.532 1.111,-3.168 1.26,-4.84c-0.06,-4.08 -4.46,-6.62 -6.2,-10.31c-2.42,-5.14 0.73,-11.26 -0.3,-16.85c-1.03,-5.59 -5.73,-9.33 -10.13,-12.72c-1.715,-1.503 -3.715,-2.646 -5.88,-3.36c-1.891,-0.377 -3.839,-0.353 -5.72,0.07c-3.91,0.71 -9.11,1.87 -11.7,5.12c-2.43,3.06 -5.39,5.45 -9.63,4.65c-0.596,-0.076 -1.16,-0.315 -1.63,-0.69c-0.93,-0.85 -0.82,-2.38 -0.3,-3.53c0.52,-1.15 1.12,-4 -0.19,-0.33c-0.42,1.19 -1.28,2.18 -1.81,3.33c-0.53,1.15 -0.63,2.68 0.3,3.53c0.47,0.375 1.034,0.614 1.63,0.69c4.24,0.8 7.2,-1.59 9.63,-4.65c2.59,-3.25 7.79,-4.41 11.7,-5.12c1.881,-0.423 3.829,-0.447 5.72,-0.07c2.165,0.714 4.165,1.857 5.88,3.36c4.4,3.39 9.12,7.26 10.13,12.72c1.01,5.46 -2.12,11.71 0.3,16.85c1.74,3.69 6.14,6.23 6.2,10.31c-0.149,1.672 -0.574,3.308 -1.26,4.84c-2.79,8.51 1,17.64 4.68,25.79c0.596,1.609 1.53,3.072 2.74,4.29c1.446,1.075 3.113,1.817 4.88,2.17l5.08,1.4c0.895,0.324 1.855,0.43 2.8,0.31c1.6,-0.34 2.49,-1.79 3,-3.42c-0.305,0.2 -0.644,0.342 -1,0.42Z" style="fill-rule:nonzero;"/></g></g><g><path d="M602.27,776.53c0,0 -13.24,-8.14 -14.51,-10.73c-1.27,-2.59 -19.91,15.16 -19.91,15.16c0,0 -9.75,8.5 -14.62,10.37c-4.87,1.87 -8.09,9.38 -1.42,10c6.67,0.62 32.54,1 32.54,1l22.25,-2.87l13.88,-2.45l-2.63,-20.48c0,0 -14.41,2.83 -15.58,0Z" style="fill:#cc8294;fill-rule:nonzero;"/></g><g><path d="M634.92,779.33c0,0 -11.73,-11 -16.54,-8.4c-4.81,2.6 -16.11,13.9 -16.11,13.9c0,0 -10.67,8.88 -13.54,10.88c-2.87,2 -6.25,8.75 0,9.87c6.25,1.12 63.25,-7.25 63.25,-7.25c0,0 -0.71,-20.79 -2.63,-21.1c-1.92,-0.31 -10.25,4.35 -14.43,2.1Z" style="fill:#cc8294;fill-rule:nonzero;"/></g><g><path d="M708.48,381.82l1,55.68l-25.34,32.71l-5.93,8.33c0,0 -18.08,37 -41.25,25.67c-4,-1.93 -5.72,-4.46 -5.93,-7.32c-0.035,-0.429 -0.035,-0.861 0,-1.29c1.18,-13.91 34.76,-34.35 34.76,-34.35c0,0 24.33,-42.33 26,-43.07c1.67,-0.74 9.33,-23.26 9.33,-23.26l3.34,-16.15c1.927,-0.542 3.888,-0.953 5.87,-1.23l-1.85,4.28Z" style="fill-opacity:0.1;fill-rule:nonzero;"/></g><g><path d="M703.48,376.73l-3.33,16.15c0,0 -7.67,22.52 -9.34,23.26c-1.67,0.74 -26,43.07 -26,43.07c0,0 -52,31.67 -28.85,43c23.15,11.33 41.26,-25.67 41.26,-25.67l5.93,-8.33l40.33,-52.1c0,0 19.33,-19.6 11,-32.93c-8.33,-13.33 -31,-6.45 -31,-6.45Z" style="fill:#febfba;fill-rule:nonzero;"/></g><g><path d="M715.15,337.54l9,6.67c0,0 7.66,4.63 5.66,13c-2,8.37 3,11 3,11c0.414,3.329 1.431,6.555 3,9.52c2.67,5.15 5,11 0,13.57c-5,2.57 -36.66,2.58 -36.66,2.58c0,0 2.33,-2.12 -5,-11.06c-7.33,-8.94 -15.67,-19.32 -16.34,-25.63c-0.67,-6.31 -9.66,-23.31 -8.66,-28c1,-4.69 -0.32,-21.82 -0.08,-26.23c0.24,-4.41 4.74,-16.6 8.74,-15.52c4,1.08 18.34,-7.11 27.67,11c9.33,18.11 9.67,39.1 9.67,39.1Z" style="fill-opacity:0.1;fill-rule:nonzero;"/></g><g><path d="M716.15,336.54l9,6.67c0,0 7.66,4.63 5.66,13c-2,8.37 3,11 3,11c0.414,3.329 1.431,6.555 3,9.52c2.67,5.15 5,11 0,13.57c-5,2.57 -36.66,2.58 -36.66,2.58c0,0 2.33,-2.12 -5,-11.06c-7.33,-8.94 -15.67,-19.32 -16.34,-25.63c-0.67,-6.31 -9.66,-23.31 -8.66,-28c1,-4.69 -0.32,-21.82 -0.08,-26.23c0.24,-4.41 4.74,-16.6 8.74,-15.52c4,1.08 18.34,-7.11 27.67,11c9.33,18.11 9.67,39.1 9.67,39.1Z" style="fill:#ff718d;fill-rule:nonzero;"/></g><g><path d="M430.22,233.03c-3.087,4.329 -5.433,9.141 -6.94,14.24c-5.9,19 -2.31,40.26 -2.31,40.26l-29.5,-13.5c0,0 -24,-21 -10.5,-30.75c4.523,-3.093 8.059,-7.427 10.18,-12.48c1.282,-3.001 1.82,-6.267 1.57,-9.52c-0.25,-3.253 52.5,-8.75 37.5,11.75Z" style="fill:#d38884;fill-rule:nonzero;"/></g><g><path d="M430.22,233.03c-3.087,4.329 -5.433,9.141 -6.94,14.24l-0.81,0c-12.506,0 -24.238,-6.173 -31.32,-16.48c1.282,-3.001 1.82,-6.267 1.57,-9.52c-0.25,-3.253 52.5,-8.74 37.5,11.76Z" style="fill-opacity:0.1;fill-rule:nonzero;"/></g><g><path d="M460.47,208.28l0,0.049c0,20.846 -17.154,38 -38,38c-16.972,0 -31.984,-11.371 -36.58,-27.709c-0.942,-3.349 -1.42,-6.812 -1.42,-10.291c0,-20.846 17.154,-38 38,-38c20.828,0 37.973,17.123 38,37.951Z" style="fill:#d38884;fill-rule:nonzero;"/></g><g><path d="M460.47,208.28c0.006,4.455 -0.772,8.876 -2.3,13.06l-0.06,-0c-2.66,-1.27 -4.74,-3.47 -6.74,-5.63l-9.24,-9.93c-1.86,-2 -4,-4.16 -6.79,-4.19c-1.37,-0 -2.82,0.51 -4.05,-0.09c-1.23,-0.6 -1.74,-2.2 -2.32,-3.51c-1.952,-3.977 -6.03,-6.492 -10.46,-6.45c-2.22,0 -4.16,0.36 -5.31,2.26c-1.5,2.5 -2.59,5 -4.77,7c-2.361,2.377 -5.663,3.581 -9,3.28c-0.804,-0.264 -1.683,-0.188 -2.43,0.21c-0.358,0.347 -0.596,0.799 -0.68,1.29c-0.65,2.55 -0.46,5.24 -0.91,7.83c-0.45,2.59 -1.82,5.32 -4.32,6.15c-1.788,0.475 -3.698,0.106 -5.18,-1c-0.942,-3.349 -1.42,-6.812 -1.42,-10.291c0,-20.846 17.154,-38 38,-38c20.828,-0 37.973,17.123 38,37.951l-0.02,0.06Z" style="fill-opacity:0.1;fill-rule:nonzero;"/></g><g><path d="M428.97,196.95c0.58,1.32 1,2.88 2.32,3.52c1.32,0.64 2.68,0.08 4.05,0.09c2.74,-0 4.93,2.19 6.79,4.19l9.24,9.93c2,2.15 4.08,4.36 6.75,5.62c2.67,1.26 6.09,1.37 8.35,-0.52c2.26,-1.89 2.74,-5 2.19,-7.84c-0.55,-2.84 -2,-5.32 -3.24,-7.88c-1.24,-2.56 -2.36,-5.33 -2.12,-8.16c0.21,-2.61 1.52,-5 2.64,-7.33c2.59,-5.47 4.26,-11.93 1.92,-17.51c-1.65,-3.91 -5,-6.8 -8.49,-9.24c-2.34,-1.64 -5,-3.21 -7.84,-3.15c-3.38,0.07 -6.33,2.38 -9.68,2.86c-2.163,0.214 -4.346,-0.06 -6.39,-0.8c-4.66,-1.48 -9,-4 -13.64,-5.41c-4.484,-1.404 -9.211,-1.857 -13.88,-1.33c-2,0.22 -4,0.67 -5.39,2.05c-1.39,1.38 -1.89,3.54 -2.65,5.42c-1.167,2.858 -3.145,5.313 -5.69,7.06c-2.79,1.9 -6.12,2.85 -9,4.55c-2.88,1.7 -5.59,4.55 -5.49,7.93c0.179,1.365 0.426,2.72 0.74,4.06c0.257,3.083 -0.594,6.158 -2.4,8.67c-1.83,2.82 -4.43,5.82 -3.61,9.08c0.58,2.31 2.69,3.82 4.26,5.61c1.89,2.16 3.05,4.88 4.88,7.1c1.83,2.22 4.79,4 7.52,3c2.5,-0.82 3.87,-3.55 4.32,-6.14c0.45,-2.59 0.26,-5.28 0.91,-7.83c0.09,-0.492 0.327,-0.945 0.68,-1.3c0.65,-0.53 1.6,-0.32 2.43,-0.2c3.337,0.301 6.639,-0.903 9,-3.28c2.18,-2 3.27,-4.54 4.78,-7c1.14,-1.89 3.08,-2.26 5.3,-2.25c4.418,-0.036 8.484,2.469 10.44,6.43Z" style="fill:#1e1637;fill-rule:nonzero;"/></g><g opacity="0.1"><g><path d="M380.42,182.11c-0.13,-0.91 -0.39,-1.8 -0.56,-2.7c-0.131,0.537 -0.192,1.088 -0.18,1.64c0.15,1.294 0.384,2.577 0.7,3.84c0.138,-0.921 0.152,-1.856 0.04,-2.78Z" style="fill-rule:nonzero;"/></g><g><path d="M465.94,185.57c-1.12,2.36 -2.43,4.72 -2.64,7.33c-0.065,0.771 -0.035,1.547 0.09,2.31c0.528,-2.324 1.387,-4.56 2.55,-6.64c1.94,-4.1 3.36,-8.76 3,-13.18c-0.384,3.545 -1.4,6.993 -3,10.18Z" style="fill-rule:nonzero;"/></g><g><path d="M466.47,216.78c-2.26,1.89 -5.69,1.78 -8.36,0.52c-2.67,-1.26 -4.74,-3.47 -6.74,-5.62l-9.24,-9.93c-1.86,-2 -4,-4.16 -6.79,-4.19c-1.37,0 -2.82,0.51 -4.05,-0.09c-1.23,-0.6 -1.74,-2.2 -2.32,-3.52c-1.956,-3.972 -6.033,-6.481 -10.46,-6.44c-2.22,0 -4.16,0.36 -5.31,2.25c-1.5,2.51 -2.59,5 -4.77,7c-2.361,2.377 -5.663,3.581 -9,3.28c-0.83,-0.12 -1.78,-0.33 -2.43,0.2c-0.356,0.352 -0.594,0.807 -0.68,1.3c-0.65,2.55 -0.46,5.24 -0.91,7.83c-0.45,2.59 -1.82,5.32 -4.32,6.14c-2.73,0.91 -5.69,-0.83 -7.52,-3c-1.83,-2.17 -3,-4.94 -4.89,-7.1c-1.52,-1.74 -3.55,-3.23 -4.19,-5.42c-0.27,0.915 -0.291,1.885 -0.06,2.81c0.57,2.31 2.69,3.82 4.25,5.61c1.9,2.16 3.06,4.88 4.89,7.1c1.83,2.22 4.79,4 7.52,3c2.5,-0.82 3.87,-3.55 4.32,-6.14c0.45,-2.59 0.26,-5.28 0.91,-7.83c0.086,-0.493 0.324,-0.948 0.68,-1.3c0.65,-0.53 1.6,-0.32 2.43,-0.2c3.337,0.301 6.639,-0.903 9,-3.28c2.18,-2 3.27,-4.54 4.77,-7c1.15,-1.89 3.09,-2.26 5.31,-2.25c4.427,-0.041 8.504,2.468 10.46,6.44c0.58,1.32 1,2.88 2.32,3.52c1.32,0.64 2.68,0.08 4.05,0.09c2.74,0 4.93,2.19 6.79,4.19l9.24,9.93c2,2.15 4.08,4.36 6.74,5.62c2.66,1.26 6.1,1.37 8.36,-0.52c2,-1.72 2.65,-4.67 2.26,-7.34c-0.207,1.671 -1.009,3.213 -2.26,4.34Z" style="fill-rule:nonzero;"/></g></g><g><path d="M358.64,771.28l-1.17,24.83c0,0 36.17,-0.5 42.33,2.67c6.16,3.17 43.67,3 43.67,3c0,0 17.33,-6.5 7.67,-13.17c-9.66,-6.67 -27,-7.33 -27,-7.33c0,0 -14.34,-19.67 -17,-20.5c-2.66,-0.83 -7.5,-5.5 -10.5,0.83c-3,6.33 -11.3,12.67 -11.3,12.67l-26.7,-3Z" style="fill:#4c4981;fill-rule:nonzero;"/></g><g><path d="M440.47,529.28c-4.33,18.33 -23.67,98.33 -23.67,98.33c-0,0 -6.66,6.34 -6.66,13.67c0,7.33 -4.34,15 -4.34,15c-0,0 2.34,72 -3.33,90.67c-5.46,18 -0.41,17.1 0,17l-16.28,13.32l-30,0.33c0,0 1.33,-23 2.33,-25c1,-2 8,-12.66 3.67,-19.66c-4.33,-7 1.33,-77.34 6,-86.34c4.67,-9 0,-32 0,-32c-2.283,5.584 -3.959,11.398 -5,17.34c-1.34,8.66 -12.34,22 -12.34,23.66c-0,22.79 -28,76.67 -28,76.67c-0,0 -10,34 -7.33,40.33c2.67,6.33 -2.67,13 -6.33,11.34c-3.66,-1.66 -33,0 -33,0c-0,0 -0.67,-20 -0,-21.67c0.67,-1.67 7.66,-8.67 7.66,-8.67c-2.33,-18.33 14,-91 23.67,-101.33c9.67,-10.33 11.62,-31.66 11.62,-31.66c-0,-0 9,1.34 5.85,-3c-3.15,-4.34 7.15,-26.66 7.15,-26.66c-0,-0 -3.34,-31.34 -0,-39.67c2.148,-5.511 3.056,-11.428 2.66,-17.33c-0,-2.34 0.34,-19.34 2.17,-23.34c1.83,-4 -0.17,-14.66 -0,-20.33c0.13,-4.37 0.06,-13.9 -0,-18l-0,-2l2.5,-15.67l11.33,-29.33l41.34,9.67l31,6c-0,-0 17.66,18.33 22.66,31.66c0.605,1.67 1.047,3.395 1.32,5.15c2.29,13.97 -2.78,35.35 -6.65,51.52Z" style="fill:#85abd5;fill-rule:nonzero;"/></g><g><path d="M296.47,775.78c0,0 -20.33,-1.84 -22.67,7.33c-2.34,9.17 -5.16,26.17 -5.16,26.17c0,0 -3.17,9.5 17.33,10.33c20.5,0.83 20.17,-2.67 20.17,-2.67c0,0 -0.34,-16.35 0.66,-19.26c1,-2.91 1,-14.08 1,-14.08c-0,0 -3.46,-11.32 -11.33,-7.82Z" style="fill:#4c4981;fill-rule:nonzero;"/></g><g><path d="M447.12,477.76c-0.27,7.91 -0.65,14.52 -0.65,14.52c0,0 -14.36,0.25 -14.06,-38.25c-0,0 -3.19,29.25 -6.69,30c-3.5,0.75 -5,-4.5 -17,-3.75c-12,0.75 -27.25,-5.25 -29,-11.25c-1.75,-6 -23,-22.5 -26.25,-21.75c-3.25,0.75 -4,13 -4,13c0,0 -10,7.22 -12.48,12l0,-2l2.5,-15.67l11.33,-29.33l41.34,9.67l31,6c0,0 17.66,18.33 22.66,31.66c0.599,1.671 1.034,3.395 1.3,5.15Z" style="fill-opacity:0.1;fill-rule:nonzero;"/></g><g><path d="M446.47,490.28c0,-0 -14.36,0.25 -14.06,-38.25c-0,0 -3.19,29.25 -6.69,30c-3.5,0.75 -5,-4.5 -17,-3.75c-12,0.75 -27.25,-5.25 -29,-11.25c-1.75,-6 -23,-22.5 -26.25,-21.75c-3.25,0.75 -4,13 -4,13c0,0 -10,7.25 -12.5,12c-2.5,4.75 -1.75,-8.75 0,-17.5c1.75,-8.75 1,-26.5 0,-34.25c-1,-7.75 -5,-27.5 -1.61,-41.25c3.39,-13.75 -1.32,-44 -1.32,-44c-0,0 0.32,-19.75 -0,-32c-0.32,-12.25 -14.07,-17 -7.07,-30c7,-13 25.25,-28.5 25.25,-28.5c0,0 12.75,1.5 18.25,-3.25c0.558,-0.476 1.161,-0.898 1.8,-1.26c6.15,-3.53 17,-3.68 17,-3.68l18.48,18.89c-0,0 9.09,19.3 9.75,24c0.023,0.203 0.023,0.407 -0,0.61l3.17,-18.57c-0,0 13.3,5 13.3,12.26l-0,11.75c-0,0 3,12.75 6,18.75c3,6 -1.5,64.75 -1.5,64.75c-0,0 1.75,18.25 0.25,25.75c-1.5,7.5 2.28,23.25 2.28,23.25c-0,0 3.47,28.5 5.47,34c2,5.5 -0,40.25 -0,40.25Z" style="fill:#d7bc6e;fill-rule:nonzero;"/></g><g><path d="M406.97,528.11c0,0 -4.67,26.83 -13,38.83c-8.33,12 -21.33,38.84 -21.33,38.84" style="fill-opacity:0.1;fill-rule:nonzero;"/></g><path d="M420.1,202.45l0,19.33c0,1.104 -0.896,2 -2,2l-53.29,-0c-1.104,-0 -2,-0.896 -2,-2l0,-19.33c0,-1.104 0.896,-2 2,-2l53.29,-0c1.104,-0 2,0.896 2,2Z" style="fill:#3a3768;"/><circle cx="408.92" cy="212.12" r="2.42" style="fill:#e6e8ec;"/><g><path d="M361.97,291.03c0,0 -19.67,6 -26.5,1.5c-6.83,-4.5 -19.75,-24 -19.75,-24c0,0 3.73,-27.45 7,-28.45c3.27,-1 1.6,26 1.6,26c0,0 4.67,10.42 6.42,10.42c1.75,-0 13.75,-1.5 15.25,-4.5c1.5,-3 4,-21.5 4,-21.5l2,-9l10,6.25l7.75,19.21l-7.77,24.07Z" style="fill:#ecc75d;fill-rule:nonzero;"/></g><g><path d="M335.87,277.55c-8.43,0.62 -15.39,-6.58 -15,-15c0.44,-9.42 1.25,-22.36 2.34,-24.24c1.75,-3 18.25,-25 18.25,-25c0,0 52.25,-27.75 46.75,-6c-5.5,21.75 -27,24.5 -27,24.5l-9.75,-5l-0.25,31.5c0,0 -2.19,18.29 -15.34,19.24Z" style="fill:#d38884;fill-rule:nonzero;"/></g><g><path d="M340.47,592.28c0,0 -3,6.66 8,8.66c11,2 -8,-8.66 -8,-8.66Z" style="fill-opacity:0.1;fill-rule:nonzero;"/></g><g><path d="M327.47,619.61c0,0 1,13 6.67,15.67c5.67,2.67 -6.67,-15.67 -6.67,-15.67Z" style="fill-opacity:0.1;fill-rule:nonzero;"/></g><g><path d="M372.64,650.94c0,0 -2.17,6.67 3.16,10.34c5.33,3.67 -3.16,-10.34 -3.16,-10.34Z" style="fill-opacity:0.1;fill-rule:nonzero;"/></g><g><path d="M372.64,642.61c0,0 -0.84,7.67 8.5,10" style="fill-opacity:0.1;fill-rule:nonzero;"/></g><g><path d="M368.8,680.61c-0,0 6.15,8 8.08,7.33c1.93,-0.67 -8.08,-7.33 -8.08,-7.33Z" style="fill-opacity:0.1;fill-rule:nonzero;"/></g><g><path d="M417.47,781.61c0,0 -20.33,-1 -15.33,4c5,5 15.33,-2 15.33,-2l0,-2Z" style="fill-opacity:0.1;fill-rule:nonzero;"/></g><g><path d="M278.14,797.42c0,-0 25.66,-4.52 24,-0c-1.66,4.52 -24,-0 -24,-0Z" style="fill-opacity:0.1;fill-rule:nonzero;"/></g><g><path d="M338.47,303.61c0,0 16.6,2.33 23.3,-2.33c6.7,-4.66 8.7,3 4,6.66c-4.7,3.66 -27.3,-4.33 -27.3,-4.33Z" style="fill-opacity:0.1;fill-rule:nonzero;"/></g><g><path d="M340.8,323.61c5.34,0.67 4.16,7 13.75,1.33c9.59,-5.67 -13.75,-1.33 -13.75,-1.33Z" style="fill-opacity:0.1;fill-rule:nonzero;"/></g><g><path d="M342.72,348.61c0,0 22.58,3.67 27,-7.33" style="fill-opacity:0.1;fill-rule:nonzero;"/></g><g><path d="M417.47,278.48l0,0.8l-45.2,-40c6.15,-3.53 17,-3.68 17,-3.68l18.48,18.89c-0,0 9.06,19.29 9.72,23.99Z" style="fill-opacity:0.1;fill-rule:nonzero;"/></g><g><path d="M417.47,277.48l0,0.8l-45.2,-40c6.15,-3.53 17,-3.68 17,-3.68l18.48,18.89c-0,0 9.06,19.29 9.72,23.99Z" style="fill:#ecc75d;fill-rule:nonzero;"/></g><g><path d="M335.8,291.28c-0,0 26.67,-2.29 27,-24.15c-0,-0.02 4.54,24.48 -27,24.15Z" style="fill-opacity:0.1;fill-rule:nonzero;"/></g><circle cx="417.97" cy="278.28" r="2.13" style="fill:#fff;"/><defs><linearGradient id="_Linear1" x1="0" y1="0" x2="1" y2="0" gradientUnits="userSpaceOnUse" gradientTransform="matrix(478.88,0,0,478.88,268.46,484.75)"><stop offset="0" style="stop-color:#808080;stop-opacity:0.25"/><stop offset="0.54" style="stop-color:#808080;stop-opacity:0.12"/><stop offset="1" style="stop-color:#808080;stop-opacity:0.1"/></linearGradient></defs></svg>